G04 MADE WITH FRITZING*
G04 WWW.FRITZING.ORG*
G04 DOUBLE SIDED*
G04 HOLES PLATED*
G04 CONTOUR ON CENTER OF CONTOUR VECTOR*
%ASAXBY*%
%FSLAX23Y23*%
%MOIN*%
%OFA0B0*%
%SFA1.0B1.0*%
%ADD10C,0.049370*%
%ADD11C,0.088000*%
%ADD12C,0.085000*%
%ADD13C,0.093307*%
%ADD14C,0.150000*%
%ADD15C,0.080925*%
%ADD16C,0.080866*%
%ADD17C,0.135984*%
%ADD18C,0.080000*%
%ADD19C,0.092000*%
%ADD20R,0.088000X0.088000*%
%ADD21R,0.085000X0.085000*%
%ADD22R,0.093307X0.093307*%
%ADD23R,0.092000X0.092000*%
%LNMASK0*%
G90*
G70*
G54D10*
X1364Y516D03*
X644Y516D03*
G54D11*
X1726Y612D03*
X1826Y612D03*
X1926Y612D03*
G54D10*
X2610Y1358D03*
X1111Y580D03*
X1214Y649D03*
X3014Y527D03*
X3247Y736D03*
G54D12*
X3746Y364D03*
X3646Y364D03*
G54D10*
X2367Y509D03*
X2581Y83D03*
X2241Y353D03*
X2505Y248D03*
G54D12*
X1569Y1298D03*
X1369Y1298D03*
G54D13*
X3748Y651D03*
X3748Y851D03*
X3748Y1051D03*
X3748Y1251D03*
X3748Y1451D03*
X3748Y1651D03*
X194Y1652D03*
X194Y1452D03*
G54D14*
X465Y309D03*
X225Y309D03*
X345Y119D03*
G54D15*
X3291Y1334D03*
G54D16*
X3291Y1141D03*
G54D12*
X1810Y1140D03*
X1810Y1440D03*
X1910Y1140D03*
X1910Y1440D03*
X2010Y1140D03*
X2010Y1440D03*
X2110Y1140D03*
X2110Y1440D03*
X2210Y1140D03*
X2210Y1440D03*
X2310Y1140D03*
X2310Y1440D03*
X2410Y1140D03*
X2410Y1440D03*
X2510Y1140D03*
X2510Y1440D03*
X2610Y1140D03*
X2610Y1440D03*
X2710Y1140D03*
X2710Y1440D03*
X2810Y1140D03*
X2810Y1440D03*
X2910Y1140D03*
X2910Y1440D03*
X3010Y1140D03*
X3010Y1440D03*
X3110Y1140D03*
X3110Y1440D03*
X3234Y916D03*
X3134Y916D03*
X3034Y916D03*
X2934Y916D03*
X2834Y916D03*
X2734Y916D03*
X2634Y916D03*
X2534Y916D03*
X2434Y916D03*
X2334Y916D03*
X2234Y916D03*
X2134Y916D03*
X2034Y916D03*
X1934Y916D03*
X1834Y916D03*
X1734Y916D03*
X2918Y625D03*
X2918Y131D03*
X3379Y126D03*
X3141Y687D03*
X3374Y625D03*
X2219Y638D03*
X2219Y144D03*
X2680Y138D03*
X2442Y699D03*
X2675Y638D03*
G54D17*
X3797Y140D03*
G54D11*
X1843Y317D03*
X1843Y217D03*
X407Y762D03*
X407Y662D03*
G54D18*
X3393Y973D03*
X3393Y873D03*
G54D12*
X909Y448D03*
X909Y192D03*
X732Y448D03*
X732Y192D03*
X1263Y452D03*
X1263Y196D03*
X1086Y452D03*
X1086Y196D03*
X1599Y452D03*
X1599Y196D03*
X1422Y452D03*
X1422Y196D03*
G54D18*
X3237Y1510D03*
X3337Y1510D03*
G54D12*
X526Y1498D03*
X626Y1498D03*
X726Y1498D03*
X1138Y1497D03*
X1238Y1497D03*
X1338Y1497D03*
X831Y1496D03*
X931Y1496D03*
X1031Y1496D03*
G54D19*
X2796Y239D03*
X2796Y537D03*
G54D12*
X227Y1166D03*
X227Y1066D03*
X1445Y1493D03*
X1545Y1493D03*
X1645Y1493D03*
G54D19*
X2079Y235D03*
X2079Y533D03*
G54D12*
X870Y614D03*
X870Y914D03*
X770Y614D03*
X770Y914D03*
X1699Y1384D03*
X1699Y1084D03*
X589Y1314D03*
X589Y1014D03*
X774Y1010D03*
X774Y1310D03*
X681Y1012D03*
X681Y1312D03*
X872Y1016D03*
X872Y1316D03*
X1576Y641D03*
X1576Y941D03*
X1469Y644D03*
X1469Y944D03*
X1209Y914D03*
X1209Y1214D03*
X658Y614D03*
X658Y914D03*
G54D17*
X113Y699D03*
G54D20*
X1726Y612D03*
G54D21*
X3746Y364D03*
G54D22*
X3748Y651D03*
X194Y1652D03*
G54D21*
X1810Y1140D03*
X3234Y915D03*
X2918Y625D03*
X2219Y637D03*
G54D20*
X1843Y317D03*
X407Y762D03*
G54D23*
X2796Y238D03*
G54D21*
X227Y1166D03*
G54D23*
X2079Y234D03*
G04 End of Mask0*
M02*