; NON-PLATED HOLES START AT T1
; THROUGH (PLATED) HOLES START AT T100
M48
INCH
T1C0.125984
T100C0.100000
T101C0.043307
T102C0.031555
T103C0.015748
T104C0.035000
T105C0.042000
T106C0.030000
T107C0.031496
T108C0.038000
%
T1
X001131Y006985
X037965Y001403
T100
X003452Y001185
X002252Y003085
X004652Y003085
T101
X001936Y016521
X037481Y016512
X001936Y014521
X037481Y008512
X037481Y014512
X037481Y006512
X037481Y012512
X037481Y010512
T102
X032911Y013340
T103
X011111Y005799
X025048Y002482
X030138Y005272
X013644Y005160
X025814Y000827
X026103Y013579
X022407Y003531
X032472Y007355
X023666Y005086
X006444Y005160
X012138Y006494
T104
X024337Y009155
X029104Y014400
X012380Y014973
X007317Y001923
X026747Y006375
X014687Y009444
X007703Y006142
X033737Y006251
X023104Y011400
X016447Y014929
X015986Y004516
X029181Y006251
X021104Y014400
X018337Y009155
X030104Y014400
X027337Y009155
X033789Y001258
X006579Y009138
X026104Y011400
X007740Y013096
X008703Y009142
X024104Y014400
X015757Y009407
X015685Y012976
X005888Y010142
X007259Y014979
X029104Y011400
X018104Y014400
X022337Y009155
X027104Y014400
X014687Y006444
X031337Y009155
X036463Y003642
X008313Y014957
X021104Y011400
X026800Y001382
X014215Y001957
X014447Y014929
X030104Y011400
X006579Y006138
X025337Y009155
X013380Y014973
X007740Y010096
X008703Y006142
X024104Y011400
X012092Y009142
X015757Y006407
X022104Y014400
X013685Y012976
X019337Y009155
X012092Y012142
X031104Y014400
X009088Y004482
X028337Y009155
X005259Y014979
X018104Y011400
X027104Y011400
X020337Y009155
X025104Y014400
X022192Y001435
X006814Y013123
X019104Y014400
X010861Y001960
X014215Y004516
X023337Y009155
X028104Y014400
X011380Y014973
X032337Y009155
X037463Y003642
X009313Y014957
X022104Y011400
X016990Y013836
X009088Y001923
X008722Y013160
X015447Y014929
X020104Y014400
X031104Y011400
X017337Y009155
X029181Y001311
X031405Y006867
X012632Y001960
X026337Y009155
X010313Y014957
X015986Y001957
X025104Y011400
X024415Y006990
X007703Y009142
X007317Y004482
X023104Y014400
X006814Y010123
X029337Y009155
X006259Y014979
X010861Y004519
X019104Y011400
X028104Y011400
X021337Y009155
X026104Y014400
X002266Y011656
X022192Y006375
X030337Y009155
X016990Y010836
X008722Y010160
X005888Y013142
X020104Y011400
X012632Y004519
X002266Y010656
T105
X020787Y002346
X027962Y005369
X027962Y002389
X020787Y005326
T106
X033929Y008727
X032369Y015102
X033371Y015102
X033929Y009729
T107
X032912Y011409
T108
X018427Y002166
X004074Y006623
X018427Y003166
X004074Y007623
X019259Y006123
X018259Y006123
X017259Y006123
T00
M30
