; NON-PLATED HOLES START AT T1
; THROUGH (PLATED) HOLES START AT T100
M48
INCH
T1C0.125984
T2C0.130000
T100C0.040000
T101C0.031555
T102C0.035000
T103C0.042000
T104C0.031496
T105C0.031497
T106C0.027559
T107C0.032000
T108C0.038000
%
T1
X026562Y002522
X003323Y011276
T2
X013401Y003861
T100
X001847Y005089
X019301Y002861
X037397Y003127
X019301Y003861
X037397Y005095
X001847Y003120
X037397Y001158
X019301Y004861
X001847Y001151
T101
X030553Y006914
T102
X027609Y013544
X007340Y016066
X038564Y007738
X021609Y010544
X030609Y010544
X038564Y009510
X024609Y010544
X022609Y013544
X007562Y011985
X031609Y013544
X036009Y015299
X027609Y010544
X021469Y007763
X025609Y013544
X036009Y017071
X013216Y014182
X035562Y006827
X035562Y014299
X019609Y013544
X038568Y015299
X028609Y013544
X038562Y006827
X015858Y013614
X022609Y010544
X020609Y013544
X010657Y014182
X031609Y010544
X038562Y014299
X038568Y017071
X012932Y015726
X025609Y010544
X023609Y013544
X006129Y001506
X032609Y013544
X008353Y007061
X019609Y010544
X028609Y010544
X026609Y013544
X006340Y016066
X015858Y010614
X009932Y015726
X015729Y006948
X020609Y010544
X004962Y009394
X004025Y007596
X021062Y002262
X010738Y001453
X029609Y013544
X023609Y010544
X006590Y010411
X032609Y010544
X021609Y013544
X004962Y011394
X013216Y012411
X030609Y013544
X024062Y002262
X038554Y011460
X038554Y013232
X036005Y007738
X035618Y010494
X006129Y006446
X009590Y010411
X026609Y010544
X004962Y010394
X024609Y013544
X013729Y006948
X036005Y009510
X007562Y014985
X038618Y010494
X010657Y012411
X002025Y007596
X029609Y010544
X023469Y007763
X010685Y006446
X035995Y011460
X035995Y013232
T103
X008552Y008522
X005572Y008522
T104
X028622Y006914
T105
X001664Y010157
X001664Y009173
T106
X026579Y007907
X032462Y006888
X032462Y007888
X026579Y006907
T107
X022488Y003788
X023488Y003788
X021488Y006788
X017019Y007002
X022488Y006788
X017519Y007752
X023488Y006788
X018019Y007002
X021488Y003788
T108
X004998Y017019
X029090Y016272
X004998Y014019
X026090Y016272
X025090Y016272
X023090Y016272
X022090Y016272
X004998Y016019
X004998Y013019
X028090Y016272
X015840Y015689
X027090Y016272
X004998Y015019
X024090Y016272
X015840Y014689
T00
M30
