G04 MADE WITH FRITZING*
G04 WWW.FRITZING.ORG*
G04 DOUBLE SIDED*
G04 HOLES PLATED*
G04 CONTOUR ON CENTER OF CONTOUR VECTOR*
%ASAXBY*%
%FSLAX23Y23*%
%MOIN*%
%OFA0B0*%
%SFA1.0B1.0*%
%ADD10C,0.085000*%
%ADD11C,0.135984*%
%ADD12C,0.092000*%
%ADD13C,0.088000*%
%ADD14C,0.072992*%
%ADD15C,0.084000*%
%ADD16C,0.073000*%
%ADD17C,0.080925*%
%ADD18C,0.080866*%
%ADD19C,0.075000*%
%ADD20C,0.070000*%
%ADD21C,0.140000*%
%ADD22C,0.090000*%
%ADD23R,0.085000X0.085000*%
%ADD24R,0.092000X0.092000*%
%ADD25R,0.088000X0.088000*%
%ADD26R,0.072992X0.072992*%
%ADD27R,0.090000X0.090000*%
%ADD28R,0.001000X0.001000*%
%LNMASK0*%
G90*
G70*
G54D10*
X613Y645D03*
X613Y151D03*
X1074Y145D03*
X835Y706D03*
X1069Y645D03*
X634Y1607D03*
X734Y1607D03*
G54D11*
X332Y1128D03*
X2656Y252D03*
G54D12*
X855Y852D03*
X557Y852D03*
G54D10*
X756Y1199D03*
X756Y1499D03*
G54D13*
X1584Y1569D03*
X1584Y1469D03*
G54D10*
X1586Y1061D03*
X1586Y1361D03*
X1322Y1241D03*
X1066Y1241D03*
X1322Y1418D03*
X1066Y1418D03*
G54D13*
X500Y1702D03*
X500Y1602D03*
X500Y1502D03*
X500Y1402D03*
X500Y1302D03*
G54D10*
X993Y1573D03*
X1293Y1573D03*
X3556Y1430D03*
X3856Y1430D03*
X3562Y1049D03*
X3862Y1049D03*
X3556Y683D03*
X3856Y683D03*
X496Y939D03*
X496Y1039D03*
X496Y1139D03*
X659Y1041D03*
X959Y1041D03*
X1373Y695D03*
X1573Y695D03*
X2147Y776D03*
X2347Y776D03*
X203Y760D03*
X403Y760D03*
G54D14*
X166Y917D03*
X166Y1016D03*
G54D15*
X1802Y700D03*
X1752Y775D03*
X1702Y700D03*
G54D13*
X2209Y1627D03*
X2309Y1627D03*
X2409Y1627D03*
X2509Y1627D03*
X2609Y1627D03*
X2709Y1627D03*
X2809Y1627D03*
X2909Y1627D03*
X2209Y1627D03*
X2309Y1627D03*
X2409Y1627D03*
X2509Y1627D03*
X2609Y1627D03*
X2709Y1627D03*
X2809Y1627D03*
X2909Y1627D03*
G54D10*
X3856Y774D03*
X3601Y774D03*
X3856Y951D03*
X3601Y951D03*
X3855Y1146D03*
X3600Y1146D03*
X3855Y1323D03*
X3600Y1323D03*
X3857Y1530D03*
X3601Y1530D03*
X3857Y1707D03*
X3601Y1707D03*
G54D16*
X2349Y679D03*
X2249Y679D03*
X2149Y679D03*
X2149Y379D03*
X2249Y379D03*
X2349Y379D03*
G54D10*
X2106Y226D03*
X2406Y226D03*
X1961Y1054D03*
X1961Y1354D03*
X2061Y1054D03*
X2061Y1354D03*
X2161Y1054D03*
X2161Y1354D03*
X2261Y1054D03*
X2261Y1354D03*
X2361Y1054D03*
X2361Y1354D03*
X2461Y1054D03*
X2461Y1354D03*
X2561Y1054D03*
X2561Y1354D03*
X2661Y1054D03*
X2661Y1354D03*
X2761Y1054D03*
X2761Y1354D03*
X2861Y1054D03*
X2861Y1354D03*
X2961Y1054D03*
X2961Y1354D03*
X3061Y1054D03*
X3061Y1354D03*
X3161Y1054D03*
X3161Y1354D03*
X3261Y1054D03*
X3261Y1354D03*
G54D17*
X3055Y691D03*
G54D18*
X2862Y691D03*
G54D19*
X3246Y789D03*
X3246Y689D03*
X2658Y791D03*
X2658Y691D03*
G54D20*
X1930Y286D03*
X1930Y386D03*
X1930Y486D03*
G54D21*
X1340Y386D03*
G54D22*
X185Y509D03*
X185Y312D03*
X185Y115D03*
X3740Y116D03*
X3740Y313D03*
X3740Y510D03*
G54D23*
X613Y644D03*
X634Y1607D03*
G54D24*
X856Y852D03*
G54D25*
X1584Y1569D03*
X500Y1702D03*
G54D26*
X166Y917D03*
G54D25*
X2209Y1627D03*
X2209Y1627D03*
G54D23*
X1961Y1054D03*
G54D27*
X185Y509D03*
X3740Y116D03*
G54D28*
X1895Y522D02*
X1964Y522D01*
X1891Y521D02*
X1969Y521D01*
X1888Y520D02*
X1971Y520D01*
X1886Y519D02*
X1974Y519D01*
X1884Y518D02*
X1976Y518D01*
X1882Y517D02*
X1977Y517D01*
X1881Y516D02*
X1979Y516D01*
X1879Y515D02*
X1980Y515D01*
X1878Y514D02*
X1981Y514D01*
X1877Y513D02*
X1982Y513D01*
X1876Y512D02*
X1984Y512D01*
X1875Y511D02*
X1985Y511D01*
X1874Y510D02*
X1985Y510D01*
X1873Y509D02*
X1986Y509D01*
X1872Y508D02*
X1987Y508D01*
X1872Y507D02*
X1988Y507D01*
X1871Y506D02*
X1988Y506D01*
X1870Y505D02*
X1989Y505D01*
X1870Y504D02*
X1990Y504D01*
X1869Y503D02*
X1990Y503D01*
X1869Y502D02*
X1925Y502D01*
X1934Y502D02*
X1991Y502D01*
X1868Y501D02*
X1922Y501D01*
X1937Y501D02*
X1991Y501D01*
X1868Y500D02*
X1920Y500D01*
X1939Y500D02*
X1992Y500D01*
X1867Y499D02*
X1919Y499D01*
X1940Y499D02*
X1992Y499D01*
X1867Y498D02*
X1918Y498D01*
X1941Y498D02*
X1992Y498D01*
X1867Y497D02*
X1917Y497D01*
X1942Y497D02*
X1993Y497D01*
X1866Y496D02*
X1916Y496D01*
X1943Y496D02*
X1993Y496D01*
X1866Y495D02*
X1916Y495D01*
X1943Y495D02*
X1993Y495D01*
X1866Y494D02*
X1915Y494D01*
X1944Y494D02*
X1993Y494D01*
X1866Y493D02*
X1915Y493D01*
X1944Y493D02*
X1994Y493D01*
X1866Y492D02*
X1915Y492D01*
X1945Y492D02*
X1994Y492D01*
X1865Y491D02*
X1915Y491D01*
X1945Y491D02*
X1994Y491D01*
X1865Y490D02*
X1914Y490D01*
X1945Y490D02*
X1994Y490D01*
X1865Y489D02*
X1914Y489D01*
X1945Y489D02*
X1994Y489D01*
X1865Y488D02*
X1914Y488D01*
X1945Y488D02*
X1994Y488D01*
X1865Y487D02*
X1914Y487D01*
X1945Y487D02*
X1994Y487D01*
X1865Y486D02*
X1914Y486D01*
X1945Y486D02*
X1994Y486D01*
X1865Y485D02*
X1914Y485D01*
X1945Y485D02*
X1994Y485D01*
X1865Y484D02*
X1915Y484D01*
X1945Y484D02*
X1994Y484D01*
X1866Y483D02*
X1915Y483D01*
X1945Y483D02*
X1994Y483D01*
X1866Y482D02*
X1915Y482D01*
X1944Y482D02*
X1994Y482D01*
X1866Y481D02*
X1915Y481D01*
X1944Y481D02*
X1993Y481D01*
X1866Y480D02*
X1916Y480D01*
X1943Y480D02*
X1993Y480D01*
X1866Y479D02*
X1916Y479D01*
X1943Y479D02*
X1993Y479D01*
X1867Y478D02*
X1917Y478D01*
X1942Y478D02*
X1993Y478D01*
X1867Y477D02*
X1918Y477D01*
X1941Y477D02*
X1992Y477D01*
X1867Y476D02*
X1919Y476D01*
X1940Y476D02*
X1992Y476D01*
X1868Y475D02*
X1920Y475D01*
X1939Y475D02*
X1992Y475D01*
X1868Y474D02*
X1922Y474D01*
X1937Y474D02*
X1991Y474D01*
X1869Y473D02*
X1925Y473D01*
X1934Y473D02*
X1991Y473D01*
X1869Y472D02*
X1990Y472D01*
X1870Y471D02*
X1990Y471D01*
X1870Y470D02*
X1989Y470D01*
X1871Y469D02*
X1988Y469D01*
X1871Y468D02*
X1988Y468D01*
X1872Y467D02*
X1987Y467D01*
X1873Y466D02*
X1986Y466D01*
X1874Y465D02*
X1986Y465D01*
X1875Y464D02*
X1985Y464D01*
X1876Y463D02*
X1984Y463D01*
X1877Y462D02*
X1983Y462D01*
X1878Y461D02*
X1981Y461D01*
X1879Y460D02*
X1980Y460D01*
X1880Y459D02*
X1979Y459D01*
X1882Y458D02*
X1977Y458D01*
X1884Y457D02*
X1976Y457D01*
X1885Y456D02*
X1974Y456D01*
X1888Y455D02*
X1972Y455D01*
X1890Y454D02*
X1969Y454D01*
X1895Y453D02*
X1965Y453D01*
X1895Y422D02*
X1964Y422D01*
X1891Y421D02*
X1969Y421D01*
X1888Y420D02*
X1972Y420D01*
X1886Y419D02*
X1974Y419D01*
X1884Y418D02*
X1976Y418D01*
X1882Y417D02*
X1977Y417D01*
X1880Y416D02*
X1979Y416D01*
X1879Y415D02*
X1980Y415D01*
X1878Y414D02*
X1981Y414D01*
X1877Y413D02*
X1983Y413D01*
X1876Y412D02*
X1984Y412D01*
X1875Y411D02*
X1985Y411D01*
X1874Y410D02*
X1985Y410D01*
X1873Y409D02*
X1986Y409D01*
X1872Y408D02*
X1987Y408D01*
X1872Y407D02*
X1988Y407D01*
X1871Y406D02*
X1988Y406D01*
X1870Y405D02*
X1989Y405D01*
X1870Y404D02*
X1990Y404D01*
X1869Y403D02*
X1990Y403D01*
X1869Y402D02*
X1925Y402D01*
X1934Y402D02*
X1991Y402D01*
X1868Y401D02*
X1922Y401D01*
X1937Y401D02*
X1991Y401D01*
X1868Y400D02*
X1920Y400D01*
X1939Y400D02*
X1992Y400D01*
X1867Y399D02*
X1919Y399D01*
X1940Y399D02*
X1992Y399D01*
X1867Y398D02*
X1918Y398D01*
X1941Y398D02*
X1992Y398D01*
X1867Y397D02*
X1917Y397D01*
X1942Y397D02*
X1993Y397D01*
X1866Y396D02*
X1916Y396D01*
X1943Y396D02*
X1993Y396D01*
X1866Y395D02*
X1916Y395D01*
X1943Y395D02*
X1993Y395D01*
X1866Y394D02*
X1915Y394D01*
X1944Y394D02*
X1993Y394D01*
X1866Y393D02*
X1915Y393D01*
X1944Y393D02*
X1994Y393D01*
X1866Y392D02*
X1915Y392D01*
X1945Y392D02*
X1994Y392D01*
X1865Y391D02*
X1915Y391D01*
X1945Y391D02*
X1994Y391D01*
X1865Y390D02*
X1914Y390D01*
X1945Y390D02*
X1994Y390D01*
X1865Y389D02*
X1914Y389D01*
X1945Y389D02*
X1994Y389D01*
X1865Y388D02*
X1914Y388D01*
X1945Y388D02*
X1994Y388D01*
X1865Y387D02*
X1914Y387D01*
X1945Y387D02*
X1994Y387D01*
X1865Y386D02*
X1914Y386D01*
X1945Y386D02*
X1994Y386D01*
X1865Y385D02*
X1914Y385D01*
X1945Y385D02*
X1994Y385D01*
X1865Y384D02*
X1915Y384D01*
X1945Y384D02*
X1994Y384D01*
X1866Y383D02*
X1915Y383D01*
X1945Y383D02*
X1994Y383D01*
X1866Y382D02*
X1915Y382D01*
X1944Y382D02*
X1994Y382D01*
X1866Y381D02*
X1915Y381D01*
X1944Y381D02*
X1993Y381D01*
X1866Y380D02*
X1916Y380D01*
X1943Y380D02*
X1993Y380D01*
X1866Y379D02*
X1916Y379D01*
X1943Y379D02*
X1993Y379D01*
X1867Y378D02*
X1917Y378D01*
X1942Y378D02*
X1993Y378D01*
X1867Y377D02*
X1918Y377D01*
X1941Y377D02*
X1992Y377D01*
X1867Y376D02*
X1919Y376D01*
X1940Y376D02*
X1992Y376D01*
X1868Y375D02*
X1920Y375D01*
X1939Y375D02*
X1992Y375D01*
X1868Y374D02*
X1922Y374D01*
X1937Y374D02*
X1991Y374D01*
X1869Y373D02*
X1925Y373D01*
X1934Y373D02*
X1991Y373D01*
X1869Y372D02*
X1990Y372D01*
X1870Y371D02*
X1990Y371D01*
X1870Y370D02*
X1989Y370D01*
X1871Y369D02*
X1988Y369D01*
X1872Y368D02*
X1988Y368D01*
X1872Y367D02*
X1987Y367D01*
X1873Y366D02*
X1986Y366D01*
X1874Y365D02*
X1985Y365D01*
X1875Y364D02*
X1985Y364D01*
X1876Y363D02*
X1984Y363D01*
X1877Y362D02*
X1983Y362D01*
X1878Y361D02*
X1981Y361D01*
X1879Y360D02*
X1980Y360D01*
X1880Y359D02*
X1979Y359D01*
X1882Y358D02*
X1977Y358D01*
X1884Y357D02*
X1976Y357D01*
X1886Y356D02*
X1974Y356D01*
X1888Y355D02*
X1972Y355D01*
X1891Y354D02*
X1969Y354D01*
X1895Y353D02*
X1964Y353D01*
X1895Y322D02*
X1965Y322D01*
X1890Y321D02*
X1969Y321D01*
X1888Y320D02*
X1972Y320D01*
X1885Y319D02*
X1974Y319D01*
X1884Y318D02*
X1976Y318D01*
X1882Y317D02*
X1977Y317D01*
X1880Y316D02*
X1979Y316D01*
X1879Y315D02*
X1980Y315D01*
X1878Y314D02*
X1981Y314D01*
X1877Y313D02*
X1983Y313D01*
X1876Y312D02*
X1984Y312D01*
X1875Y311D02*
X1985Y311D01*
X1874Y310D02*
X1985Y310D01*
X1873Y309D02*
X1986Y309D01*
X1872Y308D02*
X1987Y308D01*
X1871Y307D02*
X1988Y307D01*
X1871Y306D02*
X1988Y306D01*
X1870Y305D02*
X1989Y305D01*
X1870Y304D02*
X1990Y304D01*
X1869Y303D02*
X1990Y303D01*
X1869Y302D02*
X1925Y302D01*
X1934Y302D02*
X1991Y302D01*
X1868Y301D02*
X1922Y301D01*
X1937Y301D02*
X1991Y301D01*
X1868Y300D02*
X1920Y300D01*
X1939Y300D02*
X1992Y300D01*
X1867Y299D02*
X1919Y299D01*
X1940Y299D02*
X1992Y299D01*
X1867Y298D02*
X1918Y298D01*
X1941Y298D02*
X1992Y298D01*
X1867Y297D02*
X1917Y297D01*
X1942Y297D02*
X1993Y297D01*
X1866Y296D02*
X1916Y296D01*
X1943Y296D02*
X1993Y296D01*
X1866Y295D02*
X1916Y295D01*
X1943Y295D02*
X1993Y295D01*
X1866Y294D02*
X1915Y294D01*
X1944Y294D02*
X1993Y294D01*
X1866Y293D02*
X1915Y293D01*
X1944Y293D02*
X1994Y293D01*
X1866Y292D02*
X1915Y292D01*
X1945Y292D02*
X1994Y292D01*
X1865Y291D02*
X1915Y291D01*
X1945Y291D02*
X1994Y291D01*
X1865Y290D02*
X1914Y290D01*
X1945Y290D02*
X1994Y290D01*
X1865Y289D02*
X1914Y289D01*
X1945Y289D02*
X1994Y289D01*
X1865Y288D02*
X1914Y288D01*
X1945Y288D02*
X1994Y288D01*
X1865Y287D02*
X1914Y287D01*
X1945Y287D02*
X1994Y287D01*
X1865Y286D02*
X1914Y286D01*
X1945Y286D02*
X1994Y286D01*
X1865Y285D02*
X1914Y285D01*
X1945Y285D02*
X1994Y285D01*
X1865Y284D02*
X1915Y284D01*
X1945Y284D02*
X1994Y284D01*
X1866Y283D02*
X1915Y283D01*
X1945Y283D02*
X1994Y283D01*
X1866Y282D02*
X1915Y282D01*
X1944Y282D02*
X1994Y282D01*
X1866Y281D02*
X1915Y281D01*
X1944Y281D02*
X1993Y281D01*
X1866Y280D02*
X1916Y280D01*
X1943Y280D02*
X1993Y280D01*
X1866Y279D02*
X1916Y279D01*
X1943Y279D02*
X1993Y279D01*
X1867Y278D02*
X1917Y278D01*
X1942Y278D02*
X1993Y278D01*
X1867Y277D02*
X1918Y277D01*
X1941Y277D02*
X1992Y277D01*
X1867Y276D02*
X1919Y276D01*
X1940Y276D02*
X1992Y276D01*
X1868Y275D02*
X1920Y275D01*
X1939Y275D02*
X1992Y275D01*
X1868Y274D02*
X1922Y274D01*
X1937Y274D02*
X1991Y274D01*
X1869Y273D02*
X1925Y273D01*
X1934Y273D02*
X1991Y273D01*
X1869Y272D02*
X1990Y272D01*
X1870Y271D02*
X1990Y271D01*
X1870Y270D02*
X1989Y270D01*
X1871Y269D02*
X1988Y269D01*
X1872Y268D02*
X1988Y268D01*
X1872Y267D02*
X1987Y267D01*
X1873Y266D02*
X1986Y266D01*
X1874Y265D02*
X1985Y265D01*
X1875Y264D02*
X1985Y264D01*
X1876Y263D02*
X1984Y263D01*
X1877Y262D02*
X1983Y262D01*
X1878Y261D02*
X1981Y261D01*
X1879Y260D02*
X1980Y260D01*
X1881Y259D02*
X1979Y259D01*
X1882Y258D02*
X1977Y258D01*
X1884Y257D02*
X1976Y257D01*
X1886Y256D02*
X1974Y256D01*
X1888Y255D02*
X1971Y255D01*
X1891Y254D02*
X1969Y254D01*
X1895Y253D02*
X1964Y253D01*
D02*
G04 End of Mask0*
M02*