; NON-PLATED HOLES START AT T1
; THROUGH (PLATED) HOLES START AT T100
M48
INCH
T1C0.086614
T2C0.130000
T100C0.040000
T101C0.032000
T102C0.030000
T103C0.035000
T104C0.038000
%
T1
X000862Y000847
X016962Y022747
X016962Y000847
X000862Y022747
T2
X007362Y010747
X007262Y021447
T100
X002062Y008947
X002062Y012947
X002062Y014947
X006362Y004847
X007362Y004847
X006262Y015547
X008362Y004847
X002062Y006947
X007262Y015547
X002062Y016947
X002062Y010947
X008262Y015547
T101
X013862Y007147
X013862Y017147
X013862Y008147
X013862Y018147
X010862Y006147
X013862Y019147
X010862Y007147
X010862Y017147
X010862Y008147
X010862Y018147
X010862Y019147
X013862Y006147
T102
X003164Y018847
X002162Y018847
X002464Y003247
X001462Y003247
T103
X008962Y003147
X010862Y015447
X016062Y005947
X016162Y014947
X004062Y020547
X008962Y014047
X007462Y001847
X003262Y001847
X016062Y007947
X016162Y016947
X005962Y003147
X010462Y001847
X010862Y012447
X001062Y020547
X005962Y014047
X006262Y001847
T104
X015662Y012247
X015662Y010247
X015662Y011247
T00
M30
