G04 MADE WITH FRITZING*
G04 WWW.FRITZING.ORG*
G04 DOUBLE SIDED*
G04 HOLES PLATED*
G04 CONTOUR ON CENTER OF CONTOUR VECTOR*
%ASAXBY*%
%FSLAX23Y23*%
%MOIN*%
%OFA0B0*%
%SFA1.0B1.0*%
%ADD10C,0.060000*%
%ADD11C,0.078000*%
%ADD12C,0.080000*%
%ADD13C,0.063000*%
%ADD14C,0.075000*%
%ADD15C,0.070000*%
%ADD16R,0.078000X0.078000*%
%ADD17R,0.080000X0.080000*%
%ADD18C,0.024000*%
%ADD19C,0.048000*%
%ADD20R,0.001000X0.001000*%
%LNCOPPER1*%
G90*
G70*
G54D10*
X636Y485D03*
X736Y485D03*
X836Y485D03*
X636Y485D03*
X736Y485D03*
X836Y485D03*
X626Y1555D03*
X726Y1555D03*
X826Y1555D03*
X626Y1555D03*
X726Y1555D03*
X826Y1555D03*
G54D11*
X1566Y1225D03*
X1566Y1125D03*
X1566Y1025D03*
G54D12*
X206Y1695D03*
X206Y1495D03*
X206Y1295D03*
X206Y1095D03*
X206Y895D03*
X206Y695D03*
G54D13*
X1386Y1715D03*
X1386Y1815D03*
X1386Y1915D03*
X1086Y1915D03*
X1086Y1815D03*
X1086Y1715D03*
X1386Y1715D03*
X1386Y1815D03*
X1386Y1915D03*
X1086Y1915D03*
X1086Y1815D03*
X1086Y1715D03*
X1386Y615D03*
X1386Y715D03*
X1386Y815D03*
X1086Y815D03*
X1086Y715D03*
X1086Y615D03*
X1386Y615D03*
X1386Y715D03*
X1386Y815D03*
X1086Y815D03*
X1086Y715D03*
X1086Y615D03*
G54D14*
X746Y185D03*
X1046Y185D03*
X1606Y595D03*
X1606Y795D03*
X1616Y1495D03*
X1616Y1695D03*
X1086Y1245D03*
X1086Y1545D03*
X106Y2055D03*
X406Y2055D03*
G54D15*
X216Y1885D03*
X316Y1885D03*
X146Y325D03*
X246Y325D03*
G54D14*
X326Y185D03*
X626Y185D03*
X596Y315D03*
X896Y315D03*
X596Y1405D03*
X896Y1405D03*
G54D16*
X1566Y1225D03*
G54D17*
X206Y1695D03*
G54D18*
X1413Y1712D02*
X1588Y1697D01*
D02*
X1686Y833D02*
X1686Y1074D01*
D02*
X1686Y1074D02*
X1656Y1126D01*
D02*
X1656Y1126D02*
X1596Y1125D01*
D02*
X1632Y807D02*
X1686Y833D01*
D02*
X1413Y612D02*
X1578Y597D01*
G54D19*
D02*
X1086Y1604D02*
X1086Y1584D01*
D02*
X1086Y1677D02*
X1086Y1604D01*
D02*
X367Y574D02*
X415Y485D01*
D02*
X374Y855D02*
X367Y574D01*
D02*
X308Y896D02*
X374Y855D01*
D02*
X415Y485D02*
X594Y485D01*
D02*
X248Y895D02*
X308Y896D01*
G54D18*
D02*
X122Y2031D02*
X202Y1907D01*
D02*
X655Y185D02*
X718Y185D01*
D02*
X145Y244D02*
X226Y185D01*
D02*
X226Y185D02*
X298Y185D01*
D02*
X146Y299D02*
X145Y244D01*
D02*
X847Y455D02*
X887Y342D01*
D02*
X629Y454D02*
X603Y343D01*
D02*
X620Y1524D02*
X602Y1433D01*
D02*
X839Y1527D02*
X884Y1431D01*
G54D19*
D02*
X674Y1296D02*
X237Y1295D01*
D02*
X726Y1326D02*
X674Y1296D01*
D02*
X726Y1524D02*
X726Y1326D01*
G54D20*
X624Y1615D02*
X627Y1615D01*
X724Y1615D02*
X727Y1615D01*
X824Y1615D02*
X827Y1615D01*
X618Y1614D02*
X633Y1614D01*
X718Y1614D02*
X733Y1614D01*
X818Y1614D02*
X833Y1614D01*
X615Y1613D02*
X636Y1613D01*
X715Y1613D02*
X736Y1613D01*
X815Y1613D02*
X836Y1613D01*
X613Y1612D02*
X638Y1612D01*
X713Y1612D02*
X738Y1612D01*
X813Y1612D02*
X838Y1612D01*
X611Y1611D02*
X640Y1611D01*
X711Y1611D02*
X740Y1611D01*
X811Y1611D02*
X840Y1611D01*
X609Y1610D02*
X642Y1610D01*
X709Y1610D02*
X742Y1610D01*
X809Y1610D02*
X842Y1610D01*
X608Y1609D02*
X643Y1609D01*
X708Y1609D02*
X743Y1609D01*
X808Y1609D02*
X843Y1609D01*
X607Y1608D02*
X644Y1608D01*
X707Y1608D02*
X744Y1608D01*
X807Y1608D02*
X844Y1608D01*
X606Y1607D02*
X645Y1607D01*
X706Y1607D02*
X745Y1607D01*
X805Y1607D02*
X845Y1607D01*
X605Y1606D02*
X647Y1606D01*
X704Y1606D02*
X746Y1606D01*
X804Y1606D02*
X846Y1606D01*
X604Y1605D02*
X647Y1605D01*
X704Y1605D02*
X747Y1605D01*
X804Y1605D02*
X847Y1605D01*
X603Y1604D02*
X648Y1604D01*
X703Y1604D02*
X748Y1604D01*
X803Y1604D02*
X848Y1604D01*
X602Y1603D02*
X649Y1603D01*
X702Y1603D02*
X749Y1603D01*
X802Y1603D02*
X849Y1603D01*
X601Y1602D02*
X650Y1602D01*
X701Y1602D02*
X750Y1602D01*
X801Y1602D02*
X850Y1602D01*
X601Y1601D02*
X650Y1601D01*
X701Y1601D02*
X750Y1601D01*
X801Y1601D02*
X850Y1601D01*
X600Y1600D02*
X651Y1600D01*
X700Y1600D02*
X751Y1600D01*
X800Y1600D02*
X851Y1600D01*
X599Y1599D02*
X652Y1599D01*
X699Y1599D02*
X752Y1599D01*
X799Y1599D02*
X852Y1599D01*
X599Y1598D02*
X652Y1598D01*
X699Y1598D02*
X752Y1598D01*
X799Y1598D02*
X852Y1598D01*
X598Y1597D02*
X653Y1597D01*
X698Y1597D02*
X753Y1597D01*
X798Y1597D02*
X852Y1597D01*
X598Y1596D02*
X653Y1596D01*
X698Y1596D02*
X753Y1596D01*
X798Y1596D02*
X853Y1596D01*
X598Y1595D02*
X653Y1595D01*
X698Y1595D02*
X753Y1595D01*
X798Y1595D02*
X853Y1595D01*
X597Y1594D02*
X654Y1594D01*
X697Y1594D02*
X754Y1594D01*
X797Y1594D02*
X854Y1594D01*
X597Y1593D02*
X654Y1593D01*
X697Y1593D02*
X754Y1593D01*
X797Y1593D02*
X854Y1593D01*
X597Y1592D02*
X654Y1592D01*
X697Y1592D02*
X754Y1592D01*
X797Y1592D02*
X854Y1592D01*
X597Y1591D02*
X654Y1591D01*
X697Y1591D02*
X754Y1591D01*
X797Y1591D02*
X854Y1591D01*
X596Y1590D02*
X655Y1590D01*
X696Y1590D02*
X755Y1590D01*
X796Y1590D02*
X855Y1590D01*
X596Y1589D02*
X655Y1589D01*
X696Y1589D02*
X755Y1589D01*
X796Y1589D02*
X855Y1589D01*
X596Y1588D02*
X655Y1588D01*
X696Y1588D02*
X755Y1588D01*
X796Y1588D02*
X855Y1588D01*
X596Y1587D02*
X655Y1587D01*
X696Y1587D02*
X755Y1587D01*
X796Y1587D02*
X855Y1587D01*
X596Y1586D02*
X655Y1586D01*
X696Y1586D02*
X755Y1586D01*
X796Y1586D02*
X855Y1586D01*
X596Y1585D02*
X655Y1585D01*
X696Y1585D02*
X755Y1585D01*
X796Y1585D02*
X855Y1585D01*
X596Y1584D02*
X655Y1584D01*
X696Y1584D02*
X755Y1584D01*
X796Y1584D02*
X855Y1584D01*
X596Y1583D02*
X655Y1583D01*
X696Y1583D02*
X755Y1583D01*
X796Y1583D02*
X855Y1583D01*
X596Y1582D02*
X655Y1582D01*
X696Y1582D02*
X755Y1582D01*
X796Y1582D02*
X855Y1582D01*
X596Y1581D02*
X655Y1581D01*
X696Y1581D02*
X755Y1581D01*
X796Y1581D02*
X855Y1581D01*
X596Y1580D02*
X655Y1580D01*
X696Y1580D02*
X755Y1580D01*
X796Y1580D02*
X855Y1580D01*
X596Y1579D02*
X655Y1579D01*
X696Y1579D02*
X755Y1579D01*
X796Y1579D02*
X855Y1579D01*
X596Y1578D02*
X655Y1578D01*
X696Y1578D02*
X755Y1578D01*
X796Y1578D02*
X855Y1578D01*
X596Y1577D02*
X655Y1577D01*
X696Y1577D02*
X755Y1577D01*
X796Y1577D02*
X855Y1577D01*
X596Y1576D02*
X655Y1576D01*
X696Y1576D02*
X755Y1576D01*
X796Y1576D02*
X855Y1576D01*
X596Y1575D02*
X624Y1575D01*
X627Y1575D02*
X655Y1575D01*
X696Y1575D02*
X724Y1575D01*
X727Y1575D02*
X755Y1575D01*
X796Y1575D02*
X824Y1575D01*
X827Y1575D02*
X855Y1575D01*
X596Y1574D02*
X619Y1574D01*
X632Y1574D02*
X655Y1574D01*
X696Y1574D02*
X719Y1574D01*
X732Y1574D02*
X755Y1574D01*
X796Y1574D02*
X819Y1574D01*
X832Y1574D02*
X855Y1574D01*
X596Y1573D02*
X616Y1573D01*
X635Y1573D02*
X655Y1573D01*
X696Y1573D02*
X716Y1573D01*
X735Y1573D02*
X755Y1573D01*
X796Y1573D02*
X816Y1573D01*
X835Y1573D02*
X855Y1573D01*
X596Y1572D02*
X614Y1572D01*
X637Y1572D02*
X655Y1572D01*
X696Y1572D02*
X714Y1572D01*
X737Y1572D02*
X755Y1572D01*
X796Y1572D02*
X814Y1572D01*
X837Y1572D02*
X855Y1572D01*
X596Y1571D02*
X613Y1571D01*
X638Y1571D02*
X655Y1571D01*
X696Y1571D02*
X713Y1571D01*
X738Y1571D02*
X755Y1571D01*
X796Y1571D02*
X813Y1571D01*
X838Y1571D02*
X855Y1571D01*
X596Y1570D02*
X612Y1570D01*
X639Y1570D02*
X655Y1570D01*
X696Y1570D02*
X712Y1570D01*
X739Y1570D02*
X755Y1570D01*
X796Y1570D02*
X812Y1570D01*
X839Y1570D02*
X855Y1570D01*
X596Y1569D02*
X611Y1569D01*
X640Y1569D02*
X655Y1569D01*
X696Y1569D02*
X711Y1569D01*
X740Y1569D02*
X755Y1569D01*
X796Y1569D02*
X811Y1569D01*
X840Y1569D02*
X855Y1569D01*
X596Y1568D02*
X610Y1568D01*
X641Y1568D02*
X655Y1568D01*
X696Y1568D02*
X710Y1568D01*
X741Y1568D02*
X755Y1568D01*
X796Y1568D02*
X810Y1568D01*
X841Y1568D02*
X855Y1568D01*
X596Y1567D02*
X609Y1567D01*
X642Y1567D02*
X655Y1567D01*
X696Y1567D02*
X709Y1567D01*
X742Y1567D02*
X755Y1567D01*
X796Y1567D02*
X809Y1567D01*
X842Y1567D02*
X855Y1567D01*
X596Y1566D02*
X608Y1566D01*
X643Y1566D02*
X655Y1566D01*
X696Y1566D02*
X708Y1566D01*
X743Y1566D02*
X755Y1566D01*
X796Y1566D02*
X808Y1566D01*
X843Y1566D02*
X855Y1566D01*
X596Y1565D02*
X608Y1565D01*
X643Y1565D02*
X655Y1565D01*
X696Y1565D02*
X708Y1565D01*
X743Y1565D02*
X755Y1565D01*
X796Y1565D02*
X808Y1565D01*
X843Y1565D02*
X855Y1565D01*
X596Y1564D02*
X607Y1564D01*
X644Y1564D02*
X655Y1564D01*
X696Y1564D02*
X707Y1564D01*
X744Y1564D02*
X755Y1564D01*
X796Y1564D02*
X807Y1564D01*
X844Y1564D02*
X855Y1564D01*
X596Y1563D02*
X607Y1563D01*
X644Y1563D02*
X655Y1563D01*
X696Y1563D02*
X707Y1563D01*
X744Y1563D02*
X755Y1563D01*
X796Y1563D02*
X807Y1563D01*
X844Y1563D02*
X855Y1563D01*
X596Y1562D02*
X606Y1562D01*
X645Y1562D02*
X655Y1562D01*
X696Y1562D02*
X706Y1562D01*
X745Y1562D02*
X755Y1562D01*
X796Y1562D02*
X806Y1562D01*
X845Y1562D02*
X855Y1562D01*
X596Y1561D02*
X606Y1561D01*
X645Y1561D02*
X655Y1561D01*
X696Y1561D02*
X706Y1561D01*
X745Y1561D02*
X755Y1561D01*
X796Y1561D02*
X806Y1561D01*
X845Y1561D02*
X855Y1561D01*
X596Y1560D02*
X606Y1560D01*
X645Y1560D02*
X655Y1560D01*
X696Y1560D02*
X706Y1560D01*
X745Y1560D02*
X755Y1560D01*
X796Y1560D02*
X806Y1560D01*
X845Y1560D02*
X855Y1560D01*
X596Y1559D02*
X605Y1559D01*
X646Y1559D02*
X655Y1559D01*
X696Y1559D02*
X705Y1559D01*
X746Y1559D02*
X755Y1559D01*
X796Y1559D02*
X805Y1559D01*
X846Y1559D02*
X855Y1559D01*
X596Y1558D02*
X605Y1558D01*
X646Y1558D02*
X655Y1558D01*
X696Y1558D02*
X705Y1558D01*
X746Y1558D02*
X755Y1558D01*
X796Y1558D02*
X805Y1558D01*
X846Y1558D02*
X855Y1558D01*
X596Y1557D02*
X605Y1557D01*
X646Y1557D02*
X655Y1557D01*
X696Y1557D02*
X705Y1557D01*
X746Y1557D02*
X755Y1557D01*
X796Y1557D02*
X805Y1557D01*
X846Y1557D02*
X855Y1557D01*
X596Y1556D02*
X605Y1556D01*
X646Y1556D02*
X655Y1556D01*
X696Y1556D02*
X705Y1556D01*
X746Y1556D02*
X755Y1556D01*
X796Y1556D02*
X805Y1556D01*
X846Y1556D02*
X855Y1556D01*
X596Y1555D02*
X605Y1555D01*
X646Y1555D02*
X655Y1555D01*
X696Y1555D02*
X705Y1555D01*
X746Y1555D02*
X755Y1555D01*
X796Y1555D02*
X805Y1555D01*
X846Y1555D02*
X855Y1555D01*
X596Y1554D02*
X605Y1554D01*
X646Y1554D02*
X655Y1554D01*
X696Y1554D02*
X705Y1554D01*
X746Y1554D02*
X755Y1554D01*
X796Y1554D02*
X805Y1554D01*
X846Y1554D02*
X855Y1554D01*
X596Y1553D02*
X605Y1553D01*
X646Y1553D02*
X655Y1553D01*
X696Y1553D02*
X705Y1553D01*
X746Y1553D02*
X755Y1553D01*
X796Y1553D02*
X805Y1553D01*
X846Y1553D02*
X855Y1553D01*
X596Y1552D02*
X605Y1552D01*
X646Y1552D02*
X655Y1552D01*
X696Y1552D02*
X705Y1552D01*
X746Y1552D02*
X755Y1552D01*
X796Y1552D02*
X805Y1552D01*
X846Y1552D02*
X855Y1552D01*
X596Y1551D02*
X605Y1551D01*
X646Y1551D02*
X655Y1551D01*
X696Y1551D02*
X705Y1551D01*
X746Y1551D02*
X755Y1551D01*
X796Y1551D02*
X805Y1551D01*
X845Y1551D02*
X855Y1551D01*
X596Y1550D02*
X606Y1550D01*
X645Y1550D02*
X655Y1550D01*
X696Y1550D02*
X706Y1550D01*
X745Y1550D02*
X755Y1550D01*
X796Y1550D02*
X806Y1550D01*
X845Y1550D02*
X855Y1550D01*
X596Y1549D02*
X606Y1549D01*
X645Y1549D02*
X655Y1549D01*
X696Y1549D02*
X706Y1549D01*
X745Y1549D02*
X755Y1549D01*
X796Y1549D02*
X806Y1549D01*
X845Y1549D02*
X855Y1549D01*
X596Y1548D02*
X606Y1548D01*
X645Y1548D02*
X655Y1548D01*
X696Y1548D02*
X706Y1548D01*
X745Y1548D02*
X755Y1548D01*
X796Y1548D02*
X806Y1548D01*
X845Y1548D02*
X855Y1548D01*
X596Y1547D02*
X607Y1547D01*
X644Y1547D02*
X655Y1547D01*
X696Y1547D02*
X707Y1547D01*
X744Y1547D02*
X755Y1547D01*
X796Y1547D02*
X807Y1547D01*
X844Y1547D02*
X855Y1547D01*
X596Y1546D02*
X607Y1546D01*
X644Y1546D02*
X655Y1546D01*
X696Y1546D02*
X707Y1546D01*
X744Y1546D02*
X755Y1546D01*
X796Y1546D02*
X807Y1546D01*
X844Y1546D02*
X855Y1546D01*
X596Y1545D02*
X608Y1545D01*
X643Y1545D02*
X655Y1545D01*
X696Y1545D02*
X708Y1545D01*
X743Y1545D02*
X755Y1545D01*
X796Y1545D02*
X808Y1545D01*
X843Y1545D02*
X855Y1545D01*
X596Y1544D02*
X608Y1544D01*
X643Y1544D02*
X655Y1544D01*
X696Y1544D02*
X708Y1544D01*
X743Y1544D02*
X755Y1544D01*
X796Y1544D02*
X808Y1544D01*
X843Y1544D02*
X855Y1544D01*
X596Y1543D02*
X609Y1543D01*
X642Y1543D02*
X655Y1543D01*
X696Y1543D02*
X709Y1543D01*
X742Y1543D02*
X755Y1543D01*
X796Y1543D02*
X809Y1543D01*
X842Y1543D02*
X855Y1543D01*
X596Y1542D02*
X610Y1542D01*
X641Y1542D02*
X655Y1542D01*
X696Y1542D02*
X710Y1542D01*
X741Y1542D02*
X755Y1542D01*
X796Y1542D02*
X810Y1542D01*
X841Y1542D02*
X855Y1542D01*
X596Y1541D02*
X611Y1541D01*
X640Y1541D02*
X655Y1541D01*
X696Y1541D02*
X711Y1541D01*
X740Y1541D02*
X755Y1541D01*
X796Y1541D02*
X811Y1541D01*
X840Y1541D02*
X855Y1541D01*
X596Y1540D02*
X612Y1540D01*
X639Y1540D02*
X655Y1540D01*
X696Y1540D02*
X712Y1540D01*
X739Y1540D02*
X755Y1540D01*
X796Y1540D02*
X812Y1540D01*
X839Y1540D02*
X855Y1540D01*
X596Y1539D02*
X613Y1539D01*
X638Y1539D02*
X655Y1539D01*
X696Y1539D02*
X713Y1539D01*
X738Y1539D02*
X755Y1539D01*
X796Y1539D02*
X813Y1539D01*
X838Y1539D02*
X855Y1539D01*
X596Y1538D02*
X615Y1538D01*
X636Y1538D02*
X655Y1538D01*
X696Y1538D02*
X715Y1538D01*
X736Y1538D02*
X755Y1538D01*
X796Y1538D02*
X815Y1538D01*
X836Y1538D02*
X855Y1538D01*
X596Y1537D02*
X617Y1537D01*
X634Y1537D02*
X655Y1537D01*
X696Y1537D02*
X717Y1537D01*
X734Y1537D02*
X755Y1537D01*
X796Y1537D02*
X817Y1537D01*
X834Y1537D02*
X855Y1537D01*
X596Y1536D02*
X619Y1536D01*
X632Y1536D02*
X655Y1536D01*
X696Y1536D02*
X719Y1536D01*
X732Y1536D02*
X755Y1536D01*
X796Y1536D02*
X819Y1536D01*
X832Y1536D02*
X855Y1536D01*
X596Y1535D02*
X655Y1535D01*
X696Y1535D02*
X755Y1535D01*
X796Y1535D02*
X855Y1535D01*
X596Y1534D02*
X655Y1534D01*
X696Y1534D02*
X755Y1534D01*
X796Y1534D02*
X855Y1534D01*
X596Y1533D02*
X655Y1533D01*
X696Y1533D02*
X755Y1533D01*
X796Y1533D02*
X855Y1533D01*
X596Y1532D02*
X655Y1532D01*
X696Y1532D02*
X755Y1532D01*
X796Y1532D02*
X855Y1532D01*
X596Y1531D02*
X655Y1531D01*
X696Y1531D02*
X755Y1531D01*
X796Y1531D02*
X855Y1531D01*
X596Y1530D02*
X655Y1530D01*
X696Y1530D02*
X755Y1530D01*
X796Y1530D02*
X855Y1530D01*
X596Y1529D02*
X655Y1529D01*
X696Y1529D02*
X755Y1529D01*
X796Y1529D02*
X855Y1529D01*
X596Y1528D02*
X655Y1528D01*
X696Y1528D02*
X755Y1528D01*
X796Y1528D02*
X855Y1528D01*
X596Y1527D02*
X655Y1527D01*
X696Y1527D02*
X755Y1527D01*
X796Y1527D02*
X855Y1527D01*
X596Y1526D02*
X655Y1526D01*
X696Y1526D02*
X755Y1526D01*
X796Y1526D02*
X855Y1526D01*
X596Y1525D02*
X655Y1525D01*
X696Y1525D02*
X755Y1525D01*
X796Y1525D02*
X855Y1525D01*
X596Y1524D02*
X655Y1524D01*
X696Y1524D02*
X755Y1524D01*
X796Y1524D02*
X855Y1524D01*
X596Y1523D02*
X655Y1523D01*
X696Y1523D02*
X755Y1523D01*
X796Y1523D02*
X855Y1523D01*
X596Y1522D02*
X655Y1522D01*
X696Y1522D02*
X755Y1522D01*
X796Y1522D02*
X855Y1522D01*
X596Y1521D02*
X655Y1521D01*
X696Y1521D02*
X755Y1521D01*
X796Y1521D02*
X855Y1521D01*
X596Y1520D02*
X655Y1520D01*
X696Y1520D02*
X755Y1520D01*
X796Y1520D02*
X854Y1520D01*
X597Y1519D02*
X654Y1519D01*
X697Y1519D02*
X754Y1519D01*
X797Y1519D02*
X854Y1519D01*
X597Y1518D02*
X654Y1518D01*
X697Y1518D02*
X754Y1518D01*
X797Y1518D02*
X854Y1518D01*
X597Y1517D02*
X654Y1517D01*
X697Y1517D02*
X754Y1517D01*
X797Y1517D02*
X854Y1517D01*
X597Y1516D02*
X654Y1516D01*
X697Y1516D02*
X754Y1516D01*
X797Y1516D02*
X854Y1516D01*
X598Y1515D02*
X653Y1515D01*
X698Y1515D02*
X753Y1515D01*
X798Y1515D02*
X853Y1515D01*
X598Y1514D02*
X653Y1514D01*
X698Y1514D02*
X753Y1514D01*
X798Y1514D02*
X853Y1514D01*
X599Y1513D02*
X652Y1513D01*
X699Y1513D02*
X752Y1513D01*
X799Y1513D02*
X852Y1513D01*
X599Y1512D02*
X652Y1512D01*
X699Y1512D02*
X752Y1512D01*
X799Y1512D02*
X852Y1512D01*
X600Y1511D02*
X651Y1511D01*
X700Y1511D02*
X751Y1511D01*
X799Y1511D02*
X851Y1511D01*
X600Y1510D02*
X651Y1510D01*
X700Y1510D02*
X751Y1510D01*
X800Y1510D02*
X851Y1510D01*
X601Y1509D02*
X650Y1509D01*
X701Y1509D02*
X750Y1509D01*
X801Y1509D02*
X850Y1509D01*
X601Y1508D02*
X650Y1508D01*
X701Y1508D02*
X750Y1508D01*
X801Y1508D02*
X850Y1508D01*
X602Y1507D02*
X649Y1507D01*
X702Y1507D02*
X749Y1507D01*
X802Y1507D02*
X849Y1507D01*
X603Y1506D02*
X648Y1506D01*
X703Y1506D02*
X748Y1506D01*
X803Y1506D02*
X848Y1506D01*
X604Y1505D02*
X647Y1505D01*
X704Y1505D02*
X747Y1505D01*
X804Y1505D02*
X847Y1505D01*
X605Y1504D02*
X646Y1504D01*
X705Y1504D02*
X746Y1504D01*
X805Y1504D02*
X846Y1504D01*
X606Y1503D02*
X645Y1503D01*
X706Y1503D02*
X745Y1503D01*
X806Y1503D02*
X845Y1503D01*
X607Y1502D02*
X644Y1502D01*
X707Y1502D02*
X744Y1502D01*
X807Y1502D02*
X844Y1502D01*
X608Y1501D02*
X643Y1501D01*
X708Y1501D02*
X743Y1501D01*
X808Y1501D02*
X843Y1501D01*
X610Y1500D02*
X641Y1500D01*
X710Y1500D02*
X741Y1500D01*
X810Y1500D02*
X841Y1500D01*
X611Y1499D02*
X640Y1499D01*
X711Y1499D02*
X740Y1499D01*
X811Y1499D02*
X840Y1499D01*
X613Y1498D02*
X638Y1498D01*
X713Y1498D02*
X738Y1498D01*
X813Y1498D02*
X838Y1498D01*
X616Y1497D02*
X635Y1497D01*
X716Y1497D02*
X735Y1497D01*
X816Y1497D02*
X835Y1497D01*
X619Y1496D02*
X632Y1496D01*
X719Y1496D02*
X732Y1496D01*
X819Y1496D02*
X832Y1496D01*
X633Y545D02*
X638Y545D01*
X733Y545D02*
X738Y545D01*
X833Y545D02*
X838Y545D01*
X628Y544D02*
X643Y544D01*
X728Y544D02*
X743Y544D01*
X828Y544D02*
X843Y544D01*
X625Y543D02*
X646Y543D01*
X725Y543D02*
X746Y543D01*
X825Y543D02*
X846Y543D01*
X623Y542D02*
X648Y542D01*
X723Y542D02*
X748Y542D01*
X823Y542D02*
X848Y542D01*
X621Y541D02*
X650Y541D01*
X721Y541D02*
X750Y541D01*
X821Y541D02*
X850Y541D01*
X619Y540D02*
X652Y540D01*
X719Y540D02*
X752Y540D01*
X819Y540D02*
X852Y540D01*
X618Y539D02*
X653Y539D01*
X718Y539D02*
X753Y539D01*
X818Y539D02*
X853Y539D01*
X617Y538D02*
X654Y538D01*
X717Y538D02*
X754Y538D01*
X816Y538D02*
X854Y538D01*
X615Y537D02*
X656Y537D01*
X715Y537D02*
X756Y537D01*
X815Y537D02*
X856Y537D01*
X614Y536D02*
X657Y536D01*
X714Y536D02*
X757Y536D01*
X814Y536D02*
X857Y536D01*
X614Y535D02*
X658Y535D01*
X713Y535D02*
X757Y535D01*
X813Y535D02*
X857Y535D01*
X613Y534D02*
X658Y534D01*
X713Y534D02*
X758Y534D01*
X813Y534D02*
X858Y534D01*
X612Y533D02*
X659Y533D01*
X712Y533D02*
X759Y533D01*
X812Y533D02*
X859Y533D01*
X611Y532D02*
X660Y532D01*
X711Y532D02*
X760Y532D01*
X811Y532D02*
X860Y532D01*
X611Y531D02*
X660Y531D01*
X711Y531D02*
X760Y531D01*
X810Y531D02*
X860Y531D01*
X610Y530D02*
X661Y530D01*
X710Y530D02*
X761Y530D01*
X810Y530D02*
X861Y530D01*
X609Y529D02*
X662Y529D01*
X709Y529D02*
X762Y529D01*
X809Y529D02*
X862Y529D01*
X609Y528D02*
X662Y528D01*
X709Y528D02*
X762Y528D01*
X809Y528D02*
X862Y528D01*
X608Y527D02*
X663Y527D01*
X708Y527D02*
X763Y527D01*
X808Y527D02*
X863Y527D01*
X608Y526D02*
X663Y526D01*
X708Y526D02*
X763Y526D01*
X808Y526D02*
X863Y526D01*
X608Y525D02*
X663Y525D01*
X708Y525D02*
X763Y525D01*
X808Y525D02*
X863Y525D01*
X607Y524D02*
X664Y524D01*
X707Y524D02*
X764Y524D01*
X807Y524D02*
X864Y524D01*
X607Y523D02*
X664Y523D01*
X707Y523D02*
X764Y523D01*
X807Y523D02*
X864Y523D01*
X607Y522D02*
X664Y522D01*
X707Y522D02*
X764Y522D01*
X807Y522D02*
X864Y522D01*
X607Y521D02*
X664Y521D01*
X707Y521D02*
X764Y521D01*
X807Y521D02*
X864Y521D01*
X606Y520D02*
X665Y520D01*
X706Y520D02*
X765Y520D01*
X806Y520D02*
X865Y520D01*
X606Y519D02*
X665Y519D01*
X706Y519D02*
X765Y519D01*
X806Y519D02*
X865Y519D01*
X606Y518D02*
X665Y518D01*
X706Y518D02*
X765Y518D01*
X806Y518D02*
X865Y518D01*
X606Y517D02*
X665Y517D01*
X706Y517D02*
X765Y517D01*
X806Y517D02*
X865Y517D01*
X606Y516D02*
X665Y516D01*
X706Y516D02*
X765Y516D01*
X806Y516D02*
X865Y516D01*
X606Y515D02*
X665Y515D01*
X706Y515D02*
X765Y515D01*
X806Y515D02*
X865Y515D01*
X606Y514D02*
X665Y514D01*
X706Y514D02*
X765Y514D01*
X806Y514D02*
X865Y514D01*
X606Y513D02*
X665Y513D01*
X706Y513D02*
X765Y513D01*
X806Y513D02*
X865Y513D01*
X606Y512D02*
X665Y512D01*
X706Y512D02*
X765Y512D01*
X806Y512D02*
X865Y512D01*
X606Y511D02*
X665Y511D01*
X706Y511D02*
X765Y511D01*
X806Y511D02*
X865Y511D01*
X606Y510D02*
X665Y510D01*
X706Y510D02*
X765Y510D01*
X806Y510D02*
X865Y510D01*
X606Y509D02*
X665Y509D01*
X706Y509D02*
X765Y509D01*
X806Y509D02*
X865Y509D01*
X606Y508D02*
X665Y508D01*
X706Y508D02*
X765Y508D01*
X806Y508D02*
X865Y508D01*
X606Y507D02*
X665Y507D01*
X706Y507D02*
X765Y507D01*
X806Y507D02*
X865Y507D01*
X606Y506D02*
X665Y506D01*
X706Y506D02*
X765Y506D01*
X806Y506D02*
X865Y506D01*
X606Y505D02*
X633Y505D01*
X638Y505D02*
X665Y505D01*
X706Y505D02*
X733Y505D01*
X738Y505D02*
X765Y505D01*
X806Y505D02*
X833Y505D01*
X838Y505D02*
X865Y505D01*
X606Y504D02*
X628Y504D01*
X643Y504D02*
X665Y504D01*
X706Y504D02*
X728Y504D01*
X743Y504D02*
X765Y504D01*
X806Y504D02*
X828Y504D01*
X843Y504D02*
X865Y504D01*
X606Y503D02*
X626Y503D01*
X645Y503D02*
X665Y503D01*
X706Y503D02*
X726Y503D01*
X745Y503D02*
X765Y503D01*
X806Y503D02*
X826Y503D01*
X845Y503D02*
X865Y503D01*
X606Y502D02*
X624Y502D01*
X647Y502D02*
X665Y502D01*
X706Y502D02*
X724Y502D01*
X747Y502D02*
X765Y502D01*
X806Y502D02*
X824Y502D01*
X847Y502D02*
X865Y502D01*
X606Y501D02*
X623Y501D01*
X648Y501D02*
X665Y501D01*
X706Y501D02*
X723Y501D01*
X748Y501D02*
X765Y501D01*
X806Y501D02*
X823Y501D01*
X848Y501D02*
X865Y501D01*
X606Y500D02*
X622Y500D01*
X649Y500D02*
X665Y500D01*
X706Y500D02*
X722Y500D01*
X749Y500D02*
X765Y500D01*
X806Y500D02*
X822Y500D01*
X849Y500D02*
X865Y500D01*
X606Y499D02*
X621Y499D01*
X650Y499D02*
X665Y499D01*
X706Y499D02*
X721Y499D01*
X750Y499D02*
X765Y499D01*
X806Y499D02*
X821Y499D01*
X850Y499D02*
X865Y499D01*
X606Y498D02*
X620Y498D01*
X651Y498D02*
X665Y498D01*
X706Y498D02*
X720Y498D01*
X751Y498D02*
X765Y498D01*
X806Y498D02*
X820Y498D01*
X851Y498D02*
X865Y498D01*
X606Y497D02*
X619Y497D01*
X652Y497D02*
X665Y497D01*
X706Y497D02*
X719Y497D01*
X752Y497D02*
X765Y497D01*
X806Y497D02*
X819Y497D01*
X852Y497D02*
X865Y497D01*
X606Y496D02*
X618Y496D01*
X653Y496D02*
X665Y496D01*
X706Y496D02*
X718Y496D01*
X753Y496D02*
X765Y496D01*
X806Y496D02*
X818Y496D01*
X853Y496D02*
X865Y496D01*
X606Y495D02*
X618Y495D01*
X653Y495D02*
X665Y495D01*
X706Y495D02*
X718Y495D01*
X753Y495D02*
X765Y495D01*
X806Y495D02*
X818Y495D01*
X853Y495D02*
X865Y495D01*
X606Y494D02*
X617Y494D01*
X654Y494D02*
X665Y494D01*
X706Y494D02*
X717Y494D01*
X754Y494D02*
X765Y494D01*
X806Y494D02*
X817Y494D01*
X854Y494D02*
X865Y494D01*
X606Y493D02*
X617Y493D01*
X654Y493D02*
X665Y493D01*
X706Y493D02*
X717Y493D01*
X754Y493D02*
X765Y493D01*
X806Y493D02*
X817Y493D01*
X854Y493D02*
X865Y493D01*
X606Y492D02*
X616Y492D01*
X655Y492D02*
X665Y492D01*
X706Y492D02*
X716Y492D01*
X755Y492D02*
X765Y492D01*
X806Y492D02*
X816Y492D01*
X855Y492D02*
X865Y492D01*
X606Y491D02*
X616Y491D01*
X655Y491D02*
X665Y491D01*
X706Y491D02*
X716Y491D01*
X755Y491D02*
X765Y491D01*
X806Y491D02*
X816Y491D01*
X855Y491D02*
X865Y491D01*
X606Y490D02*
X616Y490D01*
X655Y490D02*
X665Y490D01*
X706Y490D02*
X716Y490D01*
X755Y490D02*
X765Y490D01*
X806Y490D02*
X816Y490D01*
X855Y490D02*
X865Y490D01*
X606Y489D02*
X615Y489D01*
X656Y489D02*
X665Y489D01*
X706Y489D02*
X715Y489D01*
X756Y489D02*
X765Y489D01*
X806Y489D02*
X815Y489D01*
X856Y489D02*
X865Y489D01*
X606Y488D02*
X615Y488D01*
X656Y488D02*
X665Y488D01*
X706Y488D02*
X715Y488D01*
X756Y488D02*
X765Y488D01*
X806Y488D02*
X815Y488D01*
X856Y488D02*
X865Y488D01*
X606Y487D02*
X615Y487D01*
X656Y487D02*
X665Y487D01*
X706Y487D02*
X715Y487D01*
X756Y487D02*
X765Y487D01*
X806Y487D02*
X815Y487D01*
X856Y487D02*
X865Y487D01*
X606Y486D02*
X615Y486D01*
X656Y486D02*
X665Y486D01*
X706Y486D02*
X715Y486D01*
X756Y486D02*
X765Y486D01*
X806Y486D02*
X815Y486D01*
X856Y486D02*
X865Y486D01*
X606Y485D02*
X615Y485D01*
X656Y485D02*
X665Y485D01*
X706Y485D02*
X715Y485D01*
X756Y485D02*
X765Y485D01*
X806Y485D02*
X815Y485D01*
X856Y485D02*
X865Y485D01*
X606Y484D02*
X615Y484D01*
X656Y484D02*
X665Y484D01*
X706Y484D02*
X715Y484D01*
X756Y484D02*
X765Y484D01*
X806Y484D02*
X815Y484D01*
X856Y484D02*
X865Y484D01*
X606Y483D02*
X615Y483D01*
X656Y483D02*
X665Y483D01*
X706Y483D02*
X715Y483D01*
X756Y483D02*
X765Y483D01*
X806Y483D02*
X815Y483D01*
X856Y483D02*
X865Y483D01*
X606Y482D02*
X615Y482D01*
X656Y482D02*
X665Y482D01*
X706Y482D02*
X715Y482D01*
X756Y482D02*
X765Y482D01*
X806Y482D02*
X815Y482D01*
X856Y482D02*
X865Y482D01*
X606Y481D02*
X616Y481D01*
X656Y481D02*
X665Y481D01*
X706Y481D02*
X715Y481D01*
X756Y481D02*
X765Y481D01*
X806Y481D02*
X815Y481D01*
X855Y481D02*
X865Y481D01*
X606Y480D02*
X616Y480D01*
X655Y480D02*
X665Y480D01*
X706Y480D02*
X716Y480D01*
X755Y480D02*
X765Y480D01*
X806Y480D02*
X816Y480D01*
X855Y480D02*
X865Y480D01*
X606Y479D02*
X616Y479D01*
X655Y479D02*
X665Y479D01*
X706Y479D02*
X716Y479D01*
X755Y479D02*
X765Y479D01*
X806Y479D02*
X816Y479D01*
X855Y479D02*
X865Y479D01*
X606Y478D02*
X616Y478D01*
X655Y478D02*
X665Y478D01*
X706Y478D02*
X716Y478D01*
X755Y478D02*
X765Y478D01*
X806Y478D02*
X816Y478D01*
X855Y478D02*
X865Y478D01*
X606Y477D02*
X617Y477D01*
X654Y477D02*
X665Y477D01*
X706Y477D02*
X717Y477D01*
X754Y477D02*
X765Y477D01*
X806Y477D02*
X817Y477D01*
X854Y477D02*
X865Y477D01*
X606Y476D02*
X617Y476D01*
X654Y476D02*
X665Y476D01*
X706Y476D02*
X717Y476D01*
X754Y476D02*
X765Y476D01*
X806Y476D02*
X817Y476D01*
X854Y476D02*
X865Y476D01*
X606Y475D02*
X618Y475D01*
X653Y475D02*
X665Y475D01*
X706Y475D02*
X718Y475D01*
X753Y475D02*
X765Y475D01*
X806Y475D02*
X818Y475D01*
X853Y475D02*
X865Y475D01*
X606Y474D02*
X618Y474D01*
X653Y474D02*
X665Y474D01*
X706Y474D02*
X718Y474D01*
X753Y474D02*
X765Y474D01*
X806Y474D02*
X818Y474D01*
X852Y474D02*
X865Y474D01*
X606Y473D02*
X619Y473D01*
X652Y473D02*
X665Y473D01*
X706Y473D02*
X719Y473D01*
X752Y473D02*
X765Y473D01*
X806Y473D02*
X819Y473D01*
X852Y473D02*
X865Y473D01*
X606Y472D02*
X620Y472D01*
X651Y472D02*
X665Y472D01*
X706Y472D02*
X720Y472D01*
X751Y472D02*
X765Y472D01*
X806Y472D02*
X820Y472D01*
X851Y472D02*
X865Y472D01*
X606Y471D02*
X621Y471D01*
X650Y471D02*
X665Y471D01*
X706Y471D02*
X721Y471D01*
X750Y471D02*
X765Y471D01*
X806Y471D02*
X821Y471D01*
X850Y471D02*
X865Y471D01*
X606Y470D02*
X622Y470D01*
X649Y470D02*
X665Y470D01*
X706Y470D02*
X722Y470D01*
X749Y470D02*
X765Y470D01*
X806Y470D02*
X822Y470D01*
X849Y470D02*
X865Y470D01*
X606Y469D02*
X623Y469D01*
X648Y469D02*
X665Y469D01*
X706Y469D02*
X723Y469D01*
X748Y469D02*
X765Y469D01*
X806Y469D02*
X823Y469D01*
X848Y469D02*
X865Y469D01*
X606Y468D02*
X625Y468D01*
X646Y468D02*
X665Y468D01*
X706Y468D02*
X725Y468D01*
X746Y468D02*
X765Y468D01*
X806Y468D02*
X825Y468D01*
X846Y468D02*
X865Y468D01*
X606Y467D02*
X627Y467D01*
X644Y467D02*
X665Y467D01*
X706Y467D02*
X727Y467D01*
X744Y467D02*
X765Y467D01*
X806Y467D02*
X827Y467D01*
X844Y467D02*
X865Y467D01*
X606Y466D02*
X630Y466D01*
X641Y466D02*
X665Y466D01*
X706Y466D02*
X730Y466D01*
X741Y466D02*
X765Y466D01*
X806Y466D02*
X830Y466D01*
X841Y466D02*
X865Y466D01*
X606Y465D02*
X665Y465D01*
X706Y465D02*
X765Y465D01*
X806Y465D02*
X865Y465D01*
X606Y464D02*
X665Y464D01*
X706Y464D02*
X765Y464D01*
X806Y464D02*
X865Y464D01*
X606Y463D02*
X665Y463D01*
X706Y463D02*
X765Y463D01*
X806Y463D02*
X865Y463D01*
X606Y462D02*
X665Y462D01*
X706Y462D02*
X765Y462D01*
X806Y462D02*
X865Y462D01*
X606Y461D02*
X665Y461D01*
X706Y461D02*
X765Y461D01*
X806Y461D02*
X865Y461D01*
X606Y460D02*
X665Y460D01*
X706Y460D02*
X765Y460D01*
X806Y460D02*
X865Y460D01*
X606Y459D02*
X665Y459D01*
X706Y459D02*
X765Y459D01*
X806Y459D02*
X865Y459D01*
X606Y458D02*
X665Y458D01*
X706Y458D02*
X765Y458D01*
X806Y458D02*
X865Y458D01*
X606Y457D02*
X665Y457D01*
X706Y457D02*
X765Y457D01*
X806Y457D02*
X865Y457D01*
X606Y456D02*
X665Y456D01*
X706Y456D02*
X765Y456D01*
X806Y456D02*
X865Y456D01*
X606Y455D02*
X665Y455D01*
X706Y455D02*
X765Y455D01*
X806Y455D02*
X865Y455D01*
X606Y454D02*
X665Y454D01*
X706Y454D02*
X765Y454D01*
X806Y454D02*
X865Y454D01*
X606Y453D02*
X665Y453D01*
X706Y453D02*
X765Y453D01*
X806Y453D02*
X865Y453D01*
X606Y452D02*
X665Y452D01*
X706Y452D02*
X765Y452D01*
X806Y452D02*
X865Y452D01*
X606Y451D02*
X665Y451D01*
X706Y451D02*
X765Y451D01*
X806Y451D02*
X865Y451D01*
X607Y450D02*
X665Y450D01*
X706Y450D02*
X764Y450D01*
X806Y450D02*
X864Y450D01*
X607Y449D02*
X664Y449D01*
X707Y449D02*
X764Y449D01*
X807Y449D02*
X864Y449D01*
X607Y448D02*
X664Y448D01*
X707Y448D02*
X764Y448D01*
X807Y448D02*
X864Y448D01*
X607Y447D02*
X664Y447D01*
X707Y447D02*
X764Y447D01*
X807Y447D02*
X864Y447D01*
X607Y446D02*
X664Y446D01*
X707Y446D02*
X764Y446D01*
X807Y446D02*
X863Y446D01*
X608Y445D02*
X663Y445D01*
X708Y445D02*
X763Y445D01*
X808Y445D02*
X863Y445D01*
X608Y444D02*
X663Y444D01*
X708Y444D02*
X763Y444D01*
X808Y444D02*
X863Y444D01*
X609Y443D02*
X662Y443D01*
X709Y443D02*
X762Y443D01*
X809Y443D02*
X862Y443D01*
X609Y442D02*
X662Y442D01*
X709Y442D02*
X762Y442D01*
X809Y442D02*
X862Y442D01*
X610Y441D02*
X661Y441D01*
X710Y441D02*
X761Y441D01*
X810Y441D02*
X861Y441D01*
X610Y440D02*
X661Y440D01*
X710Y440D02*
X761Y440D01*
X810Y440D02*
X861Y440D01*
X611Y439D02*
X660Y439D01*
X711Y439D02*
X760Y439D01*
X811Y439D02*
X860Y439D01*
X611Y438D02*
X660Y438D01*
X711Y438D02*
X760Y438D01*
X811Y438D02*
X859Y438D01*
X612Y437D02*
X659Y437D01*
X712Y437D02*
X759Y437D01*
X812Y437D02*
X859Y437D01*
X613Y436D02*
X658Y436D01*
X713Y436D02*
X758Y436D01*
X813Y436D02*
X858Y436D01*
X614Y435D02*
X657Y435D01*
X714Y435D02*
X757Y435D01*
X814Y435D02*
X857Y435D01*
X615Y434D02*
X656Y434D01*
X715Y434D02*
X756Y434D01*
X815Y434D02*
X856Y434D01*
X616Y433D02*
X655Y433D01*
X716Y433D02*
X755Y433D01*
X816Y433D02*
X855Y433D01*
X617Y432D02*
X654Y432D01*
X717Y432D02*
X754Y432D01*
X817Y432D02*
X854Y432D01*
X618Y431D02*
X653Y431D01*
X718Y431D02*
X753Y431D01*
X818Y431D02*
X853Y431D01*
X620Y430D02*
X651Y430D01*
X720Y430D02*
X751Y430D01*
X820Y430D02*
X851Y430D01*
X621Y429D02*
X650Y429D01*
X721Y429D02*
X750Y429D01*
X821Y429D02*
X850Y429D01*
X623Y428D02*
X648Y428D01*
X723Y428D02*
X748Y428D01*
X823Y428D02*
X848Y428D01*
X626Y427D02*
X645Y427D01*
X726Y427D02*
X745Y427D01*
X826Y427D02*
X845Y427D01*
X629Y426D02*
X642Y426D01*
X729Y426D02*
X742Y426D01*
X829Y426D02*
X842Y426D01*
D02*
G04 End of Copper1*
M02*