G04 MADE WITH FRITZING*
G04 WWW.FRITZING.ORG*
G04 DOUBLE SIDED*
G04 HOLES PLATED*
G04 CONTOUR ON CENTER OF CONTOUR VECTOR*
%ASAXBY*%
%FSLAX23Y23*%
%MOIN*%
%OFA0B0*%
%SFA1.0B1.0*%
%ADD10R,1.771650X2.362200X1.755650X2.346200*%
%ADD11C,0.008000*%
%ADD12R,0.001000X0.001000*%
%LNSILK0*%
G90*
G70*
G54D11*
X4Y2358D02*
X1768Y2358D01*
X1768Y4D01*
X4Y4D01*
X4Y2358D01*
D02*
G54D12*
X1193Y1084D02*
X1198Y1084D01*
X1190Y1083D02*
X1200Y1083D01*
X1188Y1082D02*
X1201Y1082D01*
X1186Y1081D02*
X1201Y1081D01*
X1184Y1080D02*
X1201Y1080D01*
X1181Y1079D02*
X1200Y1079D01*
X1179Y1078D02*
X1198Y1078D01*
X1177Y1077D02*
X1191Y1077D01*
X1174Y1076D02*
X1189Y1076D01*
X1172Y1075D02*
X1186Y1075D01*
X1170Y1074D02*
X1184Y1074D01*
X1168Y1073D02*
X1182Y1073D01*
X1165Y1072D02*
X1180Y1072D01*
X1163Y1071D02*
X1177Y1071D01*
X1161Y1070D02*
X1175Y1070D01*
X1158Y1069D02*
X1175Y1069D01*
X1156Y1068D02*
X1175Y1068D01*
X1155Y1067D02*
X1168Y1067D01*
X1170Y1067D02*
X1177Y1067D01*
X1155Y1066D02*
X1166Y1066D01*
X1170Y1066D02*
X1180Y1066D01*
X1155Y1065D02*
X1164Y1065D01*
X1170Y1065D02*
X1182Y1065D01*
X1155Y1064D02*
X1161Y1064D01*
X1171Y1064D02*
X1184Y1064D01*
X1155Y1063D02*
X1160Y1063D01*
X1172Y1063D02*
X1187Y1063D01*
X1155Y1062D02*
X1160Y1062D01*
X1175Y1062D02*
X1189Y1062D01*
X1155Y1061D02*
X1160Y1061D01*
X1177Y1061D02*
X1191Y1061D01*
X1155Y1060D02*
X1160Y1060D01*
X1179Y1060D02*
X1198Y1060D01*
X1155Y1059D02*
X1160Y1059D01*
X1181Y1059D02*
X1200Y1059D01*
X1155Y1058D02*
X1160Y1058D01*
X1184Y1058D02*
X1201Y1058D01*
X1155Y1057D02*
X1160Y1057D01*
X1186Y1057D02*
X1201Y1057D01*
X1155Y1056D02*
X1159Y1056D01*
X1188Y1056D02*
X1201Y1056D01*
X1155Y1055D02*
X1159Y1055D01*
X1190Y1055D02*
X1200Y1055D01*
X1193Y1054D02*
X1198Y1054D01*
X1169Y1040D02*
X1171Y1040D01*
X1182Y1040D02*
X1193Y1040D01*
X1168Y1039D02*
X1172Y1039D01*
X1181Y1039D02*
X1195Y1039D01*
X1167Y1038D02*
X1172Y1038D01*
X1180Y1038D02*
X1196Y1038D01*
X1167Y1037D02*
X1172Y1037D01*
X1180Y1037D02*
X1197Y1037D01*
X1167Y1036D02*
X1172Y1036D01*
X1180Y1036D02*
X1198Y1036D01*
X1167Y1035D02*
X1172Y1035D01*
X1180Y1035D02*
X1199Y1035D01*
X1167Y1034D02*
X1172Y1034D01*
X1180Y1034D02*
X1185Y1034D01*
X1192Y1034D02*
X1199Y1034D01*
X1167Y1033D02*
X1172Y1033D01*
X1180Y1033D02*
X1185Y1033D01*
X1193Y1033D02*
X1200Y1033D01*
X1167Y1032D02*
X1172Y1032D01*
X1180Y1032D02*
X1185Y1032D01*
X1194Y1032D02*
X1200Y1032D01*
X1167Y1031D02*
X1172Y1031D01*
X1180Y1031D02*
X1185Y1031D01*
X1195Y1031D02*
X1201Y1031D01*
X1167Y1030D02*
X1172Y1030D01*
X1180Y1030D02*
X1185Y1030D01*
X1195Y1030D02*
X1201Y1030D01*
X1167Y1029D02*
X1172Y1029D01*
X1180Y1029D02*
X1185Y1029D01*
X1196Y1029D02*
X1201Y1029D01*
X1167Y1028D02*
X1172Y1028D01*
X1180Y1028D02*
X1185Y1028D01*
X1196Y1028D02*
X1201Y1028D01*
X1167Y1027D02*
X1172Y1027D01*
X1180Y1027D02*
X1185Y1027D01*
X1196Y1027D02*
X1201Y1027D01*
X1167Y1026D02*
X1172Y1026D01*
X1180Y1026D02*
X1185Y1026D01*
X1196Y1026D02*
X1201Y1026D01*
X1167Y1025D02*
X1172Y1025D01*
X1180Y1025D02*
X1185Y1025D01*
X1196Y1025D02*
X1201Y1025D01*
X1167Y1024D02*
X1172Y1024D01*
X1180Y1024D02*
X1185Y1024D01*
X1196Y1024D02*
X1201Y1024D01*
X1167Y1023D02*
X1172Y1023D01*
X1180Y1023D02*
X1185Y1023D01*
X1196Y1023D02*
X1201Y1023D01*
X1167Y1022D02*
X1172Y1022D01*
X1180Y1022D02*
X1185Y1022D01*
X1196Y1022D02*
X1201Y1022D01*
X1167Y1021D02*
X1173Y1021D01*
X1180Y1021D02*
X1185Y1021D01*
X1195Y1021D02*
X1201Y1021D01*
X1167Y1020D02*
X1173Y1020D01*
X1180Y1020D02*
X1185Y1020D01*
X1195Y1020D02*
X1201Y1020D01*
X1168Y1019D02*
X1174Y1019D01*
X1180Y1019D02*
X1185Y1019D01*
X1194Y1019D02*
X1200Y1019D01*
X1168Y1018D02*
X1175Y1018D01*
X1180Y1018D02*
X1185Y1018D01*
X1193Y1018D02*
X1200Y1018D01*
X1169Y1017D02*
X1176Y1017D01*
X1180Y1017D02*
X1185Y1017D01*
X1192Y1017D02*
X1199Y1017D01*
X1169Y1016D02*
X1199Y1016D01*
X1170Y1015D02*
X1198Y1015D01*
X1171Y1014D02*
X1197Y1014D01*
X1172Y1013D02*
X1196Y1013D01*
X1173Y1012D02*
X1195Y1012D01*
X1175Y1011D02*
X1193Y1011D01*
X1189Y996D02*
X1196Y996D01*
X1188Y995D02*
X1197Y995D01*
X1188Y994D02*
X1198Y994D01*
X1188Y993D02*
X1199Y993D01*
X1189Y992D02*
X1200Y992D01*
X1190Y991D02*
X1200Y991D01*
X1195Y990D02*
X1200Y990D01*
X1195Y989D02*
X1201Y989D01*
X1196Y988D02*
X1201Y988D01*
X1196Y987D02*
X1201Y987D01*
X1196Y986D02*
X1201Y986D01*
X1196Y985D02*
X1201Y985D01*
X1196Y984D02*
X1201Y984D01*
X1196Y983D02*
X1201Y983D01*
X1195Y982D02*
X1201Y982D01*
X1194Y981D02*
X1201Y981D01*
X1193Y980D02*
X1200Y980D01*
X1192Y979D02*
X1199Y979D01*
X1191Y978D02*
X1198Y978D01*
X1191Y977D02*
X1198Y977D01*
X1190Y976D02*
X1197Y976D01*
X1189Y975D02*
X1196Y975D01*
X1188Y974D02*
X1195Y974D01*
X1187Y973D02*
X1195Y973D01*
X1168Y972D02*
X1200Y972D01*
X1168Y971D02*
X1200Y971D01*
X1167Y970D02*
X1201Y970D01*
X1168Y969D02*
X1201Y969D01*
X1168Y968D02*
X1200Y968D01*
X1169Y967D02*
X1199Y967D01*
X1277Y955D02*
X1279Y955D01*
X1303Y955D02*
X1307Y955D01*
X1276Y954D02*
X1280Y954D01*
X1302Y954D02*
X1308Y954D01*
X1190Y953D02*
X1194Y953D01*
X1276Y953D02*
X1281Y953D01*
X1301Y953D02*
X1309Y953D01*
X1189Y952D02*
X1196Y952D01*
X1276Y952D02*
X1281Y952D01*
X1300Y952D02*
X1309Y952D01*
X1188Y951D02*
X1198Y951D01*
X1276Y951D02*
X1281Y951D01*
X1299Y951D02*
X1309Y951D01*
X1188Y950D02*
X1199Y950D01*
X1276Y950D02*
X1281Y950D01*
X1298Y950D02*
X1309Y950D01*
X1188Y949D02*
X1199Y949D01*
X1276Y949D02*
X1281Y949D01*
X1297Y949D02*
X1309Y949D01*
X1189Y948D02*
X1200Y948D01*
X1276Y948D02*
X1281Y948D01*
X1296Y948D02*
X1309Y948D01*
X1194Y947D02*
X1200Y947D01*
X1276Y947D02*
X1281Y947D01*
X1295Y947D02*
X1302Y947D01*
X1304Y947D02*
X1309Y947D01*
X1195Y946D02*
X1201Y946D01*
X1276Y946D02*
X1281Y946D01*
X1294Y946D02*
X1301Y946D01*
X1304Y946D02*
X1309Y946D01*
X1195Y945D02*
X1201Y945D01*
X1276Y945D02*
X1281Y945D01*
X1293Y945D02*
X1300Y945D01*
X1304Y945D02*
X1309Y945D01*
X1196Y944D02*
X1201Y944D01*
X1276Y944D02*
X1281Y944D01*
X1292Y944D02*
X1299Y944D01*
X1304Y944D02*
X1309Y944D01*
X1196Y943D02*
X1201Y943D01*
X1276Y943D02*
X1281Y943D01*
X1291Y943D02*
X1299Y943D01*
X1304Y943D02*
X1309Y943D01*
X1196Y942D02*
X1201Y942D01*
X1276Y942D02*
X1281Y942D01*
X1290Y942D02*
X1298Y942D01*
X1304Y942D02*
X1309Y942D01*
X1196Y941D02*
X1201Y941D01*
X1276Y941D02*
X1281Y941D01*
X1289Y941D02*
X1297Y941D01*
X1304Y941D02*
X1309Y941D01*
X1196Y940D02*
X1201Y940D01*
X1276Y940D02*
X1281Y940D01*
X1288Y940D02*
X1296Y940D01*
X1304Y940D02*
X1309Y940D01*
X1195Y939D02*
X1201Y939D01*
X1276Y939D02*
X1281Y939D01*
X1287Y939D02*
X1295Y939D01*
X1304Y939D02*
X1309Y939D01*
X1195Y938D02*
X1201Y938D01*
X1276Y938D02*
X1281Y938D01*
X1286Y938D02*
X1294Y938D01*
X1304Y938D02*
X1309Y938D01*
X1194Y937D02*
X1201Y937D01*
X1276Y937D02*
X1281Y937D01*
X1285Y937D02*
X1293Y937D01*
X1304Y937D02*
X1309Y937D01*
X1193Y936D02*
X1200Y936D01*
X1276Y936D02*
X1281Y936D01*
X1284Y936D02*
X1292Y936D01*
X1304Y936D02*
X1309Y936D01*
X1192Y935D02*
X1199Y935D01*
X1276Y935D02*
X1281Y935D01*
X1283Y935D02*
X1291Y935D01*
X1304Y935D02*
X1309Y935D01*
X1191Y934D02*
X1198Y934D01*
X1276Y934D02*
X1290Y934D01*
X1304Y934D02*
X1309Y934D01*
X1190Y933D02*
X1197Y933D01*
X1276Y933D02*
X1289Y933D01*
X1304Y933D02*
X1309Y933D01*
X1189Y932D02*
X1196Y932D01*
X1276Y932D02*
X1288Y932D01*
X1304Y932D02*
X1309Y932D01*
X1188Y931D02*
X1196Y931D01*
X1276Y931D02*
X1287Y931D01*
X1304Y931D02*
X1309Y931D01*
X1188Y930D02*
X1195Y930D01*
X1276Y930D02*
X1286Y930D01*
X1304Y930D02*
X1309Y930D01*
X1169Y929D02*
X1199Y929D01*
X1276Y929D02*
X1285Y929D01*
X1304Y929D02*
X1309Y929D01*
X1168Y928D02*
X1200Y928D01*
X1276Y928D02*
X1284Y928D01*
X1305Y928D02*
X1308Y928D01*
X1168Y927D02*
X1201Y927D01*
X1276Y927D02*
X1283Y927D01*
X1306Y927D02*
X1307Y927D01*
X1167Y926D02*
X1201Y926D01*
X1277Y926D02*
X1282Y926D01*
X1168Y925D02*
X1200Y925D01*
X1168Y924D02*
X1200Y924D01*
X1277Y911D02*
X1308Y911D01*
X1276Y910D02*
X1309Y910D01*
X1169Y909D02*
X1171Y909D01*
X1181Y909D02*
X1193Y909D01*
X1276Y909D02*
X1309Y909D01*
X1168Y908D02*
X1172Y908D01*
X1181Y908D02*
X1195Y908D01*
X1276Y908D02*
X1309Y908D01*
X1167Y907D02*
X1172Y907D01*
X1180Y907D02*
X1196Y907D01*
X1276Y907D02*
X1308Y907D01*
X1167Y906D02*
X1172Y906D01*
X1180Y906D02*
X1197Y906D01*
X1278Y906D02*
X1307Y906D01*
X1167Y905D02*
X1172Y905D01*
X1180Y905D02*
X1198Y905D01*
X1280Y905D02*
X1287Y905D01*
X1167Y904D02*
X1172Y904D01*
X1180Y904D02*
X1199Y904D01*
X1280Y904D02*
X1286Y904D01*
X1167Y903D02*
X1172Y903D01*
X1180Y903D02*
X1185Y903D01*
X1192Y903D02*
X1199Y903D01*
X1279Y903D02*
X1285Y903D01*
X1167Y902D02*
X1172Y902D01*
X1180Y902D02*
X1185Y902D01*
X1194Y902D02*
X1200Y902D01*
X1278Y902D02*
X1285Y902D01*
X1167Y901D02*
X1172Y901D01*
X1180Y901D02*
X1185Y901D01*
X1195Y901D02*
X1200Y901D01*
X1278Y901D02*
X1284Y901D01*
X1167Y900D02*
X1172Y900D01*
X1180Y900D02*
X1185Y900D01*
X1195Y900D02*
X1201Y900D01*
X1277Y900D02*
X1283Y900D01*
X1167Y899D02*
X1172Y899D01*
X1180Y899D02*
X1185Y899D01*
X1195Y899D02*
X1201Y899D01*
X1277Y899D02*
X1283Y899D01*
X1167Y898D02*
X1172Y898D01*
X1180Y898D02*
X1185Y898D01*
X1196Y898D02*
X1201Y898D01*
X1276Y898D02*
X1282Y898D01*
X1167Y897D02*
X1172Y897D01*
X1180Y897D02*
X1185Y897D01*
X1196Y897D02*
X1201Y897D01*
X1276Y897D02*
X1281Y897D01*
X1167Y896D02*
X1172Y896D01*
X1180Y896D02*
X1185Y896D01*
X1196Y896D02*
X1201Y896D01*
X1276Y896D02*
X1281Y896D01*
X1167Y895D02*
X1172Y895D01*
X1180Y895D02*
X1185Y895D01*
X1196Y895D02*
X1201Y895D01*
X1276Y895D02*
X1281Y895D01*
X1167Y894D02*
X1172Y894D01*
X1180Y894D02*
X1185Y894D01*
X1196Y894D02*
X1201Y894D01*
X1276Y894D02*
X1281Y894D01*
X1167Y893D02*
X1172Y893D01*
X1180Y893D02*
X1185Y893D01*
X1196Y893D02*
X1201Y893D01*
X1276Y893D02*
X1281Y893D01*
X1167Y892D02*
X1172Y892D01*
X1180Y892D02*
X1185Y892D01*
X1196Y892D02*
X1201Y892D01*
X1276Y892D02*
X1281Y892D01*
X1167Y891D02*
X1172Y891D01*
X1180Y891D02*
X1185Y891D01*
X1196Y891D02*
X1201Y891D01*
X1276Y891D02*
X1281Y891D01*
X1167Y890D02*
X1173Y890D01*
X1180Y890D02*
X1185Y890D01*
X1195Y890D02*
X1201Y890D01*
X1276Y890D02*
X1281Y890D01*
X1168Y889D02*
X1173Y889D01*
X1180Y889D02*
X1185Y889D01*
X1195Y889D02*
X1201Y889D01*
X1276Y889D02*
X1282Y889D01*
X1168Y888D02*
X1174Y888D01*
X1180Y888D02*
X1185Y888D01*
X1194Y888D02*
X1200Y888D01*
X1276Y888D02*
X1299Y888D01*
X1168Y887D02*
X1175Y887D01*
X1180Y887D02*
X1185Y887D01*
X1193Y887D02*
X1200Y887D01*
X1277Y887D02*
X1308Y887D01*
X1169Y886D02*
X1176Y886D01*
X1180Y886D02*
X1185Y886D01*
X1192Y886D02*
X1199Y886D01*
X1278Y886D02*
X1309Y886D01*
X1169Y885D02*
X1199Y885D01*
X1278Y885D02*
X1309Y885D01*
X1170Y884D02*
X1198Y884D01*
X1280Y884D02*
X1309Y884D01*
X1171Y883D02*
X1197Y883D01*
X1282Y883D02*
X1308Y883D01*
X1172Y882D02*
X1196Y882D01*
X1298Y882D02*
X1307Y882D01*
X1173Y881D02*
X1194Y881D01*
X1175Y880D02*
X1192Y880D01*
X1298Y868D02*
X1302Y868D01*
X1297Y867D02*
X1304Y867D01*
X1175Y866D02*
X1175Y866D01*
X1296Y866D02*
X1306Y866D01*
X1172Y865D02*
X1177Y865D01*
X1296Y865D02*
X1307Y865D01*
X1171Y864D02*
X1177Y864D01*
X1296Y864D02*
X1308Y864D01*
X1170Y863D02*
X1178Y863D01*
X1297Y863D02*
X1308Y863D01*
X1169Y862D02*
X1177Y862D01*
X1196Y862D02*
X1200Y862D01*
X1302Y862D02*
X1309Y862D01*
X1168Y861D02*
X1177Y861D01*
X1196Y861D02*
X1201Y861D01*
X1303Y861D02*
X1309Y861D01*
X1168Y860D02*
X1175Y860D01*
X1196Y860D02*
X1201Y860D01*
X1304Y860D02*
X1309Y860D01*
X1168Y859D02*
X1173Y859D01*
X1196Y859D02*
X1201Y859D01*
X1304Y859D02*
X1309Y859D01*
X1167Y858D02*
X1173Y858D01*
X1196Y858D02*
X1201Y858D01*
X1304Y858D02*
X1309Y858D01*
X1167Y857D02*
X1172Y857D01*
X1196Y857D02*
X1201Y857D01*
X1304Y857D02*
X1309Y857D01*
X1167Y856D02*
X1172Y856D01*
X1196Y856D02*
X1201Y856D01*
X1304Y856D02*
X1309Y856D01*
X1167Y855D02*
X1172Y855D01*
X1196Y855D02*
X1201Y855D01*
X1304Y855D02*
X1309Y855D01*
X1167Y854D02*
X1172Y854D01*
X1196Y854D02*
X1201Y854D01*
X1304Y854D02*
X1309Y854D01*
X1167Y853D02*
X1172Y853D01*
X1196Y853D02*
X1201Y853D01*
X1303Y853D02*
X1309Y853D01*
X1167Y852D02*
X1172Y852D01*
X1196Y852D02*
X1201Y852D01*
X1302Y852D02*
X1309Y852D01*
X1167Y851D02*
X1172Y851D01*
X1196Y851D02*
X1201Y851D01*
X1301Y851D02*
X1308Y851D01*
X1486Y851D02*
X1488Y851D01*
X1167Y850D02*
X1173Y850D01*
X1196Y850D02*
X1201Y850D01*
X1300Y850D02*
X1307Y850D01*
X1485Y850D02*
X1489Y850D01*
X1168Y849D02*
X1173Y849D01*
X1196Y849D02*
X1201Y849D01*
X1299Y849D02*
X1306Y849D01*
X1485Y849D02*
X1490Y849D01*
X1168Y848D02*
X1208Y848D01*
X1298Y848D02*
X1306Y848D01*
X1485Y848D02*
X1490Y848D01*
X1168Y847D02*
X1210Y847D01*
X1298Y847D02*
X1305Y847D01*
X1485Y847D02*
X1490Y847D01*
X1169Y846D02*
X1211Y846D01*
X1297Y846D02*
X1304Y846D01*
X1485Y846D02*
X1490Y846D01*
X1170Y845D02*
X1211Y845D01*
X1296Y845D02*
X1303Y845D01*
X1485Y845D02*
X1490Y845D01*
X1171Y844D02*
X1211Y844D01*
X1278Y844D02*
X1307Y844D01*
X1485Y844D02*
X1490Y844D01*
X1172Y843D02*
X1210Y843D01*
X1276Y843D02*
X1308Y843D01*
X1485Y843D02*
X1490Y843D01*
X1176Y842D02*
X1208Y842D01*
X1276Y842D02*
X1309Y842D01*
X1485Y842D02*
X1529Y842D01*
X1196Y841D02*
X1201Y841D01*
X1276Y841D02*
X1309Y841D01*
X1485Y841D02*
X1530Y841D01*
X1196Y840D02*
X1201Y840D01*
X1276Y840D02*
X1309Y840D01*
X1485Y840D02*
X1531Y840D01*
X1196Y839D02*
X1201Y839D01*
X1277Y839D02*
X1308Y839D01*
X1485Y839D02*
X1531Y839D01*
X1196Y838D02*
X1201Y838D01*
X1485Y838D02*
X1531Y838D01*
X1196Y837D02*
X1200Y837D01*
X1485Y837D02*
X1531Y837D01*
X1198Y836D02*
X1198Y836D01*
X1485Y836D02*
X1490Y836D01*
X1525Y836D02*
X1531Y836D01*
X1485Y835D02*
X1490Y835D01*
X1526Y835D02*
X1531Y835D01*
X1485Y834D02*
X1490Y834D01*
X1526Y834D02*
X1531Y834D01*
X1485Y833D02*
X1490Y833D01*
X1526Y833D02*
X1531Y833D01*
X1485Y832D02*
X1490Y832D01*
X1526Y832D02*
X1531Y832D01*
X1485Y831D02*
X1490Y831D01*
X1526Y831D02*
X1531Y831D01*
X1485Y830D02*
X1490Y830D01*
X1526Y830D02*
X1531Y830D01*
X1485Y829D02*
X1489Y829D01*
X1526Y829D02*
X1530Y829D01*
X1486Y828D02*
X1489Y828D01*
X1527Y828D02*
X1530Y828D01*
X1277Y824D02*
X1279Y824D01*
X1305Y824D02*
X1308Y824D01*
X1276Y823D02*
X1280Y823D01*
X1304Y823D02*
X1309Y823D01*
X1169Y822D02*
X1183Y822D01*
X1276Y822D02*
X1281Y822D01*
X1304Y822D02*
X1309Y822D01*
X1168Y821D02*
X1195Y821D01*
X1276Y821D02*
X1281Y821D01*
X1304Y821D02*
X1309Y821D01*
X1167Y820D02*
X1197Y820D01*
X1276Y820D02*
X1281Y820D01*
X1304Y820D02*
X1309Y820D01*
X1167Y819D02*
X1198Y819D01*
X1276Y819D02*
X1281Y819D01*
X1304Y819D02*
X1309Y819D01*
X1168Y818D02*
X1199Y818D01*
X1276Y818D02*
X1281Y818D01*
X1304Y818D02*
X1309Y818D01*
X1169Y817D02*
X1200Y817D01*
X1276Y817D02*
X1281Y817D01*
X1304Y817D02*
X1309Y817D01*
X1181Y816D02*
X1200Y816D01*
X1276Y816D02*
X1281Y816D01*
X1304Y816D02*
X1309Y816D01*
X1194Y815D02*
X1200Y815D01*
X1276Y815D02*
X1281Y815D01*
X1304Y815D02*
X1309Y815D01*
X1195Y814D02*
X1201Y814D01*
X1276Y814D02*
X1281Y814D01*
X1304Y814D02*
X1309Y814D01*
X1196Y813D02*
X1201Y813D01*
X1276Y813D02*
X1281Y813D01*
X1304Y813D02*
X1309Y813D01*
X1196Y812D02*
X1201Y812D01*
X1276Y812D02*
X1281Y812D01*
X1304Y812D02*
X1309Y812D01*
X1196Y811D02*
X1201Y811D01*
X1276Y811D02*
X1281Y811D01*
X1304Y811D02*
X1309Y811D01*
X1196Y810D02*
X1201Y810D01*
X1276Y810D02*
X1281Y810D01*
X1304Y810D02*
X1309Y810D01*
X1486Y810D02*
X1488Y810D01*
X1499Y810D02*
X1511Y810D01*
X1196Y809D02*
X1201Y809D01*
X1276Y809D02*
X1281Y809D01*
X1304Y809D02*
X1309Y809D01*
X1485Y809D02*
X1489Y809D01*
X1498Y809D02*
X1512Y809D01*
X1195Y808D02*
X1201Y808D01*
X1276Y808D02*
X1281Y808D01*
X1304Y808D02*
X1309Y808D01*
X1485Y808D02*
X1490Y808D01*
X1497Y808D02*
X1513Y808D01*
X1195Y807D02*
X1200Y807D01*
X1276Y807D02*
X1281Y807D01*
X1303Y807D02*
X1309Y807D01*
X1485Y807D02*
X1490Y807D01*
X1497Y807D02*
X1514Y807D01*
X1194Y806D02*
X1200Y806D01*
X1276Y806D02*
X1282Y806D01*
X1302Y806D02*
X1309Y806D01*
X1485Y806D02*
X1490Y806D01*
X1497Y806D02*
X1515Y806D01*
X1194Y805D02*
X1200Y805D01*
X1276Y805D02*
X1283Y805D01*
X1302Y805D02*
X1308Y805D01*
X1485Y805D02*
X1490Y805D01*
X1497Y805D02*
X1516Y805D01*
X1193Y804D02*
X1199Y804D01*
X1277Y804D02*
X1284Y804D01*
X1301Y804D02*
X1308Y804D01*
X1485Y804D02*
X1490Y804D01*
X1497Y804D02*
X1503Y804D01*
X1510Y804D02*
X1517Y804D01*
X1192Y803D02*
X1199Y803D01*
X1278Y803D02*
X1285Y803D01*
X1300Y803D02*
X1307Y803D01*
X1485Y803D02*
X1490Y803D01*
X1497Y803D02*
X1503Y803D01*
X1511Y803D02*
X1517Y803D01*
X1192Y802D02*
X1198Y802D01*
X1279Y802D02*
X1286Y802D01*
X1299Y802D02*
X1306Y802D01*
X1485Y802D02*
X1490Y802D01*
X1497Y802D02*
X1503Y802D01*
X1512Y802D02*
X1518Y802D01*
X1191Y801D02*
X1197Y801D01*
X1279Y801D02*
X1287Y801D01*
X1298Y801D02*
X1305Y801D01*
X1485Y801D02*
X1490Y801D01*
X1497Y801D02*
X1503Y801D01*
X1512Y801D02*
X1518Y801D01*
X1190Y800D02*
X1197Y800D01*
X1280Y800D02*
X1305Y800D01*
X1485Y800D02*
X1490Y800D01*
X1497Y800D02*
X1503Y800D01*
X1513Y800D02*
X1518Y800D01*
X1190Y799D02*
X1196Y799D01*
X1281Y799D02*
X1304Y799D01*
X1485Y799D02*
X1490Y799D01*
X1497Y799D02*
X1503Y799D01*
X1513Y799D02*
X1518Y799D01*
X1169Y798D02*
X1199Y798D01*
X1282Y798D02*
X1303Y798D01*
X1485Y798D02*
X1490Y798D01*
X1497Y798D02*
X1503Y798D01*
X1513Y798D02*
X1518Y798D01*
X1168Y797D02*
X1200Y797D01*
X1283Y797D02*
X1302Y797D01*
X1485Y797D02*
X1490Y797D01*
X1497Y797D02*
X1503Y797D01*
X1513Y797D02*
X1518Y797D01*
X1167Y796D02*
X1201Y796D01*
X1284Y796D02*
X1300Y796D01*
X1485Y796D02*
X1490Y796D01*
X1497Y796D02*
X1503Y796D01*
X1513Y796D02*
X1518Y796D01*
X1167Y795D02*
X1201Y795D01*
X1286Y795D02*
X1298Y795D01*
X1485Y795D02*
X1490Y795D01*
X1497Y795D02*
X1503Y795D01*
X1513Y795D02*
X1518Y795D01*
X1168Y794D02*
X1200Y794D01*
X1485Y794D02*
X1490Y794D01*
X1497Y794D02*
X1503Y794D01*
X1513Y794D02*
X1518Y794D01*
X1169Y793D02*
X1200Y793D01*
X1485Y793D02*
X1490Y793D01*
X1497Y793D02*
X1503Y793D01*
X1513Y793D02*
X1518Y793D01*
X1485Y792D02*
X1490Y792D01*
X1497Y792D02*
X1503Y792D01*
X1513Y792D02*
X1518Y792D01*
X1485Y791D02*
X1490Y791D01*
X1497Y791D02*
X1503Y791D01*
X1513Y791D02*
X1518Y791D01*
X1485Y790D02*
X1490Y790D01*
X1497Y790D02*
X1503Y790D01*
X1512Y790D02*
X1518Y790D01*
X1485Y789D02*
X1491Y789D01*
X1497Y789D02*
X1503Y789D01*
X1511Y789D02*
X1517Y789D01*
X1485Y788D02*
X1492Y788D01*
X1497Y788D02*
X1503Y788D01*
X1510Y788D02*
X1517Y788D01*
X1486Y787D02*
X1493Y787D01*
X1497Y787D02*
X1503Y787D01*
X1509Y787D02*
X1517Y787D01*
X1487Y786D02*
X1516Y786D01*
X1487Y785D02*
X1515Y785D01*
X1488Y784D02*
X1514Y784D01*
X1489Y783D02*
X1513Y783D01*
X1491Y782D02*
X1512Y782D01*
X1278Y781D02*
X1279Y781D01*
X1493Y781D02*
X1510Y781D01*
X1276Y780D02*
X1302Y780D01*
X1276Y779D02*
X1304Y779D01*
X1175Y778D02*
X1194Y778D01*
X1276Y778D02*
X1306Y778D01*
X1173Y777D02*
X1195Y777D01*
X1276Y777D02*
X1307Y777D01*
X1172Y776D02*
X1196Y776D01*
X1276Y776D02*
X1308Y776D01*
X1171Y775D02*
X1197Y775D01*
X1278Y775D02*
X1308Y775D01*
X1170Y774D02*
X1198Y774D01*
X1278Y774D02*
X1284Y774D01*
X1290Y774D02*
X1296Y774D01*
X1301Y774D02*
X1309Y774D01*
X1169Y773D02*
X1199Y773D01*
X1278Y773D02*
X1284Y773D01*
X1291Y773D02*
X1296Y773D01*
X1303Y773D02*
X1309Y773D01*
X1169Y772D02*
X1175Y772D01*
X1193Y772D02*
X1200Y772D01*
X1277Y772D02*
X1283Y772D01*
X1291Y772D02*
X1296Y772D01*
X1304Y772D02*
X1309Y772D01*
X1168Y771D02*
X1174Y771D01*
X1194Y771D02*
X1200Y771D01*
X1276Y771D02*
X1282Y771D01*
X1291Y771D02*
X1296Y771D01*
X1304Y771D02*
X1309Y771D01*
X1168Y770D02*
X1174Y770D01*
X1195Y770D02*
X1200Y770D01*
X1276Y770D02*
X1282Y770D01*
X1291Y770D02*
X1296Y770D01*
X1304Y770D02*
X1309Y770D01*
X1167Y769D02*
X1173Y769D01*
X1195Y769D02*
X1201Y769D01*
X1276Y769D02*
X1281Y769D01*
X1291Y769D02*
X1296Y769D01*
X1304Y769D02*
X1309Y769D01*
X1167Y768D02*
X1173Y768D01*
X1196Y768D02*
X1201Y768D01*
X1276Y768D02*
X1281Y768D01*
X1291Y768D02*
X1296Y768D01*
X1304Y768D02*
X1309Y768D01*
X1167Y767D02*
X1172Y767D01*
X1196Y767D02*
X1201Y767D01*
X1276Y767D02*
X1281Y767D01*
X1291Y767D02*
X1296Y767D01*
X1304Y767D02*
X1309Y767D01*
X1167Y766D02*
X1172Y766D01*
X1196Y766D02*
X1201Y766D01*
X1276Y766D02*
X1281Y766D01*
X1291Y766D02*
X1296Y766D01*
X1304Y766D02*
X1309Y766D01*
X1167Y765D02*
X1172Y765D01*
X1196Y765D02*
X1201Y765D01*
X1276Y765D02*
X1281Y765D01*
X1291Y765D02*
X1296Y765D01*
X1304Y765D02*
X1309Y765D01*
X1167Y764D02*
X1172Y764D01*
X1196Y764D02*
X1201Y764D01*
X1276Y764D02*
X1281Y764D01*
X1291Y764D02*
X1296Y764D01*
X1304Y764D02*
X1309Y764D01*
X1487Y764D02*
X1487Y764D01*
X1167Y763D02*
X1172Y763D01*
X1196Y763D02*
X1201Y763D01*
X1276Y763D02*
X1281Y763D01*
X1291Y763D02*
X1296Y763D01*
X1304Y763D02*
X1309Y763D01*
X1485Y763D02*
X1489Y763D01*
X1167Y762D02*
X1172Y762D01*
X1196Y762D02*
X1201Y762D01*
X1276Y762D02*
X1281Y762D01*
X1291Y762D02*
X1296Y762D01*
X1304Y762D02*
X1309Y762D01*
X1485Y762D02*
X1489Y762D01*
X1167Y761D02*
X1172Y761D01*
X1196Y761D02*
X1201Y761D01*
X1276Y761D02*
X1281Y761D01*
X1291Y761D02*
X1296Y761D01*
X1304Y761D02*
X1309Y761D01*
X1485Y761D02*
X1490Y761D01*
X1167Y760D02*
X1172Y760D01*
X1196Y760D02*
X1201Y760D01*
X1276Y760D02*
X1281Y760D01*
X1291Y760D02*
X1296Y760D01*
X1304Y760D02*
X1309Y760D01*
X1485Y760D02*
X1490Y760D01*
X1167Y759D02*
X1173Y759D01*
X1195Y759D02*
X1201Y759D01*
X1276Y759D02*
X1281Y759D01*
X1291Y759D02*
X1296Y759D01*
X1304Y759D02*
X1309Y759D01*
X1485Y759D02*
X1490Y759D01*
X1168Y758D02*
X1173Y758D01*
X1195Y758D02*
X1201Y758D01*
X1276Y758D02*
X1282Y758D01*
X1290Y758D02*
X1296Y758D01*
X1305Y758D02*
X1308Y758D01*
X1485Y758D02*
X1490Y758D01*
X1168Y757D02*
X1174Y757D01*
X1194Y757D02*
X1200Y757D01*
X1276Y757D02*
X1296Y757D01*
X1306Y757D02*
X1307Y757D01*
X1485Y757D02*
X1490Y757D01*
X1168Y756D02*
X1175Y756D01*
X1193Y756D02*
X1200Y756D01*
X1277Y756D02*
X1295Y756D01*
X1485Y756D02*
X1490Y756D01*
X1169Y755D02*
X1177Y755D01*
X1192Y755D02*
X1199Y755D01*
X1277Y755D02*
X1295Y755D01*
X1485Y755D02*
X1515Y755D01*
X1528Y755D02*
X1531Y755D01*
X1170Y754D02*
X1198Y754D01*
X1278Y754D02*
X1294Y754D01*
X1485Y754D02*
X1517Y754D01*
X1527Y754D02*
X1533Y754D01*
X1170Y753D02*
X1198Y753D01*
X1279Y753D02*
X1293Y753D01*
X1485Y753D02*
X1518Y753D01*
X1526Y753D02*
X1533Y753D01*
X1171Y752D02*
X1197Y752D01*
X1280Y752D02*
X1291Y752D01*
X1485Y752D02*
X1518Y752D01*
X1526Y752D02*
X1533Y752D01*
X1172Y751D02*
X1196Y751D01*
X1283Y751D02*
X1288Y751D01*
X1485Y751D02*
X1518Y751D01*
X1526Y751D02*
X1533Y751D01*
X1174Y750D02*
X1194Y750D01*
X1485Y750D02*
X1518Y750D01*
X1526Y750D02*
X1533Y750D01*
X1176Y749D02*
X1192Y749D01*
X1485Y749D02*
X1490Y749D01*
X1512Y749D02*
X1518Y749D01*
X1526Y749D02*
X1533Y749D01*
X1485Y748D02*
X1490Y748D01*
X1513Y748D02*
X1518Y748D01*
X1526Y748D02*
X1533Y748D01*
X1485Y747D02*
X1490Y747D01*
X1513Y747D02*
X1518Y747D01*
X1527Y747D02*
X1533Y747D01*
X1485Y746D02*
X1490Y746D01*
X1513Y746D02*
X1518Y746D01*
X1528Y746D02*
X1531Y746D01*
X1485Y745D02*
X1490Y745D01*
X1513Y745D02*
X1518Y745D01*
X1485Y744D02*
X1490Y744D01*
X1513Y744D02*
X1518Y744D01*
X1485Y743D02*
X1490Y743D01*
X1513Y743D02*
X1518Y743D01*
X1485Y742D02*
X1489Y742D01*
X1513Y742D02*
X1518Y742D01*
X1485Y741D02*
X1489Y741D01*
X1514Y741D02*
X1517Y741D01*
X1487Y740D02*
X1487Y740D01*
X1298Y737D02*
X1303Y737D01*
X1297Y736D02*
X1305Y736D01*
X1169Y735D02*
X1213Y735D01*
X1296Y735D02*
X1306Y735D01*
X1168Y734D02*
X1214Y734D01*
X1296Y734D02*
X1307Y734D01*
X1168Y733D02*
X1214Y733D01*
X1297Y733D02*
X1308Y733D01*
X1167Y732D02*
X1214Y732D01*
X1297Y732D02*
X1308Y732D01*
X1168Y731D02*
X1214Y731D01*
X1302Y731D02*
X1309Y731D01*
X1168Y730D02*
X1214Y730D01*
X1303Y730D02*
X1309Y730D01*
X1205Y729D02*
X1214Y729D01*
X1304Y729D02*
X1309Y729D01*
X1205Y728D02*
X1214Y728D01*
X1304Y728D02*
X1309Y728D01*
X1203Y727D02*
X1213Y727D01*
X1304Y727D02*
X1309Y727D01*
X1202Y726D02*
X1211Y726D01*
X1304Y726D02*
X1309Y726D01*
X1200Y725D02*
X1210Y725D01*
X1304Y725D02*
X1309Y725D01*
X1199Y724D02*
X1208Y724D01*
X1304Y724D02*
X1309Y724D01*
X1195Y723D02*
X1207Y723D01*
X1303Y723D02*
X1309Y723D01*
X1194Y722D02*
X1206Y722D01*
X1303Y722D02*
X1309Y722D01*
X1193Y721D02*
X1204Y721D01*
X1302Y721D02*
X1309Y721D01*
X1193Y720D02*
X1203Y720D01*
X1301Y720D02*
X1308Y720D01*
X1486Y720D02*
X1488Y720D01*
X1193Y719D02*
X1205Y719D01*
X1300Y719D02*
X1307Y719D01*
X1485Y719D02*
X1489Y719D01*
X1194Y718D02*
X1206Y718D01*
X1299Y718D02*
X1306Y718D01*
X1485Y718D02*
X1490Y718D01*
X1198Y717D02*
X1208Y717D01*
X1298Y717D02*
X1305Y717D01*
X1485Y717D02*
X1490Y717D01*
X1199Y716D02*
X1209Y716D01*
X1297Y716D02*
X1305Y716D01*
X1485Y716D02*
X1490Y716D01*
X1201Y715D02*
X1210Y715D01*
X1297Y715D02*
X1304Y715D01*
X1485Y715D02*
X1490Y715D01*
X1202Y714D02*
X1212Y714D01*
X1296Y714D02*
X1303Y714D01*
X1485Y714D02*
X1490Y714D01*
X1204Y713D02*
X1213Y713D01*
X1277Y713D02*
X1307Y713D01*
X1485Y713D02*
X1490Y713D01*
X1205Y712D02*
X1214Y712D01*
X1276Y712D02*
X1308Y712D01*
X1485Y712D02*
X1490Y712D01*
X1169Y711D02*
X1214Y711D01*
X1276Y711D02*
X1309Y711D01*
X1485Y711D02*
X1529Y711D01*
X1168Y710D02*
X1214Y710D01*
X1276Y710D02*
X1309Y710D01*
X1485Y710D02*
X1530Y710D01*
X1168Y709D02*
X1214Y709D01*
X1276Y709D02*
X1309Y709D01*
X1485Y709D02*
X1531Y709D01*
X1167Y708D02*
X1214Y708D01*
X1277Y708D02*
X1308Y708D01*
X1485Y708D02*
X1531Y708D01*
X1168Y707D02*
X1214Y707D01*
X1485Y707D02*
X1531Y707D01*
X1168Y706D02*
X1214Y706D01*
X1485Y706D02*
X1531Y706D01*
X1485Y705D02*
X1490Y705D01*
X1526Y705D02*
X1531Y705D01*
X1485Y704D02*
X1490Y704D01*
X1526Y704D02*
X1531Y704D01*
X1485Y703D02*
X1490Y703D01*
X1526Y703D02*
X1531Y703D01*
X1485Y702D02*
X1490Y702D01*
X1526Y702D02*
X1531Y702D01*
X1485Y701D02*
X1490Y701D01*
X1526Y701D02*
X1531Y701D01*
X1485Y700D02*
X1490Y700D01*
X1526Y700D02*
X1531Y700D01*
X1485Y699D02*
X1490Y699D01*
X1526Y699D02*
X1531Y699D01*
X1485Y698D02*
X1489Y698D01*
X1526Y698D02*
X1530Y698D01*
X1486Y697D02*
X1488Y697D01*
X1527Y697D02*
X1530Y697D01*
X1277Y693D02*
X1280Y693D01*
X1290Y693D02*
X1302Y693D01*
X1276Y692D02*
X1280Y692D01*
X1289Y692D02*
X1303Y692D01*
X1276Y691D02*
X1281Y691D01*
X1289Y691D02*
X1305Y691D01*
X1276Y690D02*
X1281Y690D01*
X1288Y690D02*
X1305Y690D01*
X1276Y689D02*
X1281Y689D01*
X1288Y689D02*
X1306Y689D01*
X1276Y688D02*
X1281Y688D01*
X1288Y688D02*
X1307Y688D01*
X1276Y687D02*
X1281Y687D01*
X1288Y687D02*
X1294Y687D01*
X1301Y687D02*
X1308Y687D01*
X1276Y686D02*
X1281Y686D01*
X1288Y686D02*
X1294Y686D01*
X1302Y686D02*
X1308Y686D01*
X1276Y685D02*
X1281Y685D01*
X1288Y685D02*
X1294Y685D01*
X1303Y685D02*
X1309Y685D01*
X1276Y684D02*
X1281Y684D01*
X1288Y684D02*
X1294Y684D01*
X1303Y684D02*
X1309Y684D01*
X1276Y683D02*
X1281Y683D01*
X1288Y683D02*
X1294Y683D01*
X1304Y683D02*
X1309Y683D01*
X1276Y682D02*
X1281Y682D01*
X1288Y682D02*
X1294Y682D01*
X1304Y682D02*
X1309Y682D01*
X1276Y681D02*
X1281Y681D01*
X1288Y681D02*
X1294Y681D01*
X1304Y681D02*
X1309Y681D01*
X1276Y680D02*
X1281Y680D01*
X1288Y680D02*
X1294Y680D01*
X1304Y680D02*
X1309Y680D01*
X1276Y679D02*
X1281Y679D01*
X1288Y679D02*
X1294Y679D01*
X1304Y679D02*
X1309Y679D01*
X1486Y679D02*
X1489Y679D01*
X1527Y679D02*
X1530Y679D01*
X1276Y678D02*
X1281Y678D01*
X1288Y678D02*
X1294Y678D01*
X1304Y678D02*
X1309Y678D01*
X1485Y678D02*
X1489Y678D01*
X1526Y678D02*
X1531Y678D01*
X1276Y677D02*
X1281Y677D01*
X1288Y677D02*
X1294Y677D01*
X1304Y677D02*
X1309Y677D01*
X1485Y677D02*
X1490Y677D01*
X1526Y677D02*
X1531Y677D01*
X1276Y676D02*
X1281Y676D01*
X1288Y676D02*
X1294Y676D01*
X1304Y676D02*
X1309Y676D01*
X1485Y676D02*
X1490Y676D01*
X1526Y676D02*
X1531Y676D01*
X1276Y675D02*
X1281Y675D01*
X1288Y675D02*
X1294Y675D01*
X1304Y675D02*
X1309Y675D01*
X1485Y675D02*
X1490Y675D01*
X1526Y675D02*
X1531Y675D01*
X1276Y674D02*
X1281Y674D01*
X1288Y674D02*
X1294Y674D01*
X1304Y674D02*
X1309Y674D01*
X1485Y674D02*
X1490Y674D01*
X1526Y674D02*
X1531Y674D01*
X1276Y673D02*
X1281Y673D01*
X1288Y673D02*
X1294Y673D01*
X1303Y673D02*
X1309Y673D01*
X1485Y673D02*
X1490Y673D01*
X1526Y673D02*
X1531Y673D01*
X1276Y672D02*
X1282Y672D01*
X1288Y672D02*
X1294Y672D01*
X1302Y672D02*
X1309Y672D01*
X1485Y672D02*
X1490Y672D01*
X1526Y672D02*
X1531Y672D01*
X1277Y671D02*
X1283Y671D01*
X1288Y671D02*
X1294Y671D01*
X1301Y671D02*
X1308Y671D01*
X1485Y671D02*
X1490Y671D01*
X1526Y671D02*
X1531Y671D01*
X1277Y670D02*
X1285Y670D01*
X1288Y670D02*
X1294Y670D01*
X1300Y670D02*
X1308Y670D01*
X1485Y670D02*
X1490Y670D01*
X1526Y670D02*
X1531Y670D01*
X1278Y669D02*
X1307Y669D01*
X1485Y669D02*
X1490Y669D01*
X1526Y669D02*
X1531Y669D01*
X1279Y668D02*
X1306Y668D01*
X1485Y668D02*
X1490Y668D01*
X1526Y668D02*
X1531Y668D01*
X1280Y667D02*
X1305Y667D01*
X1485Y667D02*
X1490Y667D01*
X1506Y667D02*
X1509Y667D01*
X1526Y667D02*
X1531Y667D01*
X1281Y666D02*
X1304Y666D01*
X1485Y666D02*
X1490Y666D01*
X1505Y666D02*
X1510Y666D01*
X1526Y666D02*
X1531Y666D01*
X1282Y665D02*
X1303Y665D01*
X1485Y665D02*
X1490Y665D01*
X1505Y665D02*
X1510Y665D01*
X1526Y665D02*
X1531Y665D01*
X1284Y664D02*
X1300Y664D01*
X1485Y664D02*
X1490Y664D01*
X1505Y664D02*
X1510Y664D01*
X1526Y664D02*
X1531Y664D01*
X1485Y663D02*
X1490Y663D01*
X1505Y663D02*
X1510Y663D01*
X1526Y663D02*
X1531Y663D01*
X1485Y662D02*
X1490Y662D01*
X1505Y662D02*
X1510Y662D01*
X1526Y662D02*
X1531Y662D01*
X1485Y661D02*
X1490Y661D01*
X1505Y661D02*
X1510Y661D01*
X1526Y661D02*
X1531Y661D01*
X1485Y660D02*
X1490Y660D01*
X1505Y660D02*
X1510Y660D01*
X1526Y660D02*
X1531Y660D01*
X1485Y659D02*
X1490Y659D01*
X1505Y659D02*
X1510Y659D01*
X1526Y659D02*
X1531Y659D01*
X1485Y658D02*
X1490Y658D01*
X1505Y658D02*
X1510Y658D01*
X1526Y658D02*
X1531Y658D01*
X1485Y657D02*
X1490Y657D01*
X1505Y657D02*
X1510Y657D01*
X1526Y657D02*
X1531Y657D01*
X1485Y656D02*
X1490Y656D01*
X1505Y656D02*
X1511Y656D01*
X1525Y656D02*
X1531Y656D01*
X1485Y655D02*
X1531Y655D01*
X1485Y654D02*
X1531Y654D01*
X1485Y653D02*
X1531Y653D01*
X1485Y652D02*
X1531Y652D01*
X1485Y651D02*
X1531Y651D01*
X1308Y650D02*
X1320Y650D01*
X1485Y650D02*
X1531Y650D01*
X1306Y649D02*
X1321Y649D01*
X1303Y648D02*
X1322Y648D01*
X1168Y647D02*
X1194Y647D01*
X1301Y647D02*
X1322Y647D01*
X1168Y646D02*
X1196Y646D01*
X1298Y646D02*
X1322Y646D01*
X1167Y645D02*
X1198Y645D01*
X1296Y645D02*
X1321Y645D01*
X1168Y644D02*
X1199Y644D01*
X1293Y644D02*
X1309Y644D01*
X1168Y643D02*
X1199Y643D01*
X1290Y643D02*
X1306Y643D01*
X1170Y642D02*
X1200Y642D01*
X1288Y642D02*
X1304Y642D01*
X1193Y641D02*
X1200Y641D01*
X1285Y641D02*
X1301Y641D01*
X1195Y640D02*
X1201Y640D01*
X1283Y640D02*
X1299Y640D01*
X1195Y639D02*
X1201Y639D01*
X1280Y639D02*
X1296Y639D01*
X1196Y638D02*
X1201Y638D01*
X1278Y638D02*
X1293Y638D01*
X1196Y637D02*
X1201Y637D01*
X1276Y637D02*
X1291Y637D01*
X1196Y636D02*
X1201Y636D01*
X1276Y636D02*
X1288Y636D01*
X1196Y635D02*
X1201Y635D01*
X1276Y635D02*
X1287Y635D01*
X1196Y634D02*
X1201Y634D01*
X1276Y634D02*
X1289Y634D01*
X1195Y633D02*
X1201Y633D01*
X1276Y633D02*
X1292Y633D01*
X1194Y632D02*
X1200Y632D01*
X1278Y632D02*
X1294Y632D01*
X1194Y631D02*
X1200Y631D01*
X1281Y631D02*
X1297Y631D01*
X1193Y630D02*
X1199Y630D01*
X1283Y630D02*
X1299Y630D01*
X1192Y629D02*
X1199Y629D01*
X1286Y629D02*
X1302Y629D01*
X1192Y628D02*
X1198Y628D01*
X1288Y628D02*
X1304Y628D01*
X1191Y627D02*
X1198Y627D01*
X1291Y627D02*
X1307Y627D01*
X1191Y626D02*
X1197Y626D01*
X1294Y626D02*
X1320Y626D01*
X1190Y625D02*
X1196Y625D01*
X1296Y625D02*
X1321Y625D01*
X1171Y624D02*
X1198Y624D01*
X1299Y624D02*
X1322Y624D01*
X1168Y623D02*
X1200Y623D01*
X1301Y623D02*
X1322Y623D01*
X1168Y622D02*
X1201Y622D01*
X1304Y622D02*
X1322Y622D01*
X1167Y621D02*
X1201Y621D01*
X1306Y621D02*
X1321Y621D01*
X1168Y620D02*
X1201Y620D01*
X1168Y619D02*
X1200Y619D01*
X1170Y618D02*
X1198Y618D01*
X1169Y604D02*
X1171Y604D01*
X1182Y604D02*
X1193Y604D01*
X1168Y603D02*
X1172Y603D01*
X1181Y603D02*
X1195Y603D01*
X1167Y602D02*
X1172Y602D01*
X1180Y602D02*
X1196Y602D01*
X1167Y601D02*
X1172Y601D01*
X1180Y601D02*
X1197Y601D01*
X1167Y600D02*
X1172Y600D01*
X1180Y600D02*
X1198Y600D01*
X1167Y599D02*
X1172Y599D01*
X1180Y599D02*
X1199Y599D01*
X1167Y598D02*
X1172Y598D01*
X1180Y598D02*
X1185Y598D01*
X1192Y598D02*
X1199Y598D01*
X1167Y597D02*
X1172Y597D01*
X1180Y597D02*
X1185Y597D01*
X1193Y597D02*
X1200Y597D01*
X1167Y596D02*
X1172Y596D01*
X1180Y596D02*
X1185Y596D01*
X1194Y596D02*
X1200Y596D01*
X1167Y595D02*
X1172Y595D01*
X1180Y595D02*
X1185Y595D01*
X1195Y595D02*
X1201Y595D01*
X1167Y594D02*
X1172Y594D01*
X1180Y594D02*
X1185Y594D01*
X1195Y594D02*
X1201Y594D01*
X1167Y593D02*
X1172Y593D01*
X1180Y593D02*
X1185Y593D01*
X1196Y593D02*
X1201Y593D01*
X1167Y592D02*
X1172Y592D01*
X1180Y592D02*
X1185Y592D01*
X1196Y592D02*
X1201Y592D01*
X1506Y592D02*
X1512Y592D01*
X1167Y591D02*
X1172Y591D01*
X1180Y591D02*
X1185Y591D01*
X1196Y591D02*
X1201Y591D01*
X1506Y591D02*
X1514Y591D01*
X1167Y590D02*
X1172Y590D01*
X1180Y590D02*
X1185Y590D01*
X1196Y590D02*
X1201Y590D01*
X1505Y590D02*
X1515Y590D01*
X1167Y589D02*
X1172Y589D01*
X1180Y589D02*
X1185Y589D01*
X1196Y589D02*
X1201Y589D01*
X1505Y589D02*
X1516Y589D01*
X1167Y588D02*
X1172Y588D01*
X1180Y588D02*
X1185Y588D01*
X1196Y588D02*
X1201Y588D01*
X1506Y588D02*
X1517Y588D01*
X1167Y587D02*
X1172Y587D01*
X1180Y587D02*
X1185Y587D01*
X1196Y587D02*
X1201Y587D01*
X1507Y587D02*
X1517Y587D01*
X1167Y586D02*
X1172Y586D01*
X1180Y586D02*
X1185Y586D01*
X1196Y586D02*
X1201Y586D01*
X1512Y586D02*
X1518Y586D01*
X1167Y585D02*
X1173Y585D01*
X1180Y585D02*
X1185Y585D01*
X1196Y585D02*
X1201Y585D01*
X1512Y585D02*
X1518Y585D01*
X1167Y584D02*
X1173Y584D01*
X1180Y584D02*
X1185Y584D01*
X1195Y584D02*
X1201Y584D01*
X1513Y584D02*
X1518Y584D01*
X1168Y583D02*
X1174Y583D01*
X1180Y583D02*
X1185Y583D01*
X1194Y583D02*
X1200Y583D01*
X1513Y583D02*
X1518Y583D01*
X1168Y582D02*
X1174Y582D01*
X1180Y582D02*
X1185Y582D01*
X1194Y582D02*
X1200Y582D01*
X1513Y582D02*
X1518Y582D01*
X1169Y581D02*
X1176Y581D01*
X1180Y581D02*
X1185Y581D01*
X1192Y581D02*
X1200Y581D01*
X1513Y581D02*
X1518Y581D01*
X1169Y580D02*
X1199Y580D01*
X1513Y580D02*
X1518Y580D01*
X1170Y579D02*
X1198Y579D01*
X1513Y579D02*
X1518Y579D01*
X1171Y578D02*
X1197Y578D01*
X1512Y578D02*
X1518Y578D01*
X1172Y577D02*
X1196Y577D01*
X1511Y577D02*
X1518Y577D01*
X1173Y576D02*
X1195Y576D01*
X1511Y576D02*
X1517Y576D01*
X1175Y575D02*
X1193Y575D01*
X1510Y575D02*
X1517Y575D01*
X1509Y574D02*
X1516Y574D01*
X1508Y573D02*
X1515Y573D01*
X1507Y572D02*
X1514Y572D01*
X1506Y571D02*
X1513Y571D01*
X1505Y570D02*
X1512Y570D01*
X1504Y569D02*
X1512Y569D01*
X1486Y568D02*
X1517Y568D01*
X1485Y567D02*
X1518Y567D01*
X1485Y566D02*
X1518Y566D01*
X1485Y565D02*
X1518Y565D01*
X1485Y564D02*
X1517Y564D01*
X1292Y563D02*
X1298Y563D01*
X1486Y563D02*
X1516Y563D01*
X1277Y562D02*
X1280Y562D01*
X1289Y562D02*
X1302Y562D01*
X1276Y561D02*
X1280Y561D01*
X1289Y561D02*
X1304Y561D01*
X1276Y560D02*
X1281Y560D01*
X1288Y560D02*
X1305Y560D01*
X1276Y559D02*
X1281Y559D01*
X1288Y559D02*
X1306Y559D01*
X1276Y558D02*
X1281Y558D01*
X1288Y558D02*
X1306Y558D01*
X1276Y557D02*
X1281Y557D01*
X1288Y557D02*
X1307Y557D01*
X1276Y556D02*
X1281Y556D01*
X1288Y556D02*
X1294Y556D01*
X1301Y556D02*
X1308Y556D01*
X1276Y555D02*
X1281Y555D01*
X1288Y555D02*
X1294Y555D01*
X1302Y555D02*
X1308Y555D01*
X1276Y554D02*
X1281Y554D01*
X1288Y554D02*
X1294Y554D01*
X1303Y554D02*
X1309Y554D01*
X1276Y553D02*
X1281Y553D01*
X1288Y553D02*
X1294Y553D01*
X1304Y553D02*
X1309Y553D01*
X1276Y552D02*
X1281Y552D01*
X1288Y552D02*
X1294Y552D01*
X1304Y552D02*
X1309Y552D01*
X1276Y551D02*
X1281Y551D01*
X1288Y551D02*
X1294Y551D01*
X1304Y551D02*
X1309Y551D01*
X1276Y550D02*
X1281Y550D01*
X1288Y550D02*
X1294Y550D01*
X1304Y550D02*
X1309Y550D01*
X1276Y549D02*
X1281Y549D01*
X1288Y549D02*
X1294Y549D01*
X1304Y549D02*
X1309Y549D01*
X1494Y549D02*
X1508Y549D01*
X1276Y548D02*
X1281Y548D01*
X1288Y548D02*
X1294Y548D01*
X1304Y548D02*
X1309Y548D01*
X1491Y548D02*
X1511Y548D01*
X1276Y547D02*
X1281Y547D01*
X1288Y547D02*
X1294Y547D01*
X1304Y547D02*
X1309Y547D01*
X1490Y547D02*
X1513Y547D01*
X1276Y546D02*
X1281Y546D01*
X1288Y546D02*
X1294Y546D01*
X1304Y546D02*
X1309Y546D01*
X1489Y546D02*
X1514Y546D01*
X1276Y545D02*
X1281Y545D01*
X1288Y545D02*
X1294Y545D01*
X1304Y545D02*
X1309Y545D01*
X1488Y545D02*
X1515Y545D01*
X1276Y544D02*
X1281Y544D01*
X1288Y544D02*
X1294Y544D01*
X1304Y544D02*
X1309Y544D01*
X1487Y544D02*
X1515Y544D01*
X1276Y543D02*
X1281Y543D01*
X1288Y543D02*
X1294Y543D01*
X1304Y543D02*
X1309Y543D01*
X1486Y543D02*
X1516Y543D01*
X1276Y542D02*
X1282Y542D01*
X1288Y542D02*
X1294Y542D01*
X1303Y542D02*
X1309Y542D01*
X1486Y542D02*
X1492Y542D01*
X1510Y542D02*
X1517Y542D01*
X1276Y541D02*
X1282Y541D01*
X1288Y541D02*
X1294Y541D01*
X1302Y541D02*
X1308Y541D01*
X1485Y541D02*
X1491Y541D01*
X1511Y541D02*
X1517Y541D01*
X1277Y540D02*
X1283Y540D01*
X1288Y540D02*
X1294Y540D01*
X1301Y540D02*
X1308Y540D01*
X1485Y540D02*
X1491Y540D01*
X1512Y540D02*
X1518Y540D01*
X1277Y539D02*
X1286Y539D01*
X1288Y539D02*
X1294Y539D01*
X1299Y539D02*
X1307Y539D01*
X1485Y539D02*
X1490Y539D01*
X1513Y539D02*
X1518Y539D01*
X1278Y538D02*
X1307Y538D01*
X1485Y538D02*
X1490Y538D01*
X1513Y538D02*
X1518Y538D01*
X1279Y537D02*
X1306Y537D01*
X1485Y537D02*
X1490Y537D01*
X1513Y537D02*
X1518Y537D01*
X1280Y536D02*
X1305Y536D01*
X1485Y536D02*
X1490Y536D01*
X1513Y536D02*
X1518Y536D01*
X1281Y535D02*
X1304Y535D01*
X1485Y535D02*
X1490Y535D01*
X1513Y535D02*
X1518Y535D01*
X1282Y534D02*
X1302Y534D01*
X1485Y534D02*
X1490Y534D01*
X1513Y534D02*
X1518Y534D01*
X1285Y533D02*
X1299Y533D01*
X1485Y533D02*
X1490Y533D01*
X1513Y533D02*
X1518Y533D01*
X1485Y532D02*
X1490Y532D01*
X1513Y532D02*
X1518Y532D01*
X1485Y531D02*
X1490Y531D01*
X1513Y531D02*
X1518Y531D01*
X1485Y530D02*
X1490Y530D01*
X1513Y530D02*
X1518Y530D01*
X1485Y529D02*
X1490Y529D01*
X1513Y529D02*
X1518Y529D01*
X1485Y528D02*
X1491Y528D01*
X1512Y528D02*
X1518Y528D01*
X1485Y527D02*
X1491Y527D01*
X1511Y527D02*
X1517Y527D01*
X1486Y526D02*
X1492Y526D01*
X1510Y526D02*
X1517Y526D01*
X1486Y525D02*
X1516Y525D01*
X1487Y524D02*
X1515Y524D01*
X1488Y523D02*
X1515Y523D01*
X1489Y522D02*
X1514Y522D01*
X1490Y521D02*
X1513Y521D01*
X1491Y520D02*
X1511Y520D01*
X1277Y519D02*
X1320Y519D01*
X1495Y519D02*
X1508Y519D01*
X1276Y518D02*
X1321Y518D01*
X1176Y517D02*
X1192Y517D01*
X1276Y517D02*
X1322Y517D01*
X1174Y516D02*
X1194Y516D01*
X1276Y516D02*
X1322Y516D01*
X1173Y515D02*
X1196Y515D01*
X1276Y515D02*
X1321Y515D01*
X1171Y514D02*
X1197Y514D01*
X1277Y514D02*
X1321Y514D01*
X1171Y513D02*
X1198Y513D01*
X1279Y513D02*
X1287Y513D01*
X1298Y513D02*
X1305Y513D01*
X1170Y512D02*
X1198Y512D01*
X1279Y512D02*
X1286Y512D01*
X1299Y512D02*
X1306Y512D01*
X1169Y511D02*
X1177Y511D01*
X1191Y511D02*
X1199Y511D01*
X1278Y511D02*
X1285Y511D01*
X1300Y511D02*
X1307Y511D01*
X1168Y510D02*
X1175Y510D01*
X1193Y510D02*
X1200Y510D01*
X1277Y510D02*
X1284Y510D01*
X1301Y510D02*
X1307Y510D01*
X1168Y509D02*
X1174Y509D01*
X1194Y509D02*
X1200Y509D01*
X1277Y509D02*
X1283Y509D01*
X1301Y509D02*
X1308Y509D01*
X1168Y508D02*
X1173Y508D01*
X1195Y508D02*
X1200Y508D01*
X1276Y508D02*
X1282Y508D01*
X1302Y508D02*
X1308Y508D01*
X1167Y507D02*
X1173Y507D01*
X1195Y507D02*
X1201Y507D01*
X1276Y507D02*
X1281Y507D01*
X1303Y507D02*
X1309Y507D01*
X1381Y507D02*
X1406Y507D01*
X1167Y506D02*
X1173Y506D01*
X1196Y506D02*
X1201Y506D01*
X1276Y506D02*
X1281Y506D01*
X1304Y506D02*
X1309Y506D01*
X1380Y506D02*
X1409Y506D01*
X1167Y505D02*
X1172Y505D01*
X1196Y505D02*
X1201Y505D01*
X1276Y505D02*
X1281Y505D01*
X1304Y505D02*
X1309Y505D01*
X1380Y505D02*
X1411Y505D01*
X1494Y505D02*
X1509Y505D01*
X1167Y504D02*
X1172Y504D01*
X1196Y504D02*
X1201Y504D01*
X1276Y504D02*
X1281Y504D01*
X1304Y504D02*
X1309Y504D01*
X1380Y504D02*
X1411Y504D01*
X1492Y504D02*
X1510Y504D01*
X1167Y503D02*
X1172Y503D01*
X1196Y503D02*
X1201Y503D01*
X1276Y503D02*
X1281Y503D01*
X1304Y503D02*
X1309Y503D01*
X1381Y503D02*
X1412Y503D01*
X1491Y503D02*
X1512Y503D01*
X1167Y502D02*
X1172Y502D01*
X1196Y502D02*
X1201Y502D01*
X1276Y502D02*
X1281Y502D01*
X1304Y502D02*
X1309Y502D01*
X1382Y502D02*
X1413Y502D01*
X1490Y502D02*
X1513Y502D01*
X1167Y501D02*
X1172Y501D01*
X1196Y501D02*
X1201Y501D01*
X1276Y501D02*
X1281Y501D01*
X1304Y501D02*
X1309Y501D01*
X1405Y501D02*
X1413Y501D01*
X1489Y501D02*
X1514Y501D01*
X1167Y500D02*
X1172Y500D01*
X1196Y500D02*
X1201Y500D01*
X1276Y500D02*
X1281Y500D01*
X1304Y500D02*
X1309Y500D01*
X1408Y500D02*
X1413Y500D01*
X1488Y500D02*
X1515Y500D01*
X1167Y499D02*
X1172Y499D01*
X1196Y499D02*
X1201Y499D01*
X1276Y499D02*
X1281Y499D01*
X1303Y499D02*
X1309Y499D01*
X1408Y499D02*
X1413Y499D01*
X1487Y499D02*
X1494Y499D01*
X1508Y499D02*
X1515Y499D01*
X1167Y498D02*
X1173Y498D01*
X1196Y498D02*
X1201Y498D01*
X1276Y498D02*
X1282Y498D01*
X1303Y498D02*
X1309Y498D01*
X1407Y498D02*
X1413Y498D01*
X1486Y498D02*
X1493Y498D01*
X1509Y498D02*
X1516Y498D01*
X1168Y497D02*
X1173Y497D01*
X1195Y497D02*
X1201Y497D01*
X1276Y497D02*
X1283Y497D01*
X1302Y497D02*
X1308Y497D01*
X1406Y497D02*
X1412Y497D01*
X1485Y497D02*
X1492Y497D01*
X1510Y497D02*
X1517Y497D01*
X1168Y496D02*
X1174Y496D01*
X1195Y496D02*
X1200Y496D01*
X1277Y496D02*
X1284Y496D01*
X1301Y496D02*
X1308Y496D01*
X1405Y496D02*
X1412Y496D01*
X1485Y496D02*
X1492Y496D01*
X1511Y496D02*
X1518Y496D01*
X1168Y495D02*
X1174Y495D01*
X1194Y495D02*
X1200Y495D01*
X1277Y495D02*
X1307Y495D01*
X1381Y495D02*
X1411Y495D01*
X1484Y495D02*
X1491Y495D01*
X1512Y495D02*
X1518Y495D01*
X1169Y494D02*
X1175Y494D01*
X1193Y494D02*
X1200Y494D01*
X1278Y494D02*
X1306Y494D01*
X1380Y494D02*
X1411Y494D01*
X1484Y494D02*
X1490Y494D01*
X1513Y494D02*
X1519Y494D01*
X1169Y493D02*
X1199Y493D01*
X1279Y493D02*
X1305Y493D01*
X1380Y493D02*
X1411Y493D01*
X1483Y493D02*
X1489Y493D01*
X1513Y493D02*
X1519Y493D01*
X1170Y492D02*
X1198Y492D01*
X1280Y492D02*
X1304Y492D01*
X1380Y492D02*
X1412Y492D01*
X1483Y492D02*
X1489Y492D01*
X1514Y492D02*
X1519Y492D01*
X1171Y491D02*
X1197Y491D01*
X1281Y491D02*
X1303Y491D01*
X1380Y491D02*
X1413Y491D01*
X1483Y491D02*
X1488Y491D01*
X1514Y491D02*
X1519Y491D01*
X1172Y490D02*
X1196Y490D01*
X1283Y490D02*
X1302Y490D01*
X1381Y490D02*
X1413Y490D01*
X1483Y490D02*
X1488Y490D01*
X1514Y490D02*
X1519Y490D01*
X1173Y489D02*
X1195Y489D01*
X1407Y489D02*
X1413Y489D01*
X1483Y489D02*
X1489Y489D01*
X1514Y489D02*
X1519Y489D01*
X1174Y488D02*
X1194Y488D01*
X1408Y488D02*
X1413Y488D01*
X1484Y488D02*
X1489Y488D01*
X1513Y488D02*
X1519Y488D01*
X1408Y487D02*
X1413Y487D01*
X1484Y487D02*
X1490Y487D01*
X1513Y487D02*
X1519Y487D01*
X1407Y486D02*
X1413Y486D01*
X1484Y486D02*
X1491Y486D01*
X1511Y486D02*
X1518Y486D01*
X1406Y485D02*
X1412Y485D01*
X1485Y485D02*
X1492Y485D01*
X1510Y485D02*
X1518Y485D01*
X1405Y484D02*
X1412Y484D01*
X1485Y484D02*
X1493Y484D01*
X1509Y484D02*
X1517Y484D01*
X1404Y483D02*
X1411Y483D01*
X1486Y483D02*
X1494Y483D01*
X1508Y483D02*
X1516Y483D01*
X1381Y482D02*
X1412Y482D01*
X1487Y482D02*
X1495Y482D01*
X1507Y482D02*
X1515Y482D01*
X1380Y481D02*
X1413Y481D01*
X1473Y481D02*
X1518Y481D01*
X1380Y480D02*
X1413Y480D01*
X1472Y480D02*
X1519Y480D01*
X1380Y479D02*
X1413Y479D01*
X1472Y479D02*
X1519Y479D01*
X1381Y478D02*
X1412Y478D01*
X1472Y478D02*
X1519Y478D01*
X1382Y477D02*
X1411Y477D01*
X1472Y477D02*
X1519Y477D01*
X1473Y476D02*
X1518Y476D01*
X1169Y473D02*
X1212Y473D01*
X1168Y472D02*
X1213Y472D01*
X1167Y471D02*
X1214Y471D01*
X1167Y470D02*
X1213Y470D01*
X1168Y469D02*
X1213Y469D01*
X1169Y468D02*
X1212Y468D01*
X1171Y467D02*
X1178Y467D01*
X1190Y467D02*
X1197Y467D01*
X1170Y466D02*
X1177Y466D01*
X1191Y466D02*
X1198Y466D01*
X1169Y465D02*
X1176Y465D01*
X1192Y465D02*
X1199Y465D01*
X1169Y464D02*
X1176Y464D01*
X1193Y464D02*
X1199Y464D01*
X1168Y463D02*
X1175Y463D01*
X1193Y463D02*
X1200Y463D01*
X1387Y463D02*
X1406Y463D01*
X1168Y462D02*
X1174Y462D01*
X1194Y462D02*
X1200Y462D01*
X1385Y462D02*
X1408Y462D01*
X1168Y461D02*
X1173Y461D01*
X1195Y461D02*
X1201Y461D01*
X1384Y461D02*
X1409Y461D01*
X1167Y460D02*
X1173Y460D01*
X1196Y460D02*
X1201Y460D01*
X1383Y460D02*
X1410Y460D01*
X1167Y459D02*
X1172Y459D01*
X1196Y459D02*
X1201Y459D01*
X1382Y459D02*
X1411Y459D01*
X1167Y458D02*
X1172Y458D01*
X1196Y458D02*
X1201Y458D01*
X1382Y458D02*
X1411Y458D01*
X1167Y457D02*
X1172Y457D01*
X1196Y457D02*
X1201Y457D01*
X1381Y457D02*
X1388Y457D01*
X1405Y457D02*
X1412Y457D01*
X1167Y456D02*
X1172Y456D01*
X1196Y456D02*
X1201Y456D01*
X1380Y456D02*
X1387Y456D01*
X1406Y456D02*
X1412Y456D01*
X1167Y455D02*
X1172Y455D01*
X1196Y455D02*
X1201Y455D01*
X1380Y455D02*
X1386Y455D01*
X1407Y455D02*
X1413Y455D01*
X1167Y454D02*
X1173Y454D01*
X1195Y454D02*
X1201Y454D01*
X1380Y454D02*
X1385Y454D01*
X1408Y454D02*
X1413Y454D01*
X1168Y453D02*
X1173Y453D01*
X1195Y453D02*
X1201Y453D01*
X1380Y453D02*
X1385Y453D01*
X1408Y453D02*
X1413Y453D01*
X1168Y452D02*
X1174Y452D01*
X1194Y452D02*
X1200Y452D01*
X1380Y452D02*
X1385Y452D01*
X1408Y452D02*
X1413Y452D01*
X1168Y451D02*
X1175Y451D01*
X1193Y451D02*
X1200Y451D01*
X1380Y451D02*
X1385Y451D01*
X1408Y451D02*
X1413Y451D01*
X1169Y450D02*
X1176Y450D01*
X1192Y450D02*
X1199Y450D01*
X1380Y450D02*
X1385Y450D01*
X1408Y450D02*
X1413Y450D01*
X1169Y449D02*
X1199Y449D01*
X1380Y449D02*
X1385Y449D01*
X1408Y449D02*
X1413Y449D01*
X1170Y448D02*
X1198Y448D01*
X1380Y448D02*
X1385Y448D01*
X1408Y448D02*
X1413Y448D01*
X1171Y447D02*
X1197Y447D01*
X1380Y447D02*
X1385Y447D01*
X1408Y447D02*
X1413Y447D01*
X1172Y446D02*
X1196Y446D01*
X1380Y446D02*
X1385Y446D01*
X1408Y446D02*
X1413Y446D01*
X1173Y445D02*
X1195Y445D01*
X1380Y445D02*
X1385Y445D01*
X1408Y445D02*
X1413Y445D01*
X1175Y444D02*
X1193Y444D01*
X1380Y444D02*
X1385Y444D01*
X1408Y444D02*
X1413Y444D01*
X1380Y443D02*
X1386Y443D01*
X1407Y443D02*
X1413Y443D01*
X1380Y442D02*
X1386Y442D01*
X1407Y442D02*
X1413Y442D01*
X1381Y441D02*
X1387Y441D01*
X1406Y441D02*
X1412Y441D01*
X1381Y440D02*
X1389Y440D01*
X1404Y440D02*
X1412Y440D01*
X1382Y439D02*
X1411Y439D01*
X1383Y438D02*
X1410Y438D01*
X1384Y437D02*
X1409Y437D01*
X1385Y436D02*
X1408Y436D01*
X1386Y435D02*
X1407Y435D01*
X1388Y434D02*
X1404Y434D01*
X1285Y432D02*
X1300Y432D01*
X1282Y431D02*
X1302Y431D01*
X1170Y430D02*
X1170Y430D01*
X1281Y430D02*
X1304Y430D01*
X1168Y429D02*
X1194Y429D01*
X1280Y429D02*
X1305Y429D01*
X1168Y428D02*
X1196Y428D01*
X1279Y428D02*
X1306Y428D01*
X1167Y427D02*
X1198Y427D01*
X1278Y427D02*
X1307Y427D01*
X1168Y426D02*
X1199Y426D01*
X1277Y426D02*
X1285Y426D01*
X1299Y426D02*
X1307Y426D01*
X1168Y425D02*
X1199Y425D01*
X1277Y425D02*
X1283Y425D01*
X1301Y425D02*
X1308Y425D01*
X1170Y424D02*
X1200Y424D01*
X1276Y424D02*
X1282Y424D01*
X1302Y424D02*
X1308Y424D01*
X1170Y423D02*
X1176Y423D01*
X1181Y423D02*
X1188Y423D01*
X1193Y423D02*
X1200Y423D01*
X1276Y423D02*
X1282Y423D01*
X1303Y423D02*
X1309Y423D01*
X1169Y422D02*
X1175Y422D01*
X1182Y422D02*
X1188Y422D01*
X1195Y422D02*
X1201Y422D01*
X1276Y422D02*
X1281Y422D01*
X1304Y422D02*
X1309Y422D01*
X1169Y421D02*
X1175Y421D01*
X1183Y421D02*
X1188Y421D01*
X1196Y421D02*
X1201Y421D01*
X1276Y421D02*
X1281Y421D01*
X1304Y421D02*
X1309Y421D01*
X1168Y420D02*
X1174Y420D01*
X1183Y420D02*
X1188Y420D01*
X1196Y420D02*
X1201Y420D01*
X1276Y420D02*
X1281Y420D01*
X1304Y420D02*
X1309Y420D01*
X1382Y420D02*
X1383Y420D01*
X1410Y420D02*
X1411Y420D01*
X1168Y419D02*
X1174Y419D01*
X1183Y419D02*
X1188Y419D01*
X1196Y419D02*
X1201Y419D01*
X1276Y419D02*
X1281Y419D01*
X1304Y419D02*
X1309Y419D01*
X1380Y419D02*
X1384Y419D01*
X1409Y419D02*
X1413Y419D01*
X1167Y418D02*
X1173Y418D01*
X1183Y418D02*
X1188Y418D01*
X1196Y418D02*
X1201Y418D01*
X1276Y418D02*
X1281Y418D01*
X1304Y418D02*
X1309Y418D01*
X1380Y418D02*
X1385Y418D01*
X1408Y418D02*
X1413Y418D01*
X1493Y418D02*
X1509Y418D01*
X1167Y417D02*
X1173Y417D01*
X1183Y417D02*
X1188Y417D01*
X1196Y417D02*
X1201Y417D01*
X1276Y417D02*
X1281Y417D01*
X1304Y417D02*
X1309Y417D01*
X1380Y417D02*
X1385Y417D01*
X1408Y417D02*
X1413Y417D01*
X1491Y417D02*
X1512Y417D01*
X1167Y416D02*
X1172Y416D01*
X1183Y416D02*
X1188Y416D01*
X1196Y416D02*
X1201Y416D01*
X1276Y416D02*
X1281Y416D01*
X1304Y416D02*
X1309Y416D01*
X1380Y416D02*
X1385Y416D01*
X1408Y416D02*
X1413Y416D01*
X1490Y416D02*
X1513Y416D01*
X1167Y415D02*
X1172Y415D01*
X1183Y415D02*
X1188Y415D01*
X1196Y415D02*
X1201Y415D01*
X1276Y415D02*
X1281Y415D01*
X1304Y415D02*
X1309Y415D01*
X1380Y415D02*
X1385Y415D01*
X1408Y415D02*
X1413Y415D01*
X1489Y415D02*
X1514Y415D01*
X1167Y414D02*
X1172Y414D01*
X1183Y414D02*
X1188Y414D01*
X1196Y414D02*
X1201Y414D01*
X1276Y414D02*
X1281Y414D01*
X1304Y414D02*
X1309Y414D01*
X1380Y414D02*
X1385Y414D01*
X1408Y414D02*
X1413Y414D01*
X1488Y414D02*
X1515Y414D01*
X1167Y413D02*
X1172Y413D01*
X1183Y413D02*
X1188Y413D01*
X1196Y413D02*
X1201Y413D01*
X1276Y413D02*
X1281Y413D01*
X1304Y413D02*
X1309Y413D01*
X1380Y413D02*
X1385Y413D01*
X1408Y413D02*
X1413Y413D01*
X1487Y413D02*
X1516Y413D01*
X1167Y412D02*
X1172Y412D01*
X1183Y412D02*
X1188Y412D01*
X1196Y412D02*
X1201Y412D01*
X1276Y412D02*
X1281Y412D01*
X1304Y412D02*
X1309Y412D01*
X1380Y412D02*
X1385Y412D01*
X1408Y412D02*
X1413Y412D01*
X1486Y412D02*
X1494Y412D01*
X1509Y412D02*
X1516Y412D01*
X1167Y411D02*
X1172Y411D01*
X1183Y411D02*
X1188Y411D01*
X1196Y411D02*
X1201Y411D01*
X1276Y411D02*
X1282Y411D01*
X1303Y411D02*
X1309Y411D01*
X1380Y411D02*
X1385Y411D01*
X1408Y411D02*
X1413Y411D01*
X1486Y411D02*
X1492Y411D01*
X1510Y411D02*
X1517Y411D01*
X1167Y410D02*
X1172Y410D01*
X1183Y410D02*
X1188Y410D01*
X1196Y410D02*
X1201Y410D01*
X1276Y410D02*
X1283Y410D01*
X1302Y410D02*
X1308Y410D01*
X1380Y410D02*
X1385Y410D01*
X1408Y410D02*
X1413Y410D01*
X1485Y410D02*
X1491Y410D01*
X1511Y410D02*
X1517Y410D01*
X1167Y409D02*
X1172Y409D01*
X1183Y409D02*
X1188Y409D01*
X1196Y409D02*
X1201Y409D01*
X1277Y409D02*
X1284Y409D01*
X1301Y409D02*
X1308Y409D01*
X1380Y409D02*
X1385Y409D01*
X1408Y409D02*
X1413Y409D01*
X1485Y409D02*
X1490Y409D01*
X1512Y409D02*
X1518Y409D01*
X1167Y408D02*
X1173Y408D01*
X1183Y408D02*
X1188Y408D01*
X1196Y408D02*
X1201Y408D01*
X1277Y408D02*
X1307Y408D01*
X1380Y408D02*
X1385Y408D01*
X1408Y408D02*
X1413Y408D01*
X1485Y408D02*
X1490Y408D01*
X1513Y408D02*
X1518Y408D01*
X1168Y407D02*
X1173Y407D01*
X1182Y407D02*
X1188Y407D01*
X1196Y407D02*
X1200Y407D01*
X1278Y407D02*
X1306Y407D01*
X1380Y407D02*
X1385Y407D01*
X1408Y407D02*
X1413Y407D01*
X1485Y407D02*
X1490Y407D01*
X1513Y407D02*
X1518Y407D01*
X1168Y406D02*
X1176Y406D01*
X1180Y406D02*
X1187Y406D01*
X1198Y406D02*
X1198Y406D01*
X1279Y406D02*
X1306Y406D01*
X1380Y406D02*
X1385Y406D01*
X1408Y406D02*
X1413Y406D01*
X1485Y406D02*
X1490Y406D01*
X1513Y406D02*
X1518Y406D01*
X1168Y405D02*
X1187Y405D01*
X1280Y405D02*
X1305Y405D01*
X1380Y405D02*
X1385Y405D01*
X1408Y405D02*
X1413Y405D01*
X1485Y405D02*
X1490Y405D01*
X1513Y405D02*
X1518Y405D01*
X1169Y404D02*
X1186Y404D01*
X1281Y404D02*
X1303Y404D01*
X1380Y404D02*
X1385Y404D01*
X1408Y404D02*
X1413Y404D01*
X1485Y404D02*
X1490Y404D01*
X1513Y404D02*
X1518Y404D01*
X1170Y403D02*
X1186Y403D01*
X1282Y403D02*
X1302Y403D01*
X1380Y403D02*
X1385Y403D01*
X1408Y403D02*
X1413Y403D01*
X1485Y403D02*
X1490Y403D01*
X1513Y403D02*
X1518Y403D01*
X1171Y402D02*
X1185Y402D01*
X1380Y402D02*
X1386Y402D01*
X1407Y402D02*
X1413Y402D01*
X1485Y402D02*
X1490Y402D01*
X1513Y402D02*
X1518Y402D01*
X1172Y401D02*
X1183Y401D01*
X1380Y401D02*
X1387Y401D01*
X1406Y401D02*
X1412Y401D01*
X1485Y401D02*
X1490Y401D01*
X1513Y401D02*
X1518Y401D01*
X1175Y400D02*
X1180Y400D01*
X1381Y400D02*
X1388Y400D01*
X1405Y400D02*
X1412Y400D01*
X1485Y400D02*
X1490Y400D01*
X1513Y400D02*
X1518Y400D01*
X1382Y399D02*
X1389Y399D01*
X1404Y399D02*
X1411Y399D01*
X1485Y399D02*
X1490Y399D01*
X1513Y399D02*
X1518Y399D01*
X1382Y398D02*
X1389Y398D01*
X1404Y398D02*
X1411Y398D01*
X1485Y398D02*
X1490Y398D01*
X1512Y398D02*
X1518Y398D01*
X1383Y397D02*
X1390Y397D01*
X1403Y397D02*
X1410Y397D01*
X1485Y397D02*
X1491Y397D01*
X1512Y397D02*
X1518Y397D01*
X1384Y396D02*
X1409Y396D01*
X1485Y396D02*
X1492Y396D01*
X1511Y396D02*
X1517Y396D01*
X1385Y395D02*
X1408Y395D01*
X1486Y395D02*
X1493Y395D01*
X1510Y395D02*
X1517Y395D01*
X1386Y394D02*
X1407Y394D01*
X1486Y394D02*
X1516Y394D01*
X1387Y393D02*
X1406Y393D01*
X1487Y393D02*
X1515Y393D01*
X1388Y392D02*
X1405Y392D01*
X1488Y392D02*
X1514Y392D01*
X1389Y391D02*
X1404Y391D01*
X1489Y391D02*
X1514Y391D01*
X1490Y390D02*
X1512Y390D01*
X1492Y389D02*
X1511Y389D01*
X1281Y388D02*
X1284Y388D01*
X1280Y387D02*
X1285Y387D01*
X1279Y386D02*
X1286Y386D01*
X1278Y385D02*
X1286Y385D01*
X1305Y385D02*
X1308Y385D01*
X1277Y384D02*
X1285Y384D01*
X1304Y384D02*
X1309Y384D01*
X1169Y383D02*
X1171Y383D01*
X1276Y383D02*
X1284Y383D01*
X1304Y383D02*
X1309Y383D01*
X1168Y382D02*
X1172Y382D01*
X1276Y382D02*
X1282Y382D01*
X1304Y382D02*
X1309Y382D01*
X1167Y381D02*
X1172Y381D01*
X1276Y381D02*
X1281Y381D01*
X1304Y381D02*
X1309Y381D01*
X1167Y380D02*
X1172Y380D01*
X1276Y380D02*
X1281Y380D01*
X1304Y380D02*
X1309Y380D01*
X1167Y379D02*
X1172Y379D01*
X1276Y379D02*
X1281Y379D01*
X1304Y379D02*
X1309Y379D01*
X1167Y378D02*
X1172Y378D01*
X1276Y378D02*
X1281Y378D01*
X1304Y378D02*
X1309Y378D01*
X1167Y377D02*
X1172Y377D01*
X1276Y377D02*
X1281Y377D01*
X1304Y377D02*
X1309Y377D01*
X1167Y376D02*
X1172Y376D01*
X1276Y376D02*
X1281Y376D01*
X1304Y376D02*
X1309Y376D01*
X1167Y375D02*
X1172Y375D01*
X1276Y375D02*
X1281Y375D01*
X1304Y375D02*
X1309Y375D01*
X1167Y374D02*
X1212Y374D01*
X1276Y374D02*
X1281Y374D01*
X1304Y374D02*
X1309Y374D01*
X1486Y374D02*
X1530Y374D01*
X1167Y373D02*
X1213Y373D01*
X1276Y373D02*
X1281Y373D01*
X1304Y373D02*
X1309Y373D01*
X1485Y373D02*
X1530Y373D01*
X1167Y372D02*
X1213Y372D01*
X1276Y372D02*
X1281Y372D01*
X1304Y372D02*
X1309Y372D01*
X1485Y372D02*
X1531Y372D01*
X1167Y371D02*
X1214Y371D01*
X1276Y371D02*
X1282Y371D01*
X1304Y371D02*
X1309Y371D01*
X1485Y371D02*
X1531Y371D01*
X1167Y370D02*
X1214Y370D01*
X1276Y370D02*
X1318Y370D01*
X1485Y370D02*
X1530Y370D01*
X1167Y369D02*
X1214Y369D01*
X1277Y369D02*
X1319Y369D01*
X1486Y369D02*
X1529Y369D01*
X1167Y368D02*
X1173Y368D01*
X1208Y368D02*
X1214Y368D01*
X1278Y368D02*
X1319Y368D01*
X1488Y368D02*
X1496Y368D01*
X1507Y368D02*
X1514Y368D01*
X1167Y367D02*
X1172Y367D01*
X1208Y367D02*
X1214Y367D01*
X1278Y367D02*
X1319Y367D01*
X1389Y367D02*
X1396Y367D01*
X1487Y367D02*
X1494Y367D01*
X1508Y367D02*
X1515Y367D01*
X1167Y366D02*
X1172Y366D01*
X1208Y366D02*
X1214Y366D01*
X1280Y366D02*
X1319Y366D01*
X1388Y366D02*
X1397Y366D01*
X1486Y366D02*
X1494Y366D01*
X1509Y366D02*
X1516Y366D01*
X1167Y365D02*
X1172Y365D01*
X1208Y365D02*
X1214Y365D01*
X1282Y365D02*
X1318Y365D01*
X1388Y365D02*
X1398Y365D01*
X1486Y365D02*
X1493Y365D01*
X1510Y365D02*
X1517Y365D01*
X1167Y364D02*
X1172Y364D01*
X1208Y364D02*
X1214Y364D01*
X1304Y364D02*
X1309Y364D01*
X1387Y364D02*
X1398Y364D01*
X1485Y364D02*
X1492Y364D01*
X1511Y364D02*
X1517Y364D01*
X1167Y363D02*
X1172Y363D01*
X1208Y363D02*
X1214Y363D01*
X1304Y363D02*
X1309Y363D01*
X1387Y363D02*
X1398Y363D01*
X1485Y363D02*
X1491Y363D01*
X1511Y363D02*
X1518Y363D01*
X1167Y362D02*
X1172Y362D01*
X1209Y362D02*
X1214Y362D01*
X1304Y362D02*
X1309Y362D01*
X1387Y362D02*
X1398Y362D01*
X1485Y362D02*
X1490Y362D01*
X1512Y362D02*
X1518Y362D01*
X1168Y361D02*
X1172Y361D01*
X1209Y361D02*
X1213Y361D01*
X1304Y361D02*
X1309Y361D01*
X1387Y361D02*
X1398Y361D01*
X1485Y361D02*
X1490Y361D01*
X1513Y361D02*
X1518Y361D01*
X1169Y360D02*
X1171Y360D01*
X1210Y360D02*
X1212Y360D01*
X1304Y360D02*
X1309Y360D01*
X1387Y360D02*
X1398Y360D01*
X1485Y360D02*
X1490Y360D01*
X1513Y360D02*
X1518Y360D01*
X1305Y359D02*
X1308Y359D01*
X1387Y359D02*
X1398Y359D01*
X1485Y359D02*
X1490Y359D01*
X1513Y359D02*
X1518Y359D01*
X1388Y358D02*
X1398Y358D01*
X1485Y358D02*
X1490Y358D01*
X1513Y358D02*
X1518Y358D01*
X1388Y357D02*
X1397Y357D01*
X1485Y357D02*
X1490Y357D01*
X1513Y357D02*
X1518Y357D01*
X1389Y356D02*
X1396Y356D01*
X1485Y356D02*
X1490Y356D01*
X1513Y356D02*
X1518Y356D01*
X1485Y355D02*
X1490Y355D01*
X1513Y355D02*
X1518Y355D01*
X1485Y354D02*
X1490Y354D01*
X1512Y354D02*
X1518Y354D01*
X1485Y353D02*
X1491Y353D01*
X1511Y353D02*
X1518Y353D01*
X1485Y352D02*
X1492Y352D01*
X1511Y352D02*
X1517Y352D01*
X1486Y351D02*
X1493Y351D01*
X1509Y351D02*
X1517Y351D01*
X1487Y350D02*
X1516Y350D01*
X1487Y349D02*
X1515Y349D01*
X1488Y348D02*
X1514Y348D01*
X1489Y347D02*
X1513Y347D01*
X1490Y346D02*
X1512Y346D01*
X1493Y345D02*
X1510Y345D01*
X1277Y344D02*
X1280Y344D01*
X1305Y344D02*
X1308Y344D01*
X1276Y343D02*
X1280Y343D01*
X1304Y343D02*
X1309Y343D01*
X1175Y342D02*
X1194Y342D01*
X1276Y342D02*
X1281Y342D01*
X1304Y342D02*
X1309Y342D01*
X1173Y341D02*
X1195Y341D01*
X1276Y341D02*
X1281Y341D01*
X1304Y341D02*
X1309Y341D01*
X1172Y340D02*
X1196Y340D01*
X1276Y340D02*
X1281Y340D01*
X1304Y340D02*
X1309Y340D01*
X1171Y339D02*
X1197Y339D01*
X1276Y339D02*
X1281Y339D01*
X1304Y339D02*
X1309Y339D01*
X1170Y338D02*
X1198Y338D01*
X1276Y338D02*
X1281Y338D01*
X1304Y338D02*
X1309Y338D01*
X1169Y337D02*
X1199Y337D01*
X1276Y337D02*
X1281Y337D01*
X1304Y337D02*
X1309Y337D01*
X1169Y336D02*
X1176Y336D01*
X1193Y336D02*
X1200Y336D01*
X1276Y336D02*
X1281Y336D01*
X1304Y336D02*
X1309Y336D01*
X1168Y335D02*
X1175Y335D01*
X1194Y335D02*
X1200Y335D01*
X1276Y335D02*
X1281Y335D01*
X1304Y335D02*
X1309Y335D01*
X1168Y334D02*
X1174Y334D01*
X1194Y334D02*
X1200Y334D01*
X1276Y334D02*
X1281Y334D01*
X1304Y334D02*
X1309Y334D01*
X1168Y333D02*
X1173Y333D01*
X1195Y333D02*
X1201Y333D01*
X1276Y333D02*
X1281Y333D01*
X1304Y333D02*
X1309Y333D01*
X1167Y332D02*
X1173Y332D01*
X1196Y332D02*
X1201Y332D01*
X1276Y332D02*
X1281Y332D01*
X1304Y332D02*
X1309Y332D01*
X1381Y332D02*
X1384Y332D01*
X1409Y332D02*
X1412Y332D01*
X1167Y331D02*
X1172Y331D01*
X1196Y331D02*
X1201Y331D01*
X1276Y331D02*
X1281Y331D01*
X1304Y331D02*
X1309Y331D01*
X1380Y331D02*
X1385Y331D01*
X1408Y331D02*
X1413Y331D01*
X1487Y331D02*
X1488Y331D01*
X1167Y330D02*
X1172Y330D01*
X1196Y330D02*
X1201Y330D01*
X1276Y330D02*
X1281Y330D01*
X1304Y330D02*
X1309Y330D01*
X1380Y330D02*
X1385Y330D01*
X1408Y330D02*
X1413Y330D01*
X1485Y330D02*
X1511Y330D01*
X1167Y329D02*
X1172Y329D01*
X1196Y329D02*
X1201Y329D01*
X1276Y329D02*
X1281Y329D01*
X1304Y329D02*
X1309Y329D01*
X1380Y329D02*
X1385Y329D01*
X1408Y329D02*
X1413Y329D01*
X1485Y329D02*
X1513Y329D01*
X1167Y328D02*
X1172Y328D01*
X1196Y328D02*
X1201Y328D01*
X1276Y328D02*
X1281Y328D01*
X1304Y328D02*
X1309Y328D01*
X1380Y328D02*
X1385Y328D01*
X1408Y328D02*
X1413Y328D01*
X1485Y328D02*
X1515Y328D01*
X1167Y327D02*
X1172Y327D01*
X1196Y327D02*
X1201Y327D01*
X1276Y327D02*
X1282Y327D01*
X1303Y327D02*
X1309Y327D01*
X1380Y327D02*
X1385Y327D01*
X1408Y327D02*
X1413Y327D01*
X1485Y327D02*
X1516Y327D01*
X1167Y326D02*
X1173Y326D01*
X1195Y326D02*
X1201Y326D01*
X1276Y326D02*
X1282Y326D01*
X1302Y326D02*
X1308Y326D01*
X1380Y326D02*
X1385Y326D01*
X1408Y326D02*
X1413Y326D01*
X1485Y326D02*
X1517Y326D01*
X1168Y325D02*
X1173Y325D01*
X1195Y325D02*
X1201Y325D01*
X1277Y325D02*
X1283Y325D01*
X1301Y325D02*
X1308Y325D01*
X1380Y325D02*
X1385Y325D01*
X1408Y325D02*
X1413Y325D01*
X1487Y325D02*
X1517Y325D01*
X1168Y324D02*
X1174Y324D01*
X1194Y324D02*
X1200Y324D01*
X1277Y324D02*
X1284Y324D01*
X1300Y324D02*
X1307Y324D01*
X1380Y324D02*
X1385Y324D01*
X1408Y324D02*
X1413Y324D01*
X1487Y324D02*
X1493Y324D01*
X1499Y324D02*
X1505Y324D01*
X1510Y324D02*
X1517Y324D01*
X1168Y323D02*
X1175Y323D01*
X1193Y323D02*
X1200Y323D01*
X1278Y323D02*
X1285Y323D01*
X1300Y323D02*
X1307Y323D01*
X1380Y323D02*
X1385Y323D01*
X1408Y323D02*
X1413Y323D01*
X1486Y323D02*
X1493Y323D01*
X1500Y323D02*
X1505Y323D01*
X1512Y323D02*
X1518Y323D01*
X1169Y322D02*
X1176Y322D01*
X1192Y322D02*
X1199Y322D01*
X1279Y322D02*
X1286Y322D01*
X1299Y322D02*
X1306Y322D01*
X1380Y322D02*
X1385Y322D01*
X1408Y322D02*
X1413Y322D01*
X1486Y322D02*
X1492Y322D01*
X1500Y322D02*
X1505Y322D01*
X1513Y322D02*
X1518Y322D01*
X1169Y321D02*
X1177Y321D01*
X1191Y321D02*
X1199Y321D01*
X1280Y321D02*
X1288Y321D01*
X1297Y321D02*
X1305Y321D01*
X1380Y321D02*
X1385Y321D01*
X1408Y321D02*
X1413Y321D01*
X1485Y321D02*
X1491Y321D01*
X1500Y321D02*
X1505Y321D01*
X1513Y321D02*
X1518Y321D01*
X1170Y320D02*
X1178Y320D01*
X1191Y320D02*
X1198Y320D01*
X1281Y320D02*
X1304Y320D01*
X1380Y320D02*
X1385Y320D01*
X1408Y320D02*
X1413Y320D01*
X1485Y320D02*
X1491Y320D01*
X1500Y320D02*
X1505Y320D01*
X1513Y320D02*
X1518Y320D01*
X1171Y319D02*
X1179Y319D01*
X1189Y319D02*
X1197Y319D01*
X1281Y319D02*
X1303Y319D01*
X1380Y319D02*
X1385Y319D01*
X1408Y319D02*
X1413Y319D01*
X1485Y319D02*
X1490Y319D01*
X1500Y319D02*
X1505Y319D01*
X1513Y319D02*
X1518Y319D01*
X1169Y318D02*
X1212Y318D01*
X1282Y318D02*
X1302Y318D01*
X1380Y318D02*
X1385Y318D01*
X1408Y318D02*
X1413Y318D01*
X1485Y318D02*
X1490Y318D01*
X1500Y318D02*
X1505Y318D01*
X1513Y318D02*
X1518Y318D01*
X1168Y317D02*
X1213Y317D01*
X1283Y317D02*
X1301Y317D01*
X1380Y317D02*
X1385Y317D01*
X1408Y317D02*
X1413Y317D01*
X1485Y317D02*
X1490Y317D01*
X1500Y317D02*
X1505Y317D01*
X1513Y317D02*
X1518Y317D01*
X1167Y316D02*
X1214Y316D01*
X1285Y316D02*
X1300Y316D01*
X1380Y316D02*
X1385Y316D01*
X1408Y316D02*
X1413Y316D01*
X1485Y316D02*
X1490Y316D01*
X1500Y316D02*
X1505Y316D01*
X1513Y316D02*
X1518Y316D01*
X1167Y315D02*
X1213Y315D01*
X1287Y315D02*
X1297Y315D01*
X1380Y315D02*
X1386Y315D01*
X1407Y315D02*
X1413Y315D01*
X1485Y315D02*
X1490Y315D01*
X1500Y315D02*
X1505Y315D01*
X1513Y315D02*
X1518Y315D01*
X1168Y314D02*
X1213Y314D01*
X1380Y314D02*
X1387Y314D01*
X1406Y314D02*
X1413Y314D01*
X1485Y314D02*
X1490Y314D01*
X1500Y314D02*
X1505Y314D01*
X1513Y314D02*
X1518Y314D01*
X1169Y313D02*
X1212Y313D01*
X1381Y313D02*
X1388Y313D01*
X1405Y313D02*
X1412Y313D01*
X1485Y313D02*
X1490Y313D01*
X1500Y313D02*
X1505Y313D01*
X1513Y313D02*
X1518Y313D01*
X1381Y312D02*
X1388Y312D01*
X1405Y312D02*
X1412Y312D01*
X1485Y312D02*
X1490Y312D01*
X1500Y312D02*
X1505Y312D01*
X1513Y312D02*
X1518Y312D01*
X1382Y311D02*
X1389Y311D01*
X1404Y311D02*
X1411Y311D01*
X1485Y311D02*
X1490Y311D01*
X1500Y311D02*
X1505Y311D01*
X1513Y311D02*
X1518Y311D01*
X1383Y310D02*
X1390Y310D01*
X1403Y310D02*
X1410Y310D01*
X1485Y310D02*
X1490Y310D01*
X1500Y310D02*
X1505Y310D01*
X1513Y310D02*
X1518Y310D01*
X1384Y309D02*
X1409Y309D01*
X1485Y309D02*
X1490Y309D01*
X1500Y309D02*
X1505Y309D01*
X1513Y309D02*
X1518Y309D01*
X1385Y308D02*
X1408Y308D01*
X1485Y308D02*
X1491Y308D01*
X1499Y308D02*
X1505Y308D01*
X1514Y308D02*
X1517Y308D01*
X1386Y307D02*
X1407Y307D01*
X1485Y307D02*
X1505Y307D01*
X1515Y307D02*
X1515Y307D01*
X1387Y306D02*
X1406Y306D01*
X1486Y306D02*
X1504Y306D01*
X1388Y305D02*
X1405Y305D01*
X1486Y305D02*
X1504Y305D01*
X1389Y304D02*
X1404Y304D01*
X1487Y304D02*
X1503Y304D01*
X1392Y303D02*
X1401Y303D01*
X1488Y303D02*
X1502Y303D01*
X1489Y302D02*
X1500Y302D01*
X1277Y301D02*
X1307Y301D01*
X1493Y301D02*
X1497Y301D01*
X1276Y300D02*
X1308Y300D01*
X1169Y299D02*
X1186Y299D01*
X1276Y299D02*
X1309Y299D01*
X1168Y298D02*
X1197Y298D01*
X1276Y298D02*
X1309Y298D01*
X1167Y297D02*
X1198Y297D01*
X1276Y297D02*
X1309Y297D01*
X1167Y296D02*
X1199Y296D01*
X1277Y296D02*
X1308Y296D01*
X1168Y295D02*
X1200Y295D01*
X1280Y295D02*
X1287Y295D01*
X1169Y294D02*
X1200Y294D01*
X1280Y294D02*
X1286Y294D01*
X1185Y293D02*
X1200Y293D01*
X1279Y293D02*
X1286Y293D01*
X1195Y292D02*
X1201Y292D01*
X1279Y292D02*
X1285Y292D01*
X1195Y291D02*
X1200Y291D01*
X1278Y291D02*
X1284Y291D01*
X1195Y290D02*
X1200Y290D01*
X1277Y290D02*
X1284Y290D01*
X1194Y289D02*
X1200Y289D01*
X1277Y289D02*
X1283Y289D01*
X1381Y289D02*
X1383Y289D01*
X1394Y289D02*
X1405Y289D01*
X1485Y289D02*
X1509Y289D01*
X1193Y288D02*
X1200Y288D01*
X1276Y288D02*
X1282Y288D01*
X1380Y288D02*
X1384Y288D01*
X1393Y288D02*
X1407Y288D01*
X1485Y288D02*
X1511Y288D01*
X1170Y287D02*
X1199Y287D01*
X1276Y287D02*
X1282Y287D01*
X1380Y287D02*
X1385Y287D01*
X1393Y287D02*
X1408Y287D01*
X1485Y287D02*
X1513Y287D01*
X1524Y287D02*
X1526Y287D01*
X1168Y286D02*
X1198Y286D01*
X1276Y286D02*
X1281Y286D01*
X1380Y286D02*
X1385Y286D01*
X1393Y286D02*
X1409Y286D01*
X1485Y286D02*
X1514Y286D01*
X1522Y286D02*
X1526Y286D01*
X1168Y285D02*
X1198Y285D01*
X1276Y285D02*
X1281Y285D01*
X1380Y285D02*
X1385Y285D01*
X1393Y285D02*
X1410Y285D01*
X1485Y285D02*
X1514Y285D01*
X1522Y285D02*
X1526Y285D01*
X1167Y284D02*
X1199Y284D01*
X1276Y284D02*
X1281Y284D01*
X1380Y284D02*
X1385Y284D01*
X1393Y284D02*
X1411Y284D01*
X1507Y284D02*
X1515Y284D01*
X1521Y284D02*
X1526Y284D01*
X1168Y283D02*
X1200Y283D01*
X1276Y283D02*
X1281Y283D01*
X1380Y283D02*
X1385Y283D01*
X1393Y283D02*
X1398Y283D01*
X1404Y283D02*
X1412Y283D01*
X1510Y283D02*
X1515Y283D01*
X1521Y283D02*
X1524Y283D01*
X1168Y282D02*
X1200Y282D01*
X1276Y282D02*
X1281Y282D01*
X1380Y282D02*
X1385Y282D01*
X1393Y282D02*
X1398Y282D01*
X1406Y282D02*
X1412Y282D01*
X1511Y282D02*
X1515Y282D01*
X1521Y282D02*
X1524Y282D01*
X1194Y281D02*
X1201Y281D01*
X1276Y281D02*
X1281Y281D01*
X1380Y281D02*
X1385Y281D01*
X1393Y281D02*
X1398Y281D01*
X1407Y281D02*
X1413Y281D01*
X1511Y281D02*
X1515Y281D01*
X1521Y281D02*
X1524Y281D01*
X1196Y280D02*
X1201Y280D01*
X1276Y280D02*
X1281Y280D01*
X1380Y280D02*
X1385Y280D01*
X1393Y280D02*
X1398Y280D01*
X1407Y280D02*
X1413Y280D01*
X1512Y280D02*
X1516Y280D01*
X1521Y280D02*
X1524Y280D01*
X1195Y279D02*
X1201Y279D01*
X1276Y279D02*
X1282Y279D01*
X1380Y279D02*
X1385Y279D01*
X1393Y279D02*
X1398Y279D01*
X1408Y279D02*
X1413Y279D01*
X1512Y279D02*
X1516Y279D01*
X1521Y279D02*
X1525Y279D01*
X1195Y278D02*
X1201Y278D01*
X1276Y278D02*
X1285Y278D01*
X1380Y278D02*
X1385Y278D01*
X1393Y278D02*
X1398Y278D01*
X1408Y278D02*
X1413Y278D01*
X1512Y278D02*
X1516Y278D01*
X1522Y278D02*
X1525Y278D01*
X1194Y277D02*
X1200Y277D01*
X1277Y277D02*
X1307Y277D01*
X1380Y277D02*
X1385Y277D01*
X1393Y277D02*
X1398Y277D01*
X1408Y277D02*
X1413Y277D01*
X1512Y277D02*
X1515Y277D01*
X1522Y277D02*
X1526Y277D01*
X1193Y276D02*
X1200Y276D01*
X1277Y276D02*
X1308Y276D01*
X1380Y276D02*
X1385Y276D01*
X1393Y276D02*
X1398Y276D01*
X1408Y276D02*
X1413Y276D01*
X1512Y276D02*
X1515Y276D01*
X1523Y276D02*
X1526Y276D01*
X1192Y275D02*
X1199Y275D01*
X1278Y275D02*
X1309Y275D01*
X1380Y275D02*
X1385Y275D01*
X1393Y275D02*
X1398Y275D01*
X1408Y275D02*
X1413Y275D01*
X1512Y275D02*
X1515Y275D01*
X1523Y275D02*
X1526Y275D01*
X1169Y274D02*
X1199Y274D01*
X1279Y274D02*
X1309Y274D01*
X1380Y274D02*
X1385Y274D01*
X1393Y274D02*
X1398Y274D01*
X1408Y274D02*
X1413Y274D01*
X1511Y274D02*
X1515Y274D01*
X1523Y274D02*
X1526Y274D01*
X1168Y273D02*
X1200Y273D01*
X1280Y273D02*
X1309Y273D01*
X1380Y273D02*
X1385Y273D01*
X1393Y273D02*
X1398Y273D01*
X1408Y273D02*
X1413Y273D01*
X1511Y273D02*
X1514Y273D01*
X1523Y273D02*
X1526Y273D01*
X1167Y272D02*
X1201Y272D01*
X1284Y272D02*
X1308Y272D01*
X1380Y272D02*
X1385Y272D01*
X1393Y272D02*
X1398Y272D01*
X1408Y272D02*
X1413Y272D01*
X1510Y272D02*
X1514Y272D01*
X1522Y272D02*
X1526Y272D01*
X1167Y271D02*
X1201Y271D01*
X1380Y271D02*
X1385Y271D01*
X1393Y271D02*
X1398Y271D01*
X1408Y271D02*
X1413Y271D01*
X1509Y271D02*
X1513Y271D01*
X1521Y271D02*
X1526Y271D01*
X1168Y270D02*
X1200Y270D01*
X1380Y270D02*
X1385Y270D01*
X1393Y270D02*
X1398Y270D01*
X1408Y270D02*
X1413Y270D01*
X1506Y270D02*
X1512Y270D01*
X1521Y270D02*
X1525Y270D01*
X1169Y269D02*
X1199Y269D01*
X1380Y269D02*
X1385Y269D01*
X1393Y269D02*
X1398Y269D01*
X1408Y269D02*
X1413Y269D01*
X1485Y269D02*
X1511Y269D01*
X1521Y269D02*
X1524Y269D01*
X1380Y268D02*
X1386Y268D01*
X1393Y268D02*
X1398Y268D01*
X1407Y268D02*
X1413Y268D01*
X1485Y268D02*
X1515Y268D01*
X1521Y268D02*
X1521Y268D01*
X1381Y267D02*
X1387Y267D01*
X1393Y267D02*
X1398Y267D01*
X1406Y267D02*
X1412Y267D01*
X1485Y267D02*
X1515Y267D01*
X1381Y266D02*
X1388Y266D01*
X1393Y266D02*
X1398Y266D01*
X1405Y266D02*
X1412Y266D01*
X1485Y266D02*
X1515Y266D01*
X1382Y265D02*
X1411Y265D01*
X1485Y265D02*
X1515Y265D01*
X1382Y264D02*
X1410Y264D01*
X1383Y263D02*
X1410Y263D01*
X1384Y262D02*
X1409Y262D01*
X1385Y261D02*
X1407Y261D01*
X1387Y260D02*
X1405Y260D01*
X1277Y257D02*
X1321Y257D01*
X1276Y256D02*
X1321Y256D01*
X1169Y255D02*
X1187Y255D01*
X1276Y255D02*
X1322Y255D01*
X1168Y254D02*
X1195Y254D01*
X1276Y254D02*
X1322Y254D01*
X1167Y253D02*
X1197Y253D01*
X1276Y253D02*
X1321Y253D01*
X1486Y253D02*
X1488Y253D01*
X1499Y253D02*
X1510Y253D01*
X1167Y252D02*
X1198Y252D01*
X1277Y252D02*
X1320Y252D01*
X1485Y252D02*
X1489Y252D01*
X1498Y252D02*
X1512Y252D01*
X1168Y251D02*
X1199Y251D01*
X1279Y251D02*
X1286Y251D01*
X1298Y251D02*
X1305Y251D01*
X1485Y251D02*
X1490Y251D01*
X1498Y251D02*
X1513Y251D01*
X1169Y250D02*
X1200Y250D01*
X1278Y250D02*
X1285Y250D01*
X1299Y250D02*
X1306Y250D01*
X1485Y250D02*
X1490Y250D01*
X1497Y250D02*
X1514Y250D01*
X1170Y249D02*
X1176Y249D01*
X1181Y249D02*
X1200Y249D01*
X1277Y249D02*
X1285Y249D01*
X1300Y249D02*
X1307Y249D01*
X1485Y249D02*
X1490Y249D01*
X1497Y249D02*
X1515Y249D01*
X1170Y248D02*
X1176Y248D01*
X1182Y248D02*
X1188Y248D01*
X1194Y248D02*
X1200Y248D01*
X1277Y248D02*
X1284Y248D01*
X1301Y248D02*
X1308Y248D01*
X1485Y248D02*
X1490Y248D01*
X1497Y248D02*
X1516Y248D01*
X1169Y247D02*
X1175Y247D01*
X1183Y247D02*
X1188Y247D01*
X1195Y247D02*
X1201Y247D01*
X1276Y247D02*
X1283Y247D01*
X1302Y247D02*
X1308Y247D01*
X1485Y247D02*
X1490Y247D01*
X1497Y247D02*
X1503Y247D01*
X1509Y247D02*
X1517Y247D01*
X1168Y246D02*
X1174Y246D01*
X1183Y246D02*
X1188Y246D01*
X1196Y246D02*
X1201Y246D01*
X1276Y246D02*
X1282Y246D01*
X1303Y246D02*
X1309Y246D01*
X1485Y246D02*
X1490Y246D01*
X1497Y246D02*
X1503Y246D01*
X1511Y246D02*
X1517Y246D01*
X1168Y245D02*
X1174Y245D01*
X1183Y245D02*
X1188Y245D01*
X1196Y245D02*
X1201Y245D01*
X1276Y245D02*
X1281Y245D01*
X1303Y245D02*
X1309Y245D01*
X1385Y245D02*
X1389Y245D01*
X1485Y245D02*
X1490Y245D01*
X1497Y245D02*
X1503Y245D01*
X1512Y245D02*
X1518Y245D01*
X1167Y244D02*
X1173Y244D01*
X1183Y244D02*
X1188Y244D01*
X1196Y244D02*
X1201Y244D01*
X1276Y244D02*
X1281Y244D01*
X1304Y244D02*
X1309Y244D01*
X1384Y244D02*
X1390Y244D01*
X1485Y244D02*
X1490Y244D01*
X1497Y244D02*
X1503Y244D01*
X1512Y244D02*
X1518Y244D01*
X1167Y243D02*
X1173Y243D01*
X1183Y243D02*
X1188Y243D01*
X1196Y243D02*
X1201Y243D01*
X1276Y243D02*
X1281Y243D01*
X1304Y243D02*
X1309Y243D01*
X1382Y243D02*
X1390Y243D01*
X1485Y243D02*
X1490Y243D01*
X1497Y243D02*
X1503Y243D01*
X1513Y243D02*
X1518Y243D01*
X1167Y242D02*
X1172Y242D01*
X1183Y242D02*
X1188Y242D01*
X1196Y242D02*
X1201Y242D01*
X1276Y242D02*
X1281Y242D01*
X1304Y242D02*
X1309Y242D01*
X1382Y242D02*
X1390Y242D01*
X1409Y242D02*
X1412Y242D01*
X1485Y242D02*
X1490Y242D01*
X1497Y242D02*
X1503Y242D01*
X1513Y242D02*
X1518Y242D01*
X1167Y241D02*
X1172Y241D01*
X1183Y241D02*
X1188Y241D01*
X1196Y241D02*
X1201Y241D01*
X1276Y241D02*
X1281Y241D01*
X1304Y241D02*
X1309Y241D01*
X1381Y241D02*
X1389Y241D01*
X1408Y241D02*
X1413Y241D01*
X1485Y241D02*
X1490Y241D01*
X1497Y241D02*
X1503Y241D01*
X1513Y241D02*
X1518Y241D01*
X1167Y240D02*
X1172Y240D01*
X1183Y240D02*
X1188Y240D01*
X1196Y240D02*
X1201Y240D01*
X1276Y240D02*
X1281Y240D01*
X1304Y240D02*
X1309Y240D01*
X1380Y240D02*
X1388Y240D01*
X1408Y240D02*
X1413Y240D01*
X1485Y240D02*
X1490Y240D01*
X1497Y240D02*
X1503Y240D01*
X1513Y240D02*
X1518Y240D01*
X1167Y239D02*
X1172Y239D01*
X1183Y239D02*
X1188Y239D01*
X1196Y239D02*
X1201Y239D01*
X1276Y239D02*
X1281Y239D01*
X1304Y239D02*
X1309Y239D01*
X1380Y239D02*
X1386Y239D01*
X1408Y239D02*
X1413Y239D01*
X1485Y239D02*
X1490Y239D01*
X1497Y239D02*
X1503Y239D01*
X1513Y239D02*
X1518Y239D01*
X1167Y238D02*
X1172Y238D01*
X1183Y238D02*
X1188Y238D01*
X1196Y238D02*
X1201Y238D01*
X1276Y238D02*
X1281Y238D01*
X1304Y238D02*
X1309Y238D01*
X1380Y238D02*
X1385Y238D01*
X1408Y238D02*
X1413Y238D01*
X1485Y238D02*
X1490Y238D01*
X1497Y238D02*
X1503Y238D01*
X1513Y238D02*
X1518Y238D01*
X1167Y237D02*
X1172Y237D01*
X1183Y237D02*
X1188Y237D01*
X1196Y237D02*
X1201Y237D01*
X1276Y237D02*
X1281Y237D01*
X1303Y237D02*
X1309Y237D01*
X1380Y237D02*
X1385Y237D01*
X1408Y237D02*
X1413Y237D01*
X1485Y237D02*
X1490Y237D01*
X1497Y237D02*
X1503Y237D01*
X1513Y237D02*
X1518Y237D01*
X1167Y236D02*
X1172Y236D01*
X1183Y236D02*
X1188Y236D01*
X1196Y236D02*
X1201Y236D01*
X1276Y236D02*
X1282Y236D01*
X1302Y236D02*
X1309Y236D01*
X1380Y236D02*
X1385Y236D01*
X1408Y236D02*
X1413Y236D01*
X1485Y236D02*
X1490Y236D01*
X1497Y236D02*
X1503Y236D01*
X1513Y236D02*
X1518Y236D01*
X1167Y235D02*
X1172Y235D01*
X1183Y235D02*
X1188Y235D01*
X1196Y235D02*
X1201Y235D01*
X1276Y235D02*
X1283Y235D01*
X1302Y235D02*
X1308Y235D01*
X1380Y235D02*
X1385Y235D01*
X1408Y235D02*
X1413Y235D01*
X1485Y235D02*
X1490Y235D01*
X1497Y235D02*
X1503Y235D01*
X1513Y235D02*
X1518Y235D01*
X1167Y234D02*
X1173Y234D01*
X1183Y234D02*
X1188Y234D01*
X1196Y234D02*
X1201Y234D01*
X1277Y234D02*
X1285Y234D01*
X1300Y234D02*
X1308Y234D01*
X1380Y234D02*
X1385Y234D01*
X1408Y234D02*
X1413Y234D01*
X1485Y234D02*
X1490Y234D01*
X1497Y234D02*
X1503Y234D01*
X1513Y234D02*
X1518Y234D01*
X1168Y233D02*
X1173Y233D01*
X1182Y233D02*
X1188Y233D01*
X1196Y233D02*
X1200Y233D01*
X1278Y233D02*
X1307Y233D01*
X1380Y233D02*
X1385Y233D01*
X1408Y233D02*
X1413Y233D01*
X1485Y233D02*
X1490Y233D01*
X1497Y233D02*
X1503Y233D01*
X1512Y233D02*
X1518Y233D01*
X1168Y232D02*
X1174Y232D01*
X1181Y232D02*
X1188Y232D01*
X1197Y232D02*
X1199Y232D01*
X1279Y232D02*
X1306Y232D01*
X1380Y232D02*
X1385Y232D01*
X1408Y232D02*
X1413Y232D01*
X1485Y232D02*
X1491Y232D01*
X1497Y232D02*
X1503Y232D01*
X1512Y232D02*
X1518Y232D01*
X1168Y231D02*
X1187Y231D01*
X1279Y231D02*
X1305Y231D01*
X1380Y231D02*
X1385Y231D01*
X1408Y231D02*
X1413Y231D01*
X1485Y231D02*
X1492Y231D01*
X1497Y231D02*
X1503Y231D01*
X1511Y231D02*
X1517Y231D01*
X1169Y230D02*
X1187Y230D01*
X1280Y230D02*
X1304Y230D01*
X1380Y230D02*
X1385Y230D01*
X1408Y230D02*
X1413Y230D01*
X1486Y230D02*
X1493Y230D01*
X1497Y230D02*
X1503Y230D01*
X1510Y230D02*
X1517Y230D01*
X1169Y229D02*
X1186Y229D01*
X1282Y229D02*
X1303Y229D01*
X1380Y229D02*
X1386Y229D01*
X1408Y229D02*
X1413Y229D01*
X1487Y229D02*
X1516Y229D01*
X1170Y228D02*
X1185Y228D01*
X1284Y228D02*
X1301Y228D01*
X1380Y228D02*
X1387Y228D01*
X1408Y228D02*
X1413Y228D01*
X1487Y228D02*
X1515Y228D01*
X1171Y227D02*
X1184Y227D01*
X1381Y227D02*
X1422Y227D01*
X1488Y227D02*
X1514Y227D01*
X1173Y226D02*
X1182Y226D01*
X1381Y226D02*
X1423Y226D01*
X1489Y226D02*
X1513Y226D01*
X1382Y225D02*
X1423Y225D01*
X1490Y225D02*
X1512Y225D01*
X1383Y224D02*
X1423Y224D01*
X1492Y224D02*
X1510Y224D01*
X1384Y223D02*
X1423Y223D01*
X1387Y222D02*
X1422Y222D01*
X1408Y221D02*
X1413Y221D01*
X1408Y220D02*
X1413Y220D01*
X1408Y219D02*
X1413Y219D01*
X1408Y218D02*
X1413Y218D01*
X1409Y217D02*
X1413Y217D01*
X1410Y216D02*
X1411Y216D01*
X1285Y214D02*
X1300Y214D01*
X1282Y213D02*
X1302Y213D01*
X1281Y212D02*
X1304Y212D01*
X1173Y211D02*
X1179Y211D01*
X1195Y211D02*
X1196Y211D01*
X1280Y211D02*
X1305Y211D01*
X1171Y210D02*
X1181Y210D01*
X1194Y210D02*
X1198Y210D01*
X1279Y210D02*
X1306Y210D01*
X1170Y209D02*
X1182Y209D01*
X1193Y209D02*
X1199Y209D01*
X1278Y209D02*
X1307Y209D01*
X1490Y209D02*
X1497Y209D01*
X1512Y209D02*
X1514Y209D01*
X1169Y208D02*
X1183Y208D01*
X1193Y208D02*
X1199Y208D01*
X1277Y208D02*
X1285Y208D01*
X1299Y208D02*
X1307Y208D01*
X1488Y208D02*
X1498Y208D01*
X1511Y208D02*
X1515Y208D01*
X1168Y207D02*
X1184Y207D01*
X1193Y207D02*
X1200Y207D01*
X1277Y207D02*
X1283Y207D01*
X1301Y207D02*
X1308Y207D01*
X1487Y207D02*
X1499Y207D01*
X1510Y207D02*
X1516Y207D01*
X1168Y206D02*
X1184Y206D01*
X1194Y206D02*
X1200Y206D01*
X1276Y206D02*
X1282Y206D01*
X1302Y206D02*
X1308Y206D01*
X1486Y206D02*
X1500Y206D01*
X1510Y206D02*
X1517Y206D01*
X1168Y205D02*
X1174Y205D01*
X1179Y205D02*
X1185Y205D01*
X1195Y205D02*
X1201Y205D01*
X1276Y205D02*
X1282Y205D01*
X1303Y205D02*
X1309Y205D01*
X1486Y205D02*
X1501Y205D01*
X1511Y205D02*
X1517Y205D01*
X1167Y204D02*
X1173Y204D01*
X1180Y204D02*
X1185Y204D01*
X1195Y204D02*
X1201Y204D01*
X1276Y204D02*
X1281Y204D01*
X1304Y204D02*
X1309Y204D01*
X1485Y204D02*
X1502Y204D01*
X1511Y204D02*
X1517Y204D01*
X1167Y203D02*
X1173Y203D01*
X1180Y203D02*
X1186Y203D01*
X1196Y203D02*
X1201Y203D01*
X1276Y203D02*
X1281Y203D01*
X1304Y203D02*
X1309Y203D01*
X1485Y203D02*
X1491Y203D01*
X1496Y203D02*
X1502Y203D01*
X1512Y203D02*
X1518Y203D01*
X1167Y202D02*
X1172Y202D01*
X1180Y202D02*
X1186Y202D01*
X1196Y202D02*
X1201Y202D01*
X1276Y202D02*
X1281Y202D01*
X1304Y202D02*
X1309Y202D01*
X1389Y202D02*
X1404Y202D01*
X1485Y202D02*
X1490Y202D01*
X1497Y202D02*
X1502Y202D01*
X1513Y202D02*
X1518Y202D01*
X1167Y201D02*
X1172Y201D01*
X1181Y201D02*
X1186Y201D01*
X1196Y201D02*
X1201Y201D01*
X1276Y201D02*
X1281Y201D01*
X1304Y201D02*
X1309Y201D01*
X1386Y201D02*
X1407Y201D01*
X1485Y201D02*
X1490Y201D01*
X1497Y201D02*
X1503Y201D01*
X1513Y201D02*
X1518Y201D01*
X1167Y200D02*
X1172Y200D01*
X1181Y200D02*
X1187Y200D01*
X1196Y200D02*
X1201Y200D01*
X1276Y200D02*
X1281Y200D01*
X1304Y200D02*
X1309Y200D01*
X1385Y200D02*
X1408Y200D01*
X1485Y200D02*
X1490Y200D01*
X1498Y200D02*
X1503Y200D01*
X1513Y200D02*
X1518Y200D01*
X1167Y199D02*
X1172Y199D01*
X1182Y199D02*
X1187Y199D01*
X1196Y199D02*
X1201Y199D01*
X1276Y199D02*
X1281Y199D01*
X1304Y199D02*
X1309Y199D01*
X1384Y199D02*
X1409Y199D01*
X1485Y199D02*
X1490Y199D01*
X1498Y199D02*
X1504Y199D01*
X1513Y199D02*
X1518Y199D01*
X1167Y198D02*
X1172Y198D01*
X1182Y198D02*
X1188Y198D01*
X1196Y198D02*
X1201Y198D01*
X1276Y198D02*
X1281Y198D01*
X1304Y198D02*
X1309Y198D01*
X1383Y198D02*
X1410Y198D01*
X1485Y198D02*
X1490Y198D01*
X1498Y198D02*
X1504Y198D01*
X1513Y198D02*
X1518Y198D01*
X1167Y197D02*
X1172Y197D01*
X1183Y197D02*
X1188Y197D01*
X1196Y197D02*
X1201Y197D01*
X1276Y197D02*
X1281Y197D01*
X1304Y197D02*
X1309Y197D01*
X1382Y197D02*
X1411Y197D01*
X1485Y197D02*
X1490Y197D01*
X1499Y197D02*
X1505Y197D01*
X1513Y197D02*
X1518Y197D01*
X1167Y196D02*
X1172Y196D01*
X1183Y196D02*
X1189Y196D01*
X1196Y196D02*
X1201Y196D01*
X1276Y196D02*
X1281Y196D01*
X1304Y196D02*
X1309Y196D01*
X1381Y196D02*
X1389Y196D01*
X1404Y196D02*
X1412Y196D01*
X1485Y196D02*
X1490Y196D01*
X1499Y196D02*
X1505Y196D01*
X1513Y196D02*
X1518Y196D01*
X1167Y195D02*
X1172Y195D01*
X1183Y195D02*
X1189Y195D01*
X1196Y195D02*
X1201Y195D01*
X1276Y195D02*
X1281Y195D01*
X1304Y195D02*
X1309Y195D01*
X1381Y195D02*
X1388Y195D01*
X1406Y195D02*
X1412Y195D01*
X1485Y195D02*
X1490Y195D01*
X1500Y195D02*
X1505Y195D01*
X1513Y195D02*
X1518Y195D01*
X1167Y194D02*
X1172Y194D01*
X1184Y194D02*
X1190Y194D01*
X1196Y194D02*
X1201Y194D01*
X1276Y194D02*
X1281Y194D01*
X1304Y194D02*
X1309Y194D01*
X1380Y194D02*
X1387Y194D01*
X1407Y194D02*
X1413Y194D01*
X1485Y194D02*
X1490Y194D01*
X1500Y194D02*
X1506Y194D01*
X1513Y194D02*
X1518Y194D01*
X1167Y193D02*
X1172Y193D01*
X1184Y193D02*
X1190Y193D01*
X1196Y193D02*
X1201Y193D01*
X1276Y193D02*
X1282Y193D01*
X1303Y193D02*
X1309Y193D01*
X1380Y193D02*
X1386Y193D01*
X1407Y193D02*
X1413Y193D01*
X1485Y193D02*
X1490Y193D01*
X1501Y193D02*
X1506Y193D01*
X1513Y193D02*
X1518Y193D01*
X1167Y192D02*
X1172Y192D01*
X1185Y192D02*
X1190Y192D01*
X1196Y192D02*
X1201Y192D01*
X1276Y192D02*
X1283Y192D01*
X1302Y192D02*
X1308Y192D01*
X1380Y192D02*
X1385Y192D01*
X1408Y192D02*
X1413Y192D01*
X1485Y192D02*
X1490Y192D01*
X1501Y192D02*
X1507Y192D01*
X1513Y192D02*
X1518Y192D01*
X1167Y191D02*
X1172Y191D01*
X1185Y191D02*
X1191Y191D01*
X1196Y191D02*
X1201Y191D01*
X1277Y191D02*
X1283Y191D01*
X1301Y191D02*
X1308Y191D01*
X1380Y191D02*
X1385Y191D01*
X1408Y191D02*
X1413Y191D01*
X1485Y191D02*
X1490Y191D01*
X1502Y191D02*
X1507Y191D01*
X1513Y191D02*
X1518Y191D01*
X1167Y190D02*
X1173Y190D01*
X1186Y190D02*
X1191Y190D01*
X1196Y190D02*
X1201Y190D01*
X1277Y190D02*
X1307Y190D01*
X1380Y190D02*
X1385Y190D01*
X1408Y190D02*
X1413Y190D01*
X1485Y190D02*
X1490Y190D01*
X1502Y190D02*
X1508Y190D01*
X1513Y190D02*
X1518Y190D01*
X1168Y189D02*
X1173Y189D01*
X1186Y189D02*
X1192Y189D01*
X1195Y189D02*
X1201Y189D01*
X1278Y189D02*
X1306Y189D01*
X1380Y189D02*
X1385Y189D01*
X1408Y189D02*
X1413Y189D01*
X1485Y189D02*
X1490Y189D01*
X1502Y189D02*
X1508Y189D01*
X1513Y189D02*
X1518Y189D01*
X1168Y188D02*
X1174Y188D01*
X1186Y188D02*
X1200Y188D01*
X1279Y188D02*
X1306Y188D01*
X1380Y188D02*
X1385Y188D01*
X1408Y188D02*
X1413Y188D01*
X1485Y188D02*
X1490Y188D01*
X1503Y188D02*
X1508Y188D01*
X1513Y188D02*
X1518Y188D01*
X1168Y187D02*
X1174Y187D01*
X1187Y187D02*
X1200Y187D01*
X1280Y187D02*
X1305Y187D01*
X1380Y187D02*
X1385Y187D01*
X1408Y187D02*
X1413Y187D01*
X1485Y187D02*
X1490Y187D01*
X1503Y187D02*
X1509Y187D01*
X1512Y187D02*
X1518Y187D01*
X1169Y186D02*
X1175Y186D01*
X1188Y186D02*
X1199Y186D01*
X1281Y186D02*
X1303Y186D01*
X1380Y186D02*
X1385Y186D01*
X1408Y186D02*
X1413Y186D01*
X1485Y186D02*
X1491Y186D01*
X1504Y186D02*
X1518Y186D01*
X1169Y185D02*
X1175Y185D01*
X1188Y185D02*
X1199Y185D01*
X1282Y185D02*
X1302Y185D01*
X1380Y185D02*
X1385Y185D01*
X1408Y185D02*
X1413Y185D01*
X1485Y185D02*
X1491Y185D01*
X1504Y185D02*
X1517Y185D01*
X1170Y184D02*
X1175Y184D01*
X1190Y184D02*
X1197Y184D01*
X1287Y184D02*
X1298Y184D01*
X1380Y184D02*
X1385Y184D01*
X1408Y184D02*
X1413Y184D01*
X1486Y184D02*
X1492Y184D01*
X1505Y184D02*
X1517Y184D01*
X1171Y183D02*
X1174Y183D01*
X1192Y183D02*
X1196Y183D01*
X1380Y183D02*
X1385Y183D01*
X1408Y183D02*
X1413Y183D01*
X1486Y183D02*
X1492Y183D01*
X1506Y183D02*
X1516Y183D01*
X1172Y182D02*
X1173Y182D01*
X1380Y182D02*
X1385Y182D01*
X1408Y182D02*
X1413Y182D01*
X1487Y182D02*
X1492Y182D01*
X1507Y182D02*
X1515Y182D01*
X1380Y181D02*
X1386Y181D01*
X1407Y181D02*
X1413Y181D01*
X1488Y181D02*
X1492Y181D01*
X1509Y181D02*
X1513Y181D01*
X1380Y180D02*
X1387Y180D01*
X1406Y180D02*
X1413Y180D01*
X1489Y180D02*
X1490Y180D01*
X1381Y179D02*
X1388Y179D01*
X1405Y179D02*
X1412Y179D01*
X1382Y178D02*
X1411Y178D01*
X1382Y177D02*
X1411Y177D01*
X1383Y176D02*
X1410Y176D01*
X1384Y175D02*
X1409Y175D01*
X1385Y174D02*
X1408Y174D01*
X1387Y173D02*
X1406Y173D01*
X1298Y170D02*
X1303Y170D01*
X1297Y169D02*
X1305Y169D01*
X1169Y168D02*
X1180Y168D01*
X1296Y168D02*
X1306Y168D01*
X1168Y167D02*
X1195Y167D01*
X1296Y167D02*
X1307Y167D01*
X1167Y166D02*
X1197Y166D01*
X1297Y166D02*
X1308Y166D01*
X1167Y165D02*
X1198Y165D01*
X1298Y165D02*
X1308Y165D01*
X1168Y164D02*
X1199Y164D01*
X1302Y164D02*
X1309Y164D01*
X1169Y163D02*
X1200Y163D01*
X1303Y163D02*
X1309Y163D01*
X1486Y163D02*
X1488Y163D01*
X1178Y162D02*
X1200Y162D01*
X1304Y162D02*
X1309Y162D01*
X1485Y162D02*
X1489Y162D01*
X1194Y161D02*
X1200Y161D01*
X1304Y161D02*
X1309Y161D01*
X1485Y161D02*
X1490Y161D01*
X1195Y160D02*
X1201Y160D01*
X1304Y160D02*
X1309Y160D01*
X1485Y160D02*
X1490Y160D01*
X1196Y159D02*
X1201Y159D01*
X1304Y159D02*
X1309Y159D01*
X1485Y159D02*
X1490Y159D01*
X1196Y158D02*
X1201Y158D01*
X1304Y158D02*
X1309Y158D01*
X1381Y158D02*
X1400Y158D01*
X1485Y158D02*
X1490Y158D01*
X1196Y157D02*
X1201Y157D01*
X1304Y157D02*
X1309Y157D01*
X1380Y157D02*
X1408Y157D01*
X1485Y157D02*
X1490Y157D01*
X1196Y156D02*
X1201Y156D01*
X1303Y156D02*
X1309Y156D01*
X1380Y156D02*
X1410Y156D01*
X1485Y156D02*
X1490Y156D01*
X1196Y155D02*
X1201Y155D01*
X1303Y155D02*
X1309Y155D01*
X1380Y155D02*
X1411Y155D01*
X1485Y155D02*
X1490Y155D01*
X1195Y154D02*
X1201Y154D01*
X1302Y154D02*
X1309Y154D01*
X1380Y154D02*
X1411Y154D01*
X1485Y154D02*
X1516Y154D01*
X1528Y154D02*
X1531Y154D01*
X1195Y153D02*
X1200Y153D01*
X1301Y153D02*
X1308Y153D01*
X1381Y153D02*
X1412Y153D01*
X1485Y153D02*
X1517Y153D01*
X1526Y153D02*
X1533Y153D01*
X1194Y152D02*
X1200Y152D01*
X1300Y152D02*
X1307Y152D01*
X1383Y152D02*
X1389Y152D01*
X1393Y152D02*
X1413Y152D01*
X1485Y152D02*
X1518Y152D01*
X1526Y152D02*
X1533Y152D01*
X1194Y151D02*
X1200Y151D01*
X1299Y151D02*
X1306Y151D01*
X1382Y151D02*
X1388Y151D01*
X1394Y151D02*
X1400Y151D01*
X1407Y151D02*
X1413Y151D01*
X1485Y151D02*
X1518Y151D01*
X1526Y151D02*
X1533Y151D01*
X1193Y150D02*
X1199Y150D01*
X1298Y150D02*
X1305Y150D01*
X1381Y150D02*
X1387Y150D01*
X1395Y150D02*
X1400Y150D01*
X1408Y150D02*
X1413Y150D01*
X1485Y150D02*
X1518Y150D01*
X1526Y150D02*
X1533Y150D01*
X1192Y149D02*
X1199Y149D01*
X1297Y149D02*
X1304Y149D01*
X1381Y149D02*
X1387Y149D01*
X1395Y149D02*
X1400Y149D01*
X1408Y149D02*
X1413Y149D01*
X1485Y149D02*
X1518Y149D01*
X1526Y149D02*
X1533Y149D01*
X1192Y148D02*
X1198Y148D01*
X1297Y148D02*
X1304Y148D01*
X1380Y148D02*
X1386Y148D01*
X1395Y148D02*
X1400Y148D01*
X1408Y148D02*
X1413Y148D01*
X1485Y148D02*
X1490Y148D01*
X1513Y148D02*
X1518Y148D01*
X1526Y148D02*
X1533Y148D01*
X1191Y147D02*
X1197Y147D01*
X1296Y147D02*
X1303Y147D01*
X1380Y147D02*
X1386Y147D01*
X1395Y147D02*
X1400Y147D01*
X1408Y147D02*
X1413Y147D01*
X1485Y147D02*
X1490Y147D01*
X1513Y147D02*
X1518Y147D01*
X1526Y147D02*
X1533Y147D01*
X1190Y146D02*
X1197Y146D01*
X1277Y146D02*
X1308Y146D01*
X1380Y146D02*
X1385Y146D01*
X1395Y146D02*
X1400Y146D01*
X1408Y146D02*
X1413Y146D01*
X1485Y146D02*
X1490Y146D01*
X1513Y146D02*
X1518Y146D01*
X1527Y146D02*
X1532Y146D01*
X1190Y145D02*
X1196Y145D01*
X1276Y145D02*
X1309Y145D01*
X1380Y145D02*
X1385Y145D01*
X1395Y145D02*
X1400Y145D01*
X1408Y145D02*
X1413Y145D01*
X1485Y145D02*
X1490Y145D01*
X1513Y145D02*
X1518Y145D01*
X1169Y144D02*
X1199Y144D01*
X1276Y144D02*
X1309Y144D01*
X1380Y144D02*
X1385Y144D01*
X1395Y144D02*
X1400Y144D01*
X1408Y144D02*
X1413Y144D01*
X1485Y144D02*
X1490Y144D01*
X1513Y144D02*
X1518Y144D01*
X1168Y143D02*
X1200Y143D01*
X1276Y143D02*
X1309Y143D01*
X1380Y143D02*
X1385Y143D01*
X1395Y143D02*
X1400Y143D01*
X1408Y143D02*
X1413Y143D01*
X1485Y143D02*
X1490Y143D01*
X1513Y143D02*
X1518Y143D01*
X1168Y142D02*
X1201Y142D01*
X1276Y142D02*
X1309Y142D01*
X1380Y142D02*
X1385Y142D01*
X1395Y142D02*
X1400Y142D01*
X1408Y142D02*
X1413Y142D01*
X1485Y142D02*
X1490Y142D01*
X1513Y142D02*
X1518Y142D01*
X1167Y141D02*
X1201Y141D01*
X1277Y141D02*
X1308Y141D01*
X1380Y141D02*
X1385Y141D01*
X1395Y141D02*
X1400Y141D01*
X1408Y141D02*
X1413Y141D01*
X1485Y141D02*
X1489Y141D01*
X1513Y141D02*
X1518Y141D01*
X1168Y140D02*
X1200Y140D01*
X1380Y140D02*
X1385Y140D01*
X1395Y140D02*
X1400Y140D01*
X1408Y140D02*
X1413Y140D01*
X1486Y140D02*
X1489Y140D01*
X1514Y140D02*
X1517Y140D01*
X1168Y139D02*
X1200Y139D01*
X1380Y139D02*
X1385Y139D01*
X1395Y139D02*
X1400Y139D01*
X1408Y139D02*
X1413Y139D01*
X1380Y138D02*
X1385Y138D01*
X1395Y138D02*
X1400Y138D01*
X1408Y138D02*
X1413Y138D01*
X1380Y137D02*
X1385Y137D01*
X1395Y137D02*
X1400Y137D01*
X1408Y137D02*
X1413Y137D01*
X1380Y136D02*
X1385Y136D01*
X1395Y136D02*
X1400Y136D01*
X1409Y136D02*
X1413Y136D01*
X1380Y135D02*
X1386Y135D01*
X1394Y135D02*
X1400Y135D01*
X1409Y135D02*
X1412Y135D01*
X1381Y134D02*
X1400Y134D01*
X1381Y133D02*
X1399Y133D01*
X1382Y132D02*
X1398Y132D01*
X1383Y131D02*
X1398Y131D01*
X1384Y130D02*
X1396Y130D01*
X1386Y129D02*
X1394Y129D01*
X1299Y126D02*
X1317Y126D01*
X1297Y125D02*
X1318Y125D01*
X1168Y124D02*
X1171Y124D01*
X1210Y124D02*
X1212Y124D01*
X1296Y124D02*
X1319Y124D01*
X1168Y123D02*
X1172Y123D01*
X1209Y123D02*
X1213Y123D01*
X1295Y123D02*
X1320Y123D01*
X1167Y122D02*
X1172Y122D01*
X1209Y122D02*
X1214Y122D01*
X1295Y122D02*
X1321Y122D01*
X1504Y122D02*
X1511Y122D01*
X1167Y121D02*
X1172Y121D01*
X1208Y121D02*
X1214Y121D01*
X1294Y121D02*
X1321Y121D01*
X1501Y121D02*
X1514Y121D01*
X1167Y120D02*
X1172Y120D01*
X1208Y120D02*
X1214Y120D01*
X1294Y120D02*
X1300Y120D01*
X1316Y120D02*
X1322Y120D01*
X1499Y120D02*
X1516Y120D01*
X1167Y119D02*
X1172Y119D01*
X1208Y119D02*
X1214Y119D01*
X1294Y119D02*
X1299Y119D01*
X1316Y119D02*
X1322Y119D01*
X1497Y119D02*
X1518Y119D01*
X1167Y118D02*
X1172Y118D01*
X1208Y118D02*
X1214Y118D01*
X1294Y118D02*
X1299Y118D01*
X1317Y118D02*
X1322Y118D01*
X1495Y118D02*
X1520Y118D01*
X1167Y117D02*
X1172Y117D01*
X1208Y117D02*
X1214Y117D01*
X1294Y117D02*
X1299Y117D01*
X1317Y117D02*
X1322Y117D01*
X1493Y117D02*
X1522Y117D01*
X1167Y116D02*
X1172Y116D01*
X1208Y116D02*
X1214Y116D01*
X1294Y116D02*
X1299Y116D01*
X1317Y116D02*
X1322Y116D01*
X1491Y116D02*
X1504Y116D01*
X1511Y116D02*
X1524Y116D01*
X1167Y115D02*
X1172Y115D01*
X1208Y115D02*
X1214Y115D01*
X1294Y115D02*
X1299Y115D01*
X1317Y115D02*
X1322Y115D01*
X1489Y115D02*
X1502Y115D01*
X1513Y115D02*
X1526Y115D01*
X1167Y114D02*
X1172Y114D01*
X1208Y114D02*
X1214Y114D01*
X1294Y114D02*
X1299Y114D01*
X1317Y114D02*
X1322Y114D01*
X1488Y114D02*
X1500Y114D01*
X1515Y114D02*
X1527Y114D01*
X1167Y113D02*
X1172Y113D01*
X1208Y113D02*
X1214Y113D01*
X1294Y113D02*
X1299Y113D01*
X1317Y113D02*
X1322Y113D01*
X1487Y113D02*
X1498Y113D01*
X1517Y113D02*
X1528Y113D01*
X1167Y112D02*
X1172Y112D01*
X1189Y112D02*
X1192Y112D01*
X1208Y112D02*
X1214Y112D01*
X1294Y112D02*
X1299Y112D01*
X1317Y112D02*
X1322Y112D01*
X1486Y112D02*
X1496Y112D01*
X1519Y112D02*
X1529Y112D01*
X1167Y111D02*
X1172Y111D01*
X1188Y111D02*
X1193Y111D01*
X1208Y111D02*
X1214Y111D01*
X1294Y111D02*
X1299Y111D01*
X1317Y111D02*
X1322Y111D01*
X1381Y111D02*
X1384Y111D01*
X1486Y111D02*
X1494Y111D01*
X1521Y111D02*
X1530Y111D01*
X1167Y110D02*
X1172Y110D01*
X1188Y110D02*
X1193Y110D01*
X1208Y110D02*
X1214Y110D01*
X1294Y110D02*
X1299Y110D01*
X1317Y110D02*
X1322Y110D01*
X1380Y110D02*
X1385Y110D01*
X1485Y110D02*
X1492Y110D01*
X1523Y110D02*
X1530Y110D01*
X1167Y109D02*
X1172Y109D01*
X1188Y109D02*
X1193Y109D01*
X1208Y109D02*
X1214Y109D01*
X1294Y109D02*
X1299Y109D01*
X1317Y109D02*
X1322Y109D01*
X1380Y109D02*
X1385Y109D01*
X1485Y109D02*
X1491Y109D01*
X1525Y109D02*
X1530Y109D01*
X1167Y108D02*
X1172Y108D01*
X1188Y108D02*
X1193Y108D01*
X1208Y108D02*
X1214Y108D01*
X1294Y108D02*
X1299Y108D01*
X1317Y108D02*
X1322Y108D01*
X1380Y108D02*
X1385Y108D01*
X1485Y108D02*
X1490Y108D01*
X1525Y108D02*
X1531Y108D01*
X1167Y107D02*
X1172Y107D01*
X1188Y107D02*
X1193Y107D01*
X1208Y107D02*
X1214Y107D01*
X1294Y107D02*
X1299Y107D01*
X1317Y107D02*
X1322Y107D01*
X1380Y107D02*
X1385Y107D01*
X1485Y107D02*
X1490Y107D01*
X1526Y107D02*
X1531Y107D01*
X1167Y106D02*
X1172Y106D01*
X1188Y106D02*
X1193Y106D01*
X1208Y106D02*
X1214Y106D01*
X1294Y106D02*
X1299Y106D01*
X1317Y106D02*
X1322Y106D01*
X1380Y106D02*
X1385Y106D01*
X1485Y106D02*
X1490Y106D01*
X1526Y106D02*
X1531Y106D01*
X1167Y105D02*
X1172Y105D01*
X1188Y105D02*
X1193Y105D01*
X1208Y105D02*
X1214Y105D01*
X1294Y105D02*
X1299Y105D01*
X1317Y105D02*
X1322Y105D01*
X1380Y105D02*
X1385Y105D01*
X1485Y105D02*
X1490Y105D01*
X1526Y105D02*
X1531Y105D01*
X1167Y104D02*
X1172Y104D01*
X1188Y104D02*
X1193Y104D01*
X1208Y104D02*
X1214Y104D01*
X1294Y104D02*
X1299Y104D01*
X1317Y104D02*
X1322Y104D01*
X1380Y104D02*
X1385Y104D01*
X1485Y104D02*
X1531Y104D01*
X1167Y103D02*
X1172Y103D01*
X1188Y103D02*
X1193Y103D01*
X1208Y103D02*
X1214Y103D01*
X1293Y103D02*
X1299Y103D01*
X1316Y103D02*
X1322Y103D01*
X1380Y103D02*
X1385Y103D01*
X1485Y103D02*
X1531Y103D01*
X1167Y102D02*
X1172Y102D01*
X1188Y102D02*
X1193Y102D01*
X1208Y102D02*
X1214Y102D01*
X1277Y102D02*
X1322Y102D01*
X1380Y102D02*
X1425Y102D01*
X1485Y102D02*
X1531Y102D01*
X1167Y101D02*
X1173Y101D01*
X1188Y101D02*
X1193Y101D01*
X1208Y101D02*
X1214Y101D01*
X1276Y101D02*
X1322Y101D01*
X1380Y101D02*
X1426Y101D01*
X1485Y101D02*
X1531Y101D01*
X1167Y100D02*
X1214Y100D01*
X1276Y100D02*
X1322Y100D01*
X1380Y100D02*
X1426Y100D01*
X1485Y100D02*
X1531Y100D01*
X1167Y99D02*
X1214Y99D01*
X1276Y99D02*
X1322Y99D01*
X1380Y99D02*
X1426Y99D01*
X1485Y99D02*
X1531Y99D01*
X1167Y98D02*
X1214Y98D01*
X1276Y98D02*
X1322Y98D01*
X1380Y98D02*
X1426Y98D01*
X1485Y98D02*
X1490Y98D01*
X1526Y98D02*
X1531Y98D01*
X1167Y97D02*
X1214Y97D01*
X1278Y97D02*
X1322Y97D01*
X1380Y97D02*
X1426Y97D01*
X1485Y97D02*
X1490Y97D01*
X1526Y97D02*
X1531Y97D01*
X1167Y96D02*
X1214Y96D01*
X1380Y96D02*
X1385Y96D01*
X1421Y96D02*
X1426Y96D01*
X1485Y96D02*
X1490Y96D01*
X1526Y96D02*
X1531Y96D01*
X1167Y95D02*
X1214Y95D01*
X1380Y95D02*
X1385Y95D01*
X1421Y95D02*
X1426Y95D01*
X1485Y95D02*
X1490Y95D01*
X1526Y95D02*
X1531Y95D01*
X1380Y94D02*
X1385Y94D01*
X1421Y94D02*
X1426Y94D01*
X1485Y94D02*
X1489Y94D01*
X1526Y94D02*
X1530Y94D01*
X1380Y93D02*
X1385Y93D01*
X1421Y93D02*
X1426Y93D01*
X1486Y93D02*
X1488Y93D01*
X1527Y93D02*
X1529Y93D01*
X1380Y92D02*
X1385Y92D01*
X1421Y92D02*
X1426Y92D01*
X1380Y91D02*
X1385Y91D01*
X1421Y91D02*
X1426Y91D01*
X1380Y90D02*
X1385Y90D01*
X1421Y90D02*
X1426Y90D01*
X1381Y89D02*
X1384Y89D01*
X1422Y89D02*
X1425Y89D01*
X1382Y88D02*
X1383Y88D01*
X1423Y88D02*
X1424Y88D01*
D02*
G04 End of Silk0*
M02*