G04 MADE WITH FRITZING*
G04 WWW.FRITZING.ORG*
G04 DOUBLE SIDED*
G04 HOLES PLATED*
G04 CONTOUR ON CENTER OF CONTOUR VECTOR*
%ASAXBY*%
%FSLAX23Y23*%
%MOIN*%
%OFA0B0*%
%SFA1.0B1.0*%
%ADD10C,0.075000*%
%ADD11C,0.039370*%
%ADD12C,0.063000*%
%ADD13C,0.078000*%
%ADD14C,0.062992*%
%ADD15C,0.060000*%
%ADD16C,0.080000*%
%ADD17R,0.075000X0.075000*%
%ADD18R,0.078000X0.078000*%
%ADD19R,0.062992X0.062992*%
%ADD20R,0.080000X0.080000*%
%ADD21C,0.024000*%
%ADD22C,0.032000*%
%ADD23C,0.048000*%
%ADD24R,0.001000X0.001000*%
%LNCOPPER0*%
G90*
G70*
G54D10*
X1014Y725D03*
X387Y931D03*
X1649Y1027D03*
X1497Y1110D03*
X1597Y1110D03*
G54D11*
X985Y248D03*
G54D10*
X667Y101D03*
X667Y401D03*
X767Y101D03*
X767Y401D03*
X867Y101D03*
X867Y401D03*
X967Y101D03*
X967Y401D03*
X1067Y101D03*
X1067Y401D03*
X1167Y101D03*
X1167Y401D03*
X1267Y101D03*
X1267Y401D03*
G54D12*
X445Y738D03*
X545Y738D03*
X645Y738D03*
X645Y1038D03*
X545Y1038D03*
X445Y1038D03*
G54D10*
X464Y614D03*
X664Y614D03*
X919Y1014D03*
X1119Y1014D03*
G54D13*
X495Y461D03*
X495Y361D03*
X495Y261D03*
X495Y161D03*
X495Y61D03*
G54D10*
X937Y857D03*
X1037Y857D03*
X1137Y857D03*
G54D13*
X131Y679D03*
X131Y579D03*
X1634Y336D03*
X1634Y236D03*
X1634Y136D03*
G54D10*
X772Y511D03*
X772Y811D03*
X922Y531D03*
X1222Y531D03*
X567Y1233D03*
X567Y1533D03*
X1335Y653D03*
X1635Y653D03*
X1442Y83D03*
X1442Y383D03*
X917Y682D03*
X1217Y682D03*
G54D14*
X1279Y1078D03*
X1279Y1176D03*
G54D10*
X1282Y878D03*
X1482Y878D03*
G54D15*
X788Y1633D03*
X788Y1533D03*
X788Y1433D03*
G54D16*
X187Y1661D03*
X187Y1464D03*
X187Y1267D03*
G54D10*
X280Y585D03*
X280Y885D03*
G54D17*
X1497Y1110D03*
X667Y101D03*
G54D18*
X495Y461D03*
X131Y679D03*
X1634Y336D03*
G54D19*
X1279Y1078D03*
G54D20*
X187Y1661D03*
G54D21*
X847Y565D02*
X922Y612D01*
D02*
X839Y476D02*
X847Y565D01*
D02*
X922Y612D02*
X1036Y610D01*
D02*
X1036Y610D02*
X1228Y604D01*
D02*
X1228Y604D02*
X1392Y537D01*
D02*
X1392Y537D02*
X1531Y448D01*
D02*
X1531Y448D02*
X1536Y279D01*
D02*
X1536Y279D02*
X1606Y248D01*
D02*
X787Y421D02*
X839Y476D01*
D02*
X1436Y1112D02*
X1468Y1111D01*
D02*
X1304Y1166D02*
X1436Y1112D01*
D02*
X1584Y1085D02*
X1494Y904D01*
D02*
X1067Y309D02*
X1000Y259D01*
D02*
X1067Y372D02*
X1067Y309D01*
G54D22*
D02*
X580Y122D02*
X607Y196D01*
D02*
X924Y198D02*
X953Y132D01*
D02*
X607Y196D02*
X924Y198D01*
D02*
X524Y81D02*
X580Y122D01*
D02*
X585Y386D02*
X523Y438D01*
D02*
X913Y288D02*
X615Y290D01*
D02*
X615Y290D02*
X585Y386D01*
D02*
X952Y370D02*
X913Y288D01*
G54D23*
D02*
X229Y1659D02*
X746Y1635D01*
D02*
X637Y1424D02*
X700Y1524D01*
D02*
X700Y1524D02*
X746Y1528D01*
D02*
X227Y1281D02*
X637Y1424D01*
D02*
X648Y1101D02*
X647Y1076D01*
D02*
X796Y1309D02*
X648Y1101D01*
D02*
X791Y1391D02*
X796Y1309D01*
G54D22*
D02*
X362Y750D02*
X363Y142D01*
D02*
X363Y142D02*
X465Y79D01*
D02*
X389Y824D02*
X362Y750D01*
D02*
X511Y824D02*
X389Y824D01*
D02*
X533Y769D02*
X511Y824D01*
G54D21*
D02*
X450Y654D02*
X454Y641D01*
D02*
X446Y711D02*
X450Y654D01*
D02*
X1078Y768D02*
X1267Y768D01*
D02*
X1267Y768D02*
X1336Y721D01*
D02*
X1336Y721D02*
X1335Y682D01*
D02*
X1049Y831D02*
X1078Y768D01*
D02*
X905Y708D02*
X817Y901D01*
D02*
X817Y901D02*
X822Y1079D01*
D02*
X822Y1079D02*
X906Y1132D01*
D02*
X906Y1132D02*
X1253Y1173D01*
D02*
X676Y479D02*
X745Y502D01*
D02*
X670Y429D02*
X676Y479D01*
D02*
X878Y427D02*
X911Y505D01*
D02*
X161Y580D02*
X252Y584D01*
D02*
X1030Y957D02*
X1035Y885D01*
D02*
X944Y1001D02*
X1030Y957D01*
G36*
X846Y1008D02*
X846Y962D01*
X910Y962D01*
X910Y964D01*
X904Y964D01*
X904Y966D01*
X898Y966D01*
X898Y968D01*
X896Y968D01*
X896Y970D01*
X892Y970D01*
X892Y972D01*
X890Y972D01*
X890Y974D01*
X888Y974D01*
X888Y976D01*
X884Y976D01*
X884Y978D01*
X882Y978D01*
X882Y980D01*
X880Y980D01*
X880Y984D01*
X878Y984D01*
X878Y986D01*
X876Y986D01*
X876Y988D01*
X874Y988D01*
X874Y992D01*
X872Y992D01*
X872Y994D01*
X870Y994D01*
X870Y1000D01*
X868Y1000D01*
X868Y1006D01*
X866Y1006D01*
X866Y1008D01*
X846Y1008D01*
G37*
D02*
G36*
X934Y966D02*
X934Y964D01*
X926Y964D01*
X926Y962D01*
X960Y962D01*
X960Y964D01*
X956Y964D01*
X956Y966D01*
X934Y966D01*
G37*
D02*
G36*
X846Y962D02*
X846Y960D01*
X964Y960D01*
X964Y962D01*
X846Y962D01*
G37*
D02*
G36*
X846Y962D02*
X846Y960D01*
X964Y960D01*
X964Y962D01*
X846Y962D01*
G37*
D02*
G36*
X846Y960D02*
X846Y944D01*
X844Y944D01*
X844Y910D01*
X942Y910D01*
X942Y908D01*
X950Y908D01*
X950Y906D01*
X956Y906D01*
X956Y904D01*
X960Y904D01*
X960Y902D01*
X962Y902D01*
X962Y900D01*
X966Y900D01*
X966Y898D01*
X968Y898D01*
X968Y896D01*
X970Y896D01*
X970Y894D01*
X972Y894D01*
X972Y892D01*
X974Y892D01*
X974Y890D01*
X976Y890D01*
X976Y888D01*
X998Y888D01*
X998Y890D01*
X1000Y890D01*
X1000Y892D01*
X1002Y892D01*
X1002Y894D01*
X1004Y894D01*
X1004Y896D01*
X1006Y896D01*
X1006Y924D01*
X1004Y924D01*
X1004Y940D01*
X1002Y940D01*
X1002Y942D01*
X998Y942D01*
X998Y944D01*
X994Y944D01*
X994Y946D01*
X990Y946D01*
X990Y948D01*
X986Y948D01*
X986Y950D01*
X982Y950D01*
X982Y952D01*
X978Y952D01*
X978Y954D01*
X976Y954D01*
X976Y956D01*
X972Y956D01*
X972Y958D01*
X968Y958D01*
X968Y960D01*
X846Y960D01*
G37*
D02*
G36*
X844Y910D02*
X844Y904D01*
X846Y904D01*
X846Y900D01*
X848Y900D01*
X848Y896D01*
X850Y896D01*
X850Y892D01*
X852Y892D01*
X852Y886D01*
X854Y886D01*
X854Y882D01*
X856Y882D01*
X856Y878D01*
X858Y878D01*
X858Y874D01*
X860Y874D01*
X860Y870D01*
X862Y870D01*
X862Y866D01*
X864Y866D01*
X864Y860D01*
X884Y860D01*
X884Y862D01*
X886Y862D01*
X886Y870D01*
X888Y870D01*
X888Y876D01*
X890Y876D01*
X890Y878D01*
X892Y878D01*
X892Y882D01*
X894Y882D01*
X894Y886D01*
X896Y886D01*
X896Y888D01*
X898Y888D01*
X898Y890D01*
X900Y890D01*
X900Y892D01*
X902Y892D01*
X902Y894D01*
X904Y894D01*
X904Y896D01*
X906Y896D01*
X906Y898D01*
X908Y898D01*
X908Y900D01*
X912Y900D01*
X912Y902D01*
X914Y902D01*
X914Y904D01*
X918Y904D01*
X918Y906D01*
X924Y906D01*
X924Y908D01*
X932Y908D01*
X932Y910D01*
X844Y910D01*
G37*
D02*
G36*
X976Y826D02*
X976Y824D01*
X974Y824D01*
X974Y822D01*
X972Y822D01*
X972Y820D01*
X970Y820D01*
X970Y818D01*
X968Y818D01*
X968Y816D01*
X966Y816D01*
X966Y814D01*
X962Y814D01*
X962Y812D01*
X960Y812D01*
X960Y810D01*
X956Y810D01*
X956Y808D01*
X950Y808D01*
X950Y806D01*
X942Y806D01*
X942Y804D01*
X1032Y804D01*
X1032Y806D01*
X1024Y806D01*
X1024Y808D01*
X1018Y808D01*
X1018Y810D01*
X1014Y810D01*
X1014Y812D01*
X1012Y812D01*
X1012Y814D01*
X1008Y814D01*
X1008Y816D01*
X1006Y816D01*
X1006Y818D01*
X1004Y818D01*
X1004Y820D01*
X1002Y820D01*
X1002Y822D01*
X1000Y822D01*
X1000Y824D01*
X998Y824D01*
X998Y826D01*
X976Y826D01*
G37*
D02*
G36*
X884Y820D02*
X884Y816D01*
X886Y816D01*
X886Y812D01*
X888Y812D01*
X888Y808D01*
X890Y808D01*
X890Y804D01*
X932Y804D01*
X932Y806D01*
X924Y806D01*
X924Y808D01*
X918Y808D01*
X918Y810D01*
X914Y810D01*
X914Y812D01*
X912Y812D01*
X912Y814D01*
X908Y814D01*
X908Y816D01*
X906Y816D01*
X906Y818D01*
X904Y818D01*
X904Y820D01*
X884Y820D01*
G37*
D02*
G36*
X892Y804D02*
X892Y802D01*
X1032Y802D01*
X1032Y804D01*
X892Y804D01*
G37*
D02*
G36*
X892Y804D02*
X892Y802D01*
X1032Y802D01*
X1032Y804D01*
X892Y804D01*
G37*
D02*
G36*
X892Y802D02*
X892Y800D01*
X894Y800D01*
X894Y794D01*
X896Y794D01*
X896Y790D01*
X898Y790D01*
X898Y786D01*
X900Y786D01*
X900Y782D01*
X902Y782D01*
X902Y778D01*
X904Y778D01*
X904Y772D01*
X906Y772D01*
X906Y768D01*
X908Y768D01*
X908Y764D01*
X910Y764D01*
X910Y760D01*
X912Y760D01*
X912Y756D01*
X914Y756D01*
X914Y750D01*
X916Y750D01*
X916Y746D01*
X918Y746D01*
X918Y742D01*
X920Y742D01*
X920Y738D01*
X922Y738D01*
X922Y734D01*
X928Y734D01*
X928Y732D01*
X934Y732D01*
X934Y730D01*
X938Y730D01*
X938Y728D01*
X940Y728D01*
X940Y726D01*
X944Y726D01*
X944Y724D01*
X946Y724D01*
X946Y722D01*
X948Y722D01*
X948Y720D01*
X952Y720D01*
X952Y718D01*
X954Y718D01*
X954Y714D01*
X956Y714D01*
X956Y712D01*
X958Y712D01*
X958Y710D01*
X960Y710D01*
X960Y708D01*
X962Y708D01*
X962Y704D01*
X964Y704D01*
X964Y700D01*
X966Y700D01*
X966Y694D01*
X968Y694D01*
X968Y684D01*
X970Y684D01*
X970Y680D01*
X968Y680D01*
X968Y670D01*
X966Y670D01*
X966Y664D01*
X964Y664D01*
X964Y660D01*
X962Y660D01*
X962Y658D01*
X960Y658D01*
X960Y638D01*
X1036Y638D01*
X1036Y636D01*
X1106Y636D01*
X1106Y634D01*
X1176Y634D01*
X1176Y654D01*
X1174Y654D01*
X1174Y656D01*
X1172Y656D01*
X1172Y660D01*
X1170Y660D01*
X1170Y662D01*
X1168Y662D01*
X1168Y668D01*
X1166Y668D01*
X1166Y674D01*
X1164Y674D01*
X1164Y690D01*
X1166Y690D01*
X1166Y696D01*
X1168Y696D01*
X1168Y702D01*
X1170Y702D01*
X1170Y704D01*
X1172Y704D01*
X1172Y708D01*
X1174Y708D01*
X1174Y712D01*
X1176Y712D01*
X1176Y714D01*
X1178Y714D01*
X1178Y716D01*
X1180Y716D01*
X1180Y718D01*
X1182Y718D01*
X1182Y720D01*
X1184Y720D01*
X1184Y722D01*
X1186Y722D01*
X1186Y742D01*
X1068Y742D01*
X1068Y744D01*
X1064Y744D01*
X1064Y746D01*
X1062Y746D01*
X1062Y748D01*
X1058Y748D01*
X1058Y752D01*
X1056Y752D01*
X1056Y754D01*
X1054Y754D01*
X1054Y758D01*
X1052Y758D01*
X1052Y762D01*
X1050Y762D01*
X1050Y766D01*
X1048Y766D01*
X1048Y770D01*
X1046Y770D01*
X1046Y774D01*
X1044Y774D01*
X1044Y780D01*
X1042Y780D01*
X1042Y784D01*
X1040Y784D01*
X1040Y788D01*
X1038Y788D01*
X1038Y792D01*
X1036Y792D01*
X1036Y796D01*
X1034Y796D01*
X1034Y802D01*
X892Y802D01*
G37*
D02*
G36*
X1246Y736D02*
X1246Y722D01*
X1248Y722D01*
X1248Y720D01*
X1252Y720D01*
X1252Y718D01*
X1254Y718D01*
X1254Y714D01*
X1256Y714D01*
X1256Y712D01*
X1258Y712D01*
X1258Y710D01*
X1260Y710D01*
X1260Y708D01*
X1262Y708D01*
X1262Y704D01*
X1264Y704D01*
X1264Y700D01*
X1266Y700D01*
X1266Y694D01*
X1268Y694D01*
X1268Y684D01*
X1270Y684D01*
X1270Y680D01*
X1268Y680D01*
X1268Y672D01*
X1288Y672D01*
X1288Y676D01*
X1290Y676D01*
X1290Y680D01*
X1292Y680D01*
X1292Y682D01*
X1294Y682D01*
X1294Y684D01*
X1296Y684D01*
X1296Y686D01*
X1298Y686D01*
X1298Y690D01*
X1300Y690D01*
X1300Y692D01*
X1302Y692D01*
X1302Y712D01*
X1300Y712D01*
X1300Y714D01*
X1298Y714D01*
X1298Y716D01*
X1294Y716D01*
X1294Y718D01*
X1292Y718D01*
X1292Y720D01*
X1288Y720D01*
X1288Y722D01*
X1286Y722D01*
X1286Y724D01*
X1282Y724D01*
X1282Y726D01*
X1280Y726D01*
X1280Y728D01*
X1276Y728D01*
X1276Y730D01*
X1274Y730D01*
X1274Y732D01*
X1270Y732D01*
X1270Y734D01*
X1268Y734D01*
X1268Y736D01*
X1246Y736D01*
G37*
D02*
G36*
X394Y706D02*
X394Y626D01*
X414Y626D01*
X414Y632D01*
X416Y632D01*
X416Y636D01*
X418Y636D01*
X418Y638D01*
X420Y638D01*
X420Y642D01*
X422Y642D01*
X422Y684D01*
X420Y684D01*
X420Y702D01*
X418Y702D01*
X418Y704D01*
X414Y704D01*
X414Y706D01*
X394Y706D01*
G37*
D02*
G36*
X40Y1124D02*
X40Y1084D01*
X556Y1084D01*
X556Y1082D01*
X560Y1082D01*
X560Y1080D01*
X564Y1080D01*
X564Y1078D01*
X568Y1078D01*
X568Y1076D01*
X570Y1076D01*
X570Y1074D01*
X572Y1074D01*
X572Y1072D01*
X576Y1072D01*
X576Y1070D01*
X578Y1070D01*
X578Y1066D01*
X580Y1066D01*
X580Y1064D01*
X582Y1064D01*
X582Y1062D01*
X584Y1062D01*
X584Y1058D01*
X604Y1058D01*
X604Y1060D01*
X606Y1060D01*
X606Y1064D01*
X608Y1064D01*
X608Y1100D01*
X610Y1100D01*
X610Y1124D01*
X40Y1124D01*
G37*
D02*
G36*
X712Y1124D02*
X712Y1122D01*
X710Y1122D01*
X710Y1120D01*
X708Y1120D01*
X708Y1116D01*
X706Y1116D01*
X706Y1114D01*
X704Y1114D01*
X704Y1112D01*
X702Y1112D01*
X702Y1108D01*
X700Y1108D01*
X700Y1106D01*
X698Y1106D01*
X698Y1102D01*
X696Y1102D01*
X696Y1100D01*
X694Y1100D01*
X694Y1098D01*
X692Y1098D01*
X692Y1094D01*
X690Y1094D01*
X690Y1092D01*
X688Y1092D01*
X688Y1088D01*
X686Y1088D01*
X686Y1054D01*
X688Y1054D01*
X688Y1050D01*
X690Y1050D01*
X690Y1028D01*
X688Y1028D01*
X688Y1022D01*
X686Y1022D01*
X686Y1018D01*
X684Y1018D01*
X684Y1016D01*
X682Y1016D01*
X682Y1012D01*
X680Y1012D01*
X680Y1010D01*
X678Y1010D01*
X678Y1008D01*
X676Y1008D01*
X676Y1006D01*
X674Y1006D01*
X674Y1004D01*
X672Y1004D01*
X672Y1002D01*
X670Y1002D01*
X670Y1000D01*
X666Y1000D01*
X666Y998D01*
X662Y998D01*
X662Y996D01*
X658Y996D01*
X658Y994D01*
X652Y994D01*
X652Y992D01*
X792Y992D01*
X792Y1010D01*
X794Y1010D01*
X794Y1074D01*
X796Y1074D01*
X796Y1088D01*
X798Y1088D01*
X798Y1092D01*
X800Y1092D01*
X800Y1096D01*
X802Y1096D01*
X802Y1098D01*
X804Y1098D01*
X804Y1100D01*
X806Y1100D01*
X806Y1102D01*
X808Y1102D01*
X808Y1104D01*
X812Y1104D01*
X812Y1124D01*
X712Y1124D01*
G37*
D02*
G36*
X40Y1084D02*
X40Y992D01*
X436Y992D01*
X436Y994D01*
X430Y994D01*
X430Y996D01*
X426Y996D01*
X426Y998D01*
X422Y998D01*
X422Y1000D01*
X420Y1000D01*
X420Y1002D01*
X418Y1002D01*
X418Y1004D01*
X414Y1004D01*
X414Y1006D01*
X412Y1006D01*
X412Y1008D01*
X410Y1008D01*
X410Y1012D01*
X408Y1012D01*
X408Y1014D01*
X406Y1014D01*
X406Y1016D01*
X404Y1016D01*
X404Y1020D01*
X402Y1020D01*
X402Y1024D01*
X400Y1024D01*
X400Y1030D01*
X398Y1030D01*
X398Y1046D01*
X400Y1046D01*
X400Y1052D01*
X402Y1052D01*
X402Y1056D01*
X404Y1056D01*
X404Y1060D01*
X406Y1060D01*
X406Y1064D01*
X408Y1064D01*
X408Y1066D01*
X410Y1066D01*
X410Y1068D01*
X412Y1068D01*
X412Y1070D01*
X414Y1070D01*
X414Y1072D01*
X416Y1072D01*
X416Y1074D01*
X418Y1074D01*
X418Y1076D01*
X422Y1076D01*
X422Y1078D01*
X424Y1078D01*
X424Y1080D01*
X428Y1080D01*
X428Y1082D01*
X434Y1082D01*
X434Y1084D01*
X40Y1084D01*
G37*
D02*
G36*
X456Y1084D02*
X456Y1082D01*
X460Y1082D01*
X460Y1080D01*
X464Y1080D01*
X464Y1078D01*
X468Y1078D01*
X468Y1076D01*
X470Y1076D01*
X470Y1074D01*
X472Y1074D01*
X472Y1072D01*
X476Y1072D01*
X476Y1070D01*
X478Y1070D01*
X478Y1066D01*
X480Y1066D01*
X480Y1064D01*
X482Y1064D01*
X482Y1062D01*
X484Y1062D01*
X484Y1058D01*
X504Y1058D01*
X504Y1060D01*
X506Y1060D01*
X506Y1064D01*
X508Y1064D01*
X508Y1066D01*
X510Y1066D01*
X510Y1068D01*
X512Y1068D01*
X512Y1070D01*
X514Y1070D01*
X514Y1072D01*
X516Y1072D01*
X516Y1074D01*
X518Y1074D01*
X518Y1076D01*
X522Y1076D01*
X522Y1078D01*
X524Y1078D01*
X524Y1080D01*
X528Y1080D01*
X528Y1082D01*
X534Y1082D01*
X534Y1084D01*
X456Y1084D01*
G37*
D02*
G36*
X484Y1018D02*
X484Y1016D01*
X482Y1016D01*
X482Y1012D01*
X480Y1012D01*
X480Y1010D01*
X478Y1010D01*
X478Y1008D01*
X476Y1008D01*
X476Y1006D01*
X474Y1006D01*
X474Y1004D01*
X472Y1004D01*
X472Y1002D01*
X470Y1002D01*
X470Y1000D01*
X466Y1000D01*
X466Y998D01*
X462Y998D01*
X462Y996D01*
X458Y996D01*
X458Y994D01*
X452Y994D01*
X452Y992D01*
X536Y992D01*
X536Y994D01*
X530Y994D01*
X530Y996D01*
X526Y996D01*
X526Y998D01*
X522Y998D01*
X522Y1000D01*
X520Y1000D01*
X520Y1002D01*
X518Y1002D01*
X518Y1004D01*
X514Y1004D01*
X514Y1006D01*
X512Y1006D01*
X512Y1008D01*
X510Y1008D01*
X510Y1012D01*
X508Y1012D01*
X508Y1014D01*
X506Y1014D01*
X506Y1016D01*
X504Y1016D01*
X504Y1018D01*
X484Y1018D01*
G37*
D02*
G36*
X584Y1018D02*
X584Y1016D01*
X582Y1016D01*
X582Y1012D01*
X580Y1012D01*
X580Y1010D01*
X578Y1010D01*
X578Y1008D01*
X576Y1008D01*
X576Y1006D01*
X574Y1006D01*
X574Y1004D01*
X572Y1004D01*
X572Y1002D01*
X570Y1002D01*
X570Y1000D01*
X566Y1000D01*
X566Y998D01*
X562Y998D01*
X562Y996D01*
X558Y996D01*
X558Y994D01*
X552Y994D01*
X552Y992D01*
X636Y992D01*
X636Y994D01*
X630Y994D01*
X630Y996D01*
X626Y996D01*
X626Y998D01*
X622Y998D01*
X622Y1000D01*
X620Y1000D01*
X620Y1002D01*
X618Y1002D01*
X618Y1004D01*
X614Y1004D01*
X614Y1006D01*
X612Y1006D01*
X612Y1008D01*
X610Y1008D01*
X610Y1012D01*
X608Y1012D01*
X608Y1014D01*
X606Y1014D01*
X606Y1016D01*
X604Y1016D01*
X604Y1018D01*
X584Y1018D01*
G37*
D02*
G36*
X40Y992D02*
X40Y990D01*
X792Y990D01*
X792Y992D01*
X40Y992D01*
G37*
D02*
G36*
X40Y992D02*
X40Y990D01*
X792Y990D01*
X792Y992D01*
X40Y992D01*
G37*
D02*
G36*
X40Y992D02*
X40Y990D01*
X792Y990D01*
X792Y992D01*
X40Y992D01*
G37*
D02*
G36*
X40Y992D02*
X40Y990D01*
X792Y990D01*
X792Y992D01*
X40Y992D01*
G37*
D02*
G36*
X40Y990D02*
X40Y954D01*
X120Y954D01*
X120Y952D01*
X128Y952D01*
X128Y950D01*
X134Y950D01*
X134Y948D01*
X138Y948D01*
X138Y946D01*
X142Y946D01*
X142Y944D01*
X146Y944D01*
X146Y942D01*
X148Y942D01*
X148Y940D01*
X152Y940D01*
X152Y938D01*
X288Y938D01*
X288Y936D01*
X294Y936D01*
X294Y934D01*
X300Y934D01*
X300Y932D01*
X304Y932D01*
X304Y930D01*
X306Y930D01*
X306Y928D01*
X310Y928D01*
X310Y926D01*
X312Y926D01*
X312Y924D01*
X314Y924D01*
X314Y922D01*
X316Y922D01*
X316Y920D01*
X318Y920D01*
X318Y918D01*
X320Y918D01*
X320Y916D01*
X322Y916D01*
X322Y914D01*
X324Y914D01*
X324Y910D01*
X326Y910D01*
X326Y906D01*
X328Y906D01*
X328Y902D01*
X330Y902D01*
X330Y898D01*
X332Y898D01*
X332Y874D01*
X330Y874D01*
X330Y868D01*
X328Y868D01*
X328Y864D01*
X778Y864D01*
X778Y862D01*
X800Y862D01*
X800Y876D01*
X798Y876D01*
X798Y880D01*
X796Y880D01*
X796Y884D01*
X794Y884D01*
X794Y888D01*
X792Y888D01*
X792Y894D01*
X790Y894D01*
X790Y946D01*
X792Y946D01*
X792Y990D01*
X40Y990D01*
G37*
D02*
G36*
X40Y954D02*
X40Y936D01*
X60Y936D01*
X60Y938D01*
X62Y938D01*
X62Y940D01*
X64Y940D01*
X64Y942D01*
X68Y942D01*
X68Y944D01*
X70Y944D01*
X70Y946D01*
X74Y946D01*
X74Y948D01*
X80Y948D01*
X80Y950D01*
X84Y950D01*
X84Y952D01*
X92Y952D01*
X92Y954D01*
X40Y954D01*
G37*
D02*
G36*
X154Y938D02*
X154Y936D01*
X156Y936D01*
X156Y934D01*
X158Y934D01*
X158Y932D01*
X160Y932D01*
X160Y930D01*
X162Y930D01*
X162Y928D01*
X164Y928D01*
X164Y926D01*
X166Y926D01*
X166Y924D01*
X168Y924D01*
X168Y922D01*
X170Y922D01*
X170Y918D01*
X172Y918D01*
X172Y916D01*
X174Y916D01*
X174Y912D01*
X176Y912D01*
X176Y908D01*
X178Y908D01*
X178Y904D01*
X180Y904D01*
X180Y898D01*
X182Y898D01*
X182Y890D01*
X184Y890D01*
X184Y862D01*
X182Y862D01*
X182Y854D01*
X180Y854D01*
X180Y850D01*
X178Y850D01*
X178Y844D01*
X176Y844D01*
X176Y840D01*
X174Y840D01*
X174Y838D01*
X172Y838D01*
X172Y834D01*
X170Y834D01*
X170Y832D01*
X276Y832D01*
X276Y834D01*
X268Y834D01*
X268Y836D01*
X262Y836D01*
X262Y838D01*
X258Y838D01*
X258Y840D01*
X256Y840D01*
X256Y842D01*
X252Y842D01*
X252Y844D01*
X250Y844D01*
X250Y846D01*
X248Y846D01*
X248Y848D01*
X246Y848D01*
X246Y850D01*
X244Y850D01*
X244Y852D01*
X242Y852D01*
X242Y854D01*
X240Y854D01*
X240Y856D01*
X238Y856D01*
X238Y858D01*
X236Y858D01*
X236Y862D01*
X234Y862D01*
X234Y866D01*
X232Y866D01*
X232Y870D01*
X230Y870D01*
X230Y876D01*
X228Y876D01*
X228Y894D01*
X230Y894D01*
X230Y900D01*
X232Y900D01*
X232Y906D01*
X234Y906D01*
X234Y908D01*
X236Y908D01*
X236Y912D01*
X238Y912D01*
X238Y914D01*
X240Y914D01*
X240Y916D01*
X242Y916D01*
X242Y920D01*
X244Y920D01*
X244Y922D01*
X246Y922D01*
X246Y924D01*
X250Y924D01*
X250Y926D01*
X252Y926D01*
X252Y928D01*
X254Y928D01*
X254Y930D01*
X258Y930D01*
X258Y932D01*
X262Y932D01*
X262Y934D01*
X266Y934D01*
X266Y936D01*
X272Y936D01*
X272Y938D01*
X154Y938D01*
G37*
D02*
G36*
X326Y864D02*
X326Y860D01*
X324Y860D01*
X324Y858D01*
X322Y858D01*
X322Y856D01*
X320Y856D01*
X320Y854D01*
X522Y854D01*
X522Y852D01*
X526Y852D01*
X526Y850D01*
X530Y850D01*
X530Y848D01*
X532Y848D01*
X532Y846D01*
X534Y846D01*
X534Y844D01*
X536Y844D01*
X536Y840D01*
X538Y840D01*
X538Y838D01*
X540Y838D01*
X540Y832D01*
X542Y832D01*
X542Y828D01*
X544Y828D01*
X544Y822D01*
X546Y822D01*
X546Y818D01*
X548Y818D01*
X548Y812D01*
X550Y812D01*
X550Y806D01*
X552Y806D01*
X552Y802D01*
X554Y802D01*
X554Y796D01*
X556Y796D01*
X556Y792D01*
X558Y792D01*
X558Y786D01*
X560Y786D01*
X560Y784D01*
X656Y784D01*
X656Y782D01*
X660Y782D01*
X660Y780D01*
X664Y780D01*
X664Y778D01*
X668Y778D01*
X668Y776D01*
X670Y776D01*
X670Y774D01*
X672Y774D01*
X672Y772D01*
X676Y772D01*
X676Y770D01*
X678Y770D01*
X678Y766D01*
X680Y766D01*
X680Y764D01*
X682Y764D01*
X682Y762D01*
X684Y762D01*
X684Y758D01*
X766Y758D01*
X766Y760D01*
X758Y760D01*
X758Y762D01*
X754Y762D01*
X754Y764D01*
X750Y764D01*
X750Y766D01*
X746Y766D01*
X746Y768D01*
X744Y768D01*
X744Y770D01*
X742Y770D01*
X742Y772D01*
X738Y772D01*
X738Y774D01*
X736Y774D01*
X736Y776D01*
X734Y776D01*
X734Y780D01*
X732Y780D01*
X732Y782D01*
X730Y782D01*
X730Y784D01*
X728Y784D01*
X728Y788D01*
X726Y788D01*
X726Y790D01*
X724Y790D01*
X724Y796D01*
X722Y796D01*
X722Y802D01*
X720Y802D01*
X720Y820D01*
X722Y820D01*
X722Y826D01*
X724Y826D01*
X724Y832D01*
X726Y832D01*
X726Y834D01*
X728Y834D01*
X728Y838D01*
X730Y838D01*
X730Y840D01*
X732Y840D01*
X732Y842D01*
X734Y842D01*
X734Y846D01*
X736Y846D01*
X736Y848D01*
X740Y848D01*
X740Y850D01*
X742Y850D01*
X742Y852D01*
X744Y852D01*
X744Y854D01*
X746Y854D01*
X746Y856D01*
X750Y856D01*
X750Y858D01*
X754Y858D01*
X754Y860D01*
X758Y860D01*
X758Y862D01*
X766Y862D01*
X766Y864D01*
X326Y864D01*
G37*
D02*
G36*
X320Y854D02*
X320Y852D01*
X318Y852D01*
X318Y850D01*
X316Y850D01*
X316Y848D01*
X314Y848D01*
X314Y846D01*
X310Y846D01*
X310Y844D01*
X308Y844D01*
X308Y842D01*
X306Y842D01*
X306Y840D01*
X302Y840D01*
X302Y838D01*
X298Y838D01*
X298Y836D01*
X294Y836D01*
X294Y834D01*
X284Y834D01*
X284Y832D01*
X360Y832D01*
X360Y838D01*
X362Y838D01*
X362Y840D01*
X364Y840D01*
X364Y844D01*
X366Y844D01*
X366Y846D01*
X368Y846D01*
X368Y848D01*
X370Y848D01*
X370Y850D01*
X374Y850D01*
X374Y852D01*
X378Y852D01*
X378Y854D01*
X320Y854D01*
G37*
D02*
G36*
X168Y832D02*
X168Y830D01*
X358Y830D01*
X358Y832D01*
X168Y832D01*
G37*
D02*
G36*
X168Y832D02*
X168Y830D01*
X358Y830D01*
X358Y832D01*
X168Y832D01*
G37*
D02*
G36*
X168Y830D02*
X168Y828D01*
X166Y828D01*
X166Y826D01*
X164Y826D01*
X164Y824D01*
X162Y824D01*
X162Y822D01*
X160Y822D01*
X160Y820D01*
X158Y820D01*
X158Y818D01*
X156Y818D01*
X156Y816D01*
X152Y816D01*
X152Y814D01*
X150Y814D01*
X150Y812D01*
X148Y812D01*
X148Y810D01*
X144Y810D01*
X144Y808D01*
X140Y808D01*
X140Y806D01*
X136Y806D01*
X136Y804D01*
X132Y804D01*
X132Y802D01*
X124Y802D01*
X124Y800D01*
X114Y800D01*
X114Y798D01*
X346Y798D01*
X346Y800D01*
X348Y800D01*
X348Y804D01*
X350Y804D01*
X350Y810D01*
X352Y810D01*
X352Y816D01*
X354Y816D01*
X354Y822D01*
X356Y822D01*
X356Y826D01*
X358Y826D01*
X358Y830D01*
X168Y830D01*
G37*
D02*
G36*
X40Y816D02*
X40Y798D01*
X98Y798D01*
X98Y800D01*
X88Y800D01*
X88Y802D01*
X82Y802D01*
X82Y804D01*
X76Y804D01*
X76Y806D01*
X72Y806D01*
X72Y808D01*
X70Y808D01*
X70Y810D01*
X66Y810D01*
X66Y812D01*
X62Y812D01*
X62Y814D01*
X60Y814D01*
X60Y816D01*
X40Y816D01*
G37*
D02*
G36*
X40Y798D02*
X40Y796D01*
X346Y796D01*
X346Y798D01*
X40Y798D01*
G37*
D02*
G36*
X40Y798D02*
X40Y796D01*
X346Y796D01*
X346Y798D01*
X40Y798D01*
G37*
D02*
G36*
X40Y796D02*
X40Y732D01*
X186Y732D01*
X186Y638D01*
X288Y638D01*
X288Y636D01*
X294Y636D01*
X294Y634D01*
X300Y634D01*
X300Y632D01*
X304Y632D01*
X304Y630D01*
X306Y630D01*
X306Y628D01*
X310Y628D01*
X310Y626D01*
X312Y626D01*
X312Y624D01*
X332Y624D01*
X332Y760D01*
X334Y760D01*
X334Y766D01*
X336Y766D01*
X336Y772D01*
X338Y772D01*
X338Y778D01*
X340Y778D01*
X340Y782D01*
X342Y782D01*
X342Y788D01*
X344Y788D01*
X344Y794D01*
X346Y794D01*
X346Y796D01*
X40Y796D01*
G37*
D02*
G36*
X818Y790D02*
X818Y786D01*
X816Y786D01*
X816Y784D01*
X814Y784D01*
X814Y780D01*
X812Y780D01*
X812Y778D01*
X810Y778D01*
X810Y776D01*
X808Y776D01*
X808Y774D01*
X806Y774D01*
X806Y772D01*
X804Y772D01*
X804Y770D01*
X800Y770D01*
X800Y768D01*
X798Y768D01*
X798Y766D01*
X794Y766D01*
X794Y764D01*
X792Y764D01*
X792Y762D01*
X786Y762D01*
X786Y760D01*
X778Y760D01*
X778Y758D01*
X852Y758D01*
X852Y762D01*
X850Y762D01*
X850Y766D01*
X848Y766D01*
X848Y770D01*
X846Y770D01*
X846Y774D01*
X844Y774D01*
X844Y778D01*
X842Y778D01*
X842Y784D01*
X840Y784D01*
X840Y788D01*
X838Y788D01*
X838Y790D01*
X818Y790D01*
G37*
D02*
G36*
X560Y784D02*
X560Y782D01*
X562Y782D01*
X562Y780D01*
X564Y780D01*
X564Y778D01*
X568Y778D01*
X568Y776D01*
X570Y776D01*
X570Y774D01*
X572Y774D01*
X572Y772D01*
X576Y772D01*
X576Y770D01*
X578Y770D01*
X578Y766D01*
X580Y766D01*
X580Y764D01*
X582Y764D01*
X582Y762D01*
X584Y762D01*
X584Y758D01*
X604Y758D01*
X604Y760D01*
X606Y760D01*
X606Y764D01*
X608Y764D01*
X608Y766D01*
X610Y766D01*
X610Y768D01*
X612Y768D01*
X612Y770D01*
X614Y770D01*
X614Y772D01*
X616Y772D01*
X616Y774D01*
X618Y774D01*
X618Y776D01*
X622Y776D01*
X622Y778D01*
X624Y778D01*
X624Y780D01*
X628Y780D01*
X628Y782D01*
X634Y782D01*
X634Y784D01*
X560Y784D01*
G37*
D02*
G36*
X686Y758D02*
X686Y756D01*
X852Y756D01*
X852Y758D01*
X686Y758D01*
G37*
D02*
G36*
X686Y758D02*
X686Y756D01*
X852Y756D01*
X852Y758D01*
X686Y758D01*
G37*
D02*
G36*
X686Y756D02*
X686Y754D01*
X688Y754D01*
X688Y750D01*
X690Y750D01*
X690Y728D01*
X688Y728D01*
X688Y722D01*
X686Y722D01*
X686Y718D01*
X684Y718D01*
X684Y716D01*
X682Y716D01*
X682Y712D01*
X680Y712D01*
X680Y710D01*
X678Y710D01*
X678Y708D01*
X676Y708D01*
X676Y706D01*
X674Y706D01*
X674Y704D01*
X672Y704D01*
X672Y702D01*
X670Y702D01*
X670Y700D01*
X666Y700D01*
X666Y698D01*
X662Y698D01*
X662Y696D01*
X658Y696D01*
X658Y694D01*
X652Y694D01*
X652Y692D01*
X866Y692D01*
X866Y696D01*
X868Y696D01*
X868Y702D01*
X870Y702D01*
X870Y722D01*
X868Y722D01*
X868Y726D01*
X866Y726D01*
X866Y730D01*
X864Y730D01*
X864Y734D01*
X862Y734D01*
X862Y740D01*
X860Y740D01*
X860Y744D01*
X858Y744D01*
X858Y748D01*
X856Y748D01*
X856Y752D01*
X854Y752D01*
X854Y756D01*
X686Y756D01*
G37*
D02*
G36*
X40Y732D02*
X40Y524D01*
X130Y524D01*
X130Y526D01*
X118Y526D01*
X118Y528D01*
X114Y528D01*
X114Y530D01*
X110Y530D01*
X110Y532D01*
X106Y532D01*
X106Y534D01*
X102Y534D01*
X102Y536D01*
X100Y536D01*
X100Y538D01*
X98Y538D01*
X98Y540D01*
X96Y540D01*
X96Y542D01*
X94Y542D01*
X94Y544D01*
X92Y544D01*
X92Y546D01*
X90Y546D01*
X90Y548D01*
X88Y548D01*
X88Y550D01*
X86Y550D01*
X86Y554D01*
X84Y554D01*
X84Y558D01*
X82Y558D01*
X82Y562D01*
X80Y562D01*
X80Y566D01*
X78Y566D01*
X78Y592D01*
X80Y592D01*
X80Y596D01*
X82Y596D01*
X82Y600D01*
X84Y600D01*
X84Y604D01*
X86Y604D01*
X86Y624D01*
X78Y624D01*
X78Y732D01*
X40Y732D01*
G37*
D02*
G36*
X484Y718D02*
X484Y716D01*
X482Y716D01*
X482Y712D01*
X480Y712D01*
X480Y710D01*
X478Y710D01*
X478Y708D01*
X476Y708D01*
X476Y706D01*
X474Y706D01*
X474Y692D01*
X536Y692D01*
X536Y694D01*
X530Y694D01*
X530Y696D01*
X526Y696D01*
X526Y698D01*
X522Y698D01*
X522Y700D01*
X520Y700D01*
X520Y702D01*
X518Y702D01*
X518Y704D01*
X514Y704D01*
X514Y706D01*
X512Y706D01*
X512Y708D01*
X510Y708D01*
X510Y712D01*
X508Y712D01*
X508Y714D01*
X506Y714D01*
X506Y716D01*
X504Y716D01*
X504Y718D01*
X484Y718D01*
G37*
D02*
G36*
X584Y718D02*
X584Y716D01*
X582Y716D01*
X582Y712D01*
X580Y712D01*
X580Y710D01*
X578Y710D01*
X578Y708D01*
X576Y708D01*
X576Y706D01*
X574Y706D01*
X574Y704D01*
X572Y704D01*
X572Y702D01*
X570Y702D01*
X570Y700D01*
X566Y700D01*
X566Y698D01*
X562Y698D01*
X562Y696D01*
X558Y696D01*
X558Y694D01*
X552Y694D01*
X552Y692D01*
X636Y692D01*
X636Y694D01*
X630Y694D01*
X630Y696D01*
X626Y696D01*
X626Y698D01*
X622Y698D01*
X622Y700D01*
X620Y700D01*
X620Y702D01*
X618Y702D01*
X618Y704D01*
X614Y704D01*
X614Y706D01*
X612Y706D01*
X612Y708D01*
X610Y708D01*
X610Y712D01*
X608Y712D01*
X608Y714D01*
X606Y714D01*
X606Y716D01*
X604Y716D01*
X604Y718D01*
X584Y718D01*
G37*
D02*
G36*
X474Y692D02*
X474Y690D01*
X866Y690D01*
X866Y692D01*
X474Y692D01*
G37*
D02*
G36*
X474Y692D02*
X474Y690D01*
X866Y690D01*
X866Y692D01*
X474Y692D01*
G37*
D02*
G36*
X474Y692D02*
X474Y690D01*
X866Y690D01*
X866Y692D01*
X474Y692D01*
G37*
D02*
G36*
X474Y690D02*
X474Y686D01*
X476Y686D01*
X476Y668D01*
X666Y668D01*
X666Y666D01*
X676Y666D01*
X676Y664D01*
X682Y664D01*
X682Y662D01*
X686Y662D01*
X686Y660D01*
X688Y660D01*
X688Y658D01*
X692Y658D01*
X692Y656D01*
X694Y656D01*
X694Y654D01*
X696Y654D01*
X696Y652D01*
X700Y652D01*
X700Y648D01*
X702Y648D01*
X702Y646D01*
X704Y646D01*
X704Y644D01*
X706Y644D01*
X706Y642D01*
X708Y642D01*
X708Y638D01*
X710Y638D01*
X710Y634D01*
X712Y634D01*
X712Y630D01*
X714Y630D01*
X714Y624D01*
X716Y624D01*
X716Y604D01*
X714Y604D01*
X714Y598D01*
X712Y598D01*
X712Y594D01*
X710Y594D01*
X710Y590D01*
X708Y590D01*
X708Y588D01*
X706Y588D01*
X706Y586D01*
X704Y586D01*
X704Y582D01*
X702Y582D01*
X702Y580D01*
X700Y580D01*
X700Y578D01*
X698Y578D01*
X698Y576D01*
X696Y576D01*
X696Y574D01*
X692Y574D01*
X692Y572D01*
X690Y572D01*
X690Y570D01*
X686Y570D01*
X686Y568D01*
X684Y568D01*
X684Y566D01*
X678Y566D01*
X678Y564D01*
X778Y564D01*
X778Y562D01*
X786Y562D01*
X786Y560D01*
X790Y560D01*
X790Y558D01*
X794Y558D01*
X794Y556D01*
X798Y556D01*
X798Y554D01*
X820Y554D01*
X820Y572D01*
X822Y572D01*
X822Y578D01*
X824Y578D01*
X824Y580D01*
X826Y580D01*
X826Y584D01*
X828Y584D01*
X828Y586D01*
X830Y586D01*
X830Y588D01*
X834Y588D01*
X834Y590D01*
X836Y590D01*
X836Y592D01*
X840Y592D01*
X840Y594D01*
X844Y594D01*
X844Y596D01*
X846Y596D01*
X846Y598D01*
X850Y598D01*
X850Y600D01*
X852Y600D01*
X852Y602D01*
X856Y602D01*
X856Y604D01*
X860Y604D01*
X860Y606D01*
X862Y606D01*
X862Y608D01*
X866Y608D01*
X866Y610D01*
X868Y610D01*
X868Y612D01*
X872Y612D01*
X872Y614D01*
X876Y614D01*
X876Y616D01*
X878Y616D01*
X878Y618D01*
X882Y618D01*
X882Y620D01*
X884Y620D01*
X884Y622D01*
X888Y622D01*
X888Y642D01*
X884Y642D01*
X884Y644D01*
X882Y644D01*
X882Y646D01*
X880Y646D01*
X880Y648D01*
X878Y648D01*
X878Y650D01*
X876Y650D01*
X876Y654D01*
X874Y654D01*
X874Y656D01*
X872Y656D01*
X872Y660D01*
X870Y660D01*
X870Y662D01*
X868Y662D01*
X868Y668D01*
X866Y668D01*
X866Y674D01*
X864Y674D01*
X864Y690D01*
X474Y690D01*
G37*
D02*
G36*
X476Y668D02*
X476Y664D01*
X482Y664D01*
X482Y662D01*
X486Y662D01*
X486Y660D01*
X488Y660D01*
X488Y658D01*
X492Y658D01*
X492Y656D01*
X494Y656D01*
X494Y654D01*
X496Y654D01*
X496Y652D01*
X500Y652D01*
X500Y648D01*
X502Y648D01*
X502Y646D01*
X504Y646D01*
X504Y644D01*
X506Y644D01*
X506Y642D01*
X508Y642D01*
X508Y638D01*
X510Y638D01*
X510Y634D01*
X512Y634D01*
X512Y630D01*
X514Y630D01*
X514Y624D01*
X516Y624D01*
X516Y604D01*
X514Y604D01*
X514Y598D01*
X512Y598D01*
X512Y594D01*
X510Y594D01*
X510Y590D01*
X508Y590D01*
X508Y588D01*
X506Y588D01*
X506Y586D01*
X504Y586D01*
X504Y582D01*
X502Y582D01*
X502Y580D01*
X500Y580D01*
X500Y578D01*
X498Y578D01*
X498Y576D01*
X496Y576D01*
X496Y574D01*
X492Y574D01*
X492Y572D01*
X490Y572D01*
X490Y570D01*
X486Y570D01*
X486Y568D01*
X484Y568D01*
X484Y566D01*
X478Y566D01*
X478Y564D01*
X472Y564D01*
X472Y562D01*
X656Y562D01*
X656Y564D01*
X650Y564D01*
X650Y566D01*
X644Y566D01*
X644Y568D01*
X642Y568D01*
X642Y570D01*
X638Y570D01*
X638Y572D01*
X634Y572D01*
X634Y574D01*
X632Y574D01*
X632Y576D01*
X630Y576D01*
X630Y578D01*
X628Y578D01*
X628Y580D01*
X626Y580D01*
X626Y582D01*
X624Y582D01*
X624Y584D01*
X622Y584D01*
X622Y588D01*
X620Y588D01*
X620Y590D01*
X618Y590D01*
X618Y594D01*
X616Y594D01*
X616Y598D01*
X614Y598D01*
X614Y604D01*
X612Y604D01*
X612Y626D01*
X614Y626D01*
X614Y632D01*
X616Y632D01*
X616Y636D01*
X618Y636D01*
X618Y638D01*
X620Y638D01*
X620Y642D01*
X622Y642D01*
X622Y644D01*
X624Y644D01*
X624Y646D01*
X626Y646D01*
X626Y650D01*
X628Y650D01*
X628Y652D01*
X632Y652D01*
X632Y654D01*
X634Y654D01*
X634Y656D01*
X636Y656D01*
X636Y658D01*
X638Y658D01*
X638Y660D01*
X642Y660D01*
X642Y662D01*
X646Y662D01*
X646Y664D01*
X652Y664D01*
X652Y666D01*
X662Y666D01*
X662Y668D01*
X476Y668D01*
G37*
D02*
G36*
X186Y638D02*
X186Y610D01*
X236Y610D01*
X236Y612D01*
X238Y612D01*
X238Y614D01*
X240Y614D01*
X240Y616D01*
X242Y616D01*
X242Y620D01*
X244Y620D01*
X244Y622D01*
X246Y622D01*
X246Y624D01*
X250Y624D01*
X250Y626D01*
X252Y626D01*
X252Y628D01*
X254Y628D01*
X254Y630D01*
X258Y630D01*
X258Y632D01*
X262Y632D01*
X262Y634D01*
X266Y634D01*
X266Y636D01*
X272Y636D01*
X272Y638D01*
X186Y638D01*
G37*
D02*
G36*
X394Y604D02*
X394Y562D01*
X456Y562D01*
X456Y564D01*
X450Y564D01*
X450Y566D01*
X444Y566D01*
X444Y568D01*
X442Y568D01*
X442Y570D01*
X438Y570D01*
X438Y572D01*
X434Y572D01*
X434Y574D01*
X432Y574D01*
X432Y576D01*
X430Y576D01*
X430Y578D01*
X428Y578D01*
X428Y580D01*
X426Y580D01*
X426Y582D01*
X424Y582D01*
X424Y584D01*
X422Y584D01*
X422Y588D01*
X420Y588D01*
X420Y590D01*
X418Y590D01*
X418Y594D01*
X416Y594D01*
X416Y598D01*
X414Y598D01*
X414Y604D01*
X394Y604D01*
G37*
D02*
G36*
X672Y564D02*
X672Y562D01*
X766Y562D01*
X766Y564D01*
X672Y564D01*
G37*
D02*
G36*
X394Y562D02*
X394Y560D01*
X758Y560D01*
X758Y562D01*
X394Y562D01*
G37*
D02*
G36*
X394Y562D02*
X394Y560D01*
X758Y560D01*
X758Y562D01*
X394Y562D01*
G37*
D02*
G36*
X394Y562D02*
X394Y560D01*
X758Y560D01*
X758Y562D01*
X394Y562D01*
G37*
D02*
G36*
X394Y560D02*
X394Y514D01*
X550Y514D01*
X550Y456D01*
X552Y456D01*
X552Y454D01*
X554Y454D01*
X554Y452D01*
X556Y452D01*
X556Y450D01*
X558Y450D01*
X558Y448D01*
X560Y448D01*
X560Y446D01*
X564Y446D01*
X564Y444D01*
X566Y444D01*
X566Y442D01*
X568Y442D01*
X568Y440D01*
X570Y440D01*
X570Y438D01*
X572Y438D01*
X572Y436D01*
X576Y436D01*
X576Y434D01*
X578Y434D01*
X578Y432D01*
X580Y432D01*
X580Y430D01*
X582Y430D01*
X582Y428D01*
X586Y428D01*
X586Y426D01*
X588Y426D01*
X588Y424D01*
X590Y424D01*
X590Y422D01*
X592Y422D01*
X592Y420D01*
X594Y420D01*
X594Y418D01*
X598Y418D01*
X598Y416D01*
X618Y416D01*
X618Y418D01*
X620Y418D01*
X620Y422D01*
X622Y422D01*
X622Y426D01*
X624Y426D01*
X624Y428D01*
X626Y428D01*
X626Y432D01*
X628Y432D01*
X628Y434D01*
X630Y434D01*
X630Y436D01*
X632Y436D01*
X632Y438D01*
X634Y438D01*
X634Y440D01*
X636Y440D01*
X636Y442D01*
X638Y442D01*
X638Y444D01*
X642Y444D01*
X642Y446D01*
X646Y446D01*
X646Y464D01*
X648Y464D01*
X648Y482D01*
X650Y482D01*
X650Y490D01*
X652Y490D01*
X652Y494D01*
X654Y494D01*
X654Y496D01*
X656Y496D01*
X656Y498D01*
X658Y498D01*
X658Y500D01*
X660Y500D01*
X660Y502D01*
X662Y502D01*
X662Y504D01*
X668Y504D01*
X668Y506D01*
X674Y506D01*
X674Y508D01*
X680Y508D01*
X680Y510D01*
X686Y510D01*
X686Y512D01*
X692Y512D01*
X692Y514D01*
X698Y514D01*
X698Y516D01*
X704Y516D01*
X704Y518D01*
X710Y518D01*
X710Y520D01*
X716Y520D01*
X716Y522D01*
X722Y522D01*
X722Y526D01*
X724Y526D01*
X724Y532D01*
X726Y532D01*
X726Y534D01*
X728Y534D01*
X728Y538D01*
X730Y538D01*
X730Y540D01*
X732Y540D01*
X732Y542D01*
X734Y542D01*
X734Y546D01*
X736Y546D01*
X736Y548D01*
X740Y548D01*
X740Y550D01*
X742Y550D01*
X742Y552D01*
X744Y552D01*
X744Y554D01*
X746Y554D01*
X746Y556D01*
X750Y556D01*
X750Y558D01*
X754Y558D01*
X754Y560D01*
X394Y560D01*
G37*
D02*
G36*
X204Y556D02*
X204Y554D01*
X176Y554D01*
X176Y550D01*
X174Y550D01*
X174Y548D01*
X172Y548D01*
X172Y546D01*
X170Y546D01*
X170Y544D01*
X168Y544D01*
X168Y542D01*
X166Y542D01*
X166Y540D01*
X164Y540D01*
X164Y538D01*
X162Y538D01*
X162Y536D01*
X160Y536D01*
X160Y534D01*
X156Y534D01*
X156Y532D01*
X276Y532D01*
X276Y534D01*
X268Y534D01*
X268Y536D01*
X262Y536D01*
X262Y538D01*
X258Y538D01*
X258Y540D01*
X256Y540D01*
X256Y542D01*
X252Y542D01*
X252Y544D01*
X250Y544D01*
X250Y546D01*
X248Y546D01*
X248Y548D01*
X246Y548D01*
X246Y550D01*
X244Y550D01*
X244Y552D01*
X242Y552D01*
X242Y554D01*
X240Y554D01*
X240Y556D01*
X204Y556D01*
G37*
D02*
G36*
X310Y546D02*
X310Y544D01*
X308Y544D01*
X308Y542D01*
X306Y542D01*
X306Y540D01*
X302Y540D01*
X302Y538D01*
X298Y538D01*
X298Y536D01*
X294Y536D01*
X294Y534D01*
X284Y534D01*
X284Y532D01*
X332Y532D01*
X332Y546D01*
X310Y546D01*
G37*
D02*
G36*
X152Y532D02*
X152Y530D01*
X332Y530D01*
X332Y532D01*
X152Y532D01*
G37*
D02*
G36*
X152Y532D02*
X152Y530D01*
X332Y530D01*
X332Y532D01*
X152Y532D01*
G37*
D02*
G36*
X148Y530D02*
X148Y528D01*
X144Y528D01*
X144Y526D01*
X132Y526D01*
X132Y524D01*
X332Y524D01*
X332Y530D01*
X148Y530D01*
G37*
D02*
G36*
X40Y524D02*
X40Y522D01*
X332Y522D01*
X332Y524D01*
X40Y524D01*
G37*
D02*
G36*
X40Y524D02*
X40Y522D01*
X332Y522D01*
X332Y524D01*
X40Y524D01*
G37*
D02*
G36*
X40Y522D02*
X40Y42D01*
X436Y42D01*
X436Y62D01*
X432Y62D01*
X432Y64D01*
X430Y64D01*
X430Y66D01*
X426Y66D01*
X426Y68D01*
X422Y68D01*
X422Y70D01*
X420Y70D01*
X420Y72D01*
X416Y72D01*
X416Y74D01*
X414Y74D01*
X414Y76D01*
X410Y76D01*
X410Y78D01*
X406Y78D01*
X406Y80D01*
X404Y80D01*
X404Y82D01*
X400Y82D01*
X400Y84D01*
X396Y84D01*
X396Y86D01*
X394Y86D01*
X394Y88D01*
X390Y88D01*
X390Y90D01*
X388Y90D01*
X388Y92D01*
X384Y92D01*
X384Y94D01*
X380Y94D01*
X380Y96D01*
X378Y96D01*
X378Y98D01*
X374Y98D01*
X374Y100D01*
X370Y100D01*
X370Y102D01*
X368Y102D01*
X368Y104D01*
X364Y104D01*
X364Y106D01*
X362Y106D01*
X362Y108D01*
X358Y108D01*
X358Y110D01*
X354Y110D01*
X354Y112D01*
X352Y112D01*
X352Y114D01*
X348Y114D01*
X348Y116D01*
X346Y116D01*
X346Y118D01*
X342Y118D01*
X342Y120D01*
X340Y120D01*
X340Y122D01*
X338Y122D01*
X338Y126D01*
X336Y126D01*
X336Y130D01*
X334Y130D01*
X334Y134D01*
X332Y134D01*
X332Y522D01*
X40Y522D01*
G37*
D02*
G36*
X394Y514D02*
X394Y160D01*
X396Y160D01*
X396Y158D01*
X398Y158D01*
X398Y156D01*
X402Y156D01*
X402Y154D01*
X404Y154D01*
X404Y152D01*
X408Y152D01*
X408Y150D01*
X412Y150D01*
X412Y148D01*
X414Y148D01*
X414Y146D01*
X418Y146D01*
X418Y144D01*
X422Y144D01*
X422Y142D01*
X442Y142D01*
X442Y174D01*
X444Y174D01*
X444Y178D01*
X446Y178D01*
X446Y182D01*
X448Y182D01*
X448Y186D01*
X450Y186D01*
X450Y190D01*
X452Y190D01*
X452Y192D01*
X454Y192D01*
X454Y194D01*
X456Y194D01*
X456Y196D01*
X458Y196D01*
X458Y198D01*
X460Y198D01*
X460Y200D01*
X462Y200D01*
X462Y222D01*
X460Y222D01*
X460Y224D01*
X458Y224D01*
X458Y226D01*
X456Y226D01*
X456Y228D01*
X454Y228D01*
X454Y230D01*
X452Y230D01*
X452Y232D01*
X450Y232D01*
X450Y236D01*
X448Y236D01*
X448Y240D01*
X446Y240D01*
X446Y244D01*
X444Y244D01*
X444Y248D01*
X442Y248D01*
X442Y274D01*
X444Y274D01*
X444Y278D01*
X446Y278D01*
X446Y282D01*
X448Y282D01*
X448Y286D01*
X450Y286D01*
X450Y290D01*
X452Y290D01*
X452Y292D01*
X454Y292D01*
X454Y294D01*
X456Y294D01*
X456Y296D01*
X458Y296D01*
X458Y298D01*
X460Y298D01*
X460Y300D01*
X462Y300D01*
X462Y322D01*
X460Y322D01*
X460Y324D01*
X458Y324D01*
X458Y326D01*
X456Y326D01*
X456Y328D01*
X454Y328D01*
X454Y330D01*
X452Y330D01*
X452Y332D01*
X450Y332D01*
X450Y336D01*
X448Y336D01*
X448Y340D01*
X446Y340D01*
X446Y344D01*
X444Y344D01*
X444Y348D01*
X442Y348D01*
X442Y374D01*
X444Y374D01*
X444Y378D01*
X446Y378D01*
X446Y382D01*
X448Y382D01*
X448Y386D01*
X450Y386D01*
X450Y406D01*
X442Y406D01*
X442Y514D01*
X394Y514D01*
G37*
D02*
G36*
X706Y370D02*
X706Y368D01*
X704Y368D01*
X704Y364D01*
X700Y364D01*
X700Y362D01*
X698Y362D01*
X698Y360D01*
X696Y360D01*
X696Y358D01*
X694Y358D01*
X694Y356D01*
X690Y356D01*
X690Y354D01*
X686Y354D01*
X686Y352D01*
X682Y352D01*
X682Y350D01*
X674Y350D01*
X674Y348D01*
X762Y348D01*
X762Y350D01*
X754Y350D01*
X754Y352D01*
X748Y352D01*
X748Y354D01*
X746Y354D01*
X746Y356D01*
X742Y356D01*
X742Y358D01*
X738Y358D01*
X738Y360D01*
X736Y360D01*
X736Y362D01*
X734Y362D01*
X734Y364D01*
X732Y364D01*
X732Y366D01*
X730Y366D01*
X730Y368D01*
X728Y368D01*
X728Y370D01*
X706Y370D01*
G37*
D02*
G36*
X806Y370D02*
X806Y368D01*
X804Y368D01*
X804Y364D01*
X800Y364D01*
X800Y362D01*
X798Y362D01*
X798Y360D01*
X796Y360D01*
X796Y358D01*
X794Y358D01*
X794Y356D01*
X790Y356D01*
X790Y354D01*
X786Y354D01*
X786Y352D01*
X782Y352D01*
X782Y350D01*
X774Y350D01*
X774Y348D01*
X862Y348D01*
X862Y350D01*
X854Y350D01*
X854Y352D01*
X848Y352D01*
X848Y354D01*
X846Y354D01*
X846Y356D01*
X842Y356D01*
X842Y358D01*
X838Y358D01*
X838Y360D01*
X836Y360D01*
X836Y362D01*
X834Y362D01*
X834Y364D01*
X832Y364D01*
X832Y366D01*
X830Y366D01*
X830Y368D01*
X828Y368D01*
X828Y370D01*
X806Y370D01*
G37*
D02*
G36*
X890Y356D02*
X890Y354D01*
X886Y354D01*
X886Y352D01*
X882Y352D01*
X882Y350D01*
X874Y350D01*
X874Y348D01*
X908Y348D01*
X908Y352D01*
X910Y352D01*
X910Y356D01*
X890Y356D01*
G37*
D02*
G36*
X630Y352D02*
X630Y348D01*
X662Y348D01*
X662Y350D01*
X654Y350D01*
X654Y352D01*
X630Y352D01*
G37*
D02*
G36*
X630Y348D02*
X630Y346D01*
X906Y346D01*
X906Y348D01*
X630Y348D01*
G37*
D02*
G36*
X630Y348D02*
X630Y346D01*
X906Y346D01*
X906Y348D01*
X630Y348D01*
G37*
D02*
G36*
X630Y348D02*
X630Y346D01*
X906Y346D01*
X906Y348D01*
X630Y348D01*
G37*
D02*
G36*
X630Y348D02*
X630Y346D01*
X906Y346D01*
X906Y348D01*
X630Y348D01*
G37*
D02*
G36*
X630Y346D02*
X630Y344D01*
X632Y344D01*
X632Y336D01*
X634Y336D01*
X634Y330D01*
X636Y330D01*
X636Y324D01*
X638Y324D01*
X638Y322D01*
X702Y322D01*
X702Y320D01*
X894Y320D01*
X894Y322D01*
X896Y322D01*
X896Y326D01*
X898Y326D01*
X898Y330D01*
X900Y330D01*
X900Y336D01*
X902Y336D01*
X902Y340D01*
X904Y340D01*
X904Y344D01*
X906Y344D01*
X906Y346D01*
X630Y346D01*
G37*
D02*
G36*
X1058Y1124D02*
X1058Y1122D01*
X1040Y1122D01*
X1040Y1120D01*
X1024Y1120D01*
X1024Y1118D01*
X1006Y1118D01*
X1006Y1116D01*
X990Y1116D01*
X990Y1114D01*
X974Y1114D01*
X974Y1112D01*
X956Y1112D01*
X956Y1110D01*
X940Y1110D01*
X940Y1108D01*
X922Y1108D01*
X922Y1106D01*
X914Y1106D01*
X914Y1104D01*
X910Y1104D01*
X910Y1102D01*
X906Y1102D01*
X906Y1100D01*
X904Y1100D01*
X904Y1098D01*
X900Y1098D01*
X900Y1096D01*
X898Y1096D01*
X898Y1094D01*
X894Y1094D01*
X894Y1092D01*
X890Y1092D01*
X890Y1090D01*
X888Y1090D01*
X888Y1088D01*
X884Y1088D01*
X884Y1086D01*
X882Y1086D01*
X882Y1084D01*
X878Y1084D01*
X878Y1082D01*
X876Y1082D01*
X876Y1080D01*
X872Y1080D01*
X872Y1078D01*
X868Y1078D01*
X868Y1076D01*
X866Y1076D01*
X866Y1074D01*
X862Y1074D01*
X862Y1072D01*
X860Y1072D01*
X860Y1070D01*
X856Y1070D01*
X856Y1068D01*
X1120Y1068D01*
X1120Y1066D01*
X1130Y1066D01*
X1130Y1064D01*
X1136Y1064D01*
X1136Y1062D01*
X1140Y1062D01*
X1140Y1060D01*
X1144Y1060D01*
X1144Y1058D01*
X1146Y1058D01*
X1146Y1056D01*
X1148Y1056D01*
X1148Y1054D01*
X1152Y1054D01*
X1152Y1052D01*
X1154Y1052D01*
X1154Y1050D01*
X1156Y1050D01*
X1156Y1048D01*
X1158Y1048D01*
X1158Y1044D01*
X1160Y1044D01*
X1160Y1042D01*
X1162Y1042D01*
X1162Y1040D01*
X1164Y1040D01*
X1164Y1036D01*
X1166Y1036D01*
X1166Y1032D01*
X1232Y1032D01*
X1232Y1124D01*
X1058Y1124D01*
G37*
D02*
G36*
X1650Y1124D02*
X1650Y1108D01*
X1648Y1108D01*
X1648Y1098D01*
X1646Y1098D01*
X1646Y1092D01*
X1644Y1092D01*
X1644Y1088D01*
X1642Y1088D01*
X1642Y1086D01*
X1640Y1086D01*
X1640Y1082D01*
X1638Y1082D01*
X1638Y1080D01*
X1636Y1080D01*
X1636Y1078D01*
X1634Y1078D01*
X1634Y1076D01*
X1632Y1076D01*
X1632Y1074D01*
X1630Y1074D01*
X1630Y1072D01*
X1628Y1072D01*
X1628Y1070D01*
X1626Y1070D01*
X1626Y1068D01*
X1622Y1068D01*
X1622Y1066D01*
X1620Y1066D01*
X1620Y1064D01*
X1616Y1064D01*
X1616Y1062D01*
X1612Y1062D01*
X1612Y1060D01*
X1604Y1060D01*
X1604Y1058D01*
X1600Y1058D01*
X1600Y1054D01*
X1598Y1054D01*
X1598Y1050D01*
X1596Y1050D01*
X1596Y1046D01*
X1594Y1046D01*
X1594Y1042D01*
X1592Y1042D01*
X1592Y1038D01*
X1590Y1038D01*
X1590Y1034D01*
X1588Y1034D01*
X1588Y1030D01*
X1586Y1030D01*
X1586Y1026D01*
X1584Y1026D01*
X1584Y1022D01*
X1582Y1022D01*
X1582Y1018D01*
X1580Y1018D01*
X1580Y1014D01*
X1578Y1014D01*
X1578Y1010D01*
X1576Y1010D01*
X1576Y1006D01*
X1574Y1006D01*
X1574Y1002D01*
X1572Y1002D01*
X1572Y998D01*
X1570Y998D01*
X1570Y994D01*
X1568Y994D01*
X1568Y990D01*
X1566Y990D01*
X1566Y986D01*
X1564Y986D01*
X1564Y982D01*
X1562Y982D01*
X1562Y978D01*
X1560Y978D01*
X1560Y974D01*
X1558Y974D01*
X1558Y970D01*
X1556Y970D01*
X1556Y966D01*
X1554Y966D01*
X1554Y962D01*
X1552Y962D01*
X1552Y958D01*
X1550Y958D01*
X1550Y956D01*
X1692Y956D01*
X1692Y954D01*
X1698Y954D01*
X1698Y952D01*
X1704Y952D01*
X1704Y950D01*
X1708Y950D01*
X1708Y948D01*
X1730Y948D01*
X1730Y1124D01*
X1650Y1124D01*
G37*
D02*
G36*
X1326Y1120D02*
X1326Y1032D01*
X1528Y1032D01*
X1528Y1034D01*
X1530Y1034D01*
X1530Y1038D01*
X1532Y1038D01*
X1532Y1058D01*
X1444Y1058D01*
X1444Y1086D01*
X1428Y1086D01*
X1428Y1088D01*
X1422Y1088D01*
X1422Y1090D01*
X1418Y1090D01*
X1418Y1092D01*
X1414Y1092D01*
X1414Y1094D01*
X1408Y1094D01*
X1408Y1096D01*
X1404Y1096D01*
X1404Y1098D01*
X1398Y1098D01*
X1398Y1100D01*
X1394Y1100D01*
X1394Y1102D01*
X1388Y1102D01*
X1388Y1104D01*
X1384Y1104D01*
X1384Y1106D01*
X1378Y1106D01*
X1378Y1108D01*
X1374Y1108D01*
X1374Y1110D01*
X1368Y1110D01*
X1368Y1112D01*
X1364Y1112D01*
X1364Y1114D01*
X1358Y1114D01*
X1358Y1116D01*
X1354Y1116D01*
X1354Y1118D01*
X1350Y1118D01*
X1350Y1120D01*
X1326Y1120D01*
G37*
D02*
G36*
X854Y1068D02*
X854Y1066D01*
X850Y1066D01*
X850Y1064D01*
X848Y1064D01*
X848Y1024D01*
X868Y1024D01*
X868Y1030D01*
X870Y1030D01*
X870Y1034D01*
X872Y1034D01*
X872Y1038D01*
X874Y1038D01*
X874Y1040D01*
X876Y1040D01*
X876Y1044D01*
X878Y1044D01*
X878Y1046D01*
X880Y1046D01*
X880Y1048D01*
X882Y1048D01*
X882Y1050D01*
X884Y1050D01*
X884Y1052D01*
X886Y1052D01*
X886Y1054D01*
X888Y1054D01*
X888Y1056D01*
X890Y1056D01*
X890Y1058D01*
X894Y1058D01*
X894Y1060D01*
X898Y1060D01*
X898Y1062D01*
X900Y1062D01*
X900Y1064D01*
X906Y1064D01*
X906Y1066D01*
X918Y1066D01*
X918Y1068D01*
X854Y1068D01*
G37*
D02*
G36*
X920Y1068D02*
X920Y1066D01*
X930Y1066D01*
X930Y1064D01*
X936Y1064D01*
X936Y1062D01*
X940Y1062D01*
X940Y1060D01*
X944Y1060D01*
X944Y1058D01*
X946Y1058D01*
X946Y1056D01*
X948Y1056D01*
X948Y1054D01*
X952Y1054D01*
X952Y1052D01*
X954Y1052D01*
X954Y1050D01*
X956Y1050D01*
X956Y1048D01*
X958Y1048D01*
X958Y1044D01*
X960Y1044D01*
X960Y1042D01*
X962Y1042D01*
X962Y1040D01*
X964Y1040D01*
X964Y1036D01*
X966Y1036D01*
X966Y1032D01*
X968Y1032D01*
X968Y1026D01*
X970Y1026D01*
X970Y1018D01*
X972Y1018D01*
X972Y1016D01*
X976Y1016D01*
X976Y1014D01*
X980Y1014D01*
X980Y1012D01*
X984Y1012D01*
X984Y1010D01*
X988Y1010D01*
X988Y1008D01*
X992Y1008D01*
X992Y1006D01*
X996Y1006D01*
X996Y1004D01*
X1000Y1004D01*
X1000Y1002D01*
X1004Y1002D01*
X1004Y1000D01*
X1008Y1000D01*
X1008Y998D01*
X1012Y998D01*
X1012Y996D01*
X1016Y996D01*
X1016Y994D01*
X1020Y994D01*
X1020Y992D01*
X1024Y992D01*
X1024Y990D01*
X1026Y990D01*
X1026Y988D01*
X1030Y988D01*
X1030Y986D01*
X1034Y986D01*
X1034Y984D01*
X1038Y984D01*
X1038Y982D01*
X1042Y982D01*
X1042Y980D01*
X1046Y980D01*
X1046Y978D01*
X1048Y978D01*
X1048Y976D01*
X1050Y976D01*
X1050Y974D01*
X1052Y974D01*
X1052Y970D01*
X1054Y970D01*
X1054Y966D01*
X1056Y966D01*
X1056Y962D01*
X1110Y962D01*
X1110Y964D01*
X1104Y964D01*
X1104Y966D01*
X1098Y966D01*
X1098Y968D01*
X1096Y968D01*
X1096Y970D01*
X1092Y970D01*
X1092Y972D01*
X1090Y972D01*
X1090Y974D01*
X1088Y974D01*
X1088Y976D01*
X1084Y976D01*
X1084Y978D01*
X1082Y978D01*
X1082Y980D01*
X1080Y980D01*
X1080Y984D01*
X1078Y984D01*
X1078Y986D01*
X1076Y986D01*
X1076Y988D01*
X1074Y988D01*
X1074Y992D01*
X1072Y992D01*
X1072Y994D01*
X1070Y994D01*
X1070Y1000D01*
X1068Y1000D01*
X1068Y1006D01*
X1066Y1006D01*
X1066Y1024D01*
X1068Y1024D01*
X1068Y1030D01*
X1070Y1030D01*
X1070Y1034D01*
X1072Y1034D01*
X1072Y1038D01*
X1074Y1038D01*
X1074Y1040D01*
X1076Y1040D01*
X1076Y1044D01*
X1078Y1044D01*
X1078Y1046D01*
X1080Y1046D01*
X1080Y1048D01*
X1082Y1048D01*
X1082Y1050D01*
X1084Y1050D01*
X1084Y1052D01*
X1086Y1052D01*
X1086Y1054D01*
X1088Y1054D01*
X1088Y1056D01*
X1090Y1056D01*
X1090Y1058D01*
X1094Y1058D01*
X1094Y1060D01*
X1098Y1060D01*
X1098Y1062D01*
X1100Y1062D01*
X1100Y1064D01*
X1106Y1064D01*
X1106Y1066D01*
X1118Y1066D01*
X1118Y1068D01*
X920Y1068D01*
G37*
D02*
G36*
X1168Y1032D02*
X1168Y1030D01*
X1528Y1030D01*
X1528Y1032D01*
X1168Y1032D01*
G37*
D02*
G36*
X1168Y1032D02*
X1168Y1030D01*
X1528Y1030D01*
X1528Y1032D01*
X1168Y1032D01*
G37*
D02*
G36*
X1168Y1030D02*
X1168Y1026D01*
X1170Y1026D01*
X1170Y1002D01*
X1168Y1002D01*
X1168Y996D01*
X1166Y996D01*
X1166Y994D01*
X1164Y994D01*
X1164Y990D01*
X1162Y990D01*
X1162Y986D01*
X1160Y986D01*
X1160Y984D01*
X1158Y984D01*
X1158Y982D01*
X1156Y982D01*
X1156Y980D01*
X1154Y980D01*
X1154Y978D01*
X1152Y978D01*
X1152Y976D01*
X1150Y976D01*
X1150Y974D01*
X1148Y974D01*
X1148Y972D01*
X1144Y972D01*
X1144Y970D01*
X1142Y970D01*
X1142Y968D01*
X1138Y968D01*
X1138Y966D01*
X1134Y966D01*
X1134Y964D01*
X1126Y964D01*
X1126Y962D01*
X1494Y962D01*
X1494Y966D01*
X1496Y966D01*
X1496Y970D01*
X1498Y970D01*
X1498Y974D01*
X1500Y974D01*
X1500Y978D01*
X1502Y978D01*
X1502Y982D01*
X1504Y982D01*
X1504Y986D01*
X1506Y986D01*
X1506Y990D01*
X1508Y990D01*
X1508Y994D01*
X1510Y994D01*
X1510Y998D01*
X1512Y998D01*
X1512Y1002D01*
X1514Y1002D01*
X1514Y1006D01*
X1516Y1006D01*
X1516Y1010D01*
X1518Y1010D01*
X1518Y1014D01*
X1520Y1014D01*
X1520Y1018D01*
X1522Y1018D01*
X1522Y1022D01*
X1524Y1022D01*
X1524Y1026D01*
X1526Y1026D01*
X1526Y1030D01*
X1168Y1030D01*
G37*
D02*
G36*
X1056Y962D02*
X1056Y960D01*
X1492Y960D01*
X1492Y962D01*
X1056Y962D01*
G37*
D02*
G36*
X1056Y962D02*
X1056Y960D01*
X1492Y960D01*
X1492Y962D01*
X1056Y962D01*
G37*
D02*
G36*
X1056Y960D02*
X1056Y954D01*
X1058Y954D01*
X1058Y930D01*
X1294Y930D01*
X1294Y928D01*
X1298Y928D01*
X1298Y926D01*
X1302Y926D01*
X1302Y924D01*
X1306Y924D01*
X1306Y922D01*
X1310Y922D01*
X1310Y920D01*
X1312Y920D01*
X1312Y918D01*
X1314Y918D01*
X1314Y916D01*
X1316Y916D01*
X1316Y914D01*
X1318Y914D01*
X1318Y912D01*
X1320Y912D01*
X1320Y910D01*
X1322Y910D01*
X1322Y908D01*
X1324Y908D01*
X1324Y904D01*
X1326Y904D01*
X1326Y902D01*
X1328Y902D01*
X1328Y898D01*
X1330Y898D01*
X1330Y894D01*
X1332Y894D01*
X1332Y888D01*
X1334Y888D01*
X1334Y870D01*
X1332Y870D01*
X1332Y862D01*
X1330Y862D01*
X1330Y858D01*
X1328Y858D01*
X1328Y854D01*
X1326Y854D01*
X1326Y852D01*
X1324Y852D01*
X1324Y848D01*
X1322Y848D01*
X1322Y846D01*
X1320Y846D01*
X1320Y844D01*
X1318Y844D01*
X1318Y842D01*
X1316Y842D01*
X1316Y840D01*
X1314Y840D01*
X1314Y838D01*
X1312Y838D01*
X1312Y836D01*
X1308Y836D01*
X1308Y834D01*
X1306Y834D01*
X1306Y832D01*
X1302Y832D01*
X1302Y830D01*
X1298Y830D01*
X1298Y828D01*
X1292Y828D01*
X1292Y826D01*
X1472Y826D01*
X1472Y828D01*
X1466Y828D01*
X1466Y830D01*
X1462Y830D01*
X1462Y832D01*
X1458Y832D01*
X1458Y834D01*
X1454Y834D01*
X1454Y836D01*
X1452Y836D01*
X1452Y838D01*
X1450Y838D01*
X1450Y840D01*
X1448Y840D01*
X1448Y842D01*
X1446Y842D01*
X1446Y844D01*
X1444Y844D01*
X1444Y846D01*
X1442Y846D01*
X1442Y848D01*
X1440Y848D01*
X1440Y850D01*
X1438Y850D01*
X1438Y854D01*
X1436Y854D01*
X1436Y858D01*
X1434Y858D01*
X1434Y862D01*
X1432Y862D01*
X1432Y866D01*
X1430Y866D01*
X1430Y890D01*
X1432Y890D01*
X1432Y896D01*
X1434Y896D01*
X1434Y900D01*
X1436Y900D01*
X1436Y902D01*
X1438Y902D01*
X1438Y906D01*
X1440Y906D01*
X1440Y908D01*
X1442Y908D01*
X1442Y910D01*
X1444Y910D01*
X1444Y914D01*
X1446Y914D01*
X1446Y916D01*
X1450Y916D01*
X1450Y918D01*
X1452Y918D01*
X1452Y920D01*
X1454Y920D01*
X1454Y922D01*
X1458Y922D01*
X1458Y924D01*
X1460Y924D01*
X1460Y926D01*
X1464Y926D01*
X1464Y928D01*
X1470Y928D01*
X1470Y930D01*
X1478Y930D01*
X1478Y934D01*
X1480Y934D01*
X1480Y938D01*
X1482Y938D01*
X1482Y942D01*
X1484Y942D01*
X1484Y946D01*
X1486Y946D01*
X1486Y950D01*
X1488Y950D01*
X1488Y954D01*
X1490Y954D01*
X1490Y958D01*
X1492Y958D01*
X1492Y960D01*
X1056Y960D01*
G37*
D02*
G36*
X1550Y956D02*
X1550Y954D01*
X1548Y954D01*
X1548Y950D01*
X1546Y950D01*
X1546Y946D01*
X1544Y946D01*
X1544Y942D01*
X1542Y942D01*
X1542Y938D01*
X1540Y938D01*
X1540Y934D01*
X1538Y934D01*
X1538Y930D01*
X1536Y930D01*
X1536Y926D01*
X1534Y926D01*
X1534Y922D01*
X1532Y922D01*
X1532Y918D01*
X1530Y918D01*
X1530Y894D01*
X1532Y894D01*
X1532Y888D01*
X1534Y888D01*
X1534Y870D01*
X1532Y870D01*
X1532Y862D01*
X1530Y862D01*
X1530Y858D01*
X1528Y858D01*
X1528Y854D01*
X1526Y854D01*
X1526Y852D01*
X1524Y852D01*
X1524Y848D01*
X1522Y848D01*
X1522Y846D01*
X1520Y846D01*
X1520Y844D01*
X1518Y844D01*
X1518Y842D01*
X1516Y842D01*
X1516Y840D01*
X1514Y840D01*
X1514Y838D01*
X1512Y838D01*
X1512Y836D01*
X1508Y836D01*
X1508Y834D01*
X1506Y834D01*
X1506Y832D01*
X1502Y832D01*
X1502Y830D01*
X1498Y830D01*
X1498Y828D01*
X1492Y828D01*
X1492Y826D01*
X1620Y826D01*
X1620Y828D01*
X1618Y828D01*
X1618Y830D01*
X1616Y830D01*
X1616Y834D01*
X1614Y834D01*
X1614Y836D01*
X1612Y836D01*
X1612Y838D01*
X1610Y838D01*
X1610Y842D01*
X1608Y842D01*
X1608Y846D01*
X1606Y846D01*
X1606Y850D01*
X1604Y850D01*
X1604Y856D01*
X1602Y856D01*
X1602Y862D01*
X1600Y862D01*
X1600Y894D01*
X1602Y894D01*
X1602Y902D01*
X1604Y902D01*
X1604Y906D01*
X1606Y906D01*
X1606Y912D01*
X1608Y912D01*
X1608Y914D01*
X1610Y914D01*
X1610Y918D01*
X1612Y918D01*
X1612Y922D01*
X1614Y922D01*
X1614Y924D01*
X1616Y924D01*
X1616Y926D01*
X1618Y926D01*
X1618Y928D01*
X1620Y928D01*
X1620Y932D01*
X1622Y932D01*
X1622Y934D01*
X1624Y934D01*
X1624Y936D01*
X1628Y936D01*
X1628Y938D01*
X1630Y938D01*
X1630Y940D01*
X1632Y940D01*
X1632Y942D01*
X1634Y942D01*
X1634Y944D01*
X1638Y944D01*
X1638Y946D01*
X1642Y946D01*
X1642Y948D01*
X1646Y948D01*
X1646Y950D01*
X1650Y950D01*
X1650Y952D01*
X1656Y952D01*
X1656Y954D01*
X1662Y954D01*
X1662Y956D01*
X1550Y956D01*
G37*
D02*
G36*
X1058Y930D02*
X1058Y926D01*
X1060Y926D01*
X1060Y910D01*
X1142Y910D01*
X1142Y908D01*
X1150Y908D01*
X1150Y906D01*
X1156Y906D01*
X1156Y904D01*
X1160Y904D01*
X1160Y902D01*
X1162Y902D01*
X1162Y900D01*
X1166Y900D01*
X1166Y898D01*
X1168Y898D01*
X1168Y896D01*
X1170Y896D01*
X1170Y894D01*
X1172Y894D01*
X1172Y892D01*
X1174Y892D01*
X1174Y890D01*
X1176Y890D01*
X1176Y888D01*
X1178Y888D01*
X1178Y886D01*
X1180Y886D01*
X1180Y882D01*
X1182Y882D01*
X1182Y880D01*
X1184Y880D01*
X1184Y876D01*
X1186Y876D01*
X1186Y872D01*
X1188Y872D01*
X1188Y864D01*
X1190Y864D01*
X1190Y850D01*
X1188Y850D01*
X1188Y842D01*
X1186Y842D01*
X1186Y838D01*
X1184Y838D01*
X1184Y834D01*
X1182Y834D01*
X1182Y832D01*
X1180Y832D01*
X1180Y828D01*
X1178Y828D01*
X1178Y826D01*
X1272Y826D01*
X1272Y828D01*
X1266Y828D01*
X1266Y830D01*
X1262Y830D01*
X1262Y832D01*
X1258Y832D01*
X1258Y834D01*
X1254Y834D01*
X1254Y836D01*
X1252Y836D01*
X1252Y838D01*
X1250Y838D01*
X1250Y840D01*
X1248Y840D01*
X1248Y842D01*
X1246Y842D01*
X1246Y844D01*
X1244Y844D01*
X1244Y846D01*
X1242Y846D01*
X1242Y848D01*
X1240Y848D01*
X1240Y850D01*
X1238Y850D01*
X1238Y854D01*
X1236Y854D01*
X1236Y858D01*
X1234Y858D01*
X1234Y862D01*
X1232Y862D01*
X1232Y866D01*
X1230Y866D01*
X1230Y890D01*
X1232Y890D01*
X1232Y896D01*
X1234Y896D01*
X1234Y900D01*
X1236Y900D01*
X1236Y902D01*
X1238Y902D01*
X1238Y906D01*
X1240Y906D01*
X1240Y908D01*
X1242Y908D01*
X1242Y910D01*
X1244Y910D01*
X1244Y914D01*
X1246Y914D01*
X1246Y916D01*
X1250Y916D01*
X1250Y918D01*
X1252Y918D01*
X1252Y920D01*
X1254Y920D01*
X1254Y922D01*
X1258Y922D01*
X1258Y924D01*
X1260Y924D01*
X1260Y926D01*
X1264Y926D01*
X1264Y928D01*
X1270Y928D01*
X1270Y930D01*
X1058Y930D01*
G37*
D02*
G36*
X1060Y910D02*
X1060Y902D01*
X1062Y902D01*
X1062Y900D01*
X1066Y900D01*
X1066Y898D01*
X1068Y898D01*
X1068Y896D01*
X1070Y896D01*
X1070Y894D01*
X1072Y894D01*
X1072Y892D01*
X1074Y892D01*
X1074Y890D01*
X1076Y890D01*
X1076Y888D01*
X1098Y888D01*
X1098Y890D01*
X1100Y890D01*
X1100Y892D01*
X1102Y892D01*
X1102Y894D01*
X1104Y894D01*
X1104Y896D01*
X1106Y896D01*
X1106Y898D01*
X1108Y898D01*
X1108Y900D01*
X1112Y900D01*
X1112Y902D01*
X1114Y902D01*
X1114Y904D01*
X1118Y904D01*
X1118Y906D01*
X1124Y906D01*
X1124Y908D01*
X1132Y908D01*
X1132Y910D01*
X1060Y910D01*
G37*
D02*
G36*
X1176Y826D02*
X1176Y824D01*
X1622Y824D01*
X1622Y826D01*
X1176Y826D01*
G37*
D02*
G36*
X1176Y826D02*
X1176Y824D01*
X1622Y824D01*
X1622Y826D01*
X1176Y826D01*
G37*
D02*
G36*
X1176Y826D02*
X1176Y824D01*
X1622Y824D01*
X1622Y826D01*
X1176Y826D01*
G37*
D02*
G36*
X1174Y824D02*
X1174Y822D01*
X1172Y822D01*
X1172Y820D01*
X1170Y820D01*
X1170Y818D01*
X1168Y818D01*
X1168Y816D01*
X1166Y816D01*
X1166Y800D01*
X1670Y800D01*
X1670Y802D01*
X1658Y802D01*
X1658Y804D01*
X1652Y804D01*
X1652Y806D01*
X1648Y806D01*
X1648Y808D01*
X1644Y808D01*
X1644Y810D01*
X1640Y810D01*
X1640Y812D01*
X1636Y812D01*
X1636Y814D01*
X1634Y814D01*
X1634Y816D01*
X1630Y816D01*
X1630Y818D01*
X1628Y818D01*
X1628Y820D01*
X1626Y820D01*
X1626Y822D01*
X1624Y822D01*
X1624Y824D01*
X1174Y824D01*
G37*
D02*
G36*
X1710Y810D02*
X1710Y808D01*
X1706Y808D01*
X1706Y806D01*
X1702Y806D01*
X1702Y804D01*
X1696Y804D01*
X1696Y802D01*
X1684Y802D01*
X1684Y800D01*
X1730Y800D01*
X1730Y810D01*
X1710Y810D01*
G37*
D02*
G36*
X1166Y800D02*
X1166Y798D01*
X1730Y798D01*
X1730Y800D01*
X1166Y800D01*
G37*
D02*
G36*
X1166Y800D02*
X1166Y798D01*
X1730Y798D01*
X1730Y800D01*
X1166Y800D01*
G37*
D02*
G36*
X1166Y798D02*
X1166Y796D01*
X1270Y796D01*
X1270Y794D01*
X1278Y794D01*
X1278Y792D01*
X1282Y792D01*
X1282Y790D01*
X1284Y790D01*
X1284Y788D01*
X1288Y788D01*
X1288Y786D01*
X1290Y786D01*
X1290Y784D01*
X1294Y784D01*
X1294Y782D01*
X1296Y782D01*
X1296Y780D01*
X1298Y780D01*
X1298Y778D01*
X1302Y778D01*
X1302Y776D01*
X1304Y776D01*
X1304Y774D01*
X1308Y774D01*
X1308Y772D01*
X1310Y772D01*
X1310Y770D01*
X1314Y770D01*
X1314Y768D01*
X1316Y768D01*
X1316Y766D01*
X1320Y766D01*
X1320Y764D01*
X1322Y764D01*
X1322Y762D01*
X1326Y762D01*
X1326Y760D01*
X1328Y760D01*
X1328Y758D01*
X1332Y758D01*
X1332Y756D01*
X1334Y756D01*
X1334Y754D01*
X1338Y754D01*
X1338Y752D01*
X1340Y752D01*
X1340Y750D01*
X1344Y750D01*
X1344Y748D01*
X1346Y748D01*
X1346Y746D01*
X1348Y746D01*
X1348Y744D01*
X1352Y744D01*
X1352Y742D01*
X1354Y742D01*
X1354Y740D01*
X1356Y740D01*
X1356Y738D01*
X1358Y738D01*
X1358Y736D01*
X1360Y736D01*
X1360Y732D01*
X1362Y732D01*
X1362Y722D01*
X1364Y722D01*
X1364Y706D01*
X1644Y706D01*
X1644Y704D01*
X1650Y704D01*
X1650Y702D01*
X1654Y702D01*
X1654Y700D01*
X1658Y700D01*
X1658Y698D01*
X1662Y698D01*
X1662Y696D01*
X1664Y696D01*
X1664Y694D01*
X1666Y694D01*
X1666Y692D01*
X1670Y692D01*
X1670Y690D01*
X1672Y690D01*
X1672Y686D01*
X1674Y686D01*
X1674Y684D01*
X1676Y684D01*
X1676Y682D01*
X1678Y682D01*
X1678Y680D01*
X1680Y680D01*
X1680Y676D01*
X1682Y676D01*
X1682Y672D01*
X1684Y672D01*
X1684Y668D01*
X1686Y668D01*
X1686Y660D01*
X1688Y660D01*
X1688Y648D01*
X1686Y648D01*
X1686Y640D01*
X1684Y640D01*
X1684Y636D01*
X1682Y636D01*
X1682Y632D01*
X1680Y632D01*
X1680Y628D01*
X1678Y628D01*
X1678Y626D01*
X1676Y626D01*
X1676Y622D01*
X1674Y622D01*
X1674Y620D01*
X1672Y620D01*
X1672Y618D01*
X1670Y618D01*
X1670Y616D01*
X1668Y616D01*
X1668Y614D01*
X1666Y614D01*
X1666Y612D01*
X1662Y612D01*
X1662Y610D01*
X1660Y610D01*
X1660Y608D01*
X1656Y608D01*
X1656Y606D01*
X1652Y606D01*
X1652Y604D01*
X1646Y604D01*
X1646Y602D01*
X1730Y602D01*
X1730Y798D01*
X1166Y798D01*
G37*
D02*
G36*
X1364Y706D02*
X1364Y694D01*
X1366Y694D01*
X1366Y692D01*
X1370Y692D01*
X1370Y690D01*
X1372Y690D01*
X1372Y686D01*
X1374Y686D01*
X1374Y684D01*
X1376Y684D01*
X1376Y682D01*
X1378Y682D01*
X1378Y680D01*
X1380Y680D01*
X1380Y676D01*
X1382Y676D01*
X1382Y672D01*
X1384Y672D01*
X1384Y668D01*
X1386Y668D01*
X1386Y660D01*
X1388Y660D01*
X1388Y648D01*
X1386Y648D01*
X1386Y640D01*
X1384Y640D01*
X1384Y636D01*
X1382Y636D01*
X1382Y632D01*
X1380Y632D01*
X1380Y628D01*
X1378Y628D01*
X1378Y626D01*
X1376Y626D01*
X1376Y622D01*
X1374Y622D01*
X1374Y620D01*
X1372Y620D01*
X1372Y618D01*
X1370Y618D01*
X1370Y616D01*
X1368Y616D01*
X1368Y614D01*
X1366Y614D01*
X1366Y612D01*
X1362Y612D01*
X1362Y610D01*
X1360Y610D01*
X1360Y608D01*
X1356Y608D01*
X1356Y606D01*
X1352Y606D01*
X1352Y604D01*
X1348Y604D01*
X1348Y602D01*
X1624Y602D01*
X1624Y604D01*
X1618Y604D01*
X1618Y606D01*
X1614Y606D01*
X1614Y608D01*
X1610Y608D01*
X1610Y610D01*
X1608Y610D01*
X1608Y612D01*
X1604Y612D01*
X1604Y614D01*
X1602Y614D01*
X1602Y616D01*
X1600Y616D01*
X1600Y618D01*
X1598Y618D01*
X1598Y620D01*
X1596Y620D01*
X1596Y622D01*
X1594Y622D01*
X1594Y626D01*
X1592Y626D01*
X1592Y628D01*
X1590Y628D01*
X1590Y632D01*
X1588Y632D01*
X1588Y634D01*
X1586Y634D01*
X1586Y640D01*
X1584Y640D01*
X1584Y648D01*
X1582Y648D01*
X1582Y660D01*
X1584Y660D01*
X1584Y668D01*
X1586Y668D01*
X1586Y672D01*
X1588Y672D01*
X1588Y676D01*
X1590Y676D01*
X1590Y680D01*
X1592Y680D01*
X1592Y682D01*
X1594Y682D01*
X1594Y684D01*
X1596Y684D01*
X1596Y686D01*
X1598Y686D01*
X1598Y690D01*
X1600Y690D01*
X1600Y692D01*
X1604Y692D01*
X1604Y694D01*
X1606Y694D01*
X1606Y696D01*
X1608Y696D01*
X1608Y698D01*
X1612Y698D01*
X1612Y700D01*
X1616Y700D01*
X1616Y702D01*
X1620Y702D01*
X1620Y704D01*
X1626Y704D01*
X1626Y706D01*
X1364Y706D01*
G37*
D02*
G36*
X1348Y602D02*
X1348Y600D01*
X1730Y600D01*
X1730Y602D01*
X1348Y602D01*
G37*
D02*
G36*
X1348Y602D02*
X1348Y600D01*
X1730Y600D01*
X1730Y602D01*
X1348Y602D01*
G37*
D02*
G36*
X1348Y600D02*
X1348Y584D01*
X1352Y584D01*
X1352Y582D01*
X1358Y582D01*
X1358Y580D01*
X1362Y580D01*
X1362Y578D01*
X1366Y578D01*
X1366Y576D01*
X1372Y576D01*
X1372Y574D01*
X1376Y574D01*
X1376Y572D01*
X1382Y572D01*
X1382Y570D01*
X1386Y570D01*
X1386Y568D01*
X1392Y568D01*
X1392Y566D01*
X1396Y566D01*
X1396Y564D01*
X1402Y564D01*
X1402Y562D01*
X1406Y562D01*
X1406Y560D01*
X1408Y560D01*
X1408Y558D01*
X1412Y558D01*
X1412Y556D01*
X1414Y556D01*
X1414Y554D01*
X1418Y554D01*
X1418Y552D01*
X1422Y552D01*
X1422Y550D01*
X1424Y550D01*
X1424Y548D01*
X1428Y548D01*
X1428Y546D01*
X1430Y546D01*
X1430Y544D01*
X1434Y544D01*
X1434Y542D01*
X1436Y542D01*
X1436Y540D01*
X1440Y540D01*
X1440Y538D01*
X1442Y538D01*
X1442Y536D01*
X1446Y536D01*
X1446Y534D01*
X1450Y534D01*
X1450Y532D01*
X1452Y532D01*
X1452Y530D01*
X1456Y530D01*
X1456Y528D01*
X1458Y528D01*
X1458Y526D01*
X1462Y526D01*
X1462Y524D01*
X1464Y524D01*
X1464Y522D01*
X1468Y522D01*
X1468Y520D01*
X1472Y520D01*
X1472Y518D01*
X1474Y518D01*
X1474Y516D01*
X1478Y516D01*
X1478Y514D01*
X1480Y514D01*
X1480Y512D01*
X1484Y512D01*
X1484Y510D01*
X1486Y510D01*
X1486Y508D01*
X1490Y508D01*
X1490Y506D01*
X1492Y506D01*
X1492Y504D01*
X1496Y504D01*
X1496Y502D01*
X1500Y502D01*
X1500Y500D01*
X1502Y500D01*
X1502Y498D01*
X1506Y498D01*
X1506Y496D01*
X1508Y496D01*
X1508Y494D01*
X1512Y494D01*
X1512Y492D01*
X1514Y492D01*
X1514Y490D01*
X1518Y490D01*
X1518Y488D01*
X1522Y488D01*
X1522Y486D01*
X1524Y486D01*
X1524Y484D01*
X1528Y484D01*
X1528Y482D01*
X1530Y482D01*
X1530Y480D01*
X1534Y480D01*
X1534Y478D01*
X1536Y478D01*
X1536Y476D01*
X1540Y476D01*
X1540Y474D01*
X1542Y474D01*
X1542Y472D01*
X1546Y472D01*
X1546Y470D01*
X1548Y470D01*
X1548Y468D01*
X1550Y468D01*
X1550Y466D01*
X1552Y466D01*
X1552Y464D01*
X1554Y464D01*
X1554Y460D01*
X1556Y460D01*
X1556Y454D01*
X1558Y454D01*
X1558Y406D01*
X1560Y406D01*
X1560Y390D01*
X1688Y390D01*
X1688Y282D01*
X1678Y282D01*
X1678Y262D01*
X1680Y262D01*
X1680Y260D01*
X1682Y260D01*
X1682Y256D01*
X1684Y256D01*
X1684Y252D01*
X1686Y252D01*
X1686Y244D01*
X1688Y244D01*
X1688Y230D01*
X1686Y230D01*
X1686Y222D01*
X1684Y222D01*
X1684Y218D01*
X1682Y218D01*
X1682Y214D01*
X1680Y214D01*
X1680Y210D01*
X1678Y210D01*
X1678Y208D01*
X1676Y208D01*
X1676Y204D01*
X1674Y204D01*
X1674Y202D01*
X1672Y202D01*
X1672Y200D01*
X1670Y200D01*
X1670Y198D01*
X1668Y198D01*
X1668Y196D01*
X1666Y196D01*
X1666Y176D01*
X1668Y176D01*
X1668Y174D01*
X1670Y174D01*
X1670Y172D01*
X1672Y172D01*
X1672Y170D01*
X1674Y170D01*
X1674Y168D01*
X1676Y168D01*
X1676Y166D01*
X1678Y166D01*
X1678Y162D01*
X1680Y162D01*
X1680Y160D01*
X1682Y160D01*
X1682Y156D01*
X1684Y156D01*
X1684Y152D01*
X1686Y152D01*
X1686Y144D01*
X1688Y144D01*
X1688Y130D01*
X1686Y130D01*
X1686Y122D01*
X1684Y122D01*
X1684Y118D01*
X1682Y118D01*
X1682Y114D01*
X1680Y114D01*
X1680Y110D01*
X1678Y110D01*
X1678Y108D01*
X1676Y108D01*
X1676Y104D01*
X1674Y104D01*
X1674Y102D01*
X1672Y102D01*
X1672Y100D01*
X1670Y100D01*
X1670Y98D01*
X1668Y98D01*
X1668Y96D01*
X1666Y96D01*
X1666Y94D01*
X1662Y94D01*
X1662Y92D01*
X1660Y92D01*
X1660Y90D01*
X1656Y90D01*
X1656Y88D01*
X1652Y88D01*
X1652Y86D01*
X1648Y86D01*
X1648Y84D01*
X1640Y84D01*
X1640Y82D01*
X1730Y82D01*
X1730Y600D01*
X1348Y600D01*
G37*
D02*
G36*
X960Y584D02*
X960Y564D01*
X962Y564D01*
X962Y562D01*
X964Y562D01*
X964Y558D01*
X966Y558D01*
X966Y556D01*
X968Y556D01*
X968Y552D01*
X970Y552D01*
X970Y548D01*
X972Y548D01*
X972Y542D01*
X974Y542D01*
X974Y520D01*
X972Y520D01*
X972Y514D01*
X970Y514D01*
X970Y510D01*
X968Y510D01*
X968Y508D01*
X966Y508D01*
X966Y504D01*
X964Y504D01*
X964Y502D01*
X962Y502D01*
X962Y498D01*
X960Y498D01*
X960Y496D01*
X958Y496D01*
X958Y494D01*
X956Y494D01*
X956Y492D01*
X952Y492D01*
X952Y490D01*
X950Y490D01*
X950Y488D01*
X948Y488D01*
X948Y486D01*
X944Y486D01*
X944Y484D01*
X940Y484D01*
X940Y482D01*
X936Y482D01*
X936Y480D01*
X930Y480D01*
X930Y478D01*
X1218Y478D01*
X1218Y480D01*
X1210Y480D01*
X1210Y482D01*
X1204Y482D01*
X1204Y484D01*
X1200Y484D01*
X1200Y486D01*
X1198Y486D01*
X1198Y488D01*
X1194Y488D01*
X1194Y490D01*
X1192Y490D01*
X1192Y492D01*
X1190Y492D01*
X1190Y494D01*
X1186Y494D01*
X1186Y498D01*
X1184Y498D01*
X1184Y500D01*
X1182Y500D01*
X1182Y502D01*
X1180Y502D01*
X1180Y504D01*
X1178Y504D01*
X1178Y508D01*
X1176Y508D01*
X1176Y512D01*
X1174Y512D01*
X1174Y516D01*
X1172Y516D01*
X1172Y522D01*
X1170Y522D01*
X1170Y542D01*
X1172Y542D01*
X1172Y548D01*
X1174Y548D01*
X1174Y552D01*
X1176Y552D01*
X1176Y554D01*
X1178Y554D01*
X1178Y558D01*
X1180Y558D01*
X1180Y578D01*
X1174Y578D01*
X1174Y580D01*
X1104Y580D01*
X1104Y582D01*
X1034Y582D01*
X1034Y584D01*
X960Y584D01*
G37*
D02*
G36*
X1274Y548D02*
X1274Y520D01*
X1272Y520D01*
X1272Y514D01*
X1270Y514D01*
X1270Y510D01*
X1268Y510D01*
X1268Y508D01*
X1266Y508D01*
X1266Y504D01*
X1264Y504D01*
X1264Y502D01*
X1262Y502D01*
X1262Y498D01*
X1260Y498D01*
X1260Y496D01*
X1258Y496D01*
X1258Y494D01*
X1256Y494D01*
X1256Y492D01*
X1252Y492D01*
X1252Y490D01*
X1250Y490D01*
X1250Y488D01*
X1248Y488D01*
X1248Y486D01*
X1244Y486D01*
X1244Y484D01*
X1240Y484D01*
X1240Y482D01*
X1236Y482D01*
X1236Y480D01*
X1226Y480D01*
X1226Y478D01*
X1434Y478D01*
X1434Y480D01*
X1430Y480D01*
X1430Y482D01*
X1428Y482D01*
X1428Y484D01*
X1424Y484D01*
X1424Y486D01*
X1420Y486D01*
X1420Y488D01*
X1418Y488D01*
X1418Y490D01*
X1414Y490D01*
X1414Y492D01*
X1412Y492D01*
X1412Y494D01*
X1408Y494D01*
X1408Y496D01*
X1406Y496D01*
X1406Y498D01*
X1402Y498D01*
X1402Y500D01*
X1398Y500D01*
X1398Y502D01*
X1396Y502D01*
X1396Y504D01*
X1392Y504D01*
X1392Y506D01*
X1390Y506D01*
X1390Y508D01*
X1386Y508D01*
X1386Y510D01*
X1384Y510D01*
X1384Y512D01*
X1380Y512D01*
X1380Y514D01*
X1376Y514D01*
X1376Y516D01*
X1372Y516D01*
X1372Y518D01*
X1366Y518D01*
X1366Y520D01*
X1362Y520D01*
X1362Y522D01*
X1356Y522D01*
X1356Y524D01*
X1352Y524D01*
X1352Y526D01*
X1346Y526D01*
X1346Y528D01*
X1342Y528D01*
X1342Y530D01*
X1336Y530D01*
X1336Y532D01*
X1332Y532D01*
X1332Y534D01*
X1326Y534D01*
X1326Y536D01*
X1322Y536D01*
X1322Y538D01*
X1316Y538D01*
X1316Y540D01*
X1312Y540D01*
X1312Y542D01*
X1308Y542D01*
X1308Y544D01*
X1302Y544D01*
X1302Y546D01*
X1298Y546D01*
X1298Y548D01*
X1274Y548D01*
G37*
D02*
G36*
X928Y478D02*
X928Y476D01*
X1436Y476D01*
X1436Y478D01*
X928Y478D01*
G37*
D02*
G36*
X928Y478D02*
X928Y476D01*
X1436Y476D01*
X1436Y478D01*
X928Y478D01*
G37*
D02*
G36*
X928Y476D02*
X928Y474D01*
X926Y474D01*
X926Y468D01*
X924Y468D01*
X924Y464D01*
X922Y464D01*
X922Y458D01*
X920Y458D01*
X920Y454D01*
X1272Y454D01*
X1272Y452D01*
X1280Y452D01*
X1280Y450D01*
X1286Y450D01*
X1286Y448D01*
X1290Y448D01*
X1290Y446D01*
X1292Y446D01*
X1292Y444D01*
X1296Y444D01*
X1296Y442D01*
X1298Y442D01*
X1298Y440D01*
X1300Y440D01*
X1300Y438D01*
X1302Y438D01*
X1302Y436D01*
X1450Y436D01*
X1450Y434D01*
X1456Y434D01*
X1456Y432D01*
X1462Y432D01*
X1462Y430D01*
X1464Y430D01*
X1464Y428D01*
X1468Y428D01*
X1468Y426D01*
X1470Y426D01*
X1470Y424D01*
X1474Y424D01*
X1474Y422D01*
X1476Y422D01*
X1476Y420D01*
X1478Y420D01*
X1478Y418D01*
X1480Y418D01*
X1480Y416D01*
X1482Y416D01*
X1482Y414D01*
X1484Y414D01*
X1484Y410D01*
X1504Y410D01*
X1504Y434D01*
X1502Y434D01*
X1502Y436D01*
X1498Y436D01*
X1498Y438D01*
X1496Y438D01*
X1496Y440D01*
X1492Y440D01*
X1492Y442D01*
X1490Y442D01*
X1490Y444D01*
X1486Y444D01*
X1486Y446D01*
X1484Y446D01*
X1484Y448D01*
X1480Y448D01*
X1480Y450D01*
X1478Y450D01*
X1478Y452D01*
X1474Y452D01*
X1474Y454D01*
X1470Y454D01*
X1470Y456D01*
X1468Y456D01*
X1468Y458D01*
X1464Y458D01*
X1464Y460D01*
X1462Y460D01*
X1462Y462D01*
X1458Y462D01*
X1458Y464D01*
X1456Y464D01*
X1456Y466D01*
X1452Y466D01*
X1452Y468D01*
X1448Y468D01*
X1448Y470D01*
X1446Y470D01*
X1446Y472D01*
X1442Y472D01*
X1442Y474D01*
X1440Y474D01*
X1440Y476D01*
X928Y476D01*
G37*
D02*
G36*
X918Y454D02*
X918Y450D01*
X916Y450D01*
X916Y444D01*
X914Y444D01*
X914Y438D01*
X934Y438D01*
X934Y440D01*
X936Y440D01*
X936Y442D01*
X938Y442D01*
X938Y444D01*
X942Y444D01*
X942Y446D01*
X946Y446D01*
X946Y448D01*
X948Y448D01*
X948Y450D01*
X954Y450D01*
X954Y452D01*
X962Y452D01*
X962Y454D01*
X918Y454D01*
G37*
D02*
G36*
X972Y454D02*
X972Y452D01*
X980Y452D01*
X980Y450D01*
X986Y450D01*
X986Y448D01*
X990Y448D01*
X990Y446D01*
X992Y446D01*
X992Y444D01*
X996Y444D01*
X996Y442D01*
X998Y442D01*
X998Y440D01*
X1000Y440D01*
X1000Y438D01*
X1002Y438D01*
X1002Y436D01*
X1004Y436D01*
X1004Y434D01*
X1006Y434D01*
X1006Y432D01*
X1028Y432D01*
X1028Y434D01*
X1030Y434D01*
X1030Y436D01*
X1032Y436D01*
X1032Y438D01*
X1034Y438D01*
X1034Y440D01*
X1036Y440D01*
X1036Y442D01*
X1038Y442D01*
X1038Y444D01*
X1042Y444D01*
X1042Y446D01*
X1046Y446D01*
X1046Y448D01*
X1048Y448D01*
X1048Y450D01*
X1054Y450D01*
X1054Y452D01*
X1062Y452D01*
X1062Y454D01*
X972Y454D01*
G37*
D02*
G36*
X1072Y454D02*
X1072Y452D01*
X1080Y452D01*
X1080Y450D01*
X1086Y450D01*
X1086Y448D01*
X1090Y448D01*
X1090Y446D01*
X1092Y446D01*
X1092Y444D01*
X1096Y444D01*
X1096Y442D01*
X1098Y442D01*
X1098Y440D01*
X1100Y440D01*
X1100Y438D01*
X1102Y438D01*
X1102Y436D01*
X1104Y436D01*
X1104Y434D01*
X1106Y434D01*
X1106Y432D01*
X1128Y432D01*
X1128Y434D01*
X1130Y434D01*
X1130Y436D01*
X1132Y436D01*
X1132Y438D01*
X1134Y438D01*
X1134Y440D01*
X1136Y440D01*
X1136Y442D01*
X1138Y442D01*
X1138Y444D01*
X1142Y444D01*
X1142Y446D01*
X1146Y446D01*
X1146Y448D01*
X1148Y448D01*
X1148Y450D01*
X1154Y450D01*
X1154Y452D01*
X1162Y452D01*
X1162Y454D01*
X1072Y454D01*
G37*
D02*
G36*
X1172Y454D02*
X1172Y452D01*
X1180Y452D01*
X1180Y450D01*
X1186Y450D01*
X1186Y448D01*
X1190Y448D01*
X1190Y446D01*
X1192Y446D01*
X1192Y444D01*
X1196Y444D01*
X1196Y442D01*
X1198Y442D01*
X1198Y440D01*
X1200Y440D01*
X1200Y438D01*
X1202Y438D01*
X1202Y436D01*
X1204Y436D01*
X1204Y434D01*
X1206Y434D01*
X1206Y432D01*
X1228Y432D01*
X1228Y434D01*
X1230Y434D01*
X1230Y436D01*
X1232Y436D01*
X1232Y438D01*
X1234Y438D01*
X1234Y440D01*
X1236Y440D01*
X1236Y442D01*
X1238Y442D01*
X1238Y444D01*
X1242Y444D01*
X1242Y446D01*
X1246Y446D01*
X1246Y448D01*
X1248Y448D01*
X1248Y450D01*
X1254Y450D01*
X1254Y452D01*
X1262Y452D01*
X1262Y454D01*
X1172Y454D01*
G37*
D02*
G36*
X1304Y436D02*
X1304Y434D01*
X1306Y434D01*
X1306Y432D01*
X1308Y432D01*
X1308Y430D01*
X1310Y430D01*
X1310Y428D01*
X1312Y428D01*
X1312Y424D01*
X1314Y424D01*
X1314Y420D01*
X1316Y420D01*
X1316Y416D01*
X1318Y416D01*
X1318Y408D01*
X1320Y408D01*
X1320Y392D01*
X1318Y392D01*
X1318Y386D01*
X1316Y386D01*
X1316Y382D01*
X1314Y382D01*
X1314Y378D01*
X1312Y378D01*
X1312Y374D01*
X1310Y374D01*
X1310Y372D01*
X1308Y372D01*
X1308Y370D01*
X1306Y370D01*
X1306Y368D01*
X1304Y368D01*
X1304Y364D01*
X1300Y364D01*
X1300Y362D01*
X1298Y362D01*
X1298Y360D01*
X1296Y360D01*
X1296Y358D01*
X1294Y358D01*
X1294Y356D01*
X1290Y356D01*
X1290Y354D01*
X1286Y354D01*
X1286Y352D01*
X1282Y352D01*
X1282Y350D01*
X1274Y350D01*
X1274Y348D01*
X1404Y348D01*
X1404Y352D01*
X1402Y352D01*
X1402Y354D01*
X1400Y354D01*
X1400Y356D01*
X1398Y356D01*
X1398Y360D01*
X1396Y360D01*
X1396Y362D01*
X1394Y362D01*
X1394Y368D01*
X1392Y368D01*
X1392Y372D01*
X1390Y372D01*
X1390Y394D01*
X1392Y394D01*
X1392Y400D01*
X1394Y400D01*
X1394Y404D01*
X1396Y404D01*
X1396Y408D01*
X1398Y408D01*
X1398Y410D01*
X1400Y410D01*
X1400Y414D01*
X1402Y414D01*
X1402Y416D01*
X1404Y416D01*
X1404Y418D01*
X1406Y418D01*
X1406Y420D01*
X1408Y420D01*
X1408Y422D01*
X1410Y422D01*
X1410Y424D01*
X1414Y424D01*
X1414Y426D01*
X1416Y426D01*
X1416Y428D01*
X1420Y428D01*
X1420Y430D01*
X1422Y430D01*
X1422Y432D01*
X1428Y432D01*
X1428Y434D01*
X1434Y434D01*
X1434Y436D01*
X1304Y436D01*
G37*
D02*
G36*
X1560Y390D02*
X1560Y344D01*
X1580Y344D01*
X1580Y390D01*
X1560Y390D01*
G37*
D02*
G36*
X1006Y370D02*
X1006Y368D01*
X1004Y368D01*
X1004Y364D01*
X1000Y364D01*
X1000Y362D01*
X998Y362D01*
X998Y360D01*
X996Y360D01*
X996Y358D01*
X994Y358D01*
X994Y356D01*
X990Y356D01*
X990Y354D01*
X986Y354D01*
X986Y352D01*
X982Y352D01*
X982Y350D01*
X976Y350D01*
X976Y346D01*
X974Y346D01*
X974Y342D01*
X972Y342D01*
X972Y338D01*
X970Y338D01*
X970Y334D01*
X968Y334D01*
X968Y330D01*
X966Y330D01*
X966Y324D01*
X964Y324D01*
X964Y320D01*
X962Y320D01*
X962Y316D01*
X960Y316D01*
X960Y312D01*
X958Y312D01*
X958Y308D01*
X956Y308D01*
X956Y304D01*
X954Y304D01*
X954Y300D01*
X952Y300D01*
X952Y296D01*
X950Y296D01*
X950Y292D01*
X948Y292D01*
X948Y288D01*
X946Y288D01*
X946Y284D01*
X944Y284D01*
X944Y280D01*
X942Y280D01*
X942Y276D01*
X940Y276D01*
X940Y272D01*
X938Y272D01*
X938Y270D01*
X936Y270D01*
X936Y266D01*
X932Y266D01*
X932Y264D01*
X930Y264D01*
X930Y262D01*
X926Y262D01*
X926Y260D01*
X922Y260D01*
X922Y258D01*
X954Y258D01*
X954Y262D01*
X956Y262D01*
X956Y266D01*
X958Y266D01*
X958Y268D01*
X960Y268D01*
X960Y270D01*
X962Y270D01*
X962Y272D01*
X964Y272D01*
X964Y274D01*
X966Y274D01*
X966Y276D01*
X968Y276D01*
X968Y278D01*
X972Y278D01*
X972Y280D01*
X976Y280D01*
X976Y282D01*
X986Y282D01*
X986Y284D01*
X990Y284D01*
X990Y286D01*
X992Y286D01*
X992Y288D01*
X994Y288D01*
X994Y290D01*
X998Y290D01*
X998Y292D01*
X1000Y292D01*
X1000Y294D01*
X1002Y294D01*
X1002Y296D01*
X1006Y296D01*
X1006Y298D01*
X1008Y298D01*
X1008Y300D01*
X1010Y300D01*
X1010Y302D01*
X1014Y302D01*
X1014Y304D01*
X1016Y304D01*
X1016Y306D01*
X1018Y306D01*
X1018Y308D01*
X1022Y308D01*
X1022Y310D01*
X1024Y310D01*
X1024Y312D01*
X1026Y312D01*
X1026Y314D01*
X1030Y314D01*
X1030Y316D01*
X1032Y316D01*
X1032Y318D01*
X1034Y318D01*
X1034Y320D01*
X1038Y320D01*
X1038Y322D01*
X1040Y322D01*
X1040Y358D01*
X1038Y358D01*
X1038Y360D01*
X1036Y360D01*
X1036Y362D01*
X1034Y362D01*
X1034Y364D01*
X1032Y364D01*
X1032Y366D01*
X1030Y366D01*
X1030Y368D01*
X1028Y368D01*
X1028Y370D01*
X1006Y370D01*
G37*
D02*
G36*
X1106Y370D02*
X1106Y368D01*
X1104Y368D01*
X1104Y364D01*
X1100Y364D01*
X1100Y362D01*
X1098Y362D01*
X1098Y360D01*
X1096Y360D01*
X1096Y358D01*
X1094Y358D01*
X1094Y348D01*
X1162Y348D01*
X1162Y350D01*
X1154Y350D01*
X1154Y352D01*
X1148Y352D01*
X1148Y354D01*
X1146Y354D01*
X1146Y356D01*
X1142Y356D01*
X1142Y358D01*
X1138Y358D01*
X1138Y360D01*
X1136Y360D01*
X1136Y362D01*
X1134Y362D01*
X1134Y364D01*
X1132Y364D01*
X1132Y366D01*
X1130Y366D01*
X1130Y368D01*
X1128Y368D01*
X1128Y370D01*
X1106Y370D01*
G37*
D02*
G36*
X1206Y370D02*
X1206Y368D01*
X1204Y368D01*
X1204Y364D01*
X1200Y364D01*
X1200Y362D01*
X1198Y362D01*
X1198Y360D01*
X1196Y360D01*
X1196Y358D01*
X1194Y358D01*
X1194Y356D01*
X1190Y356D01*
X1190Y354D01*
X1186Y354D01*
X1186Y352D01*
X1182Y352D01*
X1182Y350D01*
X1174Y350D01*
X1174Y348D01*
X1262Y348D01*
X1262Y350D01*
X1254Y350D01*
X1254Y352D01*
X1248Y352D01*
X1248Y354D01*
X1246Y354D01*
X1246Y356D01*
X1242Y356D01*
X1242Y358D01*
X1238Y358D01*
X1238Y360D01*
X1236Y360D01*
X1236Y362D01*
X1234Y362D01*
X1234Y364D01*
X1232Y364D01*
X1232Y366D01*
X1230Y366D01*
X1230Y368D01*
X1228Y368D01*
X1228Y370D01*
X1206Y370D01*
G37*
D02*
G36*
X1486Y360D02*
X1486Y356D01*
X1484Y356D01*
X1484Y354D01*
X1482Y354D01*
X1482Y352D01*
X1480Y352D01*
X1480Y348D01*
X1478Y348D01*
X1478Y346D01*
X1474Y346D01*
X1474Y344D01*
X1472Y344D01*
X1472Y342D01*
X1470Y342D01*
X1470Y340D01*
X1466Y340D01*
X1466Y338D01*
X1464Y338D01*
X1464Y336D01*
X1460Y336D01*
X1460Y334D01*
X1454Y334D01*
X1454Y332D01*
X1444Y332D01*
X1444Y330D01*
X1508Y330D01*
X1508Y342D01*
X1506Y342D01*
X1506Y360D01*
X1486Y360D01*
G37*
D02*
G36*
X1094Y348D02*
X1094Y346D01*
X1406Y346D01*
X1406Y348D01*
X1094Y348D01*
G37*
D02*
G36*
X1094Y348D02*
X1094Y346D01*
X1406Y346D01*
X1406Y348D01*
X1094Y348D01*
G37*
D02*
G36*
X1094Y348D02*
X1094Y346D01*
X1406Y346D01*
X1406Y348D01*
X1094Y348D01*
G37*
D02*
G36*
X546Y346D02*
X546Y342D01*
X544Y342D01*
X544Y340D01*
X542Y340D01*
X542Y336D01*
X540Y336D01*
X540Y332D01*
X538Y332D01*
X538Y330D01*
X536Y330D01*
X536Y328D01*
X534Y328D01*
X534Y326D01*
X532Y326D01*
X532Y324D01*
X530Y324D01*
X530Y322D01*
X528Y322D01*
X528Y300D01*
X530Y300D01*
X530Y298D01*
X532Y298D01*
X532Y296D01*
X534Y296D01*
X534Y294D01*
X536Y294D01*
X536Y292D01*
X538Y292D01*
X538Y290D01*
X540Y290D01*
X540Y286D01*
X542Y286D01*
X542Y282D01*
X544Y282D01*
X544Y278D01*
X546Y278D01*
X546Y274D01*
X548Y274D01*
X548Y262D01*
X550Y262D01*
X550Y260D01*
X548Y260D01*
X548Y258D01*
X700Y258D01*
X700Y260D01*
X606Y260D01*
X606Y262D01*
X600Y262D01*
X600Y264D01*
X598Y264D01*
X598Y266D01*
X594Y266D01*
X594Y268D01*
X592Y268D01*
X592Y270D01*
X590Y270D01*
X590Y274D01*
X588Y274D01*
X588Y278D01*
X586Y278D01*
X586Y282D01*
X584Y282D01*
X584Y288D01*
X582Y288D01*
X582Y294D01*
X580Y294D01*
X580Y302D01*
X578Y302D01*
X578Y308D01*
X576Y308D01*
X576Y314D01*
X574Y314D01*
X574Y320D01*
X572Y320D01*
X572Y328D01*
X570Y328D01*
X570Y334D01*
X568Y334D01*
X568Y340D01*
X566Y340D01*
X566Y346D01*
X546Y346D01*
G37*
D02*
G36*
X1094Y346D02*
X1094Y330D01*
X1440Y330D01*
X1440Y332D01*
X1430Y332D01*
X1430Y334D01*
X1424Y334D01*
X1424Y336D01*
X1420Y336D01*
X1420Y338D01*
X1418Y338D01*
X1418Y340D01*
X1414Y340D01*
X1414Y342D01*
X1412Y342D01*
X1412Y344D01*
X1410Y344D01*
X1410Y346D01*
X1094Y346D01*
G37*
D02*
G36*
X1094Y330D02*
X1094Y328D01*
X1508Y328D01*
X1508Y330D01*
X1094Y330D01*
G37*
D02*
G36*
X1094Y330D02*
X1094Y328D01*
X1508Y328D01*
X1508Y330D01*
X1094Y330D01*
G37*
D02*
G36*
X1094Y328D02*
X1094Y304D01*
X1092Y304D01*
X1092Y298D01*
X1090Y298D01*
X1090Y294D01*
X1088Y294D01*
X1088Y292D01*
X1086Y292D01*
X1086Y290D01*
X1084Y290D01*
X1084Y288D01*
X1082Y288D01*
X1082Y286D01*
X1080Y286D01*
X1080Y284D01*
X1076Y284D01*
X1076Y282D01*
X1074Y282D01*
X1074Y280D01*
X1072Y280D01*
X1072Y278D01*
X1068Y278D01*
X1068Y276D01*
X1066Y276D01*
X1066Y274D01*
X1064Y274D01*
X1064Y272D01*
X1060Y272D01*
X1060Y270D01*
X1058Y270D01*
X1058Y268D01*
X1056Y268D01*
X1056Y266D01*
X1052Y266D01*
X1052Y264D01*
X1050Y264D01*
X1050Y262D01*
X1048Y262D01*
X1048Y260D01*
X1044Y260D01*
X1044Y258D01*
X1042Y258D01*
X1042Y256D01*
X1040Y256D01*
X1040Y254D01*
X1036Y254D01*
X1036Y252D01*
X1034Y252D01*
X1034Y250D01*
X1032Y250D01*
X1032Y248D01*
X1028Y248D01*
X1028Y246D01*
X1026Y246D01*
X1026Y244D01*
X1024Y244D01*
X1024Y242D01*
X1020Y242D01*
X1020Y240D01*
X1018Y240D01*
X1018Y236D01*
X1016Y236D01*
X1016Y232D01*
X1014Y232D01*
X1014Y230D01*
X1012Y230D01*
X1012Y228D01*
X1010Y228D01*
X1010Y224D01*
X1006Y224D01*
X1006Y222D01*
X1004Y222D01*
X1004Y220D01*
X1002Y220D01*
X1002Y218D01*
X998Y218D01*
X998Y216D01*
X994Y216D01*
X994Y214D01*
X1586Y214D01*
X1586Y216D01*
X1584Y216D01*
X1584Y220D01*
X1582Y220D01*
X1582Y226D01*
X1580Y226D01*
X1580Y232D01*
X1574Y232D01*
X1574Y234D01*
X1570Y234D01*
X1570Y236D01*
X1566Y236D01*
X1566Y238D01*
X1560Y238D01*
X1560Y240D01*
X1556Y240D01*
X1556Y242D01*
X1552Y242D01*
X1552Y244D01*
X1548Y244D01*
X1548Y246D01*
X1542Y246D01*
X1542Y248D01*
X1538Y248D01*
X1538Y250D01*
X1534Y250D01*
X1534Y252D01*
X1530Y252D01*
X1530Y254D01*
X1524Y254D01*
X1524Y256D01*
X1522Y256D01*
X1522Y258D01*
X1518Y258D01*
X1518Y260D01*
X1516Y260D01*
X1516Y262D01*
X1514Y262D01*
X1514Y266D01*
X1512Y266D01*
X1512Y270D01*
X1510Y270D01*
X1510Y282D01*
X1508Y282D01*
X1508Y328D01*
X1094Y328D01*
G37*
D02*
G36*
X548Y258D02*
X548Y256D01*
X952Y256D01*
X952Y258D01*
X548Y258D01*
G37*
D02*
G36*
X548Y258D02*
X548Y256D01*
X952Y256D01*
X952Y258D01*
X548Y258D01*
G37*
D02*
G36*
X548Y256D02*
X548Y248D01*
X546Y248D01*
X546Y242D01*
X544Y242D01*
X544Y240D01*
X542Y240D01*
X542Y236D01*
X540Y236D01*
X540Y232D01*
X538Y232D01*
X538Y230D01*
X536Y230D01*
X536Y228D01*
X934Y228D01*
X934Y226D01*
X938Y226D01*
X938Y224D01*
X942Y224D01*
X942Y222D01*
X944Y222D01*
X944Y220D01*
X946Y220D01*
X946Y218D01*
X948Y218D01*
X948Y216D01*
X950Y216D01*
X950Y214D01*
X976Y214D01*
X976Y216D01*
X972Y216D01*
X972Y218D01*
X968Y218D01*
X968Y220D01*
X966Y220D01*
X966Y222D01*
X964Y222D01*
X964Y224D01*
X962Y224D01*
X962Y226D01*
X960Y226D01*
X960Y228D01*
X958Y228D01*
X958Y230D01*
X956Y230D01*
X956Y234D01*
X954Y234D01*
X954Y238D01*
X952Y238D01*
X952Y244D01*
X950Y244D01*
X950Y252D01*
X952Y252D01*
X952Y256D01*
X548Y256D01*
G37*
D02*
G36*
X534Y228D02*
X534Y226D01*
X532Y226D01*
X532Y224D01*
X530Y224D01*
X530Y222D01*
X528Y222D01*
X528Y200D01*
X530Y200D01*
X530Y198D01*
X532Y198D01*
X532Y196D01*
X534Y196D01*
X534Y194D01*
X536Y194D01*
X536Y192D01*
X538Y192D01*
X538Y190D01*
X540Y190D01*
X540Y186D01*
X542Y186D01*
X542Y182D01*
X544Y182D01*
X544Y178D01*
X546Y178D01*
X546Y174D01*
X566Y174D01*
X566Y176D01*
X568Y176D01*
X568Y182D01*
X570Y182D01*
X570Y188D01*
X572Y188D01*
X572Y192D01*
X574Y192D01*
X574Y198D01*
X576Y198D01*
X576Y204D01*
X578Y204D01*
X578Y208D01*
X580Y208D01*
X580Y212D01*
X582Y212D01*
X582Y214D01*
X584Y214D01*
X584Y218D01*
X586Y218D01*
X586Y220D01*
X590Y220D01*
X590Y222D01*
X592Y222D01*
X592Y224D01*
X596Y224D01*
X596Y226D01*
X606Y226D01*
X606Y228D01*
X534Y228D01*
G37*
D02*
G36*
X952Y214D02*
X952Y212D01*
X1586Y212D01*
X1586Y214D01*
X952Y214D01*
G37*
D02*
G36*
X952Y214D02*
X952Y212D01*
X1586Y212D01*
X1586Y214D01*
X952Y214D01*
G37*
D02*
G36*
X952Y212D02*
X952Y210D01*
X954Y210D01*
X954Y204D01*
X956Y204D01*
X956Y200D01*
X958Y200D01*
X958Y196D01*
X960Y196D01*
X960Y192D01*
X962Y192D01*
X962Y186D01*
X964Y186D01*
X964Y182D01*
X966Y182D01*
X966Y178D01*
X968Y178D01*
X968Y174D01*
X970Y174D01*
X970Y168D01*
X972Y168D01*
X972Y164D01*
X974Y164D01*
X974Y160D01*
X976Y160D01*
X976Y156D01*
X978Y156D01*
X978Y154D01*
X1272Y154D01*
X1272Y152D01*
X1280Y152D01*
X1280Y150D01*
X1286Y150D01*
X1286Y148D01*
X1290Y148D01*
X1290Y146D01*
X1292Y146D01*
X1292Y144D01*
X1296Y144D01*
X1296Y142D01*
X1298Y142D01*
X1298Y140D01*
X1300Y140D01*
X1300Y138D01*
X1302Y138D01*
X1302Y136D01*
X1450Y136D01*
X1450Y134D01*
X1456Y134D01*
X1456Y132D01*
X1462Y132D01*
X1462Y130D01*
X1464Y130D01*
X1464Y128D01*
X1468Y128D01*
X1468Y126D01*
X1470Y126D01*
X1470Y124D01*
X1474Y124D01*
X1474Y122D01*
X1476Y122D01*
X1476Y120D01*
X1478Y120D01*
X1478Y118D01*
X1480Y118D01*
X1480Y116D01*
X1482Y116D01*
X1482Y114D01*
X1484Y114D01*
X1484Y110D01*
X1486Y110D01*
X1486Y108D01*
X1488Y108D01*
X1488Y104D01*
X1490Y104D01*
X1490Y100D01*
X1492Y100D01*
X1492Y94D01*
X1494Y94D01*
X1494Y82D01*
X1628Y82D01*
X1628Y84D01*
X1620Y84D01*
X1620Y86D01*
X1614Y86D01*
X1614Y88D01*
X1612Y88D01*
X1612Y90D01*
X1608Y90D01*
X1608Y92D01*
X1604Y92D01*
X1604Y94D01*
X1602Y94D01*
X1602Y96D01*
X1600Y96D01*
X1600Y98D01*
X1598Y98D01*
X1598Y100D01*
X1596Y100D01*
X1596Y102D01*
X1594Y102D01*
X1594Y104D01*
X1592Y104D01*
X1592Y106D01*
X1590Y106D01*
X1590Y110D01*
X1588Y110D01*
X1588Y112D01*
X1586Y112D01*
X1586Y116D01*
X1584Y116D01*
X1584Y120D01*
X1582Y120D01*
X1582Y126D01*
X1580Y126D01*
X1580Y146D01*
X1582Y146D01*
X1582Y152D01*
X1584Y152D01*
X1584Y158D01*
X1586Y158D01*
X1586Y160D01*
X1588Y160D01*
X1588Y164D01*
X1590Y164D01*
X1590Y166D01*
X1592Y166D01*
X1592Y168D01*
X1594Y168D01*
X1594Y172D01*
X1596Y172D01*
X1596Y174D01*
X1598Y174D01*
X1598Y176D01*
X1602Y176D01*
X1602Y196D01*
X1600Y196D01*
X1600Y198D01*
X1598Y198D01*
X1598Y200D01*
X1596Y200D01*
X1596Y202D01*
X1594Y202D01*
X1594Y204D01*
X1592Y204D01*
X1592Y206D01*
X1590Y206D01*
X1590Y210D01*
X1588Y210D01*
X1588Y212D01*
X952Y212D01*
G37*
D02*
G36*
X978Y154D02*
X978Y152D01*
X980Y152D01*
X980Y150D01*
X986Y150D01*
X986Y148D01*
X990Y148D01*
X990Y146D01*
X992Y146D01*
X992Y144D01*
X996Y144D01*
X996Y142D01*
X998Y142D01*
X998Y140D01*
X1000Y140D01*
X1000Y138D01*
X1002Y138D01*
X1002Y136D01*
X1004Y136D01*
X1004Y134D01*
X1006Y134D01*
X1006Y132D01*
X1028Y132D01*
X1028Y134D01*
X1030Y134D01*
X1030Y136D01*
X1032Y136D01*
X1032Y138D01*
X1034Y138D01*
X1034Y140D01*
X1036Y140D01*
X1036Y142D01*
X1038Y142D01*
X1038Y144D01*
X1042Y144D01*
X1042Y146D01*
X1046Y146D01*
X1046Y148D01*
X1048Y148D01*
X1048Y150D01*
X1054Y150D01*
X1054Y152D01*
X1062Y152D01*
X1062Y154D01*
X978Y154D01*
G37*
D02*
G36*
X1072Y154D02*
X1072Y152D01*
X1080Y152D01*
X1080Y150D01*
X1086Y150D01*
X1086Y148D01*
X1090Y148D01*
X1090Y146D01*
X1092Y146D01*
X1092Y144D01*
X1096Y144D01*
X1096Y142D01*
X1098Y142D01*
X1098Y140D01*
X1100Y140D01*
X1100Y138D01*
X1102Y138D01*
X1102Y136D01*
X1104Y136D01*
X1104Y134D01*
X1106Y134D01*
X1106Y132D01*
X1128Y132D01*
X1128Y134D01*
X1130Y134D01*
X1130Y136D01*
X1132Y136D01*
X1132Y138D01*
X1134Y138D01*
X1134Y140D01*
X1136Y140D01*
X1136Y142D01*
X1138Y142D01*
X1138Y144D01*
X1142Y144D01*
X1142Y146D01*
X1146Y146D01*
X1146Y148D01*
X1148Y148D01*
X1148Y150D01*
X1154Y150D01*
X1154Y152D01*
X1162Y152D01*
X1162Y154D01*
X1072Y154D01*
G37*
D02*
G36*
X1172Y154D02*
X1172Y152D01*
X1180Y152D01*
X1180Y150D01*
X1186Y150D01*
X1186Y148D01*
X1190Y148D01*
X1190Y146D01*
X1192Y146D01*
X1192Y144D01*
X1196Y144D01*
X1196Y142D01*
X1198Y142D01*
X1198Y140D01*
X1200Y140D01*
X1200Y138D01*
X1202Y138D01*
X1202Y136D01*
X1204Y136D01*
X1204Y134D01*
X1206Y134D01*
X1206Y132D01*
X1228Y132D01*
X1228Y134D01*
X1230Y134D01*
X1230Y136D01*
X1232Y136D01*
X1232Y138D01*
X1234Y138D01*
X1234Y140D01*
X1236Y140D01*
X1236Y142D01*
X1238Y142D01*
X1238Y144D01*
X1242Y144D01*
X1242Y146D01*
X1246Y146D01*
X1246Y148D01*
X1248Y148D01*
X1248Y150D01*
X1254Y150D01*
X1254Y152D01*
X1262Y152D01*
X1262Y154D01*
X1172Y154D01*
G37*
D02*
G36*
X1304Y136D02*
X1304Y134D01*
X1306Y134D01*
X1306Y132D01*
X1308Y132D01*
X1308Y130D01*
X1310Y130D01*
X1310Y128D01*
X1312Y128D01*
X1312Y124D01*
X1314Y124D01*
X1314Y120D01*
X1316Y120D01*
X1316Y116D01*
X1318Y116D01*
X1318Y108D01*
X1320Y108D01*
X1320Y92D01*
X1318Y92D01*
X1318Y86D01*
X1316Y86D01*
X1316Y82D01*
X1314Y82D01*
X1314Y78D01*
X1312Y78D01*
X1312Y74D01*
X1310Y74D01*
X1310Y72D01*
X1308Y72D01*
X1308Y70D01*
X1306Y70D01*
X1306Y68D01*
X1304Y68D01*
X1304Y64D01*
X1300Y64D01*
X1300Y62D01*
X1298Y62D01*
X1298Y42D01*
X1396Y42D01*
X1396Y62D01*
X1394Y62D01*
X1394Y68D01*
X1392Y68D01*
X1392Y72D01*
X1390Y72D01*
X1390Y94D01*
X1392Y94D01*
X1392Y100D01*
X1394Y100D01*
X1394Y104D01*
X1396Y104D01*
X1396Y108D01*
X1398Y108D01*
X1398Y110D01*
X1400Y110D01*
X1400Y114D01*
X1402Y114D01*
X1402Y116D01*
X1404Y116D01*
X1404Y118D01*
X1406Y118D01*
X1406Y120D01*
X1408Y120D01*
X1408Y122D01*
X1410Y122D01*
X1410Y124D01*
X1414Y124D01*
X1414Y126D01*
X1416Y126D01*
X1416Y128D01*
X1420Y128D01*
X1420Y130D01*
X1422Y130D01*
X1422Y132D01*
X1428Y132D01*
X1428Y134D01*
X1434Y134D01*
X1434Y136D01*
X1304Y136D01*
G37*
D02*
G36*
X1494Y82D02*
X1494Y80D01*
X1730Y80D01*
X1730Y82D01*
X1494Y82D01*
G37*
D02*
G36*
X1494Y82D02*
X1494Y80D01*
X1730Y80D01*
X1730Y82D01*
X1494Y82D01*
G37*
D02*
G36*
X1494Y80D02*
X1494Y72D01*
X1492Y72D01*
X1492Y66D01*
X1490Y66D01*
X1490Y62D01*
X1488Y62D01*
X1488Y42D01*
X1730Y42D01*
X1730Y80D01*
X1494Y80D01*
G37*
D02*
G36*
X790Y166D02*
X790Y146D01*
X792Y146D01*
X792Y144D01*
X796Y144D01*
X796Y142D01*
X798Y142D01*
X798Y140D01*
X800Y140D01*
X800Y138D01*
X802Y138D01*
X802Y136D01*
X804Y136D01*
X804Y134D01*
X806Y134D01*
X806Y132D01*
X828Y132D01*
X828Y134D01*
X830Y134D01*
X830Y136D01*
X832Y136D01*
X832Y138D01*
X834Y138D01*
X834Y140D01*
X836Y140D01*
X836Y142D01*
X838Y142D01*
X838Y144D01*
X842Y144D01*
X842Y146D01*
X846Y146D01*
X846Y166D01*
X790Y166D01*
G37*
D02*
G36*
X592Y94D02*
X592Y92D01*
X590Y92D01*
X590Y90D01*
X586Y90D01*
X586Y88D01*
X584Y88D01*
X584Y86D01*
X582Y86D01*
X582Y84D01*
X578Y84D01*
X578Y82D01*
X576Y82D01*
X576Y80D01*
X574Y80D01*
X574Y78D01*
X570Y78D01*
X570Y76D01*
X568Y76D01*
X568Y74D01*
X564Y74D01*
X564Y72D01*
X562Y72D01*
X562Y70D01*
X560Y70D01*
X560Y68D01*
X556Y68D01*
X556Y66D01*
X554Y66D01*
X554Y64D01*
X550Y64D01*
X550Y42D01*
X614Y42D01*
X614Y94D01*
X592Y94D01*
G37*
D02*
G54D24*
X752Y1663D02*
X824Y1663D01*
X748Y1662D02*
X827Y1662D01*
X746Y1661D02*
X830Y1661D01*
X744Y1660D02*
X832Y1660D01*
X742Y1659D02*
X833Y1659D01*
X741Y1658D02*
X835Y1658D01*
X739Y1657D02*
X836Y1657D01*
X738Y1656D02*
X837Y1656D01*
X737Y1655D02*
X838Y1655D01*
X736Y1654D02*
X839Y1654D01*
X735Y1653D02*
X782Y1653D01*
X793Y1653D02*
X840Y1653D01*
X734Y1652D02*
X779Y1652D01*
X796Y1652D02*
X841Y1652D01*
X734Y1651D02*
X777Y1651D01*
X798Y1651D02*
X842Y1651D01*
X733Y1650D02*
X776Y1650D01*
X800Y1650D02*
X842Y1650D01*
X732Y1649D02*
X774Y1649D01*
X801Y1649D02*
X843Y1649D01*
X732Y1648D02*
X773Y1648D01*
X802Y1648D02*
X844Y1648D01*
X731Y1647D02*
X772Y1647D01*
X803Y1647D02*
X844Y1647D01*
X731Y1646D02*
X771Y1646D01*
X804Y1646D02*
X845Y1646D01*
X730Y1645D02*
X771Y1645D01*
X805Y1645D02*
X845Y1645D01*
X730Y1644D02*
X770Y1644D01*
X805Y1644D02*
X845Y1644D01*
X730Y1643D02*
X770Y1643D01*
X806Y1643D02*
X846Y1643D01*
X729Y1642D02*
X769Y1642D01*
X806Y1642D02*
X846Y1642D01*
X729Y1641D02*
X769Y1641D01*
X807Y1641D02*
X846Y1641D01*
X729Y1640D02*
X768Y1640D01*
X807Y1640D02*
X846Y1640D01*
X729Y1639D02*
X768Y1639D01*
X807Y1639D02*
X847Y1639D01*
X729Y1638D02*
X768Y1638D01*
X808Y1638D02*
X847Y1638D01*
X728Y1637D02*
X768Y1637D01*
X808Y1637D02*
X847Y1637D01*
X728Y1636D02*
X767Y1636D01*
X808Y1636D02*
X847Y1636D01*
X728Y1635D02*
X767Y1635D01*
X808Y1635D02*
X847Y1635D01*
X728Y1634D02*
X767Y1634D01*
X808Y1634D02*
X847Y1634D01*
X728Y1633D02*
X767Y1633D01*
X808Y1633D02*
X847Y1633D01*
X728Y1632D02*
X767Y1632D01*
X808Y1632D02*
X847Y1632D01*
X728Y1631D02*
X767Y1631D01*
X808Y1631D02*
X847Y1631D01*
X728Y1630D02*
X768Y1630D01*
X808Y1630D02*
X847Y1630D01*
X729Y1629D02*
X768Y1629D01*
X808Y1629D02*
X847Y1629D01*
X729Y1628D02*
X768Y1628D01*
X807Y1628D02*
X847Y1628D01*
X729Y1627D02*
X768Y1627D01*
X807Y1627D02*
X846Y1627D01*
X729Y1626D02*
X769Y1626D01*
X807Y1626D02*
X846Y1626D01*
X730Y1625D02*
X769Y1625D01*
X806Y1625D02*
X846Y1625D01*
X730Y1624D02*
X770Y1624D01*
X806Y1624D02*
X845Y1624D01*
X730Y1623D02*
X770Y1623D01*
X805Y1623D02*
X845Y1623D01*
X731Y1622D02*
X771Y1622D01*
X804Y1622D02*
X845Y1622D01*
X731Y1621D02*
X772Y1621D01*
X803Y1621D02*
X844Y1621D01*
X732Y1620D02*
X773Y1620D01*
X803Y1620D02*
X844Y1620D01*
X732Y1619D02*
X774Y1619D01*
X802Y1619D02*
X843Y1619D01*
X733Y1618D02*
X775Y1618D01*
X800Y1618D02*
X843Y1618D01*
X733Y1617D02*
X776Y1617D01*
X799Y1617D02*
X842Y1617D01*
X734Y1616D02*
X778Y1616D01*
X797Y1616D02*
X841Y1616D01*
X735Y1615D02*
X781Y1615D01*
X795Y1615D02*
X841Y1615D01*
X736Y1614D02*
X785Y1614D01*
X790Y1614D02*
X840Y1614D01*
X737Y1613D02*
X839Y1613D01*
X738Y1612D02*
X838Y1612D01*
X739Y1611D02*
X837Y1611D01*
X740Y1610D02*
X835Y1610D01*
X741Y1609D02*
X834Y1609D01*
X743Y1608D02*
X832Y1608D01*
X745Y1607D02*
X831Y1607D01*
X747Y1606D02*
X828Y1606D01*
X750Y1605D02*
X826Y1605D01*
X755Y1604D02*
X821Y1604D01*
X751Y1563D02*
X824Y1563D01*
X748Y1562D02*
X827Y1562D01*
X746Y1561D02*
X830Y1561D01*
X744Y1560D02*
X832Y1560D01*
X742Y1559D02*
X833Y1559D01*
X740Y1558D02*
X835Y1558D01*
X739Y1557D02*
X836Y1557D01*
X738Y1556D02*
X837Y1556D01*
X737Y1555D02*
X838Y1555D01*
X736Y1554D02*
X839Y1554D01*
X735Y1553D02*
X782Y1553D01*
X794Y1553D02*
X840Y1553D01*
X734Y1552D02*
X779Y1552D01*
X796Y1552D02*
X841Y1552D01*
X734Y1551D02*
X777Y1551D01*
X798Y1551D02*
X842Y1551D01*
X733Y1550D02*
X776Y1550D01*
X800Y1550D02*
X842Y1550D01*
X732Y1549D02*
X774Y1549D01*
X801Y1549D02*
X843Y1549D01*
X732Y1548D02*
X773Y1548D01*
X802Y1548D02*
X844Y1548D01*
X731Y1547D02*
X772Y1547D01*
X803Y1547D02*
X844Y1547D01*
X731Y1546D02*
X771Y1546D01*
X804Y1546D02*
X845Y1546D01*
X730Y1545D02*
X771Y1545D01*
X805Y1545D02*
X845Y1545D01*
X730Y1544D02*
X770Y1544D01*
X805Y1544D02*
X845Y1544D01*
X730Y1543D02*
X770Y1543D01*
X806Y1543D02*
X846Y1543D01*
X729Y1542D02*
X769Y1542D01*
X806Y1542D02*
X846Y1542D01*
X729Y1541D02*
X769Y1541D01*
X807Y1541D02*
X846Y1541D01*
X729Y1540D02*
X768Y1540D01*
X807Y1540D02*
X847Y1540D01*
X729Y1539D02*
X768Y1539D01*
X807Y1539D02*
X847Y1539D01*
X729Y1538D02*
X768Y1538D01*
X808Y1538D02*
X847Y1538D01*
X728Y1537D02*
X768Y1537D01*
X808Y1537D02*
X847Y1537D01*
X728Y1536D02*
X767Y1536D01*
X808Y1536D02*
X847Y1536D01*
X728Y1535D02*
X767Y1535D01*
X808Y1535D02*
X847Y1535D01*
X728Y1534D02*
X767Y1534D01*
X808Y1534D02*
X847Y1534D01*
X728Y1533D02*
X767Y1533D01*
X808Y1533D02*
X847Y1533D01*
X728Y1532D02*
X767Y1532D01*
X808Y1532D02*
X847Y1532D01*
X728Y1531D02*
X767Y1531D01*
X808Y1531D02*
X847Y1531D01*
X728Y1530D02*
X768Y1530D01*
X808Y1530D02*
X847Y1530D01*
X729Y1529D02*
X768Y1529D01*
X808Y1529D02*
X847Y1529D01*
X729Y1528D02*
X768Y1528D01*
X807Y1528D02*
X847Y1528D01*
X729Y1527D02*
X768Y1527D01*
X807Y1527D02*
X846Y1527D01*
X729Y1526D02*
X769Y1526D01*
X807Y1526D02*
X846Y1526D01*
X730Y1525D02*
X769Y1525D01*
X806Y1525D02*
X846Y1525D01*
X730Y1524D02*
X770Y1524D01*
X805Y1524D02*
X845Y1524D01*
X730Y1523D02*
X770Y1523D01*
X805Y1523D02*
X845Y1523D01*
X731Y1522D02*
X771Y1522D01*
X804Y1522D02*
X845Y1522D01*
X731Y1521D02*
X772Y1521D01*
X803Y1521D02*
X844Y1521D01*
X732Y1520D02*
X773Y1520D01*
X803Y1520D02*
X844Y1520D01*
X732Y1519D02*
X774Y1519D01*
X801Y1519D02*
X843Y1519D01*
X733Y1518D02*
X775Y1518D01*
X800Y1518D02*
X843Y1518D01*
X733Y1517D02*
X776Y1517D01*
X799Y1517D02*
X842Y1517D01*
X734Y1516D02*
X778Y1516D01*
X797Y1516D02*
X841Y1516D01*
X735Y1515D02*
X781Y1515D01*
X795Y1515D02*
X840Y1515D01*
X736Y1514D02*
X786Y1514D01*
X790Y1514D02*
X840Y1514D01*
X737Y1513D02*
X839Y1513D01*
X738Y1512D02*
X838Y1512D01*
X739Y1511D02*
X837Y1511D01*
X740Y1510D02*
X835Y1510D01*
X741Y1509D02*
X834Y1509D01*
X743Y1508D02*
X832Y1508D01*
X745Y1507D02*
X831Y1507D01*
X747Y1506D02*
X828Y1506D01*
X750Y1505D02*
X825Y1505D01*
X755Y1504D02*
X820Y1504D01*
X751Y1463D02*
X824Y1463D01*
X748Y1462D02*
X827Y1462D01*
X745Y1461D02*
X830Y1461D01*
X744Y1460D02*
X832Y1460D01*
X742Y1459D02*
X833Y1459D01*
X740Y1458D02*
X835Y1458D01*
X739Y1457D02*
X836Y1457D01*
X738Y1456D02*
X837Y1456D01*
X737Y1455D02*
X838Y1455D01*
X736Y1454D02*
X839Y1454D01*
X735Y1453D02*
X782Y1453D01*
X794Y1453D02*
X840Y1453D01*
X734Y1452D02*
X779Y1452D01*
X796Y1452D02*
X841Y1452D01*
X734Y1451D02*
X777Y1451D01*
X798Y1451D02*
X842Y1451D01*
X733Y1450D02*
X775Y1450D01*
X800Y1450D02*
X842Y1450D01*
X732Y1449D02*
X774Y1449D01*
X801Y1449D02*
X843Y1449D01*
X732Y1448D02*
X773Y1448D01*
X802Y1448D02*
X844Y1448D01*
X731Y1447D02*
X772Y1447D01*
X803Y1447D02*
X844Y1447D01*
X731Y1446D02*
X771Y1446D01*
X804Y1446D02*
X845Y1446D01*
X730Y1445D02*
X771Y1445D01*
X805Y1445D02*
X845Y1445D01*
X730Y1444D02*
X770Y1444D01*
X805Y1444D02*
X845Y1444D01*
X730Y1443D02*
X769Y1443D01*
X806Y1443D02*
X846Y1443D01*
X729Y1442D02*
X769Y1442D01*
X806Y1442D02*
X846Y1442D01*
X729Y1441D02*
X769Y1441D01*
X807Y1441D02*
X846Y1441D01*
X729Y1440D02*
X768Y1440D01*
X807Y1440D02*
X847Y1440D01*
X729Y1439D02*
X768Y1439D01*
X807Y1439D02*
X847Y1439D01*
X729Y1438D02*
X768Y1438D01*
X808Y1438D02*
X847Y1438D01*
X728Y1437D02*
X768Y1437D01*
X808Y1437D02*
X847Y1437D01*
X728Y1436D02*
X767Y1436D01*
X808Y1436D02*
X847Y1436D01*
X728Y1435D02*
X767Y1435D01*
X808Y1435D02*
X847Y1435D01*
X728Y1434D02*
X767Y1434D01*
X808Y1434D02*
X847Y1434D01*
X728Y1433D02*
X767Y1433D01*
X808Y1433D02*
X847Y1433D01*
X728Y1432D02*
X767Y1432D01*
X808Y1432D02*
X847Y1432D01*
X728Y1431D02*
X767Y1431D01*
X808Y1431D02*
X847Y1431D01*
X728Y1430D02*
X768Y1430D01*
X808Y1430D02*
X847Y1430D01*
X729Y1429D02*
X768Y1429D01*
X808Y1429D02*
X847Y1429D01*
X729Y1428D02*
X768Y1428D01*
X807Y1428D02*
X847Y1428D01*
X729Y1427D02*
X768Y1427D01*
X807Y1427D02*
X846Y1427D01*
X729Y1426D02*
X769Y1426D01*
X807Y1426D02*
X846Y1426D01*
X730Y1425D02*
X769Y1425D01*
X806Y1425D02*
X846Y1425D01*
X730Y1424D02*
X770Y1424D01*
X805Y1424D02*
X845Y1424D01*
X730Y1423D02*
X770Y1423D01*
X805Y1423D02*
X845Y1423D01*
X731Y1422D02*
X771Y1422D01*
X804Y1422D02*
X845Y1422D01*
X731Y1421D02*
X772Y1421D01*
X803Y1421D02*
X844Y1421D01*
X732Y1420D02*
X773Y1420D01*
X803Y1420D02*
X844Y1420D01*
X732Y1419D02*
X774Y1419D01*
X801Y1419D02*
X843Y1419D01*
X733Y1418D02*
X775Y1418D01*
X800Y1418D02*
X843Y1418D01*
X733Y1417D02*
X776Y1417D01*
X799Y1417D02*
X842Y1417D01*
X734Y1416D02*
X778Y1416D01*
X797Y1416D02*
X841Y1416D01*
X735Y1415D02*
X781Y1415D01*
X795Y1415D02*
X840Y1415D01*
X736Y1414D02*
X786Y1414D01*
X790Y1414D02*
X840Y1414D01*
X737Y1413D02*
X839Y1413D01*
X738Y1412D02*
X838Y1412D01*
X739Y1411D02*
X837Y1411D01*
X740Y1410D02*
X835Y1410D01*
X741Y1409D02*
X834Y1409D01*
X743Y1408D02*
X832Y1408D01*
X745Y1407D02*
X830Y1407D01*
X747Y1406D02*
X828Y1406D01*
X750Y1405D02*
X825Y1405D01*
X755Y1404D02*
X820Y1404D01*
D02*
G04 End of Copper0*
M02*