; NON-PLATED HOLES START AT T1
; THROUGH (PLATED) HOLES START AT T100
M48
INCH
T1C0.125984
T2C0.130000
T100C0.035000
T101C0.032000
T102C0.031497
T103C0.015748
T104C0.038000
T105C0.040000
%
T1
X001065Y008761
X016799Y016768
X016770Y008781
T2
X013784Y015328
T100
X009674Y004005
X009166Y006817
X011371Y008566
X010674Y004005
X009222Y005309
X005666Y012327
X011674Y004005
X007722Y008105
X009185Y010141
X012674Y004005
X012166Y006817
X014816Y008778
X012816Y008778
X012222Y005309
X006638Y006142
X004638Y006142
X005666Y015327
X011185Y010141
X013350Y006533
X016350Y006533
X015966Y011101
X002803Y005849
X014966Y011101
X007674Y001005
X008674Y001005
X006674Y001005
X014420Y000829
X009371Y008566
X009674Y001005
X002803Y008849
X010674Y001005
X007674Y004005
X011674Y001005
X008674Y004005
X006674Y004005
X007722Y005105
X010371Y008566
X012674Y001005
X014420Y003829
T101
X006445Y010380
X004445Y007380
X005445Y007380
X006445Y007380
X004445Y010380
X005445Y010380
T102
X012794Y010776
X012794Y011760
T103
X009851Y002475
T104
X016337Y002360
X001310Y006785
X004950Y002605
X016337Y003360
X004950Y003605
X004950Y004605
X004950Y000605
X016337Y001360
X001310Y005785
X004950Y001605
T105
X001868Y012671
X001868Y014639
X007884Y015328
X001868Y016608
X007884Y016328
X007884Y014328
T00
M30
