G04 MADE WITH FRITZING*
G04 WWW.FRITZING.ORG*
G04 DOUBLE SIDED*
G04 HOLES PLATED*
G04 CONTOUR ON CENTER OF CONTOUR VECTOR*
%ASAXBY*%
%FSLAX23Y23*%
%MOIN*%
%OFA0B0*%
%SFA1.0B1.0*%
%ADD10C,0.075000*%
%ADD11C,0.039370*%
%ADD12C,0.063000*%
%ADD13C,0.078000*%
%ADD14C,0.062992*%
%ADD15C,0.060000*%
%ADD16C,0.080000*%
%ADD17R,0.075000X0.075000*%
%ADD18R,0.078000X0.078000*%
%ADD19R,0.062992X0.062992*%
%ADD20R,0.080000X0.080000*%
%ADD21C,0.024000*%
%ADD22C,0.032000*%
%ADD23R,0.001000X0.001000*%
%LNCOPPER1*%
G90*
G70*
G54D10*
X116Y1070D03*
X1497Y1110D03*
X1597Y1110D03*
G54D11*
X985Y248D03*
G54D10*
X667Y101D03*
X667Y401D03*
X767Y101D03*
X767Y401D03*
X867Y101D03*
X867Y401D03*
X967Y101D03*
X967Y401D03*
X1067Y101D03*
X1067Y401D03*
X1167Y101D03*
X1167Y401D03*
X1267Y101D03*
X1267Y401D03*
G54D12*
X445Y738D03*
X545Y738D03*
X645Y738D03*
X645Y1038D03*
X545Y1038D03*
X445Y1038D03*
X445Y738D03*
X545Y738D03*
X645Y738D03*
X645Y1038D03*
X545Y1038D03*
X445Y1038D03*
G54D10*
X464Y614D03*
X664Y614D03*
X919Y1014D03*
X1119Y1014D03*
G54D13*
X495Y461D03*
X495Y361D03*
X495Y261D03*
X495Y161D03*
X495Y61D03*
G54D10*
X937Y857D03*
X1037Y857D03*
X1137Y857D03*
G54D13*
X131Y679D03*
X131Y579D03*
X1634Y336D03*
X1634Y236D03*
X1634Y136D03*
G54D10*
X772Y511D03*
X772Y811D03*
X922Y531D03*
X1222Y531D03*
X567Y1233D03*
X567Y1533D03*
X1335Y653D03*
X1635Y653D03*
X1442Y83D03*
X1442Y383D03*
X917Y682D03*
X1217Y682D03*
G54D14*
X1279Y1078D03*
X1279Y1176D03*
G54D10*
X1282Y878D03*
X1482Y878D03*
G54D15*
X788Y1633D03*
X788Y1533D03*
X788Y1433D03*
X788Y1633D03*
X788Y1533D03*
X788Y1433D03*
G54D16*
X187Y1661D03*
X187Y1464D03*
X187Y1267D03*
G54D10*
X280Y585D03*
X280Y885D03*
G54D17*
X1497Y1110D03*
X667Y101D03*
G54D18*
X495Y461D03*
X131Y679D03*
X1634Y336D03*
G54D19*
X1279Y1078D03*
G54D20*
X187Y1661D03*
G54D21*
X394Y542D02*
X559Y536D01*
D02*
X559Y536D02*
X596Y475D01*
D02*
X596Y475D02*
X589Y364D01*
D02*
X589Y364D02*
X648Y253D01*
D02*
X648Y253D02*
X966Y248D01*
D02*
X307Y575D02*
X394Y542D01*
D02*
X1196Y401D02*
X1239Y401D01*
D02*
X664Y586D02*
X667Y429D01*
D02*
X1122Y986D02*
X1134Y885D01*
D02*
X593Y879D02*
X689Y938D01*
D02*
X689Y938D02*
X1004Y931D01*
D02*
X1004Y931D02*
X1025Y883D01*
D02*
X309Y884D02*
X593Y879D01*
D02*
X1280Y1051D02*
X1281Y906D01*
G54D22*
D02*
X549Y1204D02*
X462Y1066D01*
D02*
X752Y1533D02*
X601Y1533D01*
G54D21*
D02*
X1635Y625D02*
X1634Y366D01*
D02*
X1302Y190D02*
X1020Y192D01*
D02*
X1020Y192D02*
X982Y125D01*
D02*
X1419Y100D02*
X1302Y190D01*
D02*
X1205Y708D02*
X1149Y831D01*
D02*
X828Y883D02*
X905Y708D01*
D02*
X707Y885D02*
X828Y883D01*
D02*
X565Y756D02*
X707Y885D01*
D02*
X1486Y535D02*
X1378Y457D01*
D02*
X1320Y303D02*
X1037Y301D01*
D02*
X1378Y457D02*
X1320Y303D01*
D02*
X1037Y301D02*
X984Y377D01*
D02*
X1482Y849D02*
X1486Y535D01*
D02*
X1502Y197D02*
X1606Y149D01*
D02*
X1451Y356D02*
X1502Y197D01*
D02*
X1232Y504D02*
X1258Y428D01*
D02*
X846Y646D02*
X906Y555D01*
D02*
X784Y784D02*
X846Y646D01*
G54D22*
D02*
X1037Y694D02*
X1052Y575D01*
D02*
X1052Y575D02*
X1004Y479D01*
D02*
X1004Y479D02*
X982Y432D01*
D02*
X955Y828D02*
X1037Y694D01*
G54D21*
D02*
X407Y824D02*
X515Y824D01*
D02*
X304Y794D02*
X378Y794D01*
D02*
X378Y794D02*
X407Y824D01*
D02*
X515Y824D02*
X536Y764D01*
D02*
X156Y695D02*
X304Y794D01*
G36*
X322Y858D02*
X322Y856D01*
X320Y856D01*
X320Y852D01*
X318Y852D01*
X318Y850D01*
X316Y850D01*
X316Y848D01*
X314Y848D01*
X314Y846D01*
X310Y846D01*
X310Y844D01*
X308Y844D01*
X308Y842D01*
X306Y842D01*
X306Y822D01*
X368Y822D01*
X368Y824D01*
X370Y824D01*
X370Y826D01*
X372Y826D01*
X372Y828D01*
X374Y828D01*
X374Y830D01*
X376Y830D01*
X376Y832D01*
X378Y832D01*
X378Y834D01*
X380Y834D01*
X380Y836D01*
X382Y836D01*
X382Y856D01*
X348Y856D01*
X348Y858D01*
X322Y858D01*
G37*
D02*
G36*
X610Y860D02*
X610Y858D01*
X608Y858D01*
X608Y856D01*
X604Y856D01*
X604Y854D01*
X598Y854D01*
X598Y852D01*
X632Y852D01*
X632Y860D01*
X610Y860D01*
G37*
D02*
G36*
X540Y854D02*
X540Y852D01*
X562Y852D01*
X562Y854D01*
X540Y854D01*
G37*
D02*
G36*
X540Y852D02*
X540Y850D01*
X630Y850D01*
X630Y852D01*
X540Y852D01*
G37*
D02*
G36*
X540Y852D02*
X540Y850D01*
X630Y850D01*
X630Y852D01*
X540Y852D01*
G37*
D02*
G36*
X540Y850D02*
X540Y830D01*
X542Y830D01*
X542Y824D01*
X544Y824D01*
X544Y820D01*
X546Y820D01*
X546Y814D01*
X548Y814D01*
X548Y808D01*
X550Y808D01*
X550Y802D01*
X552Y802D01*
X552Y798D01*
X572Y798D01*
X572Y800D01*
X574Y800D01*
X574Y802D01*
X576Y802D01*
X576Y804D01*
X578Y804D01*
X578Y806D01*
X580Y806D01*
X580Y808D01*
X582Y808D01*
X582Y810D01*
X584Y810D01*
X584Y812D01*
X586Y812D01*
X586Y814D01*
X590Y814D01*
X590Y816D01*
X592Y816D01*
X592Y818D01*
X594Y818D01*
X594Y820D01*
X596Y820D01*
X596Y822D01*
X598Y822D01*
X598Y824D01*
X600Y824D01*
X600Y826D01*
X602Y826D01*
X602Y828D01*
X604Y828D01*
X604Y830D01*
X606Y830D01*
X606Y832D01*
X610Y832D01*
X610Y834D01*
X612Y834D01*
X612Y836D01*
X614Y836D01*
X614Y838D01*
X616Y838D01*
X616Y840D01*
X618Y840D01*
X618Y842D01*
X620Y842D01*
X620Y844D01*
X622Y844D01*
X622Y846D01*
X624Y846D01*
X624Y848D01*
X628Y848D01*
X628Y850D01*
X540Y850D01*
G37*
D02*
G36*
X886Y818D02*
X886Y816D01*
X888Y816D01*
X888Y812D01*
X890Y812D01*
X890Y806D01*
X892Y806D01*
X892Y802D01*
X894Y802D01*
X894Y798D01*
X896Y798D01*
X896Y794D01*
X898Y794D01*
X898Y788D01*
X900Y788D01*
X900Y784D01*
X902Y784D01*
X902Y780D01*
X904Y780D01*
X904Y776D01*
X906Y776D01*
X906Y770D01*
X908Y770D01*
X908Y766D01*
X910Y766D01*
X910Y762D01*
X912Y762D01*
X912Y758D01*
X914Y758D01*
X914Y752D01*
X916Y752D01*
X916Y748D01*
X918Y748D01*
X918Y744D01*
X920Y744D01*
X920Y740D01*
X922Y740D01*
X922Y734D01*
X928Y734D01*
X928Y732D01*
X934Y732D01*
X934Y730D01*
X938Y730D01*
X938Y728D01*
X940Y728D01*
X940Y726D01*
X944Y726D01*
X944Y724D01*
X946Y724D01*
X946Y722D01*
X948Y722D01*
X948Y720D01*
X952Y720D01*
X952Y718D01*
X954Y718D01*
X954Y714D01*
X956Y714D01*
X956Y712D01*
X958Y712D01*
X958Y710D01*
X960Y710D01*
X960Y708D01*
X962Y708D01*
X962Y704D01*
X964Y704D01*
X964Y700D01*
X966Y700D01*
X966Y694D01*
X968Y694D01*
X968Y684D01*
X970Y684D01*
X970Y680D01*
X968Y680D01*
X968Y670D01*
X966Y670D01*
X966Y664D01*
X964Y664D01*
X964Y660D01*
X962Y660D01*
X962Y658D01*
X960Y658D01*
X960Y654D01*
X958Y654D01*
X958Y652D01*
X956Y652D01*
X956Y650D01*
X954Y650D01*
X954Y646D01*
X950Y646D01*
X950Y644D01*
X948Y644D01*
X948Y642D01*
X946Y642D01*
X946Y640D01*
X944Y640D01*
X944Y638D01*
X940Y638D01*
X940Y636D01*
X936Y636D01*
X936Y634D01*
X932Y634D01*
X932Y632D01*
X926Y632D01*
X926Y630D01*
X900Y630D01*
X900Y612D01*
X902Y612D01*
X902Y610D01*
X904Y610D01*
X904Y606D01*
X906Y606D01*
X906Y604D01*
X908Y604D01*
X908Y600D01*
X910Y600D01*
X910Y598D01*
X912Y598D01*
X912Y594D01*
X914Y594D01*
X914Y592D01*
X916Y592D01*
X916Y588D01*
X918Y588D01*
X918Y586D01*
X920Y586D01*
X920Y584D01*
X930Y584D01*
X930Y582D01*
X936Y582D01*
X936Y580D01*
X942Y580D01*
X942Y578D01*
X944Y578D01*
X944Y576D01*
X948Y576D01*
X948Y574D01*
X952Y574D01*
X952Y572D01*
X954Y572D01*
X954Y570D01*
X956Y570D01*
X956Y568D01*
X958Y568D01*
X958Y566D01*
X960Y566D01*
X960Y564D01*
X962Y564D01*
X962Y562D01*
X964Y562D01*
X964Y558D01*
X966Y558D01*
X966Y556D01*
X968Y556D01*
X968Y552D01*
X970Y552D01*
X970Y548D01*
X972Y548D01*
X972Y542D01*
X974Y542D01*
X974Y528D01*
X994Y528D01*
X994Y532D01*
X996Y532D01*
X996Y536D01*
X998Y536D01*
X998Y540D01*
X1000Y540D01*
X1000Y544D01*
X1002Y544D01*
X1002Y548D01*
X1004Y548D01*
X1004Y552D01*
X1006Y552D01*
X1006Y556D01*
X1008Y556D01*
X1008Y560D01*
X1010Y560D01*
X1010Y564D01*
X1012Y564D01*
X1012Y568D01*
X1014Y568D01*
X1014Y572D01*
X1016Y572D01*
X1016Y576D01*
X1018Y576D01*
X1018Y604D01*
X1016Y604D01*
X1016Y620D01*
X1014Y620D01*
X1014Y636D01*
X1012Y636D01*
X1012Y652D01*
X1010Y652D01*
X1010Y668D01*
X1008Y668D01*
X1008Y684D01*
X1006Y684D01*
X1006Y688D01*
X1004Y688D01*
X1004Y690D01*
X1002Y690D01*
X1002Y694D01*
X1000Y694D01*
X1000Y696D01*
X998Y696D01*
X998Y700D01*
X996Y700D01*
X996Y704D01*
X994Y704D01*
X994Y706D01*
X992Y706D01*
X992Y710D01*
X990Y710D01*
X990Y714D01*
X988Y714D01*
X988Y716D01*
X986Y716D01*
X986Y720D01*
X984Y720D01*
X984Y722D01*
X982Y722D01*
X982Y726D01*
X980Y726D01*
X980Y730D01*
X978Y730D01*
X978Y732D01*
X976Y732D01*
X976Y736D01*
X974Y736D01*
X974Y740D01*
X972Y740D01*
X972Y742D01*
X970Y742D01*
X970Y746D01*
X968Y746D01*
X968Y750D01*
X966Y750D01*
X966Y752D01*
X964Y752D01*
X964Y756D01*
X962Y756D01*
X962Y758D01*
X960Y758D01*
X960Y762D01*
X958Y762D01*
X958Y766D01*
X956Y766D01*
X956Y768D01*
X954Y768D01*
X954Y772D01*
X952Y772D01*
X952Y776D01*
X950Y776D01*
X950Y778D01*
X948Y778D01*
X948Y782D01*
X946Y782D01*
X946Y784D01*
X944Y784D01*
X944Y788D01*
X942Y788D01*
X942Y792D01*
X940Y792D01*
X940Y794D01*
X938Y794D01*
X938Y798D01*
X936Y798D01*
X936Y802D01*
X934Y802D01*
X934Y804D01*
X932Y804D01*
X932Y806D01*
X924Y806D01*
X924Y808D01*
X918Y808D01*
X918Y810D01*
X914Y810D01*
X914Y812D01*
X912Y812D01*
X912Y814D01*
X908Y814D01*
X908Y816D01*
X906Y816D01*
X906Y818D01*
X886Y818D01*
G37*
D02*
G36*
X820Y790D02*
X820Y768D01*
X822Y768D01*
X822Y764D01*
X824Y764D01*
X824Y760D01*
X826Y760D01*
X826Y754D01*
X828Y754D01*
X828Y750D01*
X830Y750D01*
X830Y746D01*
X832Y746D01*
X832Y742D01*
X834Y742D01*
X834Y738D01*
X836Y738D01*
X836Y732D01*
X838Y732D01*
X838Y728D01*
X840Y728D01*
X840Y724D01*
X842Y724D01*
X842Y720D01*
X844Y720D01*
X844Y714D01*
X846Y714D01*
X846Y710D01*
X848Y710D01*
X848Y706D01*
X850Y706D01*
X850Y702D01*
X870Y702D01*
X870Y724D01*
X868Y724D01*
X868Y728D01*
X866Y728D01*
X866Y732D01*
X864Y732D01*
X864Y736D01*
X862Y736D01*
X862Y742D01*
X860Y742D01*
X860Y746D01*
X858Y746D01*
X858Y750D01*
X856Y750D01*
X856Y754D01*
X854Y754D01*
X854Y760D01*
X852Y760D01*
X852Y764D01*
X850Y764D01*
X850Y768D01*
X848Y768D01*
X848Y772D01*
X846Y772D01*
X846Y778D01*
X844Y778D01*
X844Y782D01*
X842Y782D01*
X842Y786D01*
X840Y786D01*
X840Y790D01*
X820Y790D01*
G37*
D02*
G36*
X1106Y370D02*
X1106Y368D01*
X1104Y368D01*
X1104Y364D01*
X1100Y364D01*
X1100Y362D01*
X1098Y362D01*
X1098Y360D01*
X1096Y360D01*
X1096Y358D01*
X1094Y358D01*
X1094Y356D01*
X1090Y356D01*
X1090Y354D01*
X1086Y354D01*
X1086Y352D01*
X1082Y352D01*
X1082Y350D01*
X1074Y350D01*
X1074Y348D01*
X1046Y348D01*
X1046Y334D01*
X1048Y334D01*
X1048Y332D01*
X1050Y332D01*
X1050Y328D01*
X1088Y328D01*
X1088Y330D01*
X1162Y330D01*
X1162Y350D01*
X1154Y350D01*
X1154Y352D01*
X1148Y352D01*
X1148Y354D01*
X1146Y354D01*
X1146Y356D01*
X1142Y356D01*
X1142Y358D01*
X1138Y358D01*
X1138Y360D01*
X1136Y360D01*
X1136Y362D01*
X1134Y362D01*
X1134Y364D01*
X1132Y364D01*
X1132Y366D01*
X1130Y366D01*
X1130Y368D01*
X1128Y368D01*
X1128Y370D01*
X1106Y370D01*
G37*
D02*
G36*
X1206Y370D02*
X1206Y368D01*
X1204Y368D01*
X1204Y364D01*
X1200Y364D01*
X1200Y362D01*
X1198Y362D01*
X1198Y360D01*
X1196Y360D01*
X1196Y358D01*
X1194Y358D01*
X1194Y356D01*
X1190Y356D01*
X1190Y354D01*
X1186Y354D01*
X1186Y352D01*
X1182Y352D01*
X1182Y350D01*
X1174Y350D01*
X1174Y330D01*
X1262Y330D01*
X1262Y350D01*
X1254Y350D01*
X1254Y352D01*
X1248Y352D01*
X1248Y354D01*
X1246Y354D01*
X1246Y356D01*
X1242Y356D01*
X1242Y358D01*
X1238Y358D01*
X1238Y360D01*
X1236Y360D01*
X1236Y362D01*
X1234Y362D01*
X1234Y364D01*
X1232Y364D01*
X1232Y366D01*
X1230Y366D01*
X1230Y368D01*
X1228Y368D01*
X1228Y370D01*
X1206Y370D01*
G37*
D02*
G36*
X40Y1128D02*
X40Y992D01*
X436Y992D01*
X436Y994D01*
X430Y994D01*
X430Y996D01*
X426Y996D01*
X426Y998D01*
X422Y998D01*
X422Y1000D01*
X420Y1000D01*
X420Y1002D01*
X418Y1002D01*
X418Y1004D01*
X414Y1004D01*
X414Y1006D01*
X412Y1006D01*
X412Y1008D01*
X410Y1008D01*
X410Y1012D01*
X408Y1012D01*
X408Y1014D01*
X406Y1014D01*
X406Y1016D01*
X404Y1016D01*
X404Y1020D01*
X402Y1020D01*
X402Y1024D01*
X400Y1024D01*
X400Y1030D01*
X398Y1030D01*
X398Y1046D01*
X400Y1046D01*
X400Y1052D01*
X402Y1052D01*
X402Y1056D01*
X404Y1056D01*
X404Y1060D01*
X406Y1060D01*
X406Y1064D01*
X408Y1064D01*
X408Y1066D01*
X410Y1066D01*
X410Y1068D01*
X412Y1068D01*
X412Y1070D01*
X414Y1070D01*
X414Y1072D01*
X416Y1072D01*
X416Y1074D01*
X418Y1074D01*
X418Y1076D01*
X422Y1076D01*
X422Y1078D01*
X424Y1078D01*
X424Y1080D01*
X428Y1080D01*
X428Y1082D01*
X434Y1082D01*
X434Y1084D01*
X438Y1084D01*
X438Y1088D01*
X440Y1088D01*
X440Y1092D01*
X442Y1092D01*
X442Y1094D01*
X444Y1094D01*
X444Y1098D01*
X446Y1098D01*
X446Y1100D01*
X448Y1100D01*
X448Y1104D01*
X450Y1104D01*
X450Y1108D01*
X452Y1108D01*
X452Y1128D01*
X40Y1128D01*
G37*
D02*
G36*
X536Y1128D02*
X536Y1124D01*
X534Y1124D01*
X534Y1122D01*
X532Y1122D01*
X532Y1118D01*
X530Y1118D01*
X530Y1114D01*
X528Y1114D01*
X528Y1112D01*
X526Y1112D01*
X526Y1108D01*
X524Y1108D01*
X524Y1106D01*
X522Y1106D01*
X522Y1102D01*
X520Y1102D01*
X520Y1098D01*
X518Y1098D01*
X518Y1096D01*
X516Y1096D01*
X516Y1092D01*
X514Y1092D01*
X514Y1090D01*
X512Y1090D01*
X512Y1084D01*
X656Y1084D01*
X656Y1082D01*
X660Y1082D01*
X660Y1080D01*
X664Y1080D01*
X664Y1078D01*
X668Y1078D01*
X668Y1076D01*
X670Y1076D01*
X670Y1074D01*
X672Y1074D01*
X672Y1072D01*
X676Y1072D01*
X676Y1070D01*
X678Y1070D01*
X678Y1068D01*
X1120Y1068D01*
X1120Y1066D01*
X1130Y1066D01*
X1130Y1064D01*
X1136Y1064D01*
X1136Y1062D01*
X1140Y1062D01*
X1140Y1060D01*
X1144Y1060D01*
X1144Y1058D01*
X1146Y1058D01*
X1146Y1056D01*
X1148Y1056D01*
X1148Y1054D01*
X1152Y1054D01*
X1152Y1052D01*
X1154Y1052D01*
X1154Y1050D01*
X1156Y1050D01*
X1156Y1048D01*
X1158Y1048D01*
X1158Y1044D01*
X1160Y1044D01*
X1160Y1042D01*
X1162Y1042D01*
X1162Y1040D01*
X1164Y1040D01*
X1164Y1036D01*
X1166Y1036D01*
X1166Y1032D01*
X1168Y1032D01*
X1168Y1026D01*
X1170Y1026D01*
X1170Y1002D01*
X1168Y1002D01*
X1168Y996D01*
X1166Y996D01*
X1166Y994D01*
X1164Y994D01*
X1164Y990D01*
X1162Y990D01*
X1162Y986D01*
X1160Y986D01*
X1160Y984D01*
X1158Y984D01*
X1158Y982D01*
X1156Y982D01*
X1156Y980D01*
X1154Y980D01*
X1154Y978D01*
X1152Y978D01*
X1152Y952D01*
X1154Y952D01*
X1154Y936D01*
X1156Y936D01*
X1156Y918D01*
X1158Y918D01*
X1158Y904D01*
X1160Y904D01*
X1160Y902D01*
X1162Y902D01*
X1162Y900D01*
X1166Y900D01*
X1166Y898D01*
X1168Y898D01*
X1168Y896D01*
X1170Y896D01*
X1170Y894D01*
X1172Y894D01*
X1172Y892D01*
X1174Y892D01*
X1174Y890D01*
X1176Y890D01*
X1176Y888D01*
X1178Y888D01*
X1178Y886D01*
X1180Y886D01*
X1180Y882D01*
X1182Y882D01*
X1182Y880D01*
X1184Y880D01*
X1184Y876D01*
X1186Y876D01*
X1186Y872D01*
X1188Y872D01*
X1188Y864D01*
X1190Y864D01*
X1190Y850D01*
X1188Y850D01*
X1188Y842D01*
X1186Y842D01*
X1186Y838D01*
X1184Y838D01*
X1184Y826D01*
X1272Y826D01*
X1272Y828D01*
X1266Y828D01*
X1266Y830D01*
X1262Y830D01*
X1262Y832D01*
X1258Y832D01*
X1258Y834D01*
X1254Y834D01*
X1254Y836D01*
X1252Y836D01*
X1252Y838D01*
X1250Y838D01*
X1250Y840D01*
X1248Y840D01*
X1248Y842D01*
X1246Y842D01*
X1246Y844D01*
X1244Y844D01*
X1244Y846D01*
X1242Y846D01*
X1242Y848D01*
X1240Y848D01*
X1240Y850D01*
X1238Y850D01*
X1238Y854D01*
X1236Y854D01*
X1236Y858D01*
X1234Y858D01*
X1234Y862D01*
X1232Y862D01*
X1232Y866D01*
X1230Y866D01*
X1230Y890D01*
X1232Y890D01*
X1232Y896D01*
X1234Y896D01*
X1234Y900D01*
X1236Y900D01*
X1236Y902D01*
X1238Y902D01*
X1238Y906D01*
X1240Y906D01*
X1240Y908D01*
X1242Y908D01*
X1242Y910D01*
X1244Y910D01*
X1244Y914D01*
X1246Y914D01*
X1246Y916D01*
X1250Y916D01*
X1250Y918D01*
X1252Y918D01*
X1252Y920D01*
X1254Y920D01*
X1254Y1028D01*
X1252Y1028D01*
X1252Y1032D01*
X1232Y1032D01*
X1232Y1128D01*
X536Y1128D01*
G37*
D02*
G36*
X1326Y1128D02*
X1326Y1058D01*
X1444Y1058D01*
X1444Y1128D01*
X1326Y1128D01*
G37*
D02*
G36*
X1650Y1128D02*
X1650Y1108D01*
X1648Y1108D01*
X1648Y1098D01*
X1646Y1098D01*
X1646Y1092D01*
X1644Y1092D01*
X1644Y1088D01*
X1642Y1088D01*
X1642Y1086D01*
X1640Y1086D01*
X1640Y1082D01*
X1638Y1082D01*
X1638Y1080D01*
X1636Y1080D01*
X1636Y1078D01*
X1634Y1078D01*
X1634Y1076D01*
X1632Y1076D01*
X1632Y1074D01*
X1630Y1074D01*
X1630Y1072D01*
X1628Y1072D01*
X1628Y1070D01*
X1626Y1070D01*
X1626Y1068D01*
X1622Y1068D01*
X1622Y1066D01*
X1620Y1066D01*
X1620Y1064D01*
X1616Y1064D01*
X1616Y1062D01*
X1612Y1062D01*
X1612Y1060D01*
X1604Y1060D01*
X1604Y1058D01*
X1730Y1058D01*
X1730Y1128D01*
X1650Y1128D01*
G37*
D02*
G36*
X512Y1084D02*
X512Y1082D01*
X534Y1082D01*
X534Y1084D01*
X512Y1084D01*
G37*
D02*
G36*
X556Y1084D02*
X556Y1082D01*
X560Y1082D01*
X560Y1080D01*
X564Y1080D01*
X564Y1078D01*
X568Y1078D01*
X568Y1076D01*
X570Y1076D01*
X570Y1074D01*
X572Y1074D01*
X572Y1072D01*
X576Y1072D01*
X576Y1070D01*
X578Y1070D01*
X578Y1066D01*
X580Y1066D01*
X580Y1064D01*
X582Y1064D01*
X582Y1062D01*
X584Y1062D01*
X584Y1058D01*
X604Y1058D01*
X604Y1060D01*
X606Y1060D01*
X606Y1064D01*
X608Y1064D01*
X608Y1066D01*
X610Y1066D01*
X610Y1068D01*
X612Y1068D01*
X612Y1070D01*
X614Y1070D01*
X614Y1072D01*
X616Y1072D01*
X616Y1074D01*
X618Y1074D01*
X618Y1076D01*
X622Y1076D01*
X622Y1078D01*
X624Y1078D01*
X624Y1080D01*
X628Y1080D01*
X628Y1082D01*
X634Y1082D01*
X634Y1084D01*
X556Y1084D01*
G37*
D02*
G36*
X678Y1068D02*
X678Y1066D01*
X680Y1066D01*
X680Y1064D01*
X682Y1064D01*
X682Y1062D01*
X684Y1062D01*
X684Y1058D01*
X686Y1058D01*
X686Y1054D01*
X688Y1054D01*
X688Y1050D01*
X690Y1050D01*
X690Y1028D01*
X688Y1028D01*
X688Y1022D01*
X686Y1022D01*
X686Y1018D01*
X684Y1018D01*
X684Y1016D01*
X682Y1016D01*
X682Y1012D01*
X680Y1012D01*
X680Y1010D01*
X678Y1010D01*
X678Y1008D01*
X676Y1008D01*
X676Y1006D01*
X674Y1006D01*
X674Y1004D01*
X672Y1004D01*
X672Y1002D01*
X670Y1002D01*
X670Y1000D01*
X666Y1000D01*
X666Y998D01*
X662Y998D01*
X662Y996D01*
X658Y996D01*
X658Y994D01*
X652Y994D01*
X652Y992D01*
X872Y992D01*
X872Y994D01*
X870Y994D01*
X870Y1000D01*
X868Y1000D01*
X868Y1006D01*
X866Y1006D01*
X866Y1024D01*
X868Y1024D01*
X868Y1030D01*
X870Y1030D01*
X870Y1034D01*
X872Y1034D01*
X872Y1038D01*
X874Y1038D01*
X874Y1040D01*
X876Y1040D01*
X876Y1044D01*
X878Y1044D01*
X878Y1046D01*
X880Y1046D01*
X880Y1048D01*
X882Y1048D01*
X882Y1050D01*
X884Y1050D01*
X884Y1052D01*
X886Y1052D01*
X886Y1054D01*
X888Y1054D01*
X888Y1056D01*
X890Y1056D01*
X890Y1058D01*
X894Y1058D01*
X894Y1060D01*
X898Y1060D01*
X898Y1062D01*
X900Y1062D01*
X900Y1064D01*
X906Y1064D01*
X906Y1066D01*
X918Y1066D01*
X918Y1068D01*
X678Y1068D01*
G37*
D02*
G36*
X920Y1068D02*
X920Y1066D01*
X930Y1066D01*
X930Y1064D01*
X936Y1064D01*
X936Y1062D01*
X940Y1062D01*
X940Y1060D01*
X944Y1060D01*
X944Y1058D01*
X946Y1058D01*
X946Y1056D01*
X948Y1056D01*
X948Y1054D01*
X952Y1054D01*
X952Y1052D01*
X954Y1052D01*
X954Y1050D01*
X956Y1050D01*
X956Y1048D01*
X958Y1048D01*
X958Y1044D01*
X960Y1044D01*
X960Y1042D01*
X962Y1042D01*
X962Y1040D01*
X964Y1040D01*
X964Y1036D01*
X966Y1036D01*
X966Y1032D01*
X968Y1032D01*
X968Y1026D01*
X970Y1026D01*
X970Y1002D01*
X968Y1002D01*
X968Y996D01*
X966Y996D01*
X966Y994D01*
X964Y994D01*
X964Y990D01*
X962Y990D01*
X962Y986D01*
X960Y986D01*
X960Y984D01*
X958Y984D01*
X958Y982D01*
X956Y982D01*
X956Y980D01*
X954Y980D01*
X954Y960D01*
X972Y960D01*
X972Y958D01*
X1012Y958D01*
X1012Y956D01*
X1016Y956D01*
X1016Y954D01*
X1020Y954D01*
X1020Y952D01*
X1022Y952D01*
X1022Y950D01*
X1024Y950D01*
X1024Y948D01*
X1026Y948D01*
X1026Y944D01*
X1028Y944D01*
X1028Y940D01*
X1030Y940D01*
X1030Y936D01*
X1032Y936D01*
X1032Y932D01*
X1034Y932D01*
X1034Y928D01*
X1036Y928D01*
X1036Y924D01*
X1038Y924D01*
X1038Y918D01*
X1040Y918D01*
X1040Y914D01*
X1042Y914D01*
X1042Y910D01*
X1044Y910D01*
X1044Y908D01*
X1050Y908D01*
X1050Y906D01*
X1056Y906D01*
X1056Y904D01*
X1060Y904D01*
X1060Y902D01*
X1062Y902D01*
X1062Y900D01*
X1066Y900D01*
X1066Y898D01*
X1068Y898D01*
X1068Y896D01*
X1070Y896D01*
X1070Y894D01*
X1072Y894D01*
X1072Y892D01*
X1074Y892D01*
X1074Y890D01*
X1076Y890D01*
X1076Y888D01*
X1098Y888D01*
X1098Y890D01*
X1100Y890D01*
X1100Y892D01*
X1102Y892D01*
X1102Y894D01*
X1104Y894D01*
X1104Y916D01*
X1102Y916D01*
X1102Y932D01*
X1100Y932D01*
X1100Y950D01*
X1098Y950D01*
X1098Y966D01*
X1096Y966D01*
X1096Y970D01*
X1092Y970D01*
X1092Y972D01*
X1090Y972D01*
X1090Y974D01*
X1088Y974D01*
X1088Y976D01*
X1084Y976D01*
X1084Y978D01*
X1082Y978D01*
X1082Y980D01*
X1080Y980D01*
X1080Y984D01*
X1078Y984D01*
X1078Y986D01*
X1076Y986D01*
X1076Y988D01*
X1074Y988D01*
X1074Y992D01*
X1072Y992D01*
X1072Y994D01*
X1070Y994D01*
X1070Y1000D01*
X1068Y1000D01*
X1068Y1006D01*
X1066Y1006D01*
X1066Y1024D01*
X1068Y1024D01*
X1068Y1030D01*
X1070Y1030D01*
X1070Y1034D01*
X1072Y1034D01*
X1072Y1038D01*
X1074Y1038D01*
X1074Y1040D01*
X1076Y1040D01*
X1076Y1044D01*
X1078Y1044D01*
X1078Y1046D01*
X1080Y1046D01*
X1080Y1048D01*
X1082Y1048D01*
X1082Y1050D01*
X1084Y1050D01*
X1084Y1052D01*
X1086Y1052D01*
X1086Y1054D01*
X1088Y1054D01*
X1088Y1056D01*
X1090Y1056D01*
X1090Y1058D01*
X1094Y1058D01*
X1094Y1060D01*
X1098Y1060D01*
X1098Y1062D01*
X1100Y1062D01*
X1100Y1064D01*
X1106Y1064D01*
X1106Y1066D01*
X1118Y1066D01*
X1118Y1068D01*
X920Y1068D01*
G37*
D02*
G36*
X1550Y1068D02*
X1550Y1058D01*
X1588Y1058D01*
X1588Y1060D01*
X1582Y1060D01*
X1582Y1062D01*
X1578Y1062D01*
X1578Y1064D01*
X1574Y1064D01*
X1574Y1066D01*
X1570Y1066D01*
X1570Y1068D01*
X1550Y1068D01*
G37*
D02*
G36*
X1326Y1058D02*
X1326Y1056D01*
X1730Y1056D01*
X1730Y1058D01*
X1326Y1058D01*
G37*
D02*
G36*
X1326Y1058D02*
X1326Y1056D01*
X1730Y1056D01*
X1730Y1058D01*
X1326Y1058D01*
G37*
D02*
G36*
X1326Y1058D02*
X1326Y1056D01*
X1730Y1056D01*
X1730Y1058D01*
X1326Y1058D01*
G37*
D02*
G36*
X1326Y1056D02*
X1326Y1032D01*
X1308Y1032D01*
X1308Y956D01*
X1692Y956D01*
X1692Y954D01*
X1698Y954D01*
X1698Y952D01*
X1704Y952D01*
X1704Y950D01*
X1708Y950D01*
X1708Y948D01*
X1730Y948D01*
X1730Y1056D01*
X1326Y1056D01*
G37*
D02*
G36*
X484Y1018D02*
X484Y1016D01*
X482Y1016D01*
X482Y1012D01*
X480Y1012D01*
X480Y1010D01*
X478Y1010D01*
X478Y1008D01*
X476Y1008D01*
X476Y1006D01*
X474Y1006D01*
X474Y1004D01*
X472Y1004D01*
X472Y1002D01*
X470Y1002D01*
X470Y1000D01*
X466Y1000D01*
X466Y998D01*
X462Y998D01*
X462Y996D01*
X458Y996D01*
X458Y994D01*
X452Y994D01*
X452Y992D01*
X536Y992D01*
X536Y994D01*
X530Y994D01*
X530Y996D01*
X526Y996D01*
X526Y998D01*
X522Y998D01*
X522Y1000D01*
X520Y1000D01*
X520Y1002D01*
X518Y1002D01*
X518Y1004D01*
X514Y1004D01*
X514Y1006D01*
X512Y1006D01*
X512Y1008D01*
X510Y1008D01*
X510Y1012D01*
X508Y1012D01*
X508Y1014D01*
X506Y1014D01*
X506Y1016D01*
X504Y1016D01*
X504Y1018D01*
X484Y1018D01*
G37*
D02*
G36*
X584Y1018D02*
X584Y1016D01*
X582Y1016D01*
X582Y1012D01*
X580Y1012D01*
X580Y1010D01*
X578Y1010D01*
X578Y1008D01*
X576Y1008D01*
X576Y1006D01*
X574Y1006D01*
X574Y1004D01*
X572Y1004D01*
X572Y1002D01*
X570Y1002D01*
X570Y1000D01*
X566Y1000D01*
X566Y998D01*
X562Y998D01*
X562Y996D01*
X558Y996D01*
X558Y994D01*
X552Y994D01*
X552Y992D01*
X636Y992D01*
X636Y994D01*
X630Y994D01*
X630Y996D01*
X626Y996D01*
X626Y998D01*
X622Y998D01*
X622Y1000D01*
X620Y1000D01*
X620Y1002D01*
X618Y1002D01*
X618Y1004D01*
X614Y1004D01*
X614Y1006D01*
X612Y1006D01*
X612Y1008D01*
X610Y1008D01*
X610Y1012D01*
X608Y1012D01*
X608Y1014D01*
X606Y1014D01*
X606Y1016D01*
X604Y1016D01*
X604Y1018D01*
X584Y1018D01*
G37*
D02*
G36*
X40Y992D02*
X40Y990D01*
X874Y990D01*
X874Y992D01*
X40Y992D01*
G37*
D02*
G36*
X40Y992D02*
X40Y990D01*
X874Y990D01*
X874Y992D01*
X40Y992D01*
G37*
D02*
G36*
X40Y992D02*
X40Y990D01*
X874Y990D01*
X874Y992D01*
X40Y992D01*
G37*
D02*
G36*
X40Y992D02*
X40Y990D01*
X874Y990D01*
X874Y992D01*
X40Y992D01*
G37*
D02*
G36*
X40Y990D02*
X40Y966D01*
X718Y966D01*
X718Y964D01*
X804Y964D01*
X804Y962D01*
X880Y962D01*
X880Y984D01*
X878Y984D01*
X878Y986D01*
X876Y986D01*
X876Y988D01*
X874Y988D01*
X874Y990D01*
X40Y990D01*
G37*
D02*
G36*
X40Y966D02*
X40Y954D01*
X120Y954D01*
X120Y952D01*
X128Y952D01*
X128Y950D01*
X134Y950D01*
X134Y948D01*
X138Y948D01*
X138Y946D01*
X142Y946D01*
X142Y944D01*
X146Y944D01*
X146Y942D01*
X148Y942D01*
X148Y940D01*
X152Y940D01*
X152Y938D01*
X288Y938D01*
X288Y936D01*
X294Y936D01*
X294Y934D01*
X300Y934D01*
X300Y932D01*
X304Y932D01*
X304Y930D01*
X306Y930D01*
X306Y928D01*
X310Y928D01*
X310Y926D01*
X312Y926D01*
X312Y924D01*
X314Y924D01*
X314Y922D01*
X316Y922D01*
X316Y920D01*
X318Y920D01*
X318Y918D01*
X320Y918D01*
X320Y916D01*
X322Y916D01*
X322Y914D01*
X324Y914D01*
X324Y912D01*
X350Y912D01*
X350Y910D01*
X456Y910D01*
X456Y908D01*
X562Y908D01*
X562Y906D01*
X586Y906D01*
X586Y908D01*
X590Y908D01*
X590Y910D01*
X592Y910D01*
X592Y912D01*
X596Y912D01*
X596Y914D01*
X598Y914D01*
X598Y916D01*
X602Y916D01*
X602Y918D01*
X606Y918D01*
X606Y920D01*
X608Y920D01*
X608Y922D01*
X612Y922D01*
X612Y924D01*
X616Y924D01*
X616Y926D01*
X618Y926D01*
X618Y928D01*
X622Y928D01*
X622Y930D01*
X624Y930D01*
X624Y932D01*
X628Y932D01*
X628Y934D01*
X632Y934D01*
X632Y936D01*
X634Y936D01*
X634Y938D01*
X638Y938D01*
X638Y940D01*
X642Y940D01*
X642Y942D01*
X644Y942D01*
X644Y944D01*
X648Y944D01*
X648Y946D01*
X650Y946D01*
X650Y948D01*
X654Y948D01*
X654Y950D01*
X658Y950D01*
X658Y952D01*
X660Y952D01*
X660Y954D01*
X664Y954D01*
X664Y956D01*
X668Y956D01*
X668Y958D01*
X670Y958D01*
X670Y960D01*
X674Y960D01*
X674Y962D01*
X678Y962D01*
X678Y964D01*
X684Y964D01*
X684Y966D01*
X40Y966D01*
G37*
D02*
G36*
X1308Y956D02*
X1308Y930D01*
X1494Y930D01*
X1494Y928D01*
X1498Y928D01*
X1498Y926D01*
X1502Y926D01*
X1502Y924D01*
X1506Y924D01*
X1506Y922D01*
X1510Y922D01*
X1510Y920D01*
X1512Y920D01*
X1512Y918D01*
X1514Y918D01*
X1514Y916D01*
X1516Y916D01*
X1516Y914D01*
X1518Y914D01*
X1518Y912D01*
X1520Y912D01*
X1520Y910D01*
X1522Y910D01*
X1522Y908D01*
X1524Y908D01*
X1524Y904D01*
X1526Y904D01*
X1526Y902D01*
X1528Y902D01*
X1528Y898D01*
X1530Y898D01*
X1530Y894D01*
X1532Y894D01*
X1532Y888D01*
X1534Y888D01*
X1534Y870D01*
X1532Y870D01*
X1532Y862D01*
X1530Y862D01*
X1530Y858D01*
X1528Y858D01*
X1528Y854D01*
X1526Y854D01*
X1526Y852D01*
X1524Y852D01*
X1524Y848D01*
X1522Y848D01*
X1522Y846D01*
X1520Y846D01*
X1520Y844D01*
X1518Y844D01*
X1518Y842D01*
X1516Y842D01*
X1516Y840D01*
X1514Y840D01*
X1514Y838D01*
X1512Y838D01*
X1512Y836D01*
X1510Y836D01*
X1510Y800D01*
X1670Y800D01*
X1670Y802D01*
X1658Y802D01*
X1658Y804D01*
X1652Y804D01*
X1652Y806D01*
X1648Y806D01*
X1648Y808D01*
X1644Y808D01*
X1644Y810D01*
X1640Y810D01*
X1640Y812D01*
X1636Y812D01*
X1636Y814D01*
X1634Y814D01*
X1634Y816D01*
X1630Y816D01*
X1630Y818D01*
X1628Y818D01*
X1628Y820D01*
X1626Y820D01*
X1626Y822D01*
X1624Y822D01*
X1624Y824D01*
X1622Y824D01*
X1622Y826D01*
X1620Y826D01*
X1620Y828D01*
X1618Y828D01*
X1618Y830D01*
X1616Y830D01*
X1616Y834D01*
X1614Y834D01*
X1614Y836D01*
X1612Y836D01*
X1612Y838D01*
X1610Y838D01*
X1610Y842D01*
X1608Y842D01*
X1608Y846D01*
X1606Y846D01*
X1606Y850D01*
X1604Y850D01*
X1604Y856D01*
X1602Y856D01*
X1602Y862D01*
X1600Y862D01*
X1600Y894D01*
X1602Y894D01*
X1602Y902D01*
X1604Y902D01*
X1604Y906D01*
X1606Y906D01*
X1606Y912D01*
X1608Y912D01*
X1608Y914D01*
X1610Y914D01*
X1610Y918D01*
X1612Y918D01*
X1612Y922D01*
X1614Y922D01*
X1614Y924D01*
X1616Y924D01*
X1616Y926D01*
X1618Y926D01*
X1618Y928D01*
X1620Y928D01*
X1620Y932D01*
X1622Y932D01*
X1622Y934D01*
X1624Y934D01*
X1624Y936D01*
X1628Y936D01*
X1628Y938D01*
X1630Y938D01*
X1630Y940D01*
X1632Y940D01*
X1632Y942D01*
X1634Y942D01*
X1634Y944D01*
X1638Y944D01*
X1638Y946D01*
X1642Y946D01*
X1642Y948D01*
X1646Y948D01*
X1646Y950D01*
X1650Y950D01*
X1650Y952D01*
X1656Y952D01*
X1656Y954D01*
X1662Y954D01*
X1662Y956D01*
X1308Y956D01*
G37*
D02*
G36*
X40Y954D02*
X40Y936D01*
X60Y936D01*
X60Y938D01*
X62Y938D01*
X62Y940D01*
X64Y940D01*
X64Y942D01*
X68Y942D01*
X68Y944D01*
X70Y944D01*
X70Y946D01*
X74Y946D01*
X74Y948D01*
X80Y948D01*
X80Y950D01*
X84Y950D01*
X84Y952D01*
X92Y952D01*
X92Y954D01*
X40Y954D01*
G37*
D02*
G36*
X154Y938D02*
X154Y936D01*
X156Y936D01*
X156Y934D01*
X158Y934D01*
X158Y932D01*
X160Y932D01*
X160Y930D01*
X162Y930D01*
X162Y928D01*
X164Y928D01*
X164Y926D01*
X166Y926D01*
X166Y924D01*
X168Y924D01*
X168Y922D01*
X170Y922D01*
X170Y918D01*
X172Y918D01*
X172Y916D01*
X174Y916D01*
X174Y912D01*
X176Y912D01*
X176Y908D01*
X178Y908D01*
X178Y904D01*
X180Y904D01*
X180Y898D01*
X182Y898D01*
X182Y890D01*
X184Y890D01*
X184Y862D01*
X182Y862D01*
X182Y854D01*
X180Y854D01*
X180Y850D01*
X178Y850D01*
X178Y844D01*
X176Y844D01*
X176Y840D01*
X174Y840D01*
X174Y838D01*
X172Y838D01*
X172Y834D01*
X170Y834D01*
X170Y832D01*
X168Y832D01*
X168Y828D01*
X166Y828D01*
X166Y826D01*
X164Y826D01*
X164Y824D01*
X162Y824D01*
X162Y822D01*
X160Y822D01*
X160Y820D01*
X158Y820D01*
X158Y818D01*
X156Y818D01*
X156Y816D01*
X152Y816D01*
X152Y814D01*
X150Y814D01*
X150Y812D01*
X148Y812D01*
X148Y810D01*
X144Y810D01*
X144Y808D01*
X140Y808D01*
X140Y806D01*
X136Y806D01*
X136Y804D01*
X132Y804D01*
X132Y802D01*
X124Y802D01*
X124Y800D01*
X114Y800D01*
X114Y798D01*
X262Y798D01*
X262Y800D01*
X266Y800D01*
X266Y802D01*
X268Y802D01*
X268Y804D01*
X272Y804D01*
X272Y806D01*
X274Y806D01*
X274Y808D01*
X278Y808D01*
X278Y810D01*
X280Y810D01*
X280Y812D01*
X284Y812D01*
X284Y814D01*
X286Y814D01*
X286Y832D01*
X276Y832D01*
X276Y834D01*
X268Y834D01*
X268Y836D01*
X262Y836D01*
X262Y838D01*
X258Y838D01*
X258Y840D01*
X256Y840D01*
X256Y842D01*
X252Y842D01*
X252Y844D01*
X250Y844D01*
X250Y846D01*
X248Y846D01*
X248Y848D01*
X246Y848D01*
X246Y850D01*
X244Y850D01*
X244Y852D01*
X242Y852D01*
X242Y854D01*
X240Y854D01*
X240Y856D01*
X238Y856D01*
X238Y858D01*
X236Y858D01*
X236Y862D01*
X234Y862D01*
X234Y866D01*
X232Y866D01*
X232Y870D01*
X230Y870D01*
X230Y876D01*
X228Y876D01*
X228Y894D01*
X230Y894D01*
X230Y900D01*
X232Y900D01*
X232Y906D01*
X234Y906D01*
X234Y908D01*
X236Y908D01*
X236Y912D01*
X238Y912D01*
X238Y914D01*
X240Y914D01*
X240Y916D01*
X242Y916D01*
X242Y920D01*
X244Y920D01*
X244Y922D01*
X246Y922D01*
X246Y924D01*
X250Y924D01*
X250Y926D01*
X252Y926D01*
X252Y928D01*
X254Y928D01*
X254Y930D01*
X258Y930D01*
X258Y932D01*
X262Y932D01*
X262Y934D01*
X266Y934D01*
X266Y936D01*
X272Y936D01*
X272Y938D01*
X154Y938D01*
G37*
D02*
G36*
X1308Y930D02*
X1308Y922D01*
X1310Y922D01*
X1310Y920D01*
X1312Y920D01*
X1312Y918D01*
X1314Y918D01*
X1314Y916D01*
X1316Y916D01*
X1316Y914D01*
X1318Y914D01*
X1318Y912D01*
X1320Y912D01*
X1320Y910D01*
X1322Y910D01*
X1322Y908D01*
X1324Y908D01*
X1324Y904D01*
X1326Y904D01*
X1326Y902D01*
X1328Y902D01*
X1328Y898D01*
X1330Y898D01*
X1330Y894D01*
X1332Y894D01*
X1332Y888D01*
X1334Y888D01*
X1334Y870D01*
X1332Y870D01*
X1332Y862D01*
X1330Y862D01*
X1330Y858D01*
X1328Y858D01*
X1328Y854D01*
X1326Y854D01*
X1326Y852D01*
X1324Y852D01*
X1324Y848D01*
X1322Y848D01*
X1322Y846D01*
X1320Y846D01*
X1320Y844D01*
X1318Y844D01*
X1318Y842D01*
X1316Y842D01*
X1316Y840D01*
X1314Y840D01*
X1314Y838D01*
X1312Y838D01*
X1312Y836D01*
X1308Y836D01*
X1308Y834D01*
X1306Y834D01*
X1306Y832D01*
X1302Y832D01*
X1302Y830D01*
X1298Y830D01*
X1298Y828D01*
X1292Y828D01*
X1292Y826D01*
X1456Y826D01*
X1456Y834D01*
X1454Y834D01*
X1454Y836D01*
X1452Y836D01*
X1452Y838D01*
X1450Y838D01*
X1450Y840D01*
X1448Y840D01*
X1448Y842D01*
X1446Y842D01*
X1446Y844D01*
X1444Y844D01*
X1444Y846D01*
X1442Y846D01*
X1442Y848D01*
X1440Y848D01*
X1440Y850D01*
X1438Y850D01*
X1438Y854D01*
X1436Y854D01*
X1436Y858D01*
X1434Y858D01*
X1434Y862D01*
X1432Y862D01*
X1432Y866D01*
X1430Y866D01*
X1430Y890D01*
X1432Y890D01*
X1432Y896D01*
X1434Y896D01*
X1434Y900D01*
X1436Y900D01*
X1436Y902D01*
X1438Y902D01*
X1438Y906D01*
X1440Y906D01*
X1440Y908D01*
X1442Y908D01*
X1442Y910D01*
X1444Y910D01*
X1444Y914D01*
X1446Y914D01*
X1446Y916D01*
X1450Y916D01*
X1450Y918D01*
X1452Y918D01*
X1452Y920D01*
X1454Y920D01*
X1454Y922D01*
X1458Y922D01*
X1458Y924D01*
X1460Y924D01*
X1460Y926D01*
X1464Y926D01*
X1464Y928D01*
X1470Y928D01*
X1470Y930D01*
X1308Y930D01*
G37*
D02*
G36*
X710Y852D02*
X710Y850D01*
X708Y850D01*
X708Y848D01*
X706Y848D01*
X706Y846D01*
X704Y846D01*
X704Y844D01*
X702Y844D01*
X702Y842D01*
X698Y842D01*
X698Y840D01*
X696Y840D01*
X696Y838D01*
X694Y838D01*
X694Y836D01*
X692Y836D01*
X692Y834D01*
X690Y834D01*
X690Y832D01*
X688Y832D01*
X688Y830D01*
X686Y830D01*
X686Y828D01*
X684Y828D01*
X684Y826D01*
X682Y826D01*
X682Y824D01*
X678Y824D01*
X678Y822D01*
X676Y822D01*
X676Y820D01*
X674Y820D01*
X674Y818D01*
X672Y818D01*
X672Y816D01*
X670Y816D01*
X670Y814D01*
X668Y814D01*
X668Y812D01*
X666Y812D01*
X666Y810D01*
X664Y810D01*
X664Y808D01*
X662Y808D01*
X662Y806D01*
X658Y806D01*
X658Y804D01*
X656Y804D01*
X656Y782D01*
X660Y782D01*
X660Y780D01*
X664Y780D01*
X664Y778D01*
X668Y778D01*
X668Y776D01*
X670Y776D01*
X670Y774D01*
X672Y774D01*
X672Y772D01*
X676Y772D01*
X676Y770D01*
X678Y770D01*
X678Y766D01*
X680Y766D01*
X680Y764D01*
X682Y764D01*
X682Y762D01*
X684Y762D01*
X684Y758D01*
X686Y758D01*
X686Y754D01*
X688Y754D01*
X688Y750D01*
X690Y750D01*
X690Y728D01*
X688Y728D01*
X688Y722D01*
X686Y722D01*
X686Y718D01*
X684Y718D01*
X684Y716D01*
X682Y716D01*
X682Y712D01*
X680Y712D01*
X680Y710D01*
X678Y710D01*
X678Y708D01*
X676Y708D01*
X676Y706D01*
X674Y706D01*
X674Y704D01*
X672Y704D01*
X672Y702D01*
X670Y702D01*
X670Y700D01*
X666Y700D01*
X666Y698D01*
X662Y698D01*
X662Y696D01*
X658Y696D01*
X658Y694D01*
X652Y694D01*
X652Y692D01*
X796Y692D01*
X796Y694D01*
X794Y694D01*
X794Y698D01*
X792Y698D01*
X792Y704D01*
X790Y704D01*
X790Y708D01*
X788Y708D01*
X788Y712D01*
X786Y712D01*
X786Y716D01*
X784Y716D01*
X784Y722D01*
X782Y722D01*
X782Y726D01*
X780Y726D01*
X780Y730D01*
X778Y730D01*
X778Y734D01*
X776Y734D01*
X776Y738D01*
X774Y738D01*
X774Y744D01*
X772Y744D01*
X772Y748D01*
X770Y748D01*
X770Y752D01*
X768Y752D01*
X768Y756D01*
X766Y756D01*
X766Y760D01*
X758Y760D01*
X758Y762D01*
X754Y762D01*
X754Y764D01*
X750Y764D01*
X750Y766D01*
X746Y766D01*
X746Y768D01*
X744Y768D01*
X744Y770D01*
X742Y770D01*
X742Y772D01*
X738Y772D01*
X738Y774D01*
X736Y774D01*
X736Y776D01*
X734Y776D01*
X734Y780D01*
X732Y780D01*
X732Y782D01*
X730Y782D01*
X730Y784D01*
X728Y784D01*
X728Y788D01*
X726Y788D01*
X726Y790D01*
X724Y790D01*
X724Y796D01*
X722Y796D01*
X722Y802D01*
X720Y802D01*
X720Y820D01*
X722Y820D01*
X722Y826D01*
X724Y826D01*
X724Y832D01*
X726Y832D01*
X726Y834D01*
X728Y834D01*
X728Y838D01*
X730Y838D01*
X730Y852D01*
X710Y852D01*
G37*
D02*
G36*
X1076Y826D02*
X1076Y824D01*
X1074Y824D01*
X1074Y822D01*
X1072Y822D01*
X1072Y820D01*
X1070Y820D01*
X1070Y818D01*
X1068Y818D01*
X1068Y816D01*
X1066Y816D01*
X1066Y814D01*
X1062Y814D01*
X1062Y812D01*
X1060Y812D01*
X1060Y810D01*
X1056Y810D01*
X1056Y808D01*
X1050Y808D01*
X1050Y806D01*
X1042Y806D01*
X1042Y804D01*
X1132Y804D01*
X1132Y806D01*
X1124Y806D01*
X1124Y808D01*
X1118Y808D01*
X1118Y810D01*
X1114Y810D01*
X1114Y812D01*
X1112Y812D01*
X1112Y814D01*
X1108Y814D01*
X1108Y816D01*
X1106Y816D01*
X1106Y818D01*
X1104Y818D01*
X1104Y820D01*
X1102Y820D01*
X1102Y822D01*
X1100Y822D01*
X1100Y824D01*
X1098Y824D01*
X1098Y826D01*
X1076Y826D01*
G37*
D02*
G36*
X1184Y826D02*
X1184Y824D01*
X1456Y824D01*
X1456Y826D01*
X1184Y826D01*
G37*
D02*
G36*
X1184Y826D02*
X1184Y824D01*
X1456Y824D01*
X1456Y826D01*
X1184Y826D01*
G37*
D02*
G36*
X1184Y824D02*
X1184Y816D01*
X1186Y816D01*
X1186Y812D01*
X1188Y812D01*
X1188Y808D01*
X1190Y808D01*
X1190Y804D01*
X1192Y804D01*
X1192Y800D01*
X1194Y800D01*
X1194Y794D01*
X1196Y794D01*
X1196Y790D01*
X1198Y790D01*
X1198Y786D01*
X1200Y786D01*
X1200Y782D01*
X1202Y782D01*
X1202Y778D01*
X1204Y778D01*
X1204Y772D01*
X1206Y772D01*
X1206Y768D01*
X1208Y768D01*
X1208Y764D01*
X1210Y764D01*
X1210Y760D01*
X1212Y760D01*
X1212Y756D01*
X1214Y756D01*
X1214Y750D01*
X1216Y750D01*
X1216Y746D01*
X1218Y746D01*
X1218Y742D01*
X1220Y742D01*
X1220Y738D01*
X1222Y738D01*
X1222Y734D01*
X1228Y734D01*
X1228Y732D01*
X1234Y732D01*
X1234Y730D01*
X1238Y730D01*
X1238Y728D01*
X1240Y728D01*
X1240Y726D01*
X1244Y726D01*
X1244Y724D01*
X1246Y724D01*
X1246Y722D01*
X1248Y722D01*
X1248Y720D01*
X1252Y720D01*
X1252Y718D01*
X1254Y718D01*
X1254Y714D01*
X1256Y714D01*
X1256Y712D01*
X1258Y712D01*
X1258Y710D01*
X1260Y710D01*
X1260Y708D01*
X1262Y708D01*
X1262Y706D01*
X1344Y706D01*
X1344Y704D01*
X1350Y704D01*
X1350Y702D01*
X1354Y702D01*
X1354Y700D01*
X1358Y700D01*
X1358Y698D01*
X1362Y698D01*
X1362Y696D01*
X1364Y696D01*
X1364Y694D01*
X1366Y694D01*
X1366Y692D01*
X1370Y692D01*
X1370Y690D01*
X1372Y690D01*
X1372Y686D01*
X1374Y686D01*
X1374Y684D01*
X1376Y684D01*
X1376Y682D01*
X1378Y682D01*
X1378Y680D01*
X1380Y680D01*
X1380Y676D01*
X1382Y676D01*
X1382Y672D01*
X1384Y672D01*
X1384Y668D01*
X1386Y668D01*
X1386Y660D01*
X1388Y660D01*
X1388Y648D01*
X1386Y648D01*
X1386Y640D01*
X1384Y640D01*
X1384Y636D01*
X1382Y636D01*
X1382Y632D01*
X1380Y632D01*
X1380Y628D01*
X1378Y628D01*
X1378Y626D01*
X1376Y626D01*
X1376Y622D01*
X1374Y622D01*
X1374Y620D01*
X1372Y620D01*
X1372Y618D01*
X1370Y618D01*
X1370Y616D01*
X1368Y616D01*
X1368Y614D01*
X1366Y614D01*
X1366Y612D01*
X1362Y612D01*
X1362Y610D01*
X1360Y610D01*
X1360Y608D01*
X1356Y608D01*
X1356Y606D01*
X1352Y606D01*
X1352Y604D01*
X1346Y604D01*
X1346Y602D01*
X1458Y602D01*
X1458Y696D01*
X1456Y696D01*
X1456Y824D01*
X1184Y824D01*
G37*
D02*
G36*
X40Y816D02*
X40Y798D01*
X98Y798D01*
X98Y800D01*
X88Y800D01*
X88Y802D01*
X82Y802D01*
X82Y804D01*
X76Y804D01*
X76Y806D01*
X72Y806D01*
X72Y808D01*
X70Y808D01*
X70Y810D01*
X66Y810D01*
X66Y812D01*
X62Y812D01*
X62Y814D01*
X60Y814D01*
X60Y816D01*
X40Y816D01*
G37*
D02*
G36*
X1710Y810D02*
X1710Y808D01*
X1706Y808D01*
X1706Y806D01*
X1702Y806D01*
X1702Y804D01*
X1696Y804D01*
X1696Y802D01*
X1684Y802D01*
X1684Y800D01*
X1730Y800D01*
X1730Y810D01*
X1710Y810D01*
G37*
D02*
G36*
X1012Y806D02*
X1012Y804D01*
X1032Y804D01*
X1032Y806D01*
X1012Y806D01*
G37*
D02*
G36*
X1012Y804D02*
X1012Y802D01*
X1132Y802D01*
X1132Y804D01*
X1012Y804D01*
G37*
D02*
G36*
X1012Y804D02*
X1012Y802D01*
X1132Y802D01*
X1132Y804D01*
X1012Y804D01*
G37*
D02*
G36*
X1012Y802D02*
X1012Y792D01*
X1014Y792D01*
X1014Y790D01*
X1016Y790D01*
X1016Y786D01*
X1018Y786D01*
X1018Y782D01*
X1020Y782D01*
X1020Y780D01*
X1022Y780D01*
X1022Y776D01*
X1024Y776D01*
X1024Y774D01*
X1026Y774D01*
X1026Y770D01*
X1028Y770D01*
X1028Y766D01*
X1030Y766D01*
X1030Y764D01*
X1032Y764D01*
X1032Y760D01*
X1034Y760D01*
X1034Y756D01*
X1036Y756D01*
X1036Y754D01*
X1038Y754D01*
X1038Y750D01*
X1040Y750D01*
X1040Y748D01*
X1042Y748D01*
X1042Y744D01*
X1044Y744D01*
X1044Y740D01*
X1046Y740D01*
X1046Y738D01*
X1048Y738D01*
X1048Y734D01*
X1050Y734D01*
X1050Y730D01*
X1052Y730D01*
X1052Y728D01*
X1054Y728D01*
X1054Y724D01*
X1056Y724D01*
X1056Y720D01*
X1058Y720D01*
X1058Y718D01*
X1060Y718D01*
X1060Y714D01*
X1062Y714D01*
X1062Y712D01*
X1064Y712D01*
X1064Y708D01*
X1066Y708D01*
X1066Y702D01*
X1068Y702D01*
X1068Y688D01*
X1070Y688D01*
X1070Y672D01*
X1072Y672D01*
X1072Y656D01*
X1074Y656D01*
X1074Y640D01*
X1076Y640D01*
X1076Y630D01*
X1206Y630D01*
X1206Y632D01*
X1200Y632D01*
X1200Y634D01*
X1196Y634D01*
X1196Y636D01*
X1194Y636D01*
X1194Y638D01*
X1190Y638D01*
X1190Y640D01*
X1188Y640D01*
X1188Y642D01*
X1184Y642D01*
X1184Y644D01*
X1182Y644D01*
X1182Y646D01*
X1180Y646D01*
X1180Y648D01*
X1178Y648D01*
X1178Y650D01*
X1176Y650D01*
X1176Y654D01*
X1174Y654D01*
X1174Y656D01*
X1172Y656D01*
X1172Y660D01*
X1170Y660D01*
X1170Y662D01*
X1168Y662D01*
X1168Y668D01*
X1166Y668D01*
X1166Y674D01*
X1164Y674D01*
X1164Y690D01*
X1166Y690D01*
X1166Y696D01*
X1168Y696D01*
X1168Y702D01*
X1170Y702D01*
X1170Y722D01*
X1168Y722D01*
X1168Y726D01*
X1166Y726D01*
X1166Y730D01*
X1164Y730D01*
X1164Y734D01*
X1162Y734D01*
X1162Y740D01*
X1160Y740D01*
X1160Y744D01*
X1158Y744D01*
X1158Y748D01*
X1156Y748D01*
X1156Y752D01*
X1154Y752D01*
X1154Y756D01*
X1152Y756D01*
X1152Y762D01*
X1150Y762D01*
X1150Y766D01*
X1148Y766D01*
X1148Y770D01*
X1146Y770D01*
X1146Y774D01*
X1144Y774D01*
X1144Y778D01*
X1142Y778D01*
X1142Y784D01*
X1140Y784D01*
X1140Y788D01*
X1138Y788D01*
X1138Y792D01*
X1136Y792D01*
X1136Y796D01*
X1134Y796D01*
X1134Y800D01*
X1132Y800D01*
X1132Y802D01*
X1012Y802D01*
G37*
D02*
G36*
X1510Y800D02*
X1510Y798D01*
X1730Y798D01*
X1730Y800D01*
X1510Y800D01*
G37*
D02*
G36*
X1510Y800D02*
X1510Y798D01*
X1730Y798D01*
X1730Y800D01*
X1510Y800D01*
G37*
D02*
G36*
X40Y798D02*
X40Y796D01*
X260Y796D01*
X260Y798D01*
X40Y798D01*
G37*
D02*
G36*
X40Y798D02*
X40Y796D01*
X260Y796D01*
X260Y798D01*
X40Y798D01*
G37*
D02*
G36*
X1510Y798D02*
X1510Y706D01*
X1644Y706D01*
X1644Y704D01*
X1650Y704D01*
X1650Y702D01*
X1654Y702D01*
X1654Y700D01*
X1658Y700D01*
X1658Y698D01*
X1662Y698D01*
X1662Y696D01*
X1664Y696D01*
X1664Y694D01*
X1666Y694D01*
X1666Y692D01*
X1670Y692D01*
X1670Y690D01*
X1672Y690D01*
X1672Y686D01*
X1674Y686D01*
X1674Y684D01*
X1676Y684D01*
X1676Y682D01*
X1678Y682D01*
X1678Y680D01*
X1680Y680D01*
X1680Y676D01*
X1682Y676D01*
X1682Y672D01*
X1684Y672D01*
X1684Y668D01*
X1686Y668D01*
X1686Y660D01*
X1688Y660D01*
X1688Y648D01*
X1686Y648D01*
X1686Y640D01*
X1684Y640D01*
X1684Y636D01*
X1682Y636D01*
X1682Y632D01*
X1680Y632D01*
X1680Y628D01*
X1678Y628D01*
X1678Y626D01*
X1676Y626D01*
X1676Y622D01*
X1674Y622D01*
X1674Y620D01*
X1672Y620D01*
X1672Y618D01*
X1670Y618D01*
X1670Y616D01*
X1668Y616D01*
X1668Y614D01*
X1666Y614D01*
X1666Y612D01*
X1662Y612D01*
X1662Y412D01*
X1660Y412D01*
X1660Y390D01*
X1688Y390D01*
X1688Y282D01*
X1678Y282D01*
X1678Y262D01*
X1680Y262D01*
X1680Y260D01*
X1682Y260D01*
X1682Y256D01*
X1684Y256D01*
X1684Y252D01*
X1686Y252D01*
X1686Y244D01*
X1688Y244D01*
X1688Y230D01*
X1686Y230D01*
X1686Y222D01*
X1684Y222D01*
X1684Y218D01*
X1682Y218D01*
X1682Y214D01*
X1680Y214D01*
X1680Y210D01*
X1678Y210D01*
X1678Y208D01*
X1676Y208D01*
X1676Y204D01*
X1674Y204D01*
X1674Y202D01*
X1672Y202D01*
X1672Y200D01*
X1670Y200D01*
X1670Y198D01*
X1668Y198D01*
X1668Y196D01*
X1666Y196D01*
X1666Y176D01*
X1668Y176D01*
X1668Y174D01*
X1670Y174D01*
X1670Y172D01*
X1672Y172D01*
X1672Y170D01*
X1674Y170D01*
X1674Y168D01*
X1676Y168D01*
X1676Y166D01*
X1678Y166D01*
X1678Y162D01*
X1680Y162D01*
X1680Y160D01*
X1682Y160D01*
X1682Y156D01*
X1684Y156D01*
X1684Y152D01*
X1686Y152D01*
X1686Y144D01*
X1688Y144D01*
X1688Y130D01*
X1686Y130D01*
X1686Y122D01*
X1684Y122D01*
X1684Y118D01*
X1682Y118D01*
X1682Y114D01*
X1680Y114D01*
X1680Y110D01*
X1678Y110D01*
X1678Y108D01*
X1676Y108D01*
X1676Y104D01*
X1674Y104D01*
X1674Y102D01*
X1672Y102D01*
X1672Y100D01*
X1670Y100D01*
X1670Y98D01*
X1668Y98D01*
X1668Y96D01*
X1666Y96D01*
X1666Y94D01*
X1662Y94D01*
X1662Y92D01*
X1660Y92D01*
X1660Y90D01*
X1656Y90D01*
X1656Y88D01*
X1652Y88D01*
X1652Y86D01*
X1648Y86D01*
X1648Y84D01*
X1640Y84D01*
X1640Y82D01*
X1730Y82D01*
X1730Y798D01*
X1510Y798D01*
G37*
D02*
G36*
X40Y796D02*
X40Y524D01*
X130Y524D01*
X130Y526D01*
X118Y526D01*
X118Y528D01*
X114Y528D01*
X114Y530D01*
X110Y530D01*
X110Y532D01*
X106Y532D01*
X106Y534D01*
X102Y534D01*
X102Y536D01*
X100Y536D01*
X100Y538D01*
X98Y538D01*
X98Y540D01*
X96Y540D01*
X96Y542D01*
X94Y542D01*
X94Y544D01*
X92Y544D01*
X92Y546D01*
X90Y546D01*
X90Y548D01*
X88Y548D01*
X88Y550D01*
X86Y550D01*
X86Y554D01*
X84Y554D01*
X84Y558D01*
X82Y558D01*
X82Y562D01*
X80Y562D01*
X80Y566D01*
X78Y566D01*
X78Y592D01*
X80Y592D01*
X80Y596D01*
X82Y596D01*
X82Y600D01*
X84Y600D01*
X84Y604D01*
X86Y604D01*
X86Y624D01*
X78Y624D01*
X78Y732D01*
X164Y732D01*
X164Y734D01*
X166Y734D01*
X166Y736D01*
X170Y736D01*
X170Y738D01*
X172Y738D01*
X172Y740D01*
X176Y740D01*
X176Y742D01*
X178Y742D01*
X178Y744D01*
X182Y744D01*
X182Y746D01*
X184Y746D01*
X184Y748D01*
X188Y748D01*
X188Y750D01*
X190Y750D01*
X190Y752D01*
X194Y752D01*
X194Y754D01*
X196Y754D01*
X196Y756D01*
X200Y756D01*
X200Y758D01*
X202Y758D01*
X202Y760D01*
X206Y760D01*
X206Y762D01*
X208Y762D01*
X208Y764D01*
X212Y764D01*
X212Y766D01*
X214Y766D01*
X214Y768D01*
X218Y768D01*
X218Y770D01*
X220Y770D01*
X220Y772D01*
X224Y772D01*
X224Y774D01*
X226Y774D01*
X226Y776D01*
X230Y776D01*
X230Y778D01*
X232Y778D01*
X232Y780D01*
X236Y780D01*
X236Y782D01*
X238Y782D01*
X238Y784D01*
X242Y784D01*
X242Y786D01*
X244Y786D01*
X244Y788D01*
X248Y788D01*
X248Y790D01*
X250Y790D01*
X250Y792D01*
X254Y792D01*
X254Y794D01*
X256Y794D01*
X256Y796D01*
X40Y796D01*
G37*
D02*
G36*
X402Y782D02*
X402Y780D01*
X400Y780D01*
X400Y778D01*
X398Y778D01*
X398Y776D01*
X396Y776D01*
X396Y774D01*
X394Y774D01*
X394Y772D01*
X392Y772D01*
X392Y770D01*
X388Y770D01*
X388Y768D01*
X312Y768D01*
X312Y766D01*
X308Y766D01*
X308Y764D01*
X306Y764D01*
X306Y762D01*
X302Y762D01*
X302Y760D01*
X300Y760D01*
X300Y758D01*
X296Y758D01*
X296Y756D01*
X294Y756D01*
X294Y754D01*
X290Y754D01*
X290Y752D01*
X288Y752D01*
X288Y750D01*
X284Y750D01*
X284Y748D01*
X282Y748D01*
X282Y746D01*
X278Y746D01*
X278Y744D01*
X276Y744D01*
X276Y742D01*
X272Y742D01*
X272Y740D01*
X270Y740D01*
X270Y738D01*
X266Y738D01*
X266Y736D01*
X264Y736D01*
X264Y734D01*
X260Y734D01*
X260Y732D01*
X258Y732D01*
X258Y730D01*
X254Y730D01*
X254Y728D01*
X252Y728D01*
X252Y726D01*
X248Y726D01*
X248Y724D01*
X246Y724D01*
X246Y722D01*
X242Y722D01*
X242Y720D01*
X240Y720D01*
X240Y718D01*
X236Y718D01*
X236Y716D01*
X234Y716D01*
X234Y714D01*
X230Y714D01*
X230Y712D01*
X228Y712D01*
X228Y710D01*
X224Y710D01*
X224Y708D01*
X222Y708D01*
X222Y706D01*
X218Y706D01*
X218Y704D01*
X216Y704D01*
X216Y702D01*
X212Y702D01*
X212Y700D01*
X210Y700D01*
X210Y698D01*
X206Y698D01*
X206Y696D01*
X204Y696D01*
X204Y694D01*
X200Y694D01*
X200Y692D01*
X436Y692D01*
X436Y694D01*
X430Y694D01*
X430Y696D01*
X426Y696D01*
X426Y698D01*
X422Y698D01*
X422Y700D01*
X420Y700D01*
X420Y702D01*
X418Y702D01*
X418Y704D01*
X414Y704D01*
X414Y706D01*
X412Y706D01*
X412Y708D01*
X410Y708D01*
X410Y712D01*
X408Y712D01*
X408Y714D01*
X406Y714D01*
X406Y716D01*
X404Y716D01*
X404Y720D01*
X402Y720D01*
X402Y724D01*
X400Y724D01*
X400Y730D01*
X398Y730D01*
X398Y746D01*
X400Y746D01*
X400Y752D01*
X402Y752D01*
X402Y756D01*
X404Y756D01*
X404Y760D01*
X406Y760D01*
X406Y764D01*
X408Y764D01*
X408Y766D01*
X410Y766D01*
X410Y768D01*
X412Y768D01*
X412Y770D01*
X414Y770D01*
X414Y772D01*
X416Y772D01*
X416Y774D01*
X418Y774D01*
X418Y776D01*
X422Y776D01*
X422Y782D01*
X402Y782D01*
G37*
D02*
G36*
X484Y718D02*
X484Y716D01*
X482Y716D01*
X482Y712D01*
X480Y712D01*
X480Y710D01*
X478Y710D01*
X478Y708D01*
X476Y708D01*
X476Y706D01*
X474Y706D01*
X474Y704D01*
X472Y704D01*
X472Y702D01*
X470Y702D01*
X470Y700D01*
X466Y700D01*
X466Y698D01*
X462Y698D01*
X462Y696D01*
X458Y696D01*
X458Y694D01*
X452Y694D01*
X452Y692D01*
X536Y692D01*
X536Y694D01*
X530Y694D01*
X530Y696D01*
X526Y696D01*
X526Y698D01*
X522Y698D01*
X522Y700D01*
X520Y700D01*
X520Y702D01*
X518Y702D01*
X518Y704D01*
X514Y704D01*
X514Y706D01*
X512Y706D01*
X512Y708D01*
X510Y708D01*
X510Y712D01*
X508Y712D01*
X508Y714D01*
X506Y714D01*
X506Y716D01*
X504Y716D01*
X504Y718D01*
X484Y718D01*
G37*
D02*
G36*
X584Y718D02*
X584Y716D01*
X582Y716D01*
X582Y712D01*
X580Y712D01*
X580Y710D01*
X578Y710D01*
X578Y708D01*
X576Y708D01*
X576Y706D01*
X574Y706D01*
X574Y704D01*
X572Y704D01*
X572Y702D01*
X570Y702D01*
X570Y700D01*
X566Y700D01*
X566Y698D01*
X562Y698D01*
X562Y696D01*
X558Y696D01*
X558Y694D01*
X552Y694D01*
X552Y692D01*
X636Y692D01*
X636Y694D01*
X630Y694D01*
X630Y696D01*
X626Y696D01*
X626Y698D01*
X622Y698D01*
X622Y700D01*
X620Y700D01*
X620Y702D01*
X618Y702D01*
X618Y704D01*
X614Y704D01*
X614Y706D01*
X612Y706D01*
X612Y708D01*
X610Y708D01*
X610Y712D01*
X608Y712D01*
X608Y714D01*
X606Y714D01*
X606Y716D01*
X604Y716D01*
X604Y718D01*
X584Y718D01*
G37*
D02*
G36*
X1262Y706D02*
X1262Y704D01*
X1264Y704D01*
X1264Y700D01*
X1266Y700D01*
X1266Y694D01*
X1268Y694D01*
X1268Y684D01*
X1270Y684D01*
X1270Y680D01*
X1268Y680D01*
X1268Y672D01*
X1288Y672D01*
X1288Y676D01*
X1290Y676D01*
X1290Y680D01*
X1292Y680D01*
X1292Y682D01*
X1294Y682D01*
X1294Y684D01*
X1296Y684D01*
X1296Y686D01*
X1298Y686D01*
X1298Y690D01*
X1300Y690D01*
X1300Y692D01*
X1304Y692D01*
X1304Y694D01*
X1306Y694D01*
X1306Y696D01*
X1308Y696D01*
X1308Y698D01*
X1312Y698D01*
X1312Y700D01*
X1316Y700D01*
X1316Y702D01*
X1320Y702D01*
X1320Y704D01*
X1326Y704D01*
X1326Y706D01*
X1262Y706D01*
G37*
D02*
G36*
X1510Y706D02*
X1510Y698D01*
X1512Y698D01*
X1512Y542D01*
X1514Y542D01*
X1514Y534D01*
X1512Y534D01*
X1512Y524D01*
X1510Y524D01*
X1510Y520D01*
X1508Y520D01*
X1508Y518D01*
X1506Y518D01*
X1506Y516D01*
X1504Y516D01*
X1504Y514D01*
X1502Y514D01*
X1502Y512D01*
X1500Y512D01*
X1500Y510D01*
X1496Y510D01*
X1496Y508D01*
X1494Y508D01*
X1494Y506D01*
X1490Y506D01*
X1490Y504D01*
X1488Y504D01*
X1488Y502D01*
X1486Y502D01*
X1486Y500D01*
X1482Y500D01*
X1482Y498D01*
X1480Y498D01*
X1480Y496D01*
X1476Y496D01*
X1476Y494D01*
X1474Y494D01*
X1474Y492D01*
X1472Y492D01*
X1472Y490D01*
X1468Y490D01*
X1468Y488D01*
X1466Y488D01*
X1466Y486D01*
X1462Y486D01*
X1462Y484D01*
X1460Y484D01*
X1460Y482D01*
X1458Y482D01*
X1458Y480D01*
X1454Y480D01*
X1454Y478D01*
X1452Y478D01*
X1452Y476D01*
X1448Y476D01*
X1448Y474D01*
X1446Y474D01*
X1446Y472D01*
X1444Y472D01*
X1444Y470D01*
X1440Y470D01*
X1440Y468D01*
X1438Y468D01*
X1438Y466D01*
X1434Y466D01*
X1434Y464D01*
X1432Y464D01*
X1432Y462D01*
X1430Y462D01*
X1430Y460D01*
X1426Y460D01*
X1426Y458D01*
X1424Y458D01*
X1424Y456D01*
X1420Y456D01*
X1420Y454D01*
X1418Y454D01*
X1418Y452D01*
X1416Y452D01*
X1416Y450D01*
X1412Y450D01*
X1412Y448D01*
X1410Y448D01*
X1410Y446D01*
X1408Y446D01*
X1408Y444D01*
X1404Y444D01*
X1404Y442D01*
X1402Y442D01*
X1402Y440D01*
X1400Y440D01*
X1400Y436D01*
X1450Y436D01*
X1450Y434D01*
X1456Y434D01*
X1456Y432D01*
X1462Y432D01*
X1462Y430D01*
X1464Y430D01*
X1464Y428D01*
X1468Y428D01*
X1468Y426D01*
X1470Y426D01*
X1470Y424D01*
X1474Y424D01*
X1474Y422D01*
X1476Y422D01*
X1476Y420D01*
X1478Y420D01*
X1478Y418D01*
X1480Y418D01*
X1480Y416D01*
X1482Y416D01*
X1482Y414D01*
X1484Y414D01*
X1484Y410D01*
X1486Y410D01*
X1486Y408D01*
X1488Y408D01*
X1488Y404D01*
X1490Y404D01*
X1490Y400D01*
X1492Y400D01*
X1492Y394D01*
X1494Y394D01*
X1494Y372D01*
X1492Y372D01*
X1492Y366D01*
X1490Y366D01*
X1490Y362D01*
X1488Y362D01*
X1488Y360D01*
X1486Y360D01*
X1486Y332D01*
X1488Y332D01*
X1488Y326D01*
X1490Y326D01*
X1490Y320D01*
X1492Y320D01*
X1492Y314D01*
X1494Y314D01*
X1494Y308D01*
X1496Y308D01*
X1496Y302D01*
X1498Y302D01*
X1498Y294D01*
X1500Y294D01*
X1500Y288D01*
X1502Y288D01*
X1502Y282D01*
X1504Y282D01*
X1504Y276D01*
X1506Y276D01*
X1506Y270D01*
X1508Y270D01*
X1508Y264D01*
X1510Y264D01*
X1510Y258D01*
X1512Y258D01*
X1512Y252D01*
X1514Y252D01*
X1514Y246D01*
X1516Y246D01*
X1516Y240D01*
X1518Y240D01*
X1518Y234D01*
X1520Y234D01*
X1520Y226D01*
X1522Y226D01*
X1522Y220D01*
X1524Y220D01*
X1524Y216D01*
X1528Y216D01*
X1528Y214D01*
X1532Y214D01*
X1532Y212D01*
X1536Y212D01*
X1536Y210D01*
X1542Y210D01*
X1542Y208D01*
X1546Y208D01*
X1546Y206D01*
X1550Y206D01*
X1550Y204D01*
X1554Y204D01*
X1554Y202D01*
X1558Y202D01*
X1558Y200D01*
X1562Y200D01*
X1562Y198D01*
X1568Y198D01*
X1568Y196D01*
X1572Y196D01*
X1572Y194D01*
X1592Y194D01*
X1592Y206D01*
X1590Y206D01*
X1590Y210D01*
X1588Y210D01*
X1588Y212D01*
X1586Y212D01*
X1586Y216D01*
X1584Y216D01*
X1584Y220D01*
X1582Y220D01*
X1582Y226D01*
X1580Y226D01*
X1580Y246D01*
X1582Y246D01*
X1582Y252D01*
X1584Y252D01*
X1584Y258D01*
X1586Y258D01*
X1586Y260D01*
X1588Y260D01*
X1588Y282D01*
X1580Y282D01*
X1580Y390D01*
X1606Y390D01*
X1606Y416D01*
X1608Y416D01*
X1608Y612D01*
X1604Y612D01*
X1604Y614D01*
X1602Y614D01*
X1602Y616D01*
X1600Y616D01*
X1600Y618D01*
X1598Y618D01*
X1598Y620D01*
X1596Y620D01*
X1596Y622D01*
X1594Y622D01*
X1594Y626D01*
X1592Y626D01*
X1592Y628D01*
X1590Y628D01*
X1590Y632D01*
X1588Y632D01*
X1588Y634D01*
X1586Y634D01*
X1586Y640D01*
X1584Y640D01*
X1584Y648D01*
X1582Y648D01*
X1582Y660D01*
X1584Y660D01*
X1584Y668D01*
X1586Y668D01*
X1586Y672D01*
X1588Y672D01*
X1588Y676D01*
X1590Y676D01*
X1590Y680D01*
X1592Y680D01*
X1592Y682D01*
X1594Y682D01*
X1594Y684D01*
X1596Y684D01*
X1596Y686D01*
X1598Y686D01*
X1598Y690D01*
X1600Y690D01*
X1600Y692D01*
X1604Y692D01*
X1604Y694D01*
X1606Y694D01*
X1606Y696D01*
X1608Y696D01*
X1608Y698D01*
X1612Y698D01*
X1612Y700D01*
X1616Y700D01*
X1616Y702D01*
X1620Y702D01*
X1620Y704D01*
X1626Y704D01*
X1626Y706D01*
X1510Y706D01*
G37*
D02*
G36*
X198Y692D02*
X198Y690D01*
X796Y690D01*
X796Y692D01*
X198Y692D01*
G37*
D02*
G36*
X198Y692D02*
X198Y690D01*
X796Y690D01*
X796Y692D01*
X198Y692D01*
G37*
D02*
G36*
X198Y692D02*
X198Y690D01*
X796Y690D01*
X796Y692D01*
X198Y692D01*
G37*
D02*
G36*
X198Y692D02*
X198Y690D01*
X796Y690D01*
X796Y692D01*
X198Y692D01*
G37*
D02*
G36*
X194Y690D02*
X194Y688D01*
X192Y688D01*
X192Y686D01*
X188Y686D01*
X188Y684D01*
X186Y684D01*
X186Y668D01*
X666Y668D01*
X666Y666D01*
X676Y666D01*
X676Y664D01*
X682Y664D01*
X682Y662D01*
X686Y662D01*
X686Y660D01*
X688Y660D01*
X688Y658D01*
X692Y658D01*
X692Y656D01*
X694Y656D01*
X694Y654D01*
X696Y654D01*
X696Y652D01*
X700Y652D01*
X700Y648D01*
X702Y648D01*
X702Y646D01*
X704Y646D01*
X704Y644D01*
X706Y644D01*
X706Y642D01*
X708Y642D01*
X708Y638D01*
X710Y638D01*
X710Y634D01*
X712Y634D01*
X712Y630D01*
X714Y630D01*
X714Y624D01*
X716Y624D01*
X716Y604D01*
X714Y604D01*
X714Y598D01*
X712Y598D01*
X712Y594D01*
X710Y594D01*
X710Y590D01*
X708Y590D01*
X708Y588D01*
X706Y588D01*
X706Y586D01*
X704Y586D01*
X704Y582D01*
X702Y582D01*
X702Y580D01*
X700Y580D01*
X700Y578D01*
X698Y578D01*
X698Y576D01*
X696Y576D01*
X696Y574D01*
X692Y574D01*
X692Y564D01*
X778Y564D01*
X778Y562D01*
X786Y562D01*
X786Y560D01*
X790Y560D01*
X790Y558D01*
X794Y558D01*
X794Y556D01*
X798Y556D01*
X798Y554D01*
X800Y554D01*
X800Y552D01*
X804Y552D01*
X804Y550D01*
X806Y550D01*
X806Y548D01*
X808Y548D01*
X808Y546D01*
X810Y546D01*
X810Y544D01*
X812Y544D01*
X812Y540D01*
X814Y540D01*
X814Y538D01*
X816Y538D01*
X816Y536D01*
X818Y536D01*
X818Y532D01*
X820Y532D01*
X820Y528D01*
X822Y528D01*
X822Y522D01*
X824Y522D01*
X824Y500D01*
X822Y500D01*
X822Y494D01*
X820Y494D01*
X820Y490D01*
X818Y490D01*
X818Y486D01*
X816Y486D01*
X816Y484D01*
X814Y484D01*
X814Y480D01*
X812Y480D01*
X812Y478D01*
X918Y478D01*
X918Y480D01*
X910Y480D01*
X910Y482D01*
X904Y482D01*
X904Y484D01*
X900Y484D01*
X900Y486D01*
X898Y486D01*
X898Y488D01*
X894Y488D01*
X894Y490D01*
X892Y490D01*
X892Y492D01*
X890Y492D01*
X890Y494D01*
X886Y494D01*
X886Y498D01*
X884Y498D01*
X884Y500D01*
X882Y500D01*
X882Y502D01*
X880Y502D01*
X880Y504D01*
X878Y504D01*
X878Y508D01*
X876Y508D01*
X876Y512D01*
X874Y512D01*
X874Y516D01*
X872Y516D01*
X872Y522D01*
X870Y522D01*
X870Y562D01*
X868Y562D01*
X868Y566D01*
X866Y566D01*
X866Y568D01*
X864Y568D01*
X864Y572D01*
X862Y572D01*
X862Y574D01*
X860Y574D01*
X860Y578D01*
X858Y578D01*
X858Y580D01*
X856Y580D01*
X856Y584D01*
X854Y584D01*
X854Y586D01*
X852Y586D01*
X852Y590D01*
X850Y590D01*
X850Y594D01*
X848Y594D01*
X848Y596D01*
X846Y596D01*
X846Y600D01*
X844Y600D01*
X844Y602D01*
X842Y602D01*
X842Y606D01*
X840Y606D01*
X840Y608D01*
X838Y608D01*
X838Y612D01*
X836Y612D01*
X836Y614D01*
X834Y614D01*
X834Y618D01*
X832Y618D01*
X832Y620D01*
X830Y620D01*
X830Y624D01*
X828Y624D01*
X828Y626D01*
X826Y626D01*
X826Y630D01*
X824Y630D01*
X824Y632D01*
X822Y632D01*
X822Y636D01*
X820Y636D01*
X820Y640D01*
X818Y640D01*
X818Y646D01*
X816Y646D01*
X816Y650D01*
X814Y650D01*
X814Y654D01*
X812Y654D01*
X812Y658D01*
X810Y658D01*
X810Y664D01*
X808Y664D01*
X808Y668D01*
X806Y668D01*
X806Y672D01*
X804Y672D01*
X804Y676D01*
X802Y676D01*
X802Y680D01*
X800Y680D01*
X800Y686D01*
X798Y686D01*
X798Y690D01*
X194Y690D01*
G37*
D02*
G36*
X186Y668D02*
X186Y638D01*
X288Y638D01*
X288Y636D01*
X294Y636D01*
X294Y634D01*
X300Y634D01*
X300Y632D01*
X304Y632D01*
X304Y630D01*
X306Y630D01*
X306Y628D01*
X310Y628D01*
X310Y626D01*
X312Y626D01*
X312Y624D01*
X314Y624D01*
X314Y622D01*
X316Y622D01*
X316Y620D01*
X318Y620D01*
X318Y618D01*
X320Y618D01*
X320Y616D01*
X322Y616D01*
X322Y614D01*
X324Y614D01*
X324Y610D01*
X326Y610D01*
X326Y606D01*
X328Y606D01*
X328Y602D01*
X330Y602D01*
X330Y598D01*
X332Y598D01*
X332Y594D01*
X336Y594D01*
X336Y592D01*
X342Y592D01*
X342Y590D01*
X348Y590D01*
X348Y588D01*
X352Y588D01*
X352Y586D01*
X358Y586D01*
X358Y584D01*
X364Y584D01*
X364Y582D01*
X368Y582D01*
X368Y580D01*
X374Y580D01*
X374Y578D01*
X380Y578D01*
X380Y576D01*
X384Y576D01*
X384Y574D01*
X390Y574D01*
X390Y572D01*
X396Y572D01*
X396Y570D01*
X422Y570D01*
X422Y588D01*
X420Y588D01*
X420Y590D01*
X418Y590D01*
X418Y594D01*
X416Y594D01*
X416Y598D01*
X414Y598D01*
X414Y604D01*
X412Y604D01*
X412Y626D01*
X414Y626D01*
X414Y632D01*
X416Y632D01*
X416Y636D01*
X418Y636D01*
X418Y638D01*
X420Y638D01*
X420Y642D01*
X422Y642D01*
X422Y644D01*
X424Y644D01*
X424Y646D01*
X426Y646D01*
X426Y650D01*
X428Y650D01*
X428Y652D01*
X432Y652D01*
X432Y654D01*
X434Y654D01*
X434Y656D01*
X436Y656D01*
X436Y658D01*
X438Y658D01*
X438Y660D01*
X442Y660D01*
X442Y662D01*
X446Y662D01*
X446Y664D01*
X452Y664D01*
X452Y666D01*
X462Y666D01*
X462Y668D01*
X186Y668D01*
G37*
D02*
G36*
X466Y668D02*
X466Y666D01*
X476Y666D01*
X476Y664D01*
X482Y664D01*
X482Y662D01*
X486Y662D01*
X486Y660D01*
X488Y660D01*
X488Y658D01*
X492Y658D01*
X492Y656D01*
X494Y656D01*
X494Y654D01*
X496Y654D01*
X496Y652D01*
X500Y652D01*
X500Y648D01*
X502Y648D01*
X502Y646D01*
X504Y646D01*
X504Y644D01*
X506Y644D01*
X506Y642D01*
X508Y642D01*
X508Y638D01*
X510Y638D01*
X510Y634D01*
X512Y634D01*
X512Y630D01*
X514Y630D01*
X514Y624D01*
X516Y624D01*
X516Y604D01*
X514Y604D01*
X514Y598D01*
X512Y598D01*
X512Y594D01*
X510Y594D01*
X510Y590D01*
X508Y590D01*
X508Y588D01*
X506Y588D01*
X506Y586D01*
X504Y586D01*
X504Y566D01*
X526Y566D01*
X526Y564D01*
X566Y564D01*
X566Y562D01*
X572Y562D01*
X572Y560D01*
X574Y560D01*
X574Y558D01*
X578Y558D01*
X578Y556D01*
X580Y556D01*
X580Y552D01*
X582Y552D01*
X582Y550D01*
X584Y550D01*
X584Y546D01*
X586Y546D01*
X586Y544D01*
X588Y544D01*
X588Y540D01*
X590Y540D01*
X590Y536D01*
X592Y536D01*
X592Y534D01*
X594Y534D01*
X594Y530D01*
X596Y530D01*
X596Y526D01*
X598Y526D01*
X598Y524D01*
X600Y524D01*
X600Y520D01*
X602Y520D01*
X602Y516D01*
X604Y516D01*
X604Y514D01*
X606Y514D01*
X606Y510D01*
X608Y510D01*
X608Y506D01*
X610Y506D01*
X610Y504D01*
X612Y504D01*
X612Y500D01*
X614Y500D01*
X614Y496D01*
X616Y496D01*
X616Y494D01*
X618Y494D01*
X618Y490D01*
X638Y490D01*
X638Y572D01*
X634Y572D01*
X634Y574D01*
X632Y574D01*
X632Y576D01*
X630Y576D01*
X630Y578D01*
X628Y578D01*
X628Y580D01*
X626Y580D01*
X626Y582D01*
X624Y582D01*
X624Y584D01*
X622Y584D01*
X622Y588D01*
X620Y588D01*
X620Y590D01*
X618Y590D01*
X618Y594D01*
X616Y594D01*
X616Y598D01*
X614Y598D01*
X614Y604D01*
X612Y604D01*
X612Y626D01*
X614Y626D01*
X614Y632D01*
X616Y632D01*
X616Y636D01*
X618Y636D01*
X618Y638D01*
X620Y638D01*
X620Y642D01*
X622Y642D01*
X622Y644D01*
X624Y644D01*
X624Y646D01*
X626Y646D01*
X626Y650D01*
X628Y650D01*
X628Y652D01*
X632Y652D01*
X632Y654D01*
X634Y654D01*
X634Y656D01*
X636Y656D01*
X636Y658D01*
X638Y658D01*
X638Y660D01*
X642Y660D01*
X642Y662D01*
X646Y662D01*
X646Y664D01*
X652Y664D01*
X652Y666D01*
X662Y666D01*
X662Y668D01*
X466Y668D01*
G37*
D02*
G36*
X1264Y664D02*
X1264Y660D01*
X1262Y660D01*
X1262Y658D01*
X1260Y658D01*
X1260Y654D01*
X1258Y654D01*
X1258Y652D01*
X1256Y652D01*
X1256Y650D01*
X1254Y650D01*
X1254Y646D01*
X1250Y646D01*
X1250Y644D01*
X1248Y644D01*
X1248Y642D01*
X1246Y642D01*
X1246Y640D01*
X1244Y640D01*
X1244Y638D01*
X1240Y638D01*
X1240Y636D01*
X1236Y636D01*
X1236Y634D01*
X1232Y634D01*
X1232Y632D01*
X1226Y632D01*
X1226Y630D01*
X1290Y630D01*
X1290Y632D01*
X1288Y632D01*
X1288Y634D01*
X1286Y634D01*
X1286Y640D01*
X1284Y640D01*
X1284Y648D01*
X1282Y648D01*
X1282Y660D01*
X1284Y660D01*
X1284Y664D01*
X1264Y664D01*
G37*
D02*
G36*
X186Y638D02*
X186Y626D01*
X184Y626D01*
X184Y624D01*
X176Y624D01*
X176Y604D01*
X178Y604D01*
X178Y600D01*
X180Y600D01*
X180Y596D01*
X182Y596D01*
X182Y592D01*
X184Y592D01*
X184Y580D01*
X186Y580D01*
X186Y578D01*
X184Y578D01*
X184Y566D01*
X182Y566D01*
X182Y560D01*
X180Y560D01*
X180Y558D01*
X178Y558D01*
X178Y554D01*
X176Y554D01*
X176Y550D01*
X174Y550D01*
X174Y548D01*
X172Y548D01*
X172Y546D01*
X170Y546D01*
X170Y544D01*
X168Y544D01*
X168Y542D01*
X166Y542D01*
X166Y540D01*
X164Y540D01*
X164Y538D01*
X162Y538D01*
X162Y536D01*
X160Y536D01*
X160Y534D01*
X156Y534D01*
X156Y532D01*
X276Y532D01*
X276Y534D01*
X268Y534D01*
X268Y536D01*
X262Y536D01*
X262Y538D01*
X258Y538D01*
X258Y540D01*
X256Y540D01*
X256Y542D01*
X252Y542D01*
X252Y544D01*
X250Y544D01*
X250Y546D01*
X248Y546D01*
X248Y548D01*
X246Y548D01*
X246Y550D01*
X244Y550D01*
X244Y552D01*
X242Y552D01*
X242Y554D01*
X240Y554D01*
X240Y556D01*
X238Y556D01*
X238Y558D01*
X236Y558D01*
X236Y562D01*
X234Y562D01*
X234Y566D01*
X232Y566D01*
X232Y570D01*
X230Y570D01*
X230Y576D01*
X228Y576D01*
X228Y594D01*
X230Y594D01*
X230Y600D01*
X232Y600D01*
X232Y606D01*
X234Y606D01*
X234Y608D01*
X236Y608D01*
X236Y612D01*
X238Y612D01*
X238Y614D01*
X240Y614D01*
X240Y616D01*
X242Y616D01*
X242Y620D01*
X244Y620D01*
X244Y622D01*
X246Y622D01*
X246Y624D01*
X250Y624D01*
X250Y626D01*
X252Y626D01*
X252Y628D01*
X254Y628D01*
X254Y630D01*
X258Y630D01*
X258Y632D01*
X262Y632D01*
X262Y634D01*
X266Y634D01*
X266Y636D01*
X272Y636D01*
X272Y638D01*
X186Y638D01*
G37*
D02*
G36*
X1076Y630D02*
X1076Y628D01*
X1290Y628D01*
X1290Y630D01*
X1076Y630D01*
G37*
D02*
G36*
X1076Y630D02*
X1076Y628D01*
X1290Y628D01*
X1290Y630D01*
X1076Y630D01*
G37*
D02*
G36*
X1076Y628D02*
X1076Y624D01*
X1078Y624D01*
X1078Y608D01*
X1080Y608D01*
X1080Y602D01*
X1324Y602D01*
X1324Y604D01*
X1318Y604D01*
X1318Y606D01*
X1314Y606D01*
X1314Y608D01*
X1310Y608D01*
X1310Y610D01*
X1308Y610D01*
X1308Y612D01*
X1304Y612D01*
X1304Y614D01*
X1302Y614D01*
X1302Y616D01*
X1300Y616D01*
X1300Y618D01*
X1298Y618D01*
X1298Y620D01*
X1296Y620D01*
X1296Y622D01*
X1294Y622D01*
X1294Y626D01*
X1292Y626D01*
X1292Y628D01*
X1076Y628D01*
G37*
D02*
G36*
X1080Y602D02*
X1080Y600D01*
X1458Y600D01*
X1458Y602D01*
X1080Y602D01*
G37*
D02*
G36*
X1080Y602D02*
X1080Y600D01*
X1458Y600D01*
X1458Y602D01*
X1080Y602D01*
G37*
D02*
G36*
X1080Y600D02*
X1080Y592D01*
X1082Y592D01*
X1082Y584D01*
X1230Y584D01*
X1230Y582D01*
X1236Y582D01*
X1236Y580D01*
X1242Y580D01*
X1242Y578D01*
X1244Y578D01*
X1244Y576D01*
X1248Y576D01*
X1248Y574D01*
X1252Y574D01*
X1252Y572D01*
X1254Y572D01*
X1254Y570D01*
X1256Y570D01*
X1256Y568D01*
X1258Y568D01*
X1258Y566D01*
X1260Y566D01*
X1260Y564D01*
X1262Y564D01*
X1262Y562D01*
X1264Y562D01*
X1264Y558D01*
X1266Y558D01*
X1266Y556D01*
X1268Y556D01*
X1268Y552D01*
X1270Y552D01*
X1270Y548D01*
X1272Y548D01*
X1272Y542D01*
X1274Y542D01*
X1274Y520D01*
X1272Y520D01*
X1272Y514D01*
X1270Y514D01*
X1270Y510D01*
X1268Y510D01*
X1268Y508D01*
X1266Y508D01*
X1266Y484D01*
X1268Y484D01*
X1268Y478D01*
X1270Y478D01*
X1270Y472D01*
X1272Y472D01*
X1272Y468D01*
X1274Y468D01*
X1274Y462D01*
X1276Y462D01*
X1276Y456D01*
X1278Y456D01*
X1278Y452D01*
X1280Y452D01*
X1280Y450D01*
X1286Y450D01*
X1286Y448D01*
X1290Y448D01*
X1290Y446D01*
X1292Y446D01*
X1292Y444D01*
X1296Y444D01*
X1296Y442D01*
X1298Y442D01*
X1298Y440D01*
X1300Y440D01*
X1300Y438D01*
X1302Y438D01*
X1302Y436D01*
X1304Y436D01*
X1304Y434D01*
X1306Y434D01*
X1306Y432D01*
X1308Y432D01*
X1308Y430D01*
X1310Y430D01*
X1310Y428D01*
X1312Y428D01*
X1312Y424D01*
X1314Y424D01*
X1314Y420D01*
X1336Y420D01*
X1336Y426D01*
X1338Y426D01*
X1338Y430D01*
X1340Y430D01*
X1340Y436D01*
X1342Y436D01*
X1342Y442D01*
X1344Y442D01*
X1344Y446D01*
X1346Y446D01*
X1346Y452D01*
X1348Y452D01*
X1348Y458D01*
X1350Y458D01*
X1350Y462D01*
X1352Y462D01*
X1352Y468D01*
X1354Y468D01*
X1354Y472D01*
X1356Y472D01*
X1356Y474D01*
X1358Y474D01*
X1358Y476D01*
X1360Y476D01*
X1360Y478D01*
X1362Y478D01*
X1362Y480D01*
X1364Y480D01*
X1364Y482D01*
X1368Y482D01*
X1368Y484D01*
X1370Y484D01*
X1370Y486D01*
X1372Y486D01*
X1372Y488D01*
X1376Y488D01*
X1376Y490D01*
X1378Y490D01*
X1378Y492D01*
X1382Y492D01*
X1382Y494D01*
X1384Y494D01*
X1384Y496D01*
X1386Y496D01*
X1386Y498D01*
X1390Y498D01*
X1390Y500D01*
X1392Y500D01*
X1392Y502D01*
X1396Y502D01*
X1396Y504D01*
X1398Y504D01*
X1398Y506D01*
X1400Y506D01*
X1400Y508D01*
X1404Y508D01*
X1404Y510D01*
X1406Y510D01*
X1406Y512D01*
X1410Y512D01*
X1410Y514D01*
X1412Y514D01*
X1412Y516D01*
X1414Y516D01*
X1414Y518D01*
X1418Y518D01*
X1418Y520D01*
X1420Y520D01*
X1420Y522D01*
X1424Y522D01*
X1424Y524D01*
X1426Y524D01*
X1426Y526D01*
X1428Y526D01*
X1428Y528D01*
X1432Y528D01*
X1432Y530D01*
X1434Y530D01*
X1434Y532D01*
X1438Y532D01*
X1438Y534D01*
X1440Y534D01*
X1440Y536D01*
X1442Y536D01*
X1442Y538D01*
X1446Y538D01*
X1446Y540D01*
X1448Y540D01*
X1448Y542D01*
X1450Y542D01*
X1450Y544D01*
X1454Y544D01*
X1454Y546D01*
X1456Y546D01*
X1456Y548D01*
X1458Y548D01*
X1458Y600D01*
X1080Y600D01*
G37*
D02*
G36*
X1082Y584D02*
X1082Y566D01*
X1080Y566D01*
X1080Y560D01*
X1078Y560D01*
X1078Y556D01*
X1076Y556D01*
X1076Y552D01*
X1074Y552D01*
X1074Y548D01*
X1072Y548D01*
X1072Y544D01*
X1070Y544D01*
X1070Y540D01*
X1068Y540D01*
X1068Y536D01*
X1066Y536D01*
X1066Y532D01*
X1064Y532D01*
X1064Y528D01*
X1062Y528D01*
X1062Y524D01*
X1060Y524D01*
X1060Y520D01*
X1058Y520D01*
X1058Y516D01*
X1056Y516D01*
X1056Y512D01*
X1054Y512D01*
X1054Y508D01*
X1052Y508D01*
X1052Y504D01*
X1050Y504D01*
X1050Y500D01*
X1048Y500D01*
X1048Y496D01*
X1046Y496D01*
X1046Y492D01*
X1044Y492D01*
X1044Y488D01*
X1042Y488D01*
X1042Y484D01*
X1040Y484D01*
X1040Y480D01*
X1038Y480D01*
X1038Y476D01*
X1036Y476D01*
X1036Y472D01*
X1034Y472D01*
X1034Y468D01*
X1032Y468D01*
X1032Y464D01*
X1030Y464D01*
X1030Y460D01*
X1028Y460D01*
X1028Y456D01*
X1026Y456D01*
X1026Y454D01*
X1172Y454D01*
X1172Y452D01*
X1180Y452D01*
X1180Y450D01*
X1186Y450D01*
X1186Y448D01*
X1190Y448D01*
X1190Y446D01*
X1192Y446D01*
X1192Y444D01*
X1196Y444D01*
X1196Y442D01*
X1198Y442D01*
X1198Y440D01*
X1200Y440D01*
X1200Y438D01*
X1202Y438D01*
X1202Y436D01*
X1222Y436D01*
X1222Y452D01*
X1220Y452D01*
X1220Y458D01*
X1218Y458D01*
X1218Y464D01*
X1216Y464D01*
X1216Y470D01*
X1214Y470D01*
X1214Y476D01*
X1212Y476D01*
X1212Y480D01*
X1210Y480D01*
X1210Y482D01*
X1204Y482D01*
X1204Y484D01*
X1200Y484D01*
X1200Y486D01*
X1198Y486D01*
X1198Y488D01*
X1194Y488D01*
X1194Y490D01*
X1192Y490D01*
X1192Y492D01*
X1190Y492D01*
X1190Y494D01*
X1186Y494D01*
X1186Y498D01*
X1184Y498D01*
X1184Y500D01*
X1182Y500D01*
X1182Y502D01*
X1180Y502D01*
X1180Y504D01*
X1178Y504D01*
X1178Y508D01*
X1176Y508D01*
X1176Y512D01*
X1174Y512D01*
X1174Y516D01*
X1172Y516D01*
X1172Y522D01*
X1170Y522D01*
X1170Y542D01*
X1172Y542D01*
X1172Y548D01*
X1174Y548D01*
X1174Y552D01*
X1176Y552D01*
X1176Y554D01*
X1178Y554D01*
X1178Y558D01*
X1180Y558D01*
X1180Y560D01*
X1182Y560D01*
X1182Y564D01*
X1184Y564D01*
X1184Y566D01*
X1186Y566D01*
X1186Y568D01*
X1188Y568D01*
X1188Y570D01*
X1190Y570D01*
X1190Y572D01*
X1194Y572D01*
X1194Y574D01*
X1196Y574D01*
X1196Y576D01*
X1200Y576D01*
X1200Y578D01*
X1202Y578D01*
X1202Y580D01*
X1208Y580D01*
X1208Y582D01*
X1214Y582D01*
X1214Y584D01*
X1082Y584D01*
G37*
D02*
G36*
X692Y564D02*
X692Y486D01*
X694Y486D01*
X694Y444D01*
X696Y444D01*
X696Y442D01*
X698Y442D01*
X698Y440D01*
X700Y440D01*
X700Y438D01*
X702Y438D01*
X702Y436D01*
X704Y436D01*
X704Y434D01*
X706Y434D01*
X706Y432D01*
X728Y432D01*
X728Y434D01*
X730Y434D01*
X730Y436D01*
X732Y436D01*
X732Y438D01*
X734Y438D01*
X734Y440D01*
X736Y440D01*
X736Y442D01*
X738Y442D01*
X738Y444D01*
X742Y444D01*
X742Y446D01*
X746Y446D01*
X746Y468D01*
X744Y468D01*
X744Y470D01*
X742Y470D01*
X742Y472D01*
X738Y472D01*
X738Y474D01*
X736Y474D01*
X736Y476D01*
X734Y476D01*
X734Y480D01*
X732Y480D01*
X732Y482D01*
X730Y482D01*
X730Y484D01*
X728Y484D01*
X728Y488D01*
X726Y488D01*
X726Y490D01*
X724Y490D01*
X724Y496D01*
X722Y496D01*
X722Y502D01*
X720Y502D01*
X720Y520D01*
X722Y520D01*
X722Y526D01*
X724Y526D01*
X724Y532D01*
X726Y532D01*
X726Y534D01*
X728Y534D01*
X728Y538D01*
X730Y538D01*
X730Y540D01*
X732Y540D01*
X732Y542D01*
X734Y542D01*
X734Y546D01*
X736Y546D01*
X736Y548D01*
X740Y548D01*
X740Y550D01*
X742Y550D01*
X742Y552D01*
X744Y552D01*
X744Y554D01*
X746Y554D01*
X746Y556D01*
X750Y556D01*
X750Y558D01*
X754Y558D01*
X754Y560D01*
X758Y560D01*
X758Y562D01*
X766Y562D01*
X766Y564D01*
X692Y564D01*
G37*
D02*
G36*
X302Y540D02*
X302Y538D01*
X298Y538D01*
X298Y536D01*
X294Y536D01*
X294Y534D01*
X284Y534D01*
X284Y532D01*
X342Y532D01*
X342Y534D01*
X338Y534D01*
X338Y536D01*
X332Y536D01*
X332Y538D01*
X326Y538D01*
X326Y540D01*
X302Y540D01*
G37*
D02*
G36*
X152Y532D02*
X152Y530D01*
X348Y530D01*
X348Y532D01*
X152Y532D01*
G37*
D02*
G36*
X152Y532D02*
X152Y530D01*
X348Y530D01*
X348Y532D01*
X152Y532D01*
G37*
D02*
G36*
X148Y530D02*
X148Y528D01*
X144Y528D01*
X144Y526D01*
X132Y526D01*
X132Y524D01*
X364Y524D01*
X364Y526D01*
X358Y526D01*
X358Y528D01*
X354Y528D01*
X354Y530D01*
X148Y530D01*
G37*
D02*
G36*
X40Y524D02*
X40Y522D01*
X370Y522D01*
X370Y524D01*
X40Y524D01*
G37*
D02*
G36*
X40Y524D02*
X40Y522D01*
X370Y522D01*
X370Y524D01*
X40Y524D01*
G37*
D02*
G36*
X40Y522D02*
X40Y42D01*
X442Y42D01*
X442Y74D01*
X444Y74D01*
X444Y78D01*
X446Y78D01*
X446Y82D01*
X448Y82D01*
X448Y86D01*
X450Y86D01*
X450Y90D01*
X452Y90D01*
X452Y92D01*
X454Y92D01*
X454Y94D01*
X456Y94D01*
X456Y96D01*
X458Y96D01*
X458Y98D01*
X460Y98D01*
X460Y100D01*
X462Y100D01*
X462Y122D01*
X460Y122D01*
X460Y124D01*
X458Y124D01*
X458Y126D01*
X456Y126D01*
X456Y128D01*
X454Y128D01*
X454Y130D01*
X452Y130D01*
X452Y132D01*
X450Y132D01*
X450Y136D01*
X448Y136D01*
X448Y140D01*
X446Y140D01*
X446Y144D01*
X444Y144D01*
X444Y148D01*
X442Y148D01*
X442Y174D01*
X444Y174D01*
X444Y178D01*
X446Y178D01*
X446Y182D01*
X448Y182D01*
X448Y186D01*
X450Y186D01*
X450Y190D01*
X452Y190D01*
X452Y192D01*
X454Y192D01*
X454Y194D01*
X456Y194D01*
X456Y196D01*
X458Y196D01*
X458Y198D01*
X460Y198D01*
X460Y200D01*
X462Y200D01*
X462Y222D01*
X460Y222D01*
X460Y224D01*
X458Y224D01*
X458Y226D01*
X456Y226D01*
X456Y228D01*
X454Y228D01*
X454Y230D01*
X452Y230D01*
X452Y232D01*
X450Y232D01*
X450Y236D01*
X448Y236D01*
X448Y240D01*
X446Y240D01*
X446Y244D01*
X444Y244D01*
X444Y248D01*
X442Y248D01*
X442Y274D01*
X444Y274D01*
X444Y278D01*
X446Y278D01*
X446Y282D01*
X448Y282D01*
X448Y286D01*
X450Y286D01*
X450Y290D01*
X452Y290D01*
X452Y292D01*
X454Y292D01*
X454Y294D01*
X456Y294D01*
X456Y296D01*
X458Y296D01*
X458Y298D01*
X460Y298D01*
X460Y300D01*
X462Y300D01*
X462Y322D01*
X460Y322D01*
X460Y324D01*
X458Y324D01*
X458Y326D01*
X456Y326D01*
X456Y328D01*
X454Y328D01*
X454Y330D01*
X452Y330D01*
X452Y332D01*
X450Y332D01*
X450Y336D01*
X448Y336D01*
X448Y340D01*
X446Y340D01*
X446Y344D01*
X444Y344D01*
X444Y348D01*
X442Y348D01*
X442Y374D01*
X444Y374D01*
X444Y378D01*
X446Y378D01*
X446Y382D01*
X448Y382D01*
X448Y386D01*
X450Y386D01*
X450Y406D01*
X442Y406D01*
X442Y514D01*
X406Y514D01*
X406Y516D01*
X386Y516D01*
X386Y518D01*
X380Y518D01*
X380Y520D01*
X374Y520D01*
X374Y522D01*
X40Y522D01*
G37*
D02*
G36*
X956Y494D02*
X956Y492D01*
X952Y492D01*
X952Y490D01*
X950Y490D01*
X950Y488D01*
X948Y488D01*
X948Y486D01*
X944Y486D01*
X944Y484D01*
X940Y484D01*
X940Y482D01*
X936Y482D01*
X936Y480D01*
X926Y480D01*
X926Y478D01*
X970Y478D01*
X970Y482D01*
X972Y482D01*
X972Y486D01*
X974Y486D01*
X974Y492D01*
X976Y492D01*
X976Y494D01*
X956Y494D01*
G37*
D02*
G36*
X810Y478D02*
X810Y476D01*
X968Y476D01*
X968Y478D01*
X810Y478D01*
G37*
D02*
G36*
X810Y478D02*
X810Y476D01*
X968Y476D01*
X968Y478D01*
X810Y478D01*
G37*
D02*
G36*
X808Y476D02*
X808Y474D01*
X806Y474D01*
X806Y472D01*
X804Y472D01*
X804Y470D01*
X800Y470D01*
X800Y468D01*
X798Y468D01*
X798Y466D01*
X794Y466D01*
X794Y464D01*
X792Y464D01*
X792Y454D01*
X872Y454D01*
X872Y452D01*
X880Y452D01*
X880Y450D01*
X886Y450D01*
X886Y448D01*
X890Y448D01*
X890Y446D01*
X892Y446D01*
X892Y444D01*
X896Y444D01*
X896Y442D01*
X898Y442D01*
X898Y440D01*
X900Y440D01*
X900Y438D01*
X902Y438D01*
X902Y436D01*
X904Y436D01*
X904Y434D01*
X906Y434D01*
X906Y432D01*
X928Y432D01*
X928Y434D01*
X930Y434D01*
X930Y436D01*
X932Y436D01*
X932Y438D01*
X934Y438D01*
X934Y440D01*
X936Y440D01*
X936Y442D01*
X938Y442D01*
X938Y444D01*
X942Y444D01*
X942Y446D01*
X946Y446D01*
X946Y448D01*
X948Y448D01*
X948Y450D01*
X954Y450D01*
X954Y452D01*
X958Y452D01*
X958Y456D01*
X960Y456D01*
X960Y460D01*
X962Y460D01*
X962Y466D01*
X964Y466D01*
X964Y470D01*
X966Y470D01*
X966Y474D01*
X968Y474D01*
X968Y476D01*
X808Y476D01*
G37*
D02*
G36*
X792Y454D02*
X792Y444D01*
X796Y444D01*
X796Y442D01*
X798Y442D01*
X798Y440D01*
X800Y440D01*
X800Y438D01*
X802Y438D01*
X802Y436D01*
X804Y436D01*
X804Y434D01*
X806Y434D01*
X806Y432D01*
X828Y432D01*
X828Y434D01*
X830Y434D01*
X830Y436D01*
X832Y436D01*
X832Y438D01*
X834Y438D01*
X834Y440D01*
X836Y440D01*
X836Y442D01*
X838Y442D01*
X838Y444D01*
X842Y444D01*
X842Y446D01*
X846Y446D01*
X846Y448D01*
X848Y448D01*
X848Y450D01*
X854Y450D01*
X854Y452D01*
X862Y452D01*
X862Y454D01*
X792Y454D01*
G37*
D02*
G36*
X1026Y454D02*
X1026Y452D01*
X1024Y452D01*
X1024Y448D01*
X1022Y448D01*
X1022Y444D01*
X1042Y444D01*
X1042Y446D01*
X1046Y446D01*
X1046Y448D01*
X1048Y448D01*
X1048Y450D01*
X1054Y450D01*
X1054Y452D01*
X1062Y452D01*
X1062Y454D01*
X1026Y454D01*
G37*
D02*
G36*
X1072Y454D02*
X1072Y452D01*
X1080Y452D01*
X1080Y450D01*
X1086Y450D01*
X1086Y448D01*
X1090Y448D01*
X1090Y446D01*
X1092Y446D01*
X1092Y444D01*
X1096Y444D01*
X1096Y442D01*
X1098Y442D01*
X1098Y440D01*
X1100Y440D01*
X1100Y438D01*
X1102Y438D01*
X1102Y436D01*
X1104Y436D01*
X1104Y434D01*
X1106Y434D01*
X1106Y432D01*
X1128Y432D01*
X1128Y434D01*
X1130Y434D01*
X1130Y436D01*
X1132Y436D01*
X1132Y438D01*
X1134Y438D01*
X1134Y440D01*
X1136Y440D01*
X1136Y442D01*
X1138Y442D01*
X1138Y444D01*
X1142Y444D01*
X1142Y446D01*
X1146Y446D01*
X1146Y448D01*
X1148Y448D01*
X1148Y450D01*
X1154Y450D01*
X1154Y452D01*
X1162Y452D01*
X1162Y454D01*
X1072Y454D01*
G37*
D02*
G36*
X1398Y436D02*
X1398Y432D01*
X1396Y432D01*
X1396Y426D01*
X1394Y426D01*
X1394Y424D01*
X1414Y424D01*
X1414Y426D01*
X1416Y426D01*
X1416Y428D01*
X1420Y428D01*
X1420Y430D01*
X1422Y430D01*
X1422Y432D01*
X1428Y432D01*
X1428Y434D01*
X1434Y434D01*
X1434Y436D01*
X1398Y436D01*
G37*
D02*
G36*
X706Y370D02*
X706Y368D01*
X704Y368D01*
X704Y364D01*
X700Y364D01*
X700Y362D01*
X698Y362D01*
X698Y360D01*
X696Y360D01*
X696Y358D01*
X694Y358D01*
X694Y356D01*
X690Y356D01*
X690Y354D01*
X686Y354D01*
X686Y352D01*
X682Y352D01*
X682Y350D01*
X674Y350D01*
X674Y348D01*
X762Y348D01*
X762Y350D01*
X754Y350D01*
X754Y352D01*
X748Y352D01*
X748Y354D01*
X746Y354D01*
X746Y356D01*
X742Y356D01*
X742Y358D01*
X738Y358D01*
X738Y360D01*
X736Y360D01*
X736Y362D01*
X734Y362D01*
X734Y364D01*
X732Y364D01*
X732Y366D01*
X730Y366D01*
X730Y368D01*
X728Y368D01*
X728Y370D01*
X706Y370D01*
G37*
D02*
G36*
X806Y370D02*
X806Y368D01*
X804Y368D01*
X804Y364D01*
X800Y364D01*
X800Y362D01*
X798Y362D01*
X798Y360D01*
X796Y360D01*
X796Y358D01*
X794Y358D01*
X794Y356D01*
X790Y356D01*
X790Y354D01*
X786Y354D01*
X786Y352D01*
X782Y352D01*
X782Y350D01*
X774Y350D01*
X774Y348D01*
X862Y348D01*
X862Y350D01*
X854Y350D01*
X854Y352D01*
X848Y352D01*
X848Y354D01*
X846Y354D01*
X846Y356D01*
X842Y356D01*
X842Y358D01*
X838Y358D01*
X838Y360D01*
X836Y360D01*
X836Y362D01*
X834Y362D01*
X834Y364D01*
X832Y364D01*
X832Y366D01*
X830Y366D01*
X830Y368D01*
X828Y368D01*
X828Y370D01*
X806Y370D01*
G37*
D02*
G36*
X906Y370D02*
X906Y368D01*
X904Y368D01*
X904Y364D01*
X900Y364D01*
X900Y362D01*
X898Y362D01*
X898Y360D01*
X896Y360D01*
X896Y358D01*
X894Y358D01*
X894Y356D01*
X890Y356D01*
X890Y354D01*
X886Y354D01*
X886Y352D01*
X882Y352D01*
X882Y350D01*
X874Y350D01*
X874Y348D01*
X962Y348D01*
X962Y350D01*
X954Y350D01*
X954Y352D01*
X948Y352D01*
X948Y354D01*
X946Y354D01*
X946Y356D01*
X942Y356D01*
X942Y358D01*
X938Y358D01*
X938Y360D01*
X936Y360D01*
X936Y362D01*
X934Y362D01*
X934Y364D01*
X932Y364D01*
X932Y366D01*
X930Y366D01*
X930Y368D01*
X928Y368D01*
X928Y370D01*
X906Y370D01*
G37*
D02*
G36*
X1372Y368D02*
X1372Y362D01*
X1370Y362D01*
X1370Y356D01*
X1368Y356D01*
X1368Y352D01*
X1366Y352D01*
X1366Y346D01*
X1364Y346D01*
X1364Y340D01*
X1362Y340D01*
X1362Y336D01*
X1360Y336D01*
X1360Y330D01*
X1358Y330D01*
X1358Y324D01*
X1356Y324D01*
X1356Y320D01*
X1354Y320D01*
X1354Y314D01*
X1352Y314D01*
X1352Y308D01*
X1350Y308D01*
X1350Y302D01*
X1348Y302D01*
X1348Y298D01*
X1346Y298D01*
X1346Y292D01*
X1344Y292D01*
X1344Y288D01*
X1342Y288D01*
X1342Y286D01*
X1340Y286D01*
X1340Y284D01*
X1338Y284D01*
X1338Y282D01*
X1336Y282D01*
X1336Y280D01*
X1332Y280D01*
X1332Y278D01*
X1326Y278D01*
X1326Y276D01*
X1090Y276D01*
X1090Y274D01*
X1448Y274D01*
X1448Y280D01*
X1446Y280D01*
X1446Y286D01*
X1444Y286D01*
X1444Y292D01*
X1442Y292D01*
X1442Y298D01*
X1440Y298D01*
X1440Y304D01*
X1438Y304D01*
X1438Y312D01*
X1436Y312D01*
X1436Y318D01*
X1434Y318D01*
X1434Y324D01*
X1432Y324D01*
X1432Y330D01*
X1430Y330D01*
X1430Y334D01*
X1424Y334D01*
X1424Y336D01*
X1420Y336D01*
X1420Y338D01*
X1418Y338D01*
X1418Y340D01*
X1414Y340D01*
X1414Y342D01*
X1412Y342D01*
X1412Y344D01*
X1410Y344D01*
X1410Y346D01*
X1406Y346D01*
X1406Y348D01*
X1404Y348D01*
X1404Y352D01*
X1402Y352D01*
X1402Y354D01*
X1400Y354D01*
X1400Y356D01*
X1398Y356D01*
X1398Y360D01*
X1396Y360D01*
X1396Y362D01*
X1394Y362D01*
X1394Y368D01*
X1372Y368D01*
G37*
D02*
G36*
X626Y356D02*
X626Y350D01*
X628Y350D01*
X628Y348D01*
X662Y348D01*
X662Y350D01*
X654Y350D01*
X654Y352D01*
X648Y352D01*
X648Y354D01*
X646Y354D01*
X646Y356D01*
X626Y356D01*
G37*
D02*
G36*
X628Y348D02*
X628Y346D01*
X972Y346D01*
X972Y348D01*
X628Y348D01*
G37*
D02*
G36*
X628Y348D02*
X628Y346D01*
X972Y346D01*
X972Y348D01*
X628Y348D01*
G37*
D02*
G36*
X628Y348D02*
X628Y346D01*
X972Y346D01*
X972Y348D01*
X628Y348D01*
G37*
D02*
G36*
X628Y348D02*
X628Y346D01*
X972Y346D01*
X972Y348D01*
X628Y348D01*
G37*
D02*
G36*
X630Y346D02*
X630Y342D01*
X632Y342D01*
X632Y340D01*
X634Y340D01*
X634Y336D01*
X636Y336D01*
X636Y332D01*
X638Y332D01*
X638Y328D01*
X640Y328D01*
X640Y324D01*
X642Y324D01*
X642Y320D01*
X644Y320D01*
X644Y316D01*
X646Y316D01*
X646Y314D01*
X648Y314D01*
X648Y310D01*
X650Y310D01*
X650Y306D01*
X652Y306D01*
X652Y302D01*
X654Y302D01*
X654Y298D01*
X656Y298D01*
X656Y294D01*
X658Y294D01*
X658Y290D01*
X660Y290D01*
X660Y286D01*
X662Y286D01*
X662Y284D01*
X664Y284D01*
X664Y282D01*
X994Y282D01*
X994Y280D01*
X998Y280D01*
X998Y278D01*
X1002Y278D01*
X1002Y276D01*
X1004Y276D01*
X1004Y274D01*
X1034Y274D01*
X1034Y276D01*
X1026Y276D01*
X1026Y278D01*
X1022Y278D01*
X1022Y280D01*
X1020Y280D01*
X1020Y282D01*
X1018Y282D01*
X1018Y284D01*
X1016Y284D01*
X1016Y286D01*
X1014Y286D01*
X1014Y288D01*
X1012Y288D01*
X1012Y292D01*
X1010Y292D01*
X1010Y294D01*
X1008Y294D01*
X1008Y298D01*
X1006Y298D01*
X1006Y300D01*
X1004Y300D01*
X1004Y304D01*
X1002Y304D01*
X1002Y306D01*
X1000Y306D01*
X1000Y308D01*
X998Y308D01*
X998Y312D01*
X996Y312D01*
X996Y314D01*
X994Y314D01*
X994Y318D01*
X992Y318D01*
X992Y320D01*
X990Y320D01*
X990Y324D01*
X988Y324D01*
X988Y326D01*
X986Y326D01*
X986Y328D01*
X984Y328D01*
X984Y332D01*
X982Y332D01*
X982Y334D01*
X980Y334D01*
X980Y338D01*
X978Y338D01*
X978Y340D01*
X976Y340D01*
X976Y344D01*
X974Y344D01*
X974Y346D01*
X630Y346D01*
G37*
D02*
G36*
X664Y282D02*
X664Y280D01*
X740Y280D01*
X740Y278D01*
X862Y278D01*
X862Y276D01*
X968Y276D01*
X968Y278D01*
X972Y278D01*
X972Y280D01*
X976Y280D01*
X976Y282D01*
X664Y282D01*
G37*
D02*
G36*
X1006Y274D02*
X1006Y272D01*
X1450Y272D01*
X1450Y274D01*
X1006Y274D01*
G37*
D02*
G36*
X1006Y274D02*
X1006Y272D01*
X1450Y272D01*
X1450Y274D01*
X1006Y274D01*
G37*
D02*
G36*
X1008Y272D02*
X1008Y270D01*
X1010Y270D01*
X1010Y268D01*
X1012Y268D01*
X1012Y266D01*
X1014Y266D01*
X1014Y264D01*
X1016Y264D01*
X1016Y260D01*
X1018Y260D01*
X1018Y254D01*
X1020Y254D01*
X1020Y242D01*
X1018Y242D01*
X1018Y220D01*
X1116Y220D01*
X1116Y218D01*
X1308Y218D01*
X1308Y216D01*
X1314Y216D01*
X1314Y214D01*
X1318Y214D01*
X1318Y212D01*
X1320Y212D01*
X1320Y210D01*
X1322Y210D01*
X1322Y208D01*
X1326Y208D01*
X1326Y206D01*
X1328Y206D01*
X1328Y204D01*
X1330Y204D01*
X1330Y202D01*
X1332Y202D01*
X1332Y200D01*
X1336Y200D01*
X1336Y198D01*
X1338Y198D01*
X1338Y196D01*
X1340Y196D01*
X1340Y194D01*
X1344Y194D01*
X1344Y192D01*
X1346Y192D01*
X1346Y190D01*
X1348Y190D01*
X1348Y188D01*
X1352Y188D01*
X1352Y186D01*
X1354Y186D01*
X1354Y184D01*
X1356Y184D01*
X1356Y182D01*
X1360Y182D01*
X1360Y180D01*
X1362Y180D01*
X1362Y178D01*
X1364Y178D01*
X1364Y176D01*
X1366Y176D01*
X1366Y174D01*
X1370Y174D01*
X1370Y172D01*
X1372Y172D01*
X1372Y170D01*
X1374Y170D01*
X1374Y168D01*
X1378Y168D01*
X1378Y166D01*
X1380Y166D01*
X1380Y164D01*
X1382Y164D01*
X1382Y162D01*
X1386Y162D01*
X1386Y160D01*
X1388Y160D01*
X1388Y158D01*
X1390Y158D01*
X1390Y156D01*
X1392Y156D01*
X1392Y154D01*
X1396Y154D01*
X1396Y152D01*
X1398Y152D01*
X1398Y150D01*
X1400Y150D01*
X1400Y148D01*
X1404Y148D01*
X1404Y146D01*
X1406Y146D01*
X1406Y144D01*
X1408Y144D01*
X1408Y142D01*
X1412Y142D01*
X1412Y140D01*
X1414Y140D01*
X1414Y138D01*
X1416Y138D01*
X1416Y136D01*
X1450Y136D01*
X1450Y134D01*
X1456Y134D01*
X1456Y132D01*
X1462Y132D01*
X1462Y130D01*
X1464Y130D01*
X1464Y128D01*
X1468Y128D01*
X1468Y126D01*
X1470Y126D01*
X1470Y124D01*
X1474Y124D01*
X1474Y122D01*
X1476Y122D01*
X1476Y120D01*
X1478Y120D01*
X1478Y118D01*
X1480Y118D01*
X1480Y116D01*
X1482Y116D01*
X1482Y114D01*
X1484Y114D01*
X1484Y110D01*
X1486Y110D01*
X1486Y108D01*
X1488Y108D01*
X1488Y104D01*
X1490Y104D01*
X1490Y100D01*
X1492Y100D01*
X1492Y94D01*
X1494Y94D01*
X1494Y82D01*
X1628Y82D01*
X1628Y84D01*
X1620Y84D01*
X1620Y86D01*
X1614Y86D01*
X1614Y88D01*
X1612Y88D01*
X1612Y90D01*
X1608Y90D01*
X1608Y92D01*
X1604Y92D01*
X1604Y94D01*
X1602Y94D01*
X1602Y96D01*
X1600Y96D01*
X1600Y98D01*
X1598Y98D01*
X1598Y100D01*
X1596Y100D01*
X1596Y102D01*
X1594Y102D01*
X1594Y104D01*
X1592Y104D01*
X1592Y106D01*
X1590Y106D01*
X1590Y110D01*
X1588Y110D01*
X1588Y112D01*
X1586Y112D01*
X1586Y116D01*
X1584Y116D01*
X1584Y120D01*
X1582Y120D01*
X1582Y126D01*
X1580Y126D01*
X1580Y132D01*
X1576Y132D01*
X1576Y134D01*
X1572Y134D01*
X1572Y136D01*
X1568Y136D01*
X1568Y138D01*
X1564Y138D01*
X1564Y140D01*
X1560Y140D01*
X1560Y142D01*
X1556Y142D01*
X1556Y144D01*
X1550Y144D01*
X1550Y146D01*
X1546Y146D01*
X1546Y148D01*
X1542Y148D01*
X1542Y150D01*
X1538Y150D01*
X1538Y152D01*
X1534Y152D01*
X1534Y154D01*
X1530Y154D01*
X1530Y156D01*
X1524Y156D01*
X1524Y158D01*
X1520Y158D01*
X1520Y160D01*
X1516Y160D01*
X1516Y162D01*
X1512Y162D01*
X1512Y164D01*
X1508Y164D01*
X1508Y166D01*
X1504Y166D01*
X1504Y168D01*
X1498Y168D01*
X1498Y170D01*
X1494Y170D01*
X1494Y172D01*
X1490Y172D01*
X1490Y174D01*
X1486Y174D01*
X1486Y176D01*
X1484Y176D01*
X1484Y178D01*
X1482Y178D01*
X1482Y180D01*
X1480Y180D01*
X1480Y184D01*
X1478Y184D01*
X1478Y188D01*
X1476Y188D01*
X1476Y194D01*
X1474Y194D01*
X1474Y200D01*
X1472Y200D01*
X1472Y206D01*
X1470Y206D01*
X1470Y212D01*
X1468Y212D01*
X1468Y218D01*
X1466Y218D01*
X1466Y224D01*
X1464Y224D01*
X1464Y230D01*
X1462Y230D01*
X1462Y236D01*
X1460Y236D01*
X1460Y244D01*
X1458Y244D01*
X1458Y250D01*
X1456Y250D01*
X1456Y256D01*
X1454Y256D01*
X1454Y262D01*
X1452Y262D01*
X1452Y268D01*
X1450Y268D01*
X1450Y272D01*
X1008Y272D01*
G37*
D02*
G36*
X1494Y82D02*
X1494Y80D01*
X1730Y80D01*
X1730Y82D01*
X1494Y82D01*
G37*
D02*
G36*
X1494Y82D02*
X1494Y80D01*
X1730Y80D01*
X1730Y82D01*
X1494Y82D01*
G37*
D02*
G36*
X1494Y80D02*
X1494Y72D01*
X1492Y72D01*
X1492Y66D01*
X1490Y66D01*
X1490Y62D01*
X1488Y62D01*
X1488Y42D01*
X1730Y42D01*
X1730Y80D01*
X1494Y80D01*
G37*
D02*
G36*
X546Y348D02*
X546Y342D01*
X544Y342D01*
X544Y340D01*
X542Y340D01*
X542Y336D01*
X540Y336D01*
X540Y332D01*
X538Y332D01*
X538Y330D01*
X536Y330D01*
X536Y328D01*
X534Y328D01*
X534Y326D01*
X532Y326D01*
X532Y324D01*
X530Y324D01*
X530Y322D01*
X528Y322D01*
X528Y300D01*
X530Y300D01*
X530Y298D01*
X532Y298D01*
X532Y296D01*
X534Y296D01*
X534Y294D01*
X536Y294D01*
X536Y292D01*
X538Y292D01*
X538Y290D01*
X540Y290D01*
X540Y286D01*
X542Y286D01*
X542Y282D01*
X544Y282D01*
X544Y278D01*
X546Y278D01*
X546Y274D01*
X548Y274D01*
X548Y262D01*
X550Y262D01*
X550Y260D01*
X548Y260D01*
X548Y248D01*
X546Y248D01*
X546Y242D01*
X544Y242D01*
X544Y240D01*
X542Y240D01*
X542Y236D01*
X540Y236D01*
X540Y232D01*
X538Y232D01*
X538Y230D01*
X536Y230D01*
X536Y228D01*
X534Y228D01*
X534Y226D01*
X532Y226D01*
X532Y224D01*
X530Y224D01*
X530Y222D01*
X528Y222D01*
X528Y200D01*
X530Y200D01*
X530Y198D01*
X532Y198D01*
X532Y196D01*
X534Y196D01*
X534Y194D01*
X536Y194D01*
X536Y192D01*
X538Y192D01*
X538Y190D01*
X540Y190D01*
X540Y186D01*
X542Y186D01*
X542Y182D01*
X544Y182D01*
X544Y178D01*
X546Y178D01*
X546Y174D01*
X548Y174D01*
X548Y162D01*
X550Y162D01*
X550Y160D01*
X548Y160D01*
X548Y154D01*
X872Y154D01*
X872Y152D01*
X880Y152D01*
X880Y150D01*
X886Y150D01*
X886Y148D01*
X890Y148D01*
X890Y146D01*
X892Y146D01*
X892Y144D01*
X896Y144D01*
X896Y142D01*
X898Y142D01*
X898Y140D01*
X900Y140D01*
X900Y138D01*
X902Y138D01*
X902Y136D01*
X904Y136D01*
X904Y134D01*
X906Y134D01*
X906Y132D01*
X928Y132D01*
X928Y134D01*
X930Y134D01*
X930Y136D01*
X932Y136D01*
X932Y138D01*
X934Y138D01*
X934Y140D01*
X936Y140D01*
X936Y142D01*
X938Y142D01*
X938Y144D01*
X942Y144D01*
X942Y146D01*
X946Y146D01*
X946Y148D01*
X948Y148D01*
X948Y150D01*
X954Y150D01*
X954Y152D01*
X962Y152D01*
X962Y154D01*
X968Y154D01*
X968Y158D01*
X970Y158D01*
X970Y162D01*
X972Y162D01*
X972Y166D01*
X974Y166D01*
X974Y168D01*
X976Y168D01*
X976Y172D01*
X978Y172D01*
X978Y176D01*
X980Y176D01*
X980Y178D01*
X982Y178D01*
X982Y182D01*
X984Y182D01*
X984Y186D01*
X986Y186D01*
X986Y190D01*
X988Y190D01*
X988Y192D01*
X990Y192D01*
X990Y214D01*
X976Y214D01*
X976Y216D01*
X972Y216D01*
X972Y218D01*
X968Y218D01*
X968Y220D01*
X966Y220D01*
X966Y222D01*
X860Y222D01*
X860Y224D01*
X738Y224D01*
X738Y226D01*
X644Y226D01*
X644Y228D01*
X636Y228D01*
X636Y230D01*
X634Y230D01*
X634Y232D01*
X630Y232D01*
X630Y234D01*
X628Y234D01*
X628Y236D01*
X626Y236D01*
X626Y240D01*
X624Y240D01*
X624Y244D01*
X622Y244D01*
X622Y246D01*
X620Y246D01*
X620Y250D01*
X618Y250D01*
X618Y254D01*
X616Y254D01*
X616Y258D01*
X614Y258D01*
X614Y262D01*
X612Y262D01*
X612Y266D01*
X610Y266D01*
X610Y270D01*
X608Y270D01*
X608Y274D01*
X606Y274D01*
X606Y276D01*
X604Y276D01*
X604Y280D01*
X602Y280D01*
X602Y284D01*
X600Y284D01*
X600Y288D01*
X598Y288D01*
X598Y292D01*
X596Y292D01*
X596Y296D01*
X594Y296D01*
X594Y300D01*
X592Y300D01*
X592Y304D01*
X590Y304D01*
X590Y306D01*
X588Y306D01*
X588Y310D01*
X586Y310D01*
X586Y314D01*
X584Y314D01*
X584Y318D01*
X582Y318D01*
X582Y322D01*
X580Y322D01*
X580Y326D01*
X578Y326D01*
X578Y330D01*
X576Y330D01*
X576Y334D01*
X574Y334D01*
X574Y338D01*
X572Y338D01*
X572Y340D01*
X570Y340D01*
X570Y344D01*
X568Y344D01*
X568Y348D01*
X546Y348D01*
G37*
D02*
G36*
X548Y154D02*
X548Y148D01*
X546Y148D01*
X546Y142D01*
X544Y142D01*
X544Y140D01*
X542Y140D01*
X542Y136D01*
X540Y136D01*
X540Y132D01*
X538Y132D01*
X538Y130D01*
X536Y130D01*
X536Y128D01*
X534Y128D01*
X534Y126D01*
X532Y126D01*
X532Y124D01*
X530Y124D01*
X530Y122D01*
X528Y122D01*
X528Y100D01*
X530Y100D01*
X530Y98D01*
X532Y98D01*
X532Y96D01*
X534Y96D01*
X534Y94D01*
X536Y94D01*
X536Y92D01*
X538Y92D01*
X538Y90D01*
X540Y90D01*
X540Y86D01*
X542Y86D01*
X542Y82D01*
X544Y82D01*
X544Y78D01*
X546Y78D01*
X546Y74D01*
X548Y74D01*
X548Y62D01*
X550Y62D01*
X550Y42D01*
X614Y42D01*
X614Y152D01*
X616Y152D01*
X616Y154D01*
X548Y154D01*
G37*
D02*
G36*
X720Y154D02*
X720Y144D01*
X742Y144D01*
X742Y146D01*
X746Y146D01*
X746Y148D01*
X748Y148D01*
X748Y150D01*
X754Y150D01*
X754Y152D01*
X762Y152D01*
X762Y154D01*
X720Y154D01*
G37*
D02*
G36*
X772Y154D02*
X772Y152D01*
X780Y152D01*
X780Y150D01*
X786Y150D01*
X786Y148D01*
X790Y148D01*
X790Y146D01*
X792Y146D01*
X792Y144D01*
X796Y144D01*
X796Y142D01*
X798Y142D01*
X798Y140D01*
X800Y140D01*
X800Y138D01*
X802Y138D01*
X802Y136D01*
X804Y136D01*
X804Y134D01*
X806Y134D01*
X806Y132D01*
X828Y132D01*
X828Y134D01*
X830Y134D01*
X830Y136D01*
X832Y136D01*
X832Y138D01*
X834Y138D01*
X834Y140D01*
X836Y140D01*
X836Y142D01*
X838Y142D01*
X838Y144D01*
X842Y144D01*
X842Y146D01*
X846Y146D01*
X846Y148D01*
X848Y148D01*
X848Y150D01*
X854Y150D01*
X854Y152D01*
X862Y152D01*
X862Y154D01*
X772Y154D01*
G37*
D02*
G36*
X1090Y166D02*
X1090Y146D01*
X1092Y146D01*
X1092Y144D01*
X1096Y144D01*
X1096Y142D01*
X1098Y142D01*
X1098Y140D01*
X1100Y140D01*
X1100Y138D01*
X1102Y138D01*
X1102Y136D01*
X1104Y136D01*
X1104Y134D01*
X1106Y134D01*
X1106Y132D01*
X1128Y132D01*
X1128Y134D01*
X1130Y134D01*
X1130Y136D01*
X1132Y136D01*
X1132Y138D01*
X1134Y138D01*
X1134Y140D01*
X1136Y140D01*
X1136Y142D01*
X1138Y142D01*
X1138Y144D01*
X1142Y144D01*
X1142Y164D01*
X1116Y164D01*
X1116Y166D01*
X1090Y166D01*
G37*
D02*
G36*
X1192Y164D02*
X1192Y144D01*
X1196Y144D01*
X1196Y142D01*
X1198Y142D01*
X1198Y140D01*
X1200Y140D01*
X1200Y138D01*
X1202Y138D01*
X1202Y136D01*
X1204Y136D01*
X1204Y134D01*
X1206Y134D01*
X1206Y132D01*
X1228Y132D01*
X1228Y134D01*
X1230Y134D01*
X1230Y136D01*
X1232Y136D01*
X1232Y138D01*
X1234Y138D01*
X1234Y140D01*
X1236Y140D01*
X1236Y142D01*
X1238Y142D01*
X1238Y144D01*
X1242Y144D01*
X1242Y164D01*
X1192Y164D01*
G37*
D02*
G36*
X1300Y144D02*
X1300Y138D01*
X1302Y138D01*
X1302Y136D01*
X1304Y136D01*
X1304Y134D01*
X1306Y134D01*
X1306Y132D01*
X1308Y132D01*
X1308Y130D01*
X1310Y130D01*
X1310Y128D01*
X1312Y128D01*
X1312Y124D01*
X1314Y124D01*
X1314Y120D01*
X1316Y120D01*
X1316Y116D01*
X1318Y116D01*
X1318Y108D01*
X1320Y108D01*
X1320Y92D01*
X1318Y92D01*
X1318Y86D01*
X1316Y86D01*
X1316Y82D01*
X1314Y82D01*
X1314Y78D01*
X1312Y78D01*
X1312Y74D01*
X1310Y74D01*
X1310Y72D01*
X1308Y72D01*
X1308Y70D01*
X1306Y70D01*
X1306Y68D01*
X1304Y68D01*
X1304Y64D01*
X1300Y64D01*
X1300Y62D01*
X1298Y62D01*
X1298Y42D01*
X1396Y42D01*
X1396Y62D01*
X1394Y62D01*
X1394Y68D01*
X1392Y68D01*
X1392Y72D01*
X1390Y72D01*
X1390Y90D01*
X1388Y90D01*
X1388Y92D01*
X1386Y92D01*
X1386Y94D01*
X1382Y94D01*
X1382Y96D01*
X1380Y96D01*
X1380Y98D01*
X1378Y98D01*
X1378Y100D01*
X1374Y100D01*
X1374Y102D01*
X1372Y102D01*
X1372Y104D01*
X1370Y104D01*
X1370Y106D01*
X1366Y106D01*
X1366Y108D01*
X1364Y108D01*
X1364Y110D01*
X1362Y110D01*
X1362Y112D01*
X1358Y112D01*
X1358Y114D01*
X1356Y114D01*
X1356Y116D01*
X1354Y116D01*
X1354Y118D01*
X1352Y118D01*
X1352Y120D01*
X1348Y120D01*
X1348Y122D01*
X1346Y122D01*
X1346Y124D01*
X1344Y124D01*
X1344Y126D01*
X1340Y126D01*
X1340Y128D01*
X1338Y128D01*
X1338Y130D01*
X1336Y130D01*
X1336Y132D01*
X1332Y132D01*
X1332Y134D01*
X1330Y134D01*
X1330Y136D01*
X1328Y136D01*
X1328Y138D01*
X1326Y138D01*
X1326Y140D01*
X1322Y140D01*
X1322Y142D01*
X1320Y142D01*
X1320Y144D01*
X1300Y144D01*
G37*
D02*
G54D23*
X752Y1663D02*
X824Y1663D01*
X748Y1662D02*
X827Y1662D01*
X746Y1661D02*
X830Y1661D01*
X744Y1660D02*
X832Y1660D01*
X742Y1659D02*
X833Y1659D01*
X741Y1658D02*
X835Y1658D01*
X739Y1657D02*
X836Y1657D01*
X738Y1656D02*
X837Y1656D01*
X737Y1655D02*
X838Y1655D01*
X736Y1654D02*
X839Y1654D01*
X735Y1653D02*
X782Y1653D01*
X793Y1653D02*
X840Y1653D01*
X734Y1652D02*
X779Y1652D01*
X796Y1652D02*
X841Y1652D01*
X734Y1651D02*
X777Y1651D01*
X798Y1651D02*
X842Y1651D01*
X733Y1650D02*
X776Y1650D01*
X800Y1650D02*
X842Y1650D01*
X732Y1649D02*
X774Y1649D01*
X801Y1649D02*
X843Y1649D01*
X732Y1648D02*
X773Y1648D01*
X802Y1648D02*
X844Y1648D01*
X731Y1647D02*
X772Y1647D01*
X803Y1647D02*
X844Y1647D01*
X731Y1646D02*
X771Y1646D01*
X804Y1646D02*
X845Y1646D01*
X730Y1645D02*
X771Y1645D01*
X805Y1645D02*
X845Y1645D01*
X730Y1644D02*
X770Y1644D01*
X805Y1644D02*
X845Y1644D01*
X730Y1643D02*
X770Y1643D01*
X806Y1643D02*
X846Y1643D01*
X729Y1642D02*
X769Y1642D01*
X806Y1642D02*
X846Y1642D01*
X729Y1641D02*
X769Y1641D01*
X807Y1641D02*
X846Y1641D01*
X729Y1640D02*
X768Y1640D01*
X807Y1640D02*
X846Y1640D01*
X729Y1639D02*
X768Y1639D01*
X807Y1639D02*
X847Y1639D01*
X729Y1638D02*
X768Y1638D01*
X808Y1638D02*
X847Y1638D01*
X728Y1637D02*
X768Y1637D01*
X808Y1637D02*
X847Y1637D01*
X728Y1636D02*
X767Y1636D01*
X808Y1636D02*
X847Y1636D01*
X728Y1635D02*
X767Y1635D01*
X808Y1635D02*
X847Y1635D01*
X728Y1634D02*
X767Y1634D01*
X808Y1634D02*
X847Y1634D01*
X728Y1633D02*
X767Y1633D01*
X808Y1633D02*
X847Y1633D01*
X728Y1632D02*
X767Y1632D01*
X808Y1632D02*
X847Y1632D01*
X728Y1631D02*
X767Y1631D01*
X808Y1631D02*
X847Y1631D01*
X728Y1630D02*
X768Y1630D01*
X808Y1630D02*
X847Y1630D01*
X729Y1629D02*
X768Y1629D01*
X808Y1629D02*
X847Y1629D01*
X729Y1628D02*
X768Y1628D01*
X807Y1628D02*
X847Y1628D01*
X729Y1627D02*
X768Y1627D01*
X807Y1627D02*
X846Y1627D01*
X729Y1626D02*
X769Y1626D01*
X807Y1626D02*
X846Y1626D01*
X730Y1625D02*
X769Y1625D01*
X806Y1625D02*
X846Y1625D01*
X730Y1624D02*
X770Y1624D01*
X806Y1624D02*
X845Y1624D01*
X730Y1623D02*
X770Y1623D01*
X805Y1623D02*
X845Y1623D01*
X731Y1622D02*
X771Y1622D01*
X804Y1622D02*
X845Y1622D01*
X731Y1621D02*
X772Y1621D01*
X803Y1621D02*
X844Y1621D01*
X732Y1620D02*
X773Y1620D01*
X803Y1620D02*
X844Y1620D01*
X732Y1619D02*
X774Y1619D01*
X802Y1619D02*
X843Y1619D01*
X733Y1618D02*
X775Y1618D01*
X800Y1618D02*
X843Y1618D01*
X733Y1617D02*
X776Y1617D01*
X799Y1617D02*
X842Y1617D01*
X734Y1616D02*
X778Y1616D01*
X797Y1616D02*
X841Y1616D01*
X735Y1615D02*
X781Y1615D01*
X795Y1615D02*
X841Y1615D01*
X736Y1614D02*
X785Y1614D01*
X790Y1614D02*
X840Y1614D01*
X737Y1613D02*
X839Y1613D01*
X738Y1612D02*
X838Y1612D01*
X739Y1611D02*
X837Y1611D01*
X740Y1610D02*
X835Y1610D01*
X741Y1609D02*
X834Y1609D01*
X743Y1608D02*
X832Y1608D01*
X745Y1607D02*
X831Y1607D01*
X747Y1606D02*
X828Y1606D01*
X750Y1605D02*
X826Y1605D01*
X755Y1604D02*
X821Y1604D01*
X751Y1563D02*
X824Y1563D01*
X748Y1562D02*
X827Y1562D01*
X746Y1561D02*
X830Y1561D01*
X744Y1560D02*
X832Y1560D01*
X742Y1559D02*
X833Y1559D01*
X740Y1558D02*
X835Y1558D01*
X739Y1557D02*
X836Y1557D01*
X738Y1556D02*
X837Y1556D01*
X737Y1555D02*
X838Y1555D01*
X736Y1554D02*
X839Y1554D01*
X735Y1553D02*
X782Y1553D01*
X794Y1553D02*
X840Y1553D01*
X734Y1552D02*
X779Y1552D01*
X796Y1552D02*
X841Y1552D01*
X734Y1551D02*
X777Y1551D01*
X798Y1551D02*
X842Y1551D01*
X733Y1550D02*
X776Y1550D01*
X800Y1550D02*
X842Y1550D01*
X732Y1549D02*
X774Y1549D01*
X801Y1549D02*
X843Y1549D01*
X732Y1548D02*
X773Y1548D01*
X802Y1548D02*
X844Y1548D01*
X731Y1547D02*
X772Y1547D01*
X803Y1547D02*
X844Y1547D01*
X731Y1546D02*
X771Y1546D01*
X804Y1546D02*
X845Y1546D01*
X730Y1545D02*
X771Y1545D01*
X805Y1545D02*
X845Y1545D01*
X730Y1544D02*
X770Y1544D01*
X805Y1544D02*
X845Y1544D01*
X730Y1543D02*
X770Y1543D01*
X806Y1543D02*
X846Y1543D01*
X729Y1542D02*
X769Y1542D01*
X806Y1542D02*
X846Y1542D01*
X729Y1541D02*
X769Y1541D01*
X807Y1541D02*
X846Y1541D01*
X729Y1540D02*
X768Y1540D01*
X807Y1540D02*
X847Y1540D01*
X729Y1539D02*
X768Y1539D01*
X807Y1539D02*
X847Y1539D01*
X729Y1538D02*
X768Y1538D01*
X808Y1538D02*
X847Y1538D01*
X728Y1537D02*
X768Y1537D01*
X808Y1537D02*
X847Y1537D01*
X728Y1536D02*
X767Y1536D01*
X808Y1536D02*
X847Y1536D01*
X728Y1535D02*
X767Y1535D01*
X808Y1535D02*
X847Y1535D01*
X728Y1534D02*
X767Y1534D01*
X808Y1534D02*
X847Y1534D01*
X728Y1533D02*
X767Y1533D01*
X808Y1533D02*
X847Y1533D01*
X728Y1532D02*
X767Y1532D01*
X808Y1532D02*
X847Y1532D01*
X728Y1531D02*
X767Y1531D01*
X808Y1531D02*
X847Y1531D01*
X728Y1530D02*
X768Y1530D01*
X808Y1530D02*
X847Y1530D01*
X729Y1529D02*
X768Y1529D01*
X808Y1529D02*
X847Y1529D01*
X729Y1528D02*
X768Y1528D01*
X807Y1528D02*
X847Y1528D01*
X729Y1527D02*
X768Y1527D01*
X807Y1527D02*
X846Y1527D01*
X729Y1526D02*
X769Y1526D01*
X807Y1526D02*
X846Y1526D01*
X730Y1525D02*
X769Y1525D01*
X806Y1525D02*
X846Y1525D01*
X730Y1524D02*
X770Y1524D01*
X805Y1524D02*
X845Y1524D01*
X730Y1523D02*
X770Y1523D01*
X805Y1523D02*
X845Y1523D01*
X731Y1522D02*
X771Y1522D01*
X804Y1522D02*
X845Y1522D01*
X731Y1521D02*
X772Y1521D01*
X803Y1521D02*
X844Y1521D01*
X732Y1520D02*
X773Y1520D01*
X803Y1520D02*
X844Y1520D01*
X732Y1519D02*
X774Y1519D01*
X801Y1519D02*
X843Y1519D01*
X733Y1518D02*
X775Y1518D01*
X800Y1518D02*
X843Y1518D01*
X733Y1517D02*
X776Y1517D01*
X799Y1517D02*
X842Y1517D01*
X734Y1516D02*
X778Y1516D01*
X797Y1516D02*
X841Y1516D01*
X735Y1515D02*
X781Y1515D01*
X795Y1515D02*
X840Y1515D01*
X736Y1514D02*
X786Y1514D01*
X790Y1514D02*
X840Y1514D01*
X737Y1513D02*
X839Y1513D01*
X738Y1512D02*
X838Y1512D01*
X739Y1511D02*
X837Y1511D01*
X740Y1510D02*
X835Y1510D01*
X741Y1509D02*
X834Y1509D01*
X743Y1508D02*
X832Y1508D01*
X745Y1507D02*
X831Y1507D01*
X747Y1506D02*
X828Y1506D01*
X750Y1505D02*
X825Y1505D01*
X755Y1504D02*
X820Y1504D01*
X751Y1463D02*
X824Y1463D01*
X748Y1462D02*
X827Y1462D01*
X745Y1461D02*
X830Y1461D01*
X744Y1460D02*
X832Y1460D01*
X742Y1459D02*
X833Y1459D01*
X740Y1458D02*
X835Y1458D01*
X739Y1457D02*
X836Y1457D01*
X738Y1456D02*
X837Y1456D01*
X737Y1455D02*
X838Y1455D01*
X736Y1454D02*
X839Y1454D01*
X735Y1453D02*
X782Y1453D01*
X794Y1453D02*
X840Y1453D01*
X734Y1452D02*
X779Y1452D01*
X796Y1452D02*
X841Y1452D01*
X734Y1451D02*
X777Y1451D01*
X798Y1451D02*
X842Y1451D01*
X733Y1450D02*
X775Y1450D01*
X800Y1450D02*
X842Y1450D01*
X732Y1449D02*
X774Y1449D01*
X801Y1449D02*
X843Y1449D01*
X732Y1448D02*
X773Y1448D01*
X802Y1448D02*
X844Y1448D01*
X731Y1447D02*
X772Y1447D01*
X803Y1447D02*
X844Y1447D01*
X731Y1446D02*
X771Y1446D01*
X804Y1446D02*
X845Y1446D01*
X730Y1445D02*
X771Y1445D01*
X805Y1445D02*
X845Y1445D01*
X730Y1444D02*
X770Y1444D01*
X805Y1444D02*
X845Y1444D01*
X730Y1443D02*
X769Y1443D01*
X806Y1443D02*
X846Y1443D01*
X729Y1442D02*
X769Y1442D01*
X806Y1442D02*
X846Y1442D01*
X729Y1441D02*
X769Y1441D01*
X807Y1441D02*
X846Y1441D01*
X729Y1440D02*
X768Y1440D01*
X807Y1440D02*
X847Y1440D01*
X729Y1439D02*
X768Y1439D01*
X807Y1439D02*
X847Y1439D01*
X729Y1438D02*
X768Y1438D01*
X808Y1438D02*
X847Y1438D01*
X728Y1437D02*
X768Y1437D01*
X808Y1437D02*
X847Y1437D01*
X728Y1436D02*
X767Y1436D01*
X808Y1436D02*
X847Y1436D01*
X728Y1435D02*
X767Y1435D01*
X808Y1435D02*
X847Y1435D01*
X728Y1434D02*
X767Y1434D01*
X808Y1434D02*
X847Y1434D01*
X728Y1433D02*
X767Y1433D01*
X808Y1433D02*
X847Y1433D01*
X728Y1432D02*
X767Y1432D01*
X808Y1432D02*
X847Y1432D01*
X728Y1431D02*
X767Y1431D01*
X808Y1431D02*
X847Y1431D01*
X728Y1430D02*
X768Y1430D01*
X808Y1430D02*
X847Y1430D01*
X729Y1429D02*
X768Y1429D01*
X808Y1429D02*
X847Y1429D01*
X729Y1428D02*
X768Y1428D01*
X807Y1428D02*
X847Y1428D01*
X729Y1427D02*
X768Y1427D01*
X807Y1427D02*
X846Y1427D01*
X729Y1426D02*
X769Y1426D01*
X807Y1426D02*
X846Y1426D01*
X730Y1425D02*
X769Y1425D01*
X806Y1425D02*
X846Y1425D01*
X730Y1424D02*
X770Y1424D01*
X805Y1424D02*
X845Y1424D01*
X730Y1423D02*
X770Y1423D01*
X805Y1423D02*
X845Y1423D01*
X731Y1422D02*
X771Y1422D01*
X804Y1422D02*
X845Y1422D01*
X731Y1421D02*
X772Y1421D01*
X803Y1421D02*
X844Y1421D01*
X732Y1420D02*
X773Y1420D01*
X803Y1420D02*
X844Y1420D01*
X732Y1419D02*
X774Y1419D01*
X801Y1419D02*
X843Y1419D01*
X733Y1418D02*
X775Y1418D01*
X800Y1418D02*
X843Y1418D01*
X733Y1417D02*
X776Y1417D01*
X799Y1417D02*
X842Y1417D01*
X734Y1416D02*
X778Y1416D01*
X797Y1416D02*
X841Y1416D01*
X735Y1415D02*
X781Y1415D01*
X795Y1415D02*
X840Y1415D01*
X736Y1414D02*
X786Y1414D01*
X790Y1414D02*
X840Y1414D01*
X737Y1413D02*
X839Y1413D01*
X738Y1412D02*
X838Y1412D01*
X739Y1411D02*
X837Y1411D01*
X740Y1410D02*
X835Y1410D01*
X741Y1409D02*
X834Y1409D01*
X743Y1408D02*
X832Y1408D01*
X745Y1407D02*
X830Y1407D01*
X747Y1406D02*
X828Y1406D01*
X750Y1405D02*
X825Y1405D01*
X755Y1404D02*
X820Y1404D01*
D02*
G04 End of Copper1*
M02*