G04 MADE WITH FRITZING*
G04 WWW.FRITZING.ORG*
G04 DOUBLE SIDED*
G04 HOLES PLATED*
G04 CONTOUR ON CENTER OF CONTOUR VECTOR*
%ASAXBY*%
%FSLAX23Y23*%
%MOIN*%
%OFA0B0*%
%SFA1.0B1.0*%
%ADD10C,0.085000*%
%ADD11C,0.135984*%
%ADD12C,0.049370*%
%ADD13C,0.073000*%
%ADD14C,0.088000*%
%ADD15C,0.072992*%
%ADD16C,0.070000*%
%ADD17C,0.140000*%
%ADD18C,0.090000*%
%ADD19R,0.085000X0.085000*%
%ADD20R,0.088000X0.088000*%
%ADD21R,0.072992X0.072992*%
%ADD22R,0.090000X0.090000*%
%ADD23R,0.001000X0.001000*%
%LNMASK1*%
G90*
G70*
G54D10*
X1497Y1110D03*
X1597Y1110D03*
G54D11*
X107Y876D03*
X1677Y878D03*
X1680Y1677D03*
G54D12*
X985Y248D03*
G54D10*
X667Y101D03*
X667Y401D03*
X767Y101D03*
X767Y401D03*
X867Y101D03*
X867Y401D03*
X967Y101D03*
X967Y401D03*
X1067Y101D03*
X1067Y401D03*
X1167Y101D03*
X1167Y401D03*
X1267Y101D03*
X1267Y401D03*
G54D13*
X445Y738D03*
X545Y738D03*
X645Y738D03*
X645Y1038D03*
X545Y1038D03*
X445Y1038D03*
X445Y738D03*
X545Y738D03*
X645Y738D03*
X645Y1038D03*
X545Y1038D03*
X445Y1038D03*
G54D10*
X464Y614D03*
X664Y614D03*
X919Y1014D03*
X1119Y1014D03*
G54D14*
X495Y461D03*
X495Y361D03*
X495Y261D03*
X495Y161D03*
X495Y61D03*
G54D10*
X937Y857D03*
X1037Y857D03*
X1137Y857D03*
G54D14*
X131Y679D03*
X131Y579D03*
X1634Y336D03*
X1634Y236D03*
X1634Y136D03*
G54D10*
X772Y511D03*
X772Y811D03*
X922Y531D03*
X1222Y531D03*
X567Y1233D03*
X567Y1533D03*
X1335Y653D03*
X1635Y653D03*
X1442Y83D03*
X1442Y383D03*
X917Y682D03*
X1217Y682D03*
G54D15*
X1279Y1078D03*
X1279Y1176D03*
G54D10*
X1282Y878D03*
X1482Y878D03*
G54D16*
X788Y1633D03*
X788Y1533D03*
X788Y1433D03*
G54D17*
X1378Y1533D03*
G54D16*
X788Y1633D03*
X788Y1533D03*
X788Y1433D03*
G54D17*
X1378Y1533D03*
G54D18*
X187Y1661D03*
X187Y1464D03*
X187Y1267D03*
G54D10*
X280Y585D03*
X280Y885D03*
G54D19*
X1497Y1110D03*
X667Y101D03*
G54D20*
X495Y461D03*
X131Y679D03*
X1634Y336D03*
G54D21*
X1279Y1078D03*
G54D22*
X187Y1661D03*
G54D23*
X751Y1668D02*
X824Y1668D01*
X748Y1667D02*
X828Y1667D01*
X745Y1666D02*
X830Y1666D01*
X743Y1665D02*
X832Y1665D01*
X741Y1664D02*
X834Y1664D01*
X740Y1663D02*
X836Y1663D01*
X738Y1662D02*
X837Y1662D01*
X737Y1661D02*
X839Y1661D01*
X736Y1660D02*
X840Y1660D01*
X735Y1659D02*
X841Y1659D01*
X733Y1658D02*
X842Y1658D01*
X733Y1657D02*
X843Y1657D01*
X732Y1656D02*
X844Y1656D01*
X731Y1655D02*
X845Y1655D01*
X730Y1654D02*
X845Y1654D01*
X729Y1653D02*
X846Y1653D01*
X729Y1652D02*
X847Y1652D01*
X728Y1651D02*
X847Y1651D01*
X727Y1650D02*
X848Y1650D01*
X727Y1649D02*
X848Y1649D01*
X726Y1648D02*
X782Y1648D01*
X793Y1648D02*
X849Y1648D01*
X726Y1647D02*
X780Y1647D01*
X796Y1647D02*
X849Y1647D01*
X726Y1646D02*
X778Y1646D01*
X797Y1646D02*
X850Y1646D01*
X725Y1645D02*
X777Y1645D01*
X799Y1645D02*
X850Y1645D01*
X725Y1644D02*
X776Y1644D01*
X800Y1644D02*
X850Y1644D01*
X725Y1643D02*
X775Y1643D01*
X800Y1643D02*
X851Y1643D01*
X724Y1642D02*
X774Y1642D01*
X801Y1642D02*
X851Y1642D01*
X724Y1641D02*
X774Y1641D01*
X802Y1641D02*
X851Y1641D01*
X724Y1640D02*
X773Y1640D01*
X802Y1640D02*
X852Y1640D01*
X724Y1639D02*
X773Y1639D01*
X802Y1639D02*
X852Y1639D01*
X724Y1638D02*
X773Y1638D01*
X803Y1638D02*
X852Y1638D01*
X723Y1637D02*
X772Y1637D01*
X803Y1637D02*
X852Y1637D01*
X723Y1636D02*
X772Y1636D01*
X803Y1636D02*
X852Y1636D01*
X723Y1635D02*
X772Y1635D01*
X803Y1635D02*
X852Y1635D01*
X723Y1634D02*
X772Y1634D01*
X803Y1634D02*
X852Y1634D01*
X723Y1633D02*
X772Y1633D01*
X803Y1633D02*
X852Y1633D01*
X723Y1632D02*
X772Y1632D01*
X803Y1632D02*
X852Y1632D01*
X723Y1631D02*
X772Y1631D01*
X803Y1631D02*
X852Y1631D01*
X723Y1630D02*
X773Y1630D01*
X803Y1630D02*
X852Y1630D01*
X724Y1629D02*
X773Y1629D01*
X802Y1629D02*
X852Y1629D01*
X724Y1628D02*
X773Y1628D01*
X802Y1628D02*
X852Y1628D01*
X724Y1627D02*
X774Y1627D01*
X802Y1627D02*
X851Y1627D01*
X724Y1626D02*
X774Y1626D01*
X801Y1626D02*
X851Y1626D01*
X724Y1625D02*
X775Y1625D01*
X801Y1625D02*
X851Y1625D01*
X725Y1624D02*
X775Y1624D01*
X800Y1624D02*
X851Y1624D01*
X725Y1623D02*
X776Y1623D01*
X799Y1623D02*
X850Y1623D01*
X725Y1622D02*
X777Y1622D01*
X798Y1622D02*
X850Y1622D01*
X726Y1621D02*
X779Y1621D01*
X797Y1621D02*
X850Y1621D01*
X726Y1620D02*
X781Y1620D01*
X795Y1620D02*
X849Y1620D01*
X727Y1619D02*
X785Y1619D01*
X791Y1619D02*
X849Y1619D01*
X727Y1618D02*
X848Y1618D01*
X728Y1617D02*
X848Y1617D01*
X728Y1616D02*
X847Y1616D01*
X729Y1615D02*
X846Y1615D01*
X730Y1614D02*
X846Y1614D01*
X731Y1613D02*
X845Y1613D01*
X731Y1612D02*
X844Y1612D01*
X732Y1611D02*
X843Y1611D01*
X733Y1610D02*
X842Y1610D01*
X734Y1609D02*
X841Y1609D01*
X735Y1608D02*
X840Y1608D01*
X736Y1607D02*
X839Y1607D01*
X738Y1606D02*
X838Y1606D01*
X739Y1605D02*
X836Y1605D01*
X740Y1604D02*
X835Y1604D01*
X742Y1603D02*
X833Y1603D01*
X744Y1602D02*
X831Y1602D01*
X747Y1601D02*
X829Y1601D01*
X750Y1600D02*
X826Y1600D01*
X755Y1599D02*
X821Y1599D01*
X751Y1568D02*
X824Y1568D01*
X748Y1567D02*
X828Y1567D01*
X745Y1566D02*
X830Y1566D01*
X743Y1565D02*
X832Y1565D01*
X741Y1564D02*
X834Y1564D01*
X739Y1563D02*
X836Y1563D01*
X738Y1562D02*
X837Y1562D01*
X737Y1561D02*
X839Y1561D01*
X736Y1560D02*
X840Y1560D01*
X734Y1559D02*
X841Y1559D01*
X733Y1558D02*
X842Y1558D01*
X733Y1557D02*
X843Y1557D01*
X732Y1556D02*
X844Y1556D01*
X731Y1555D02*
X845Y1555D01*
X730Y1554D02*
X845Y1554D01*
X729Y1553D02*
X846Y1553D01*
X729Y1552D02*
X847Y1552D01*
X728Y1551D02*
X847Y1551D01*
X727Y1550D02*
X848Y1550D01*
X727Y1549D02*
X848Y1549D01*
X726Y1548D02*
X782Y1548D01*
X793Y1548D02*
X849Y1548D01*
X726Y1547D02*
X780Y1547D01*
X796Y1547D02*
X849Y1547D01*
X726Y1546D02*
X778Y1546D01*
X797Y1546D02*
X850Y1546D01*
X725Y1545D02*
X777Y1545D01*
X799Y1545D02*
X850Y1545D01*
X725Y1544D02*
X776Y1544D01*
X800Y1544D02*
X850Y1544D01*
X725Y1543D02*
X775Y1543D01*
X800Y1543D02*
X851Y1543D01*
X724Y1542D02*
X774Y1542D01*
X801Y1542D02*
X851Y1542D01*
X724Y1541D02*
X774Y1541D01*
X802Y1541D02*
X851Y1541D01*
X724Y1540D02*
X773Y1540D01*
X802Y1540D02*
X852Y1540D01*
X724Y1539D02*
X773Y1539D01*
X802Y1539D02*
X852Y1539D01*
X724Y1538D02*
X773Y1538D01*
X803Y1538D02*
X852Y1538D01*
X723Y1537D02*
X772Y1537D01*
X803Y1537D02*
X852Y1537D01*
X723Y1536D02*
X772Y1536D01*
X803Y1536D02*
X852Y1536D01*
X723Y1535D02*
X772Y1535D01*
X803Y1535D02*
X852Y1535D01*
X723Y1534D02*
X772Y1534D01*
X803Y1534D02*
X852Y1534D01*
X723Y1533D02*
X772Y1533D01*
X803Y1533D02*
X852Y1533D01*
X723Y1532D02*
X772Y1532D01*
X803Y1532D02*
X852Y1532D01*
X723Y1531D02*
X772Y1531D01*
X803Y1531D02*
X852Y1531D01*
X723Y1530D02*
X773Y1530D01*
X803Y1530D02*
X852Y1530D01*
X724Y1529D02*
X773Y1529D01*
X802Y1529D02*
X852Y1529D01*
X724Y1528D02*
X773Y1528D01*
X802Y1528D02*
X852Y1528D01*
X724Y1527D02*
X774Y1527D01*
X802Y1527D02*
X851Y1527D01*
X724Y1526D02*
X774Y1526D01*
X801Y1526D02*
X851Y1526D01*
X724Y1525D02*
X775Y1525D01*
X801Y1525D02*
X851Y1525D01*
X725Y1524D02*
X775Y1524D01*
X800Y1524D02*
X851Y1524D01*
X725Y1523D02*
X776Y1523D01*
X799Y1523D02*
X850Y1523D01*
X725Y1522D02*
X777Y1522D01*
X798Y1522D02*
X850Y1522D01*
X726Y1521D02*
X779Y1521D01*
X796Y1521D02*
X849Y1521D01*
X726Y1520D02*
X781Y1520D01*
X794Y1520D02*
X849Y1520D01*
X727Y1519D02*
X785Y1519D01*
X790Y1519D02*
X849Y1519D01*
X727Y1518D02*
X848Y1518D01*
X728Y1517D02*
X848Y1517D01*
X728Y1516D02*
X847Y1516D01*
X729Y1515D02*
X846Y1515D01*
X730Y1514D02*
X846Y1514D01*
X731Y1513D02*
X845Y1513D01*
X731Y1512D02*
X844Y1512D01*
X732Y1511D02*
X843Y1511D01*
X733Y1510D02*
X842Y1510D01*
X734Y1509D02*
X841Y1509D01*
X735Y1508D02*
X840Y1508D01*
X736Y1507D02*
X839Y1507D01*
X738Y1506D02*
X838Y1506D01*
X739Y1505D02*
X836Y1505D01*
X741Y1504D02*
X835Y1504D01*
X742Y1503D02*
X833Y1503D01*
X744Y1502D02*
X831Y1502D01*
X747Y1501D02*
X829Y1501D01*
X750Y1500D02*
X826Y1500D01*
X755Y1499D02*
X820Y1499D01*
X751Y1468D02*
X824Y1468D01*
X747Y1467D02*
X828Y1467D01*
X745Y1466D02*
X830Y1466D01*
X743Y1465D02*
X832Y1465D01*
X741Y1464D02*
X834Y1464D01*
X739Y1463D02*
X836Y1463D01*
X738Y1462D02*
X837Y1462D01*
X737Y1461D02*
X839Y1461D01*
X736Y1460D02*
X840Y1460D01*
X734Y1459D02*
X841Y1459D01*
X733Y1458D02*
X842Y1458D01*
X732Y1457D02*
X843Y1457D01*
X732Y1456D02*
X844Y1456D01*
X731Y1455D02*
X845Y1455D01*
X730Y1454D02*
X845Y1454D01*
X729Y1453D02*
X846Y1453D01*
X729Y1452D02*
X847Y1452D01*
X728Y1451D02*
X847Y1451D01*
X727Y1450D02*
X848Y1450D01*
X727Y1449D02*
X848Y1449D01*
X726Y1448D02*
X782Y1448D01*
X793Y1448D02*
X849Y1448D01*
X726Y1447D02*
X780Y1447D01*
X796Y1447D02*
X849Y1447D01*
X726Y1446D02*
X778Y1446D01*
X797Y1446D02*
X850Y1446D01*
X725Y1445D02*
X777Y1445D01*
X799Y1445D02*
X850Y1445D01*
X725Y1444D02*
X776Y1444D01*
X800Y1444D02*
X851Y1444D01*
X725Y1443D02*
X775Y1443D01*
X800Y1443D02*
X851Y1443D01*
X724Y1442D02*
X774Y1442D01*
X801Y1442D02*
X851Y1442D01*
X724Y1441D02*
X774Y1441D01*
X802Y1441D02*
X851Y1441D01*
X724Y1440D02*
X773Y1440D01*
X802Y1440D02*
X852Y1440D01*
X724Y1439D02*
X773Y1439D01*
X802Y1439D02*
X852Y1439D01*
X723Y1438D02*
X773Y1438D01*
X803Y1438D02*
X852Y1438D01*
X723Y1437D02*
X772Y1437D01*
X803Y1437D02*
X852Y1437D01*
X723Y1436D02*
X772Y1436D01*
X803Y1436D02*
X852Y1436D01*
X723Y1435D02*
X772Y1435D01*
X803Y1435D02*
X852Y1435D01*
X723Y1434D02*
X772Y1434D01*
X803Y1434D02*
X852Y1434D01*
X723Y1433D02*
X772Y1433D01*
X803Y1433D02*
X852Y1433D01*
X723Y1432D02*
X772Y1432D01*
X803Y1432D02*
X852Y1432D01*
X723Y1431D02*
X772Y1431D01*
X803Y1431D02*
X852Y1431D01*
X723Y1430D02*
X773Y1430D01*
X803Y1430D02*
X852Y1430D01*
X724Y1429D02*
X773Y1429D01*
X802Y1429D02*
X852Y1429D01*
X724Y1428D02*
X773Y1428D01*
X802Y1428D02*
X852Y1428D01*
X724Y1427D02*
X774Y1427D01*
X802Y1427D02*
X851Y1427D01*
X724Y1426D02*
X774Y1426D01*
X801Y1426D02*
X851Y1426D01*
X724Y1425D02*
X775Y1425D01*
X801Y1425D02*
X851Y1425D01*
X725Y1424D02*
X776Y1424D01*
X800Y1424D02*
X851Y1424D01*
X725Y1423D02*
X776Y1423D01*
X799Y1423D02*
X850Y1423D01*
X725Y1422D02*
X778Y1422D01*
X798Y1422D02*
X850Y1422D01*
X726Y1421D02*
X779Y1421D01*
X796Y1421D02*
X849Y1421D01*
X726Y1420D02*
X781Y1420D01*
X794Y1420D02*
X849Y1420D01*
X727Y1419D02*
X786Y1419D01*
X790Y1419D02*
X849Y1419D01*
X727Y1418D02*
X848Y1418D01*
X728Y1417D02*
X847Y1417D01*
X728Y1416D02*
X847Y1416D01*
X729Y1415D02*
X846Y1415D01*
X730Y1414D02*
X846Y1414D01*
X731Y1413D02*
X845Y1413D01*
X731Y1412D02*
X844Y1412D01*
X732Y1411D02*
X843Y1411D01*
X733Y1410D02*
X842Y1410D01*
X734Y1409D02*
X841Y1409D01*
X735Y1408D02*
X840Y1408D01*
X736Y1407D02*
X839Y1407D01*
X738Y1406D02*
X838Y1406D01*
X739Y1405D02*
X836Y1405D01*
X741Y1404D02*
X835Y1404D01*
X742Y1403D02*
X833Y1403D01*
X744Y1402D02*
X831Y1402D01*
X747Y1401D02*
X829Y1401D01*
X750Y1400D02*
X825Y1400D01*
X756Y1399D02*
X820Y1399D01*
D02*
G04 End of Mask1*
M02*